<svg viewBox="0 0 179 34" fill="none" xmlns="http://www.w3.org/2000/svg">
  <g clip-path="url(#clip0_441_44181)">
    <path
      d="M8.17333 2.33337L8 22.3334C8 23.0406 8.28095 23.7189 8.78105 24.219C9.28115 24.7191 9.95942 25 10.6667 25H30.6667"
      stroke="#061425" stroke-width="3" stroke-linecap="round" stroke-linejoin="round"/>
    <path
      d="M1.33325 9.17333L21.3333 9C22.0405 9 22.7188 9.28095 23.2189 9.78105C23.719 10.2811 23.9999 10.9594 23.9999 11.6667V31.6667"
      stroke="#061425" stroke-width="3" stroke-linecap="round" stroke-linejoin="round"/>
  </g>
  <path
    d="M49.62 27.26C54.17 27.26 56.64 24.79 57.55 21.28H53.52C52.87 22.71 51.83 23.75 49.62 23.75C46.89 23.75 44.94 21.8 44.94 17.9C44.94 14 46.89 12.05 49.62 12.05C51.83 12.05 52.87 13.09 53.52 14.52H57.55C56.64 11.01 54.17 8.54 49.62 8.54C44.42 8.54 41.04 11.92 41.04 17.9C41.04 23.88 44.42 27.26 49.62 27.26ZM59.892 27H63.532V20.11C63.532 18.03 64.832 16.73 67.042 16.73H68.472V13.22H66.782C65.482 13.22 64.312 13.61 63.532 14.78H63.402L63.012 13.22H59.892V27ZM76.0313 27.26C80.1913 27.26 82.7913 24.66 82.7913 20.11C82.7913 15.56 80.1913 12.96 76.0313 12.96C71.8713 12.96 69.2713 15.56 69.2713 20.11C69.2713 24.66 71.8713 27.26 76.0313 27.26ZM76.0313 24.01C74.3413 24.01 72.9113 22.84 72.9113 20.11C72.9113 17.38 74.3413 16.21 76.0313 16.21C77.7213 16.21 79.1513 17.38 79.1513 20.11C79.1513 22.84 77.7213 24.01 76.0313 24.01ZM85.2573 32.2H88.8973V25.57H89.0273C89.5473 26.22 90.7173 27.26 92.7973 27.26C96.3073 27.26 98.7773 24.79 98.7773 20.11C98.7773 15.43 96.3073 12.96 92.7973 12.96C90.8473 12.96 89.6773 13.87 88.8973 14.78H88.7673L88.3773 13.22H85.2573V32.2ZM92.0173 24.01C90.3273 24.01 88.8973 22.84 88.8973 20.11C88.8973 17.38 90.3273 16.21 92.0173 16.21C93.7073 16.21 95.1373 17.38 95.1373 20.11C95.1373 22.84 93.7073 24.01 92.0173 24.01ZM102.683 27.13C103.853 27.13 104.763 26.22 104.763 25.05C104.763 23.88 103.853 22.97 102.683 22.97C101.513 22.97 100.603 23.88 100.603 25.05C100.603 26.22 101.513 27.13 102.683 27.13ZM107.246 32.2H110.886V25.57H111.016C111.536 26.22 112.706 27.26 114.786 27.26C118.296 27.26 120.766 24.79 120.766 20.11C120.766 15.43 118.296 12.96 114.786 12.96C112.836 12.96 111.666 13.87 110.886 14.78H110.756L110.366 13.22H107.246V32.2ZM114.006 24.01C112.316 24.01 110.886 22.84 110.886 20.11C110.886 17.38 112.316 16.21 114.006 16.21C115.696 16.21 117.126 17.38 117.126 20.11C117.126 22.84 115.696 24.01 114.006 24.01ZM123.372 27H127.012V19.07C127.012 17.38 128.052 16.21 129.612 16.21C131.172 16.21 132.082 17.25 132.082 19.07V27H135.722V18.55C135.722 15.04 133.642 12.96 130.652 12.96C129.092 12.96 128.052 13.61 127.142 14.65H127.012V8.8H123.372V27ZM144.815 27.26C148.975 27.26 151.575 24.66 151.575 20.11C151.575 15.56 148.975 12.96 144.815 12.96C140.655 12.96 138.055 15.56 138.055 20.11C138.055 24.66 140.655 27.26 144.815 27.26ZM144.815 24.01C143.125 24.01 141.695 22.84 141.695 20.11C141.695 17.38 143.125 16.21 144.815 16.21C146.505 16.21 147.935 17.38 147.935 20.11C147.935 22.84 146.505 24.01 144.815 24.01ZM159.5 27H162.1V23.62H160.15C159.37 23.62 158.85 23.1 158.85 22.32V16.6H162.1V13.22H158.85V9.58H155.73L155.21 13.22H153V16.6H155.21V22.97C155.21 25.57 156.64 27 159.5 27ZM170.561 27.26C174.721 27.26 177.321 24.66 177.321 20.11C177.321 15.56 174.721 12.96 170.561 12.96C166.401 12.96 163.801 15.56 163.801 20.11C163.801 24.66 166.401 27.26 170.561 27.26ZM170.561 24.01C168.871 24.01 167.441 22.84 167.441 20.11C167.441 17.38 168.871 16.21 170.561 16.21C172.251 16.21 173.681 17.38 173.681 20.11C173.681 22.84 172.251 24.01 170.561 24.01Z"
    fill="#061425"/>
  <defs>
    <clipPath id="clip0_441_44181">
      <rect width="32" height="32" fill="white" transform="translate(0 1)"/>
    </clipPath>
  </defs>
</svg>
