<svg width="126" height="30" viewBox="0 0 126 30" fill="none" xmlns="http://www.w3.org/2000/svg">
<g clip-path="url(#clip0_476_39716)">
<path d="M32.2949 22.3398V2.49609H44.0658V4.99256H34.7358V11.0897H43.1184V13.5862H34.7358V19.8114H44.7242V22.3078H32.2949V22.3398Z" fill="#64748B"/>
<path d="M57.0891 22.3407L53.0423 17.0597L48.9956 22.3407H46.1371L51.6613 15.2833L45.832 8.00195H49.0437L53.0262 13.459L57.073 8.00195H60.2205L54.6963 15.2833L59.9314 22.3407H57.0891Z" fill="#64748B"/>
<path d="M63.8647 20.2108V29.9887H61.4238V15.3459C61.4238 11.6172 64.2822 7.64844 68.7305 7.64844C73.2429 7.64844 76.6473 10.497 76.6473 15.1699C76.6473 19.7307 73.1947 22.8673 69.2764 22.8673C67.3815 22.8673 64.8122 22.0512 63.8647 20.2108ZM74.094 15.1699C74.094 11.9693 72.0064 10.0809 68.329 10.2569C66.5465 10.3209 63.8165 11.6172 64.0414 16.1781C64.1056 17.6663 65.6472 20.4509 69.0356 20.4509C71.9582 20.4509 74.094 18.7865 74.094 15.1699Z" fill="#64748B"/>
<path d="M78.7363 22.34V8.00132H81.1772V9.53761C82.3656 8.17736 84.2123 7.69727 86.1714 7.69727V10.3058C85.8663 10.2417 82.9597 9.88968 81.1772 13.6824V22.388H78.7363V22.34Z" fill="#64748B"/>
<path d="M86.8301 15.1699C86.8301 11.0251 89.8009 7.64844 93.9119 7.64844C99.0185 7.64844 100.929 11.0251 100.929 15.3459V16.5301H89.5118C89.6885 19.2506 92.1294 20.6749 94.3936 20.6269C96.0637 20.5629 97.1878 20.0988 98.3762 18.9146L99.982 20.5789C98.4886 22.0032 96.5937 22.9473 94.2812 22.9473C89.9133 22.8673 86.8301 19.6667 86.8301 15.1699ZM93.7192 10.0809C91.4068 10.0809 89.6082 12.0973 89.4958 14.2897H98.3601C98.3601 12.1453 96.8185 10.0809 93.7192 10.0809Z" fill="#64748B"/>
<path d="M102.166 20.3235L103.949 18.7232C103.884 18.7232 104.848 19.6674 104.96 19.7314C105.378 20.0834 105.795 20.3235 106.325 20.4355C107.867 20.8516 110.661 20.7396 110.902 18.5951C111.014 17.4109 110.131 16.7548 109.119 16.3387C107.819 15.8586 106.389 15.6826 105.073 15.0905C103.579 14.4344 102.632 13.3142 102.632 11.6498C102.632 7.32902 108.814 6.60889 111.608 8.62527C111.721 8.73729 113.102 9.98552 113.038 9.98552L111.255 11.4098C110.356 10.3376 109.537 9.80949 107.626 9.80949C106.678 9.80949 105.362 10.2256 105.121 11.2338C104.767 12.658 106.373 13.1861 107.433 13.4902C108.862 13.8423 110.404 14.0823 111.657 14.8504C113.375 15.9226 113.792 18.2271 113.15 20.0034C112.443 21.9558 110.292 22.7239 108.397 22.7879C106.149 22.932 104.189 22.2278 102.584 20.6275C102.455 20.6275 102.166 20.3235 102.166 20.3235Z" fill="#64748B"/>
<path d="M114.707 20.3235L116.49 18.7232C116.425 18.7232 117.389 19.6674 117.501 19.7314C117.919 20.0834 118.336 20.3235 118.866 20.4355C120.408 20.8516 123.202 20.7396 123.443 18.5951C123.555 17.4109 122.672 16.7548 121.66 16.3387C120.36 15.8586 118.93 15.6826 117.614 15.0905C116.12 14.4344 115.173 13.3142 115.173 11.6498C115.173 7.32902 121.355 6.60889 124.149 8.62527C124.262 8.73729 125.643 9.98552 125.579 9.98552L123.796 11.4098C122.897 10.3376 122.078 9.80949 120.167 9.80949C119.219 9.80949 117.903 10.2256 117.662 11.2338C117.309 12.658 118.914 13.1861 119.974 13.4902C121.403 13.8423 122.945 14.0823 124.198 14.8504C125.916 15.9226 126.333 18.2271 125.691 20.0034C124.984 21.9558 122.833 22.7239 120.938 22.7879C118.673 22.9 116.714 22.1958 115.108 20.5955C115.012 20.6275 114.707 20.3235 114.707 20.3235Z" fill="#64748B"/>
<path d="M15.7534 22.3402L13.9709 17.6033H4.3358L2.55331 22.3402H0L7.72415 2.48047H10.5183L18.1943 22.3402H15.7534ZM9.04095 5.32901L5.41172 15.1709H12.9592L9.04095 5.32901Z" fill="#64748B"/>
<path d="M19.7988 22.3398V2.49609H22.304V22.3558H19.7988V22.3398Z" fill="#64748B"/>
<path d="M26.0469 22.3397V8.28906H28.552V22.3397H26.0469Z" fill="#64748B"/>
<path d="M30.929 3.72833C30.929 3.66431 30.929 3.66431 30.929 3.61631C30.929 3.55229 30.929 3.55229 30.929 3.50428C29.0341 3.44027 27.4764 1.90398 27.4283 0.015625C27.364 0.015625 27.3159 0.015625 27.2516 0.015625C27.1874 0.015625 27.1392 0.015625 27.075 0.015625C27.0107 1.90398 25.4691 3.45628 23.5742 3.50428C23.5742 3.5683 23.5742 3.5683 23.5742 3.61631C23.5742 3.68032 23.5742 3.68032 23.5742 3.72833C25.4691 3.79234 27.0268 5.32863 27.075 7.21699C27.1392 7.21699 27.1874 7.21699 27.2516 7.21699C27.3159 7.21699 27.364 7.21699 27.4283 7.21699C27.4764 5.32863 29.0181 3.79234 30.929 3.72833Z" fill="#64748B"/>
</g>
<defs>
<clipPath id="clip0_476_39716">
<rect width="126" height="30" fill="white"/>
</clipPath>
</defs>
</svg>
