<svg width="16" height="16" viewBox="0 0 16 16" fill="none" xmlns="http://www.w3.org/2000/svg">
<path fill-rule="evenodd" clip-rule="evenodd" d="M9.33054 6.65057C9.3305 6.61638 9.33046 6.58194 9.33046 6.54724V6.12569C7.92339 6.12569 6.43705 6.42676 6.43705 8.08561C6.43705 8.92594 6.87228 9.49532 7.6196 9.49532C8.16706 9.49532 8.65704 9.15864 8.96637 8.61114C9.33207 7.96861 9.33137 7.36343 9.33054 6.65057ZM11.2931 11.2911C11.2931 11.2911 11.2931 11.291 11.2931 11.291H11.2931L11.2931 11.2911ZM10.8332 11.3375C10.9783 11.4142 11.1644 11.406 11.2931 11.2911L11.2985 11.2965C11.6872 10.9516 12.3934 10.3357 12.7904 10.0045C12.9491 9.87313 12.9217 9.6623 12.7958 9.48713C12.7577 9.43427 12.7193 9.38249 12.6811 9.33104C12.3633 8.90276 12.0622 8.49698 12.0622 7.68322V4.65026C12.0622 4.54663 12.0628 4.44368 12.0634 4.34151C12.0701 3.17792 12.0762 2.11531 11.2055 1.30255C10.4581 0.585353 9.22088 0.333496 8.27374 0.333496C6.42332 0.333496 4.35669 1.02335 3.92146 3.3117C3.87767 3.55536 4.05284 3.68397 4.21157 3.71963L6.10037 3.92215C6.27555 3.91396 6.40416 3.7415 6.43705 3.56627C6.59855 2.77792 7.261 2.39745 8.00279 2.39745C8.40247 2.39745 8.85686 2.54528 9.09504 2.90388C9.33822 3.26253 9.33452 3.74024 9.33121 4.16885C9.33083 4.21782 9.33046 4.26615 9.33046 4.31359V4.56544C9.14834 4.58621 8.95715 4.60577 8.76013 4.62592C7.73707 4.73057 6.55659 4.85131 5.67057 5.24156C4.45253 5.76709 3.59569 6.84289 3.59569 8.42229C3.59569 10.4452 4.87131 11.4552 6.50825 11.4552C7.89333 11.4552 8.64885 11.1295 9.71641 10.0401C9.77269 10.121 9.82295 10.1954 9.87023 10.2654C10.1219 10.6379 10.2894 10.8859 10.8332 11.3375ZM1.2916 11.5271C3.70864 13.0007 7.44999 15.2817 13.4132 12.4438H13.4131C13.6701 12.3365 13.8497 12.5156 13.5954 12.8403C13.3394 13.1677 11.2929 15.0447 7.8528 15.0447C4.41508 15.0447 1.78139 12.6961 0.977755 11.7217C0.757632 11.4689 1.01134 11.3547 1.1606 11.4473C1.20383 11.4736 1.24749 11.5002 1.2916 11.5271ZM13.6056 11.3142C14.127 11.2501 14.9554 11.2897 15.1185 11.502H15.1184C15.2424 11.6637 15.1143 12.3903 14.9044 12.9112C14.6929 13.4293 14.3779 13.7954 14.2039 13.9368C14.0274 14.0782 13.8976 14.0234 13.9916 13.8111C14.0888 13.5988 14.6211 12.2822 14.4102 12.0058C14.2147 11.7504 13.3282 11.8429 12.9164 11.8858C12.8857 11.889 12.8577 11.8919 12.8328 11.8944C12.7458 11.9023 12.6757 11.9101 12.6189 11.9164C12.4416 11.9362 12.3943 11.9415 12.3678 11.8871C12.2996 11.6955 13.0834 11.3764 13.6056 11.3142Z" fill="#061425"/>
</svg>
