<svg width="93" height="28" viewBox="0 0 93 28" fill="none" xmlns="http://www.w3.org/2000/svg">
<g clip-path="url(#clip0_476_39339)">
<path fill-rule="evenodd" clip-rule="evenodd" d="M57.695 21.8978C52.2906 25.8776 44.4573 28.0009 37.713 28.0009C28.2563 28.0009 19.7429 24.5065 13.3021 18.6946C12.7961 18.2375 13.2495 17.6147 13.8567 17.9706C20.8075 22.011 29.4019 24.4418 38.2797 24.4418C44.267 24.4418 50.8535 23.2042 56.9097 20.6359C57.8246 20.2476 58.5897 21.2345 57.695 21.8978Z" fill="#FF9900"/>
<path fill-rule="evenodd" clip-rule="evenodd" d="M59.9418 19.328C59.2536 18.4463 55.3754 18.9115 53.6346 19.1177C53.1043 19.1824 53.0233 18.7214 53.501 18.3897C56.5898 16.2178 61.6582 16.8447 62.2492 17.5727C62.8403 18.3048 62.0954 23.3806 59.1928 25.8033C58.7475 26.1753 58.3225 25.9772 58.5208 25.4837C59.1726 23.8579 60.634 20.2138 59.9418 19.328Z" fill="#FF9900"/>
<path fill-rule="evenodd" clip-rule="evenodd" d="M53.7572 3.0572V0.945981C53.7572 0.626467 54.0001 0.412109 54.2915 0.412109H63.7522C64.0559 0.412109 64.2988 0.630512 64.2988 0.945981V2.75387C64.2947 3.0572 64.0397 3.45356 63.5863 4.08046L58.6839 11.0734C60.5056 11.0289 62.4285 11.2999 64.0801 12.2301C64.4526 12.4404 64.5538 12.7478 64.5821 13.0511V15.3039C64.5821 15.6113 64.2421 15.9712 63.8858 15.7852C60.9752 14.2604 57.1091 14.0946 53.8908 15.8014C53.5628 15.9793 53.2188 15.6234 53.2188 15.316V13.1765C53.2188 12.8327 53.2228 12.2463 53.5669 11.7245L59.2466 3.58703H54.3037C54.0001 3.58703 53.7572 3.37267 53.7572 3.0572Z" fill="#061425"/>
<path fill-rule="evenodd" clip-rule="evenodd" d="M19.244 16.2296H16.3657C16.0904 16.2094 15.8718 16.0031 15.8516 15.7402V0.981881C15.8516 0.686633 16.0985 0.452051 16.4062 0.452051H19.0901C19.3695 0.464177 19.5921 0.678542 19.6124 0.945478V2.8747H19.665C20.3653 1.01019 21.681 0.140625 23.4541 0.140625C25.2556 0.140625 26.381 1.01019 27.1907 2.8747C27.887 1.01019 29.4698 0.140625 31.166 0.140625C32.3724 0.140625 33.6921 0.638097 34.4977 1.75437C35.4086 2.99603 35.2223 4.79987 35.2223 6.38127L35.2183 15.6957C35.2183 15.991 34.9714 16.2296 34.6637 16.2296H31.7894C31.502 16.2094 31.2713 15.9788 31.2713 15.6957V7.87368C31.2713 7.25083 31.3279 5.69775 31.1903 5.10725C30.9758 4.11636 30.3321 3.83728 29.4981 3.83728C28.8019 3.83728 28.0732 4.3024 27.7776 5.04659C27.4821 5.79077 27.5105 7.03647 27.5105 7.87368V15.6957C27.5105 15.991 27.2635 16.2296 26.9559 16.2296H24.0816C23.7901 16.2094 23.5634 15.9788 23.5634 15.6957L23.5594 7.87368C23.5594 6.22758 23.8306 3.80493 21.7863 3.80493C19.7176 3.80493 19.7986 6.16691 19.7986 7.87368V15.6957C19.7986 15.991 19.5516 16.2296 19.244 16.2296" fill="#061425"/>
<path fill-rule="evenodd" clip-rule="evenodd" d="M72.444 0.140625C76.7148 0.140625 79.0264 3.80493 79.0264 8.46418C79.0264 12.9657 76.472 16.537 72.444 16.537C68.25 16.537 65.9668 12.8727 65.9668 8.30644C65.9668 3.71191 68.2783 0.140625 72.444 0.140625ZM72.4683 3.15377C70.347 3.15377 70.2134 6.04153 70.2134 7.84133C70.2134 9.64517 70.1851 13.4955 72.444 13.4955C74.6745 13.4955 74.7798 10.3894 74.7798 8.49653C74.7798 7.25083 74.7272 5.76246 74.3507 4.58147C74.0268 3.55417 73.3832 3.15377 72.4683 3.15377Z" fill="#061425"/>
<path fill-rule="evenodd" clip-rule="evenodd" d="M84.5641 16.2296H81.698C81.4106 16.2094 81.1798 15.9788 81.1798 15.6957L81.1758 0.933344C81.2001 0.662364 81.4389 0.452051 81.7304 0.452051H84.3982C84.6492 0.464177 84.8556 0.634053 84.9123 0.864589V3.12141H84.9649C85.7705 1.10321 86.9 0.140625 88.8877 0.140625C90.179 0.140625 91.438 0.605742 92.2477 1.87975C93.0007 3.06074 93.0007 5.04659 93.0007 6.47429V15.7645C92.9683 16.0233 92.7294 16.2296 92.4461 16.2296H89.5597C89.2965 16.2094 89.0779 16.0152 89.0496 15.7645V7.7483C89.0496 6.13455 89.2358 3.77257 87.2481 3.77257C86.5478 3.77257 85.9041 4.24174 85.5843 4.95356C85.1795 5.85549 85.1269 6.75336 85.1269 7.7483V15.6957C85.1228 15.991 84.8718 16.2296 84.5642 16.2296" fill="#061425"/>
<path fill-rule="evenodd" clip-rule="evenodd" d="M46.2154 9.18101C46.2154 10.3013 46.2438 11.2356 45.677 12.2305C45.2196 13.0394 44.4909 13.5369 43.6853 13.5369C42.5801 13.5369 41.9324 12.6957 41.9324 11.454C41.9324 9.00305 44.1306 8.55816 46.2154 8.55816V9.18101ZM49.118 16.1901C48.9277 16.36 48.6525 16.3721 48.4379 16.2589C47.4825 15.4661 47.3084 15.0981 46.7862 14.3418C45.2074 15.9515 44.086 16.4328 42.0417 16.4328C39.6168 16.4328 37.7344 14.9404 37.7344 11.9515C37.7344 9.61781 38.9974 8.02833 40.8029 7.25179C42.3656 6.56422 44.5475 6.44289 46.2154 6.2528V5.88071C46.2154 5.19719 46.268 4.38829 45.8632 3.7978C45.5151 3.26797 44.8431 3.04957 44.248 3.04957C43.1509 3.04957 42.1753 3.61175 41.9364 4.77656C41.8879 5.03541 41.6976 5.29021 41.4345 5.30235L38.6452 5.00305C38.4104 4.95048 38.1473 4.76038 38.2161 4.40043C38.8557 1.01924 41.9162 2.28882e-05 44.6528 2.28882e-05C46.0535 2.28882e-05 47.8833 0.372116 48.9885 1.43177C50.3891 2.73814 50.2556 4.48131 50.2556 6.37818V10.8595C50.2556 12.2063 50.8142 12.7968 51.3405 13.5248C51.5226 13.7836 51.5631 14.0951 51.3283 14.2892C50.7413 14.7786 49.6969 15.6886 49.122 16.1982L49.118 16.1901" fill="#061425"/>
<path fill-rule="evenodd" clip-rule="evenodd" d="M8.48104 9.1812C8.48104 10.3015 8.50938 11.2358 7.94263 12.2307C7.48518 13.0396 6.76054 13.5371 5.9509 13.5371C4.84573 13.5371 4.20206 12.6959 4.20206 11.4542C4.20206 9.00324 6.40025 8.55835 8.48104 8.55835V9.1812ZM11.3836 16.1903C11.1934 16.3602 10.9181 16.3723 10.7035 16.259C9.74814 15.4663 9.57811 15.0983 9.05184 14.342C7.47303 15.9517 6.35572 16.433 4.30732 16.433C1.88647 16.433 0 14.9405 0 11.9517C0 9.618 1.2671 8.02852 3.06856 7.25198C4.63117 6.56441 6.81317 6.44308 8.48104 6.25299V5.8809C8.48104 5.19738 8.53367 4.38848 8.13289 3.79799C7.7807 3.26816 7.10869 3.04976 6.51765 3.04976C5.42058 3.04976 4.44091 3.61194 4.20206 4.77675C4.15348 5.0356 3.96322 5.2904 3.70413 5.30254L0.910852 5.00324C0.676054 4.95067 0.416967 4.76057 0.481739 4.40062C1.12541 1.01943 4.18182 0.000213623 6.91843 0.000213623C8.31911 0.000213623 10.1489 0.372307 11.2541 1.43196C12.6548 2.73833 12.5212 4.4815 12.5212 6.37837V10.8597C12.5212 12.2065 13.0798 12.797 13.6061 13.525C13.7923 13.7838 13.8328 14.0952 13.598 14.2894C13.011 14.7788 11.9666 15.6888 11.3917 16.1984L11.3836 16.1903" fill="#061425"/>
</g>
<defs>
<clipPath id="clip0_476_39339">
<rect width="93" height="28" fill="white"/>
</clipPath>
</defs>
</svg>
