<svg width="18" height="18" viewBox="0 0 18 18" fill="none" xmlns="http://www.w3.org/2000/svg">
  <path fill-rule="evenodd" clip-rule="evenodd" d="M8.99984 0.666992C4.39746 0.666992 0.666504 4.39795 0.666504 9.00033C0.666504 13.6027 4.39746 17.3337 8.99984 17.3337C13.6022 17.3337 17.3332 13.6027 17.3332 9.00033C17.3332 6.79019 16.4552 4.67057 14.8924 3.10777C13.3296 1.54497 11.21 0.666992 8.99984 0.666992ZM9.83317 11.917C9.83317 12.1471 9.64662 12.3337 9.4165 12.3337H8.58317C8.35305 12.3337 8.1665 12.1471 8.1665 11.917V9.41699C8.1665 9.18687 8.35305 9.00033 8.58317 9.00033H9.4165C9.64662 9.00033 9.83317 9.18687 9.83317 9.41699V11.917ZM9.4165 7.33366C9.64662 7.33366 9.83317 7.14711 9.83317 6.91699V6.08366C9.83317 5.85354 9.64662 5.66699 9.4165 5.66699H8.58317C8.35305 5.66699 8.1665 5.85354 8.1665 6.08366V6.91699C8.1665 7.14711 8.35305 7.33366 8.58317 7.33366H9.4165Z" fill="#798088"/>
</svg>