<svg width="13" height="16" viewBox="0 0 18 21" fill="none" xmlns="http://www.w3.org/2000/svg">
<path fill-rule="evenodd" clip-rule="evenodd" d="M9.34617 5.56481C9.45941 5.66462 9.61044 5.7103 9.76001 5.68997C10.7611 5.50537 11.6566 4.95234 12.27 4.13997C12.8664 3.38728 13.2156 2.46873 13.27 1.50997C13.2745 1.35109 13.2046 1.19921 13.0811 1.09921C12.9576 0.999201 12.7945 0.962508 12.64 0.999969C11.6751 1.25193 10.8121 1.79697 10.17 2.55997C9.55994 3.29704 9.20863 4.21395 9.17001 5.16997C9.16864 5.32091 9.23292 5.465 9.34617 5.56481ZM16.7025 8.22549C16.1109 8.78066 15.18 9.65425 15.18 11.51C15.1661 13.1669 16.076 14.6938 17.54 15.47C17.7211 15.5518 17.8382 15.7313 17.84 15.93C17.84 16 15.74 21 13.22 21C12.6683 21 12.3006 20.8261 11.8979 20.6357C11.41 20.405 10.8705 20.15 9.89001 20.15C8.9236 20.15 8.38276 20.3977 7.88507 20.6257C7.46094 20.82 7.06815 21 6.47001 21C4.15001 21 1.00001 16.14 1.00001 11.75C0.960147 10.51 1.26846 9.28365 1.89001 8.20997C2.76661 6.7243 4.32762 5.77494 6.05001 5.67997C6.86168 5.67997 7.52612 5.91887 8.1546 6.14484C8.71856 6.34761 9.25356 6.53997 9.84001 6.53997C10.3999 6.53997 10.8517 6.36465 11.3473 6.17233C11.9495 5.9387 12.6163 5.67997 13.62 5.67997C15.45 5.67997 17.18 6.99997 17.18 7.58997C17.18 7.77744 16.9781 7.96693 16.7025 8.22549Z" fill="black"/>
</svg>
