<svg width="14" height="16" viewBox="0 0 14 16" fill="none" xmlns="http://www.w3.org/2000/svg">
<path d="M7.5 0C7.77615 0 8 0.223858 8 0.5V12.67L12.44 8.22C12.5339 8.12534 12.6617 8.0721 12.795 8.0721C12.9283 8.0721 13.0561 8.12534 13.15 8.22L13.85 8.93C13.9447 9.02388 13.9979 9.15168 13.9979 9.285C13.9979 9.41832 13.9447 9.54612 13.85 9.64L7.72001 15.78C7.57949 15.9207 7.38885 15.9998 7.19 16H6.81C6.61159 15.9977 6.42173 15.9189 6.28 15.78L0.150005 9.64C0.0553486 9.54612 0.00210571 9.41832 0.00210571 9.285C0.00210571 9.15168 0.0553486 9.02388 0.150005 8.93L0.860005 8.22C0.952168 8.12594 1.07832 8.07293 1.21 8.07293C1.34169 8.07293 1.46784 8.12594 1.56 8.22L6 12.67V0.5C6 0.223858 6.22386 0 6.5 0H7.5Z" fill="white"/>
</svg>
