<svg width="11" height="12" viewBox="0 0 11 12" fill="none" xmlns="http://www.w3.org/2000/svg">
<path d="M5.83258 0.666748C6.01668 0.666748 6.16592 0.815986 6.16592 1.00008V9.11341L9.12592 6.14675C9.18851 6.08364 9.2737 6.04815 9.36258 6.04815C9.45146 6.04815 9.53666 6.08364 9.59925 6.14675L10.0659 6.62008C10.129 6.68267 10.1645 6.76787 10.1645 6.85675C10.1645 6.94563 10.129 7.03083 10.0659 7.09341L5.97925 11.1867C5.88557 11.2805 5.75848 11.3333 5.62592 11.3334H5.37258C5.24031 11.3319 5.11373 11.2793 5.01925 11.1867L0.932584 7.09341C0.86948 7.03083 0.833984 6.94563 0.833984 6.85675C0.833984 6.76787 0.86948 6.68267 0.932584 6.62008L1.40592 6.14675C1.46736 6.08404 1.55146 6.0487 1.63925 6.0487C1.72704 6.0487 1.81114 6.08404 1.87258 6.14675L4.83258 9.11341V1.00008C4.83258 0.815986 4.98182 0.666748 5.16592 0.666748H5.83258Z" fill="#0038FF"/>
</svg>
