<svg width="14" height="18" viewBox="0 0 14 18" fill="none" xmlns="http://www.w3.org/2000/svg">
<path fill-rule="evenodd" clip-rule="evenodd" d="M12.7335 11.4L13.4252 12.0917C13.5791 12.2469 13.6659 12.4564 13.6668 12.675V13.1667C13.6668 13.6269 13.2937 14 12.8335 14H1.16683C0.706592 14 0.333496 13.6269 0.333496 13.1667V12.675C0.334417 12.4564 0.421209 12.2469 0.575163 12.0917L1.26683 11.4C1.7358 10.9316 1.99958 10.2962 2.00016 9.63335V7.33335C2.00016 6.2515 2.35105 5.19883 3.00016 4.33335L3.75016 3.33335C4.2223 2.70384 4.96327 2.33335 5.75016 2.33335H6.16683V1.08335C6.16683 0.853235 6.35338 0.666687 6.5835 0.666687H7.41683C7.64695 0.666687 7.8335 0.853235 7.8335 1.08335V2.33335H8.25016C9.03706 2.33335 9.77803 2.70384 10.2502 3.33335L11.0002 4.33335C11.6493 5.19883 12.0002 6.2515 12.0002 7.33335V9.63335C12.0007 10.2962 12.2645 10.9316 12.7335 11.4ZM7.00016 17.3334C7.92064 17.3334 8.66683 16.5872 8.66683 15.6667H5.3335C5.3335 16.5872 6.07969 17.3334 7.00016 17.3334Z" fill="#061425"/>
</svg>
