<svg width="18" height="14" viewBox="0 0 18 14" fill="none" xmlns="http://www.w3.org/2000/svg">
<path fill-rule="evenodd" clip-rule="evenodd" d="M17.3334 1.99967C17.3334 1.0792 16.5872 0.333008 15.6667 0.333008H2.33341C1.41294 0.333008 0.666748 1.0792 0.666748 1.99967V11.9997C0.666748 12.9201 1.41294 13.6663 2.33341 13.6663H15.6667C16.5872 13.6663 17.3334 12.9201 17.3334 11.9997V1.99967ZM7.33341 10.7497C7.33341 10.9798 7.14687 11.1663 6.91675 11.1663H4.41675C4.18663 11.1663 4.00008 10.9798 4.00008 10.7497V9.91634C4.00008 9.68622 4.18663 9.49967 4.41675 9.49967H6.91675C7.14687 9.49967 7.33341 9.68622 7.33341 9.91634V10.7497ZM15.2501 6.99967C15.4802 6.99967 15.6667 6.81313 15.6667 6.58301V4.91634C15.6667 4.68622 15.4802 4.49967 15.2501 4.49967H2.75008C2.51996 4.49967 2.33341 4.68622 2.33341 4.91634V6.58301C2.33341 6.81313 2.51996 6.99967 2.75008 6.99967H15.2501Z" fill="#061425"/>
</svg>
