<svg width="14" height="14" viewBox="0 0 14 14" fill="none" xmlns="http://www.w3.org/2000/svg">
  <path fill-rule="evenodd" clip-rule="evenodd"
        d="M0.333252 7C0.333252 3.3181 3.31802 0.333328 6.99992 0.333328C8.76803 0.333328 10.4637 1.03571 11.714 2.28595C12.9642 3.53619 13.6666 5.23188 13.6666 7C13.6666 10.6819 10.6818 13.6667 6.99992 13.6667C3.31802 13.6667 0.333252 10.6819 0.333252 7ZM1.66659 6.99999C1.66659 9.94551 4.0544 12.3333 6.99992 12.3333C8.41441 12.3333 9.77096 11.7714 10.7712 10.7712C11.7713 9.77104 12.3333 8.41448 12.3333 6.99999C12.3333 4.05448 9.94544 1.66666 6.99992 1.66666C4.0544 1.66666 1.66659 4.05448 1.66659 6.99999ZM7.66659 7.33333C7.66659 7.14923 7.51735 6.99999 7.33325 6.99999H6.66659C6.48249 6.99999 6.33325 7.14923 6.33325 7.33333V9.33333C6.33325 9.51742 6.48249 9.66666 6.66659 9.66666H7.33325C7.51735 9.66666 7.66659 9.51742 7.66659 9.33333V7.33333ZM7.33325 4.33333C7.51735 4.33333 7.66659 4.48257 7.66659 4.66666V5.33333C7.66659 5.51742 7.51735 5.66666 7.33325 5.66666H6.66659C6.48249 5.66666 6.33325 5.51742 6.33325 5.33333V4.66666C6.33325 4.48257 6.48249 4.33333 6.66659 4.33333H7.33325Z"/>
</svg>
