<svg width="24" height="24" viewBox="0 0 24 24" fill="none" xmlns="http://www.w3.org/2000/svg">
<rect width="24" height="24" rx="12" fill="#5C697B" fill-opacity="0.05"/>
<path d="M16.14 12.9401C16.2347 13.0339 16.2879 13.1617 16.2879 13.2951C16.2879 13.4284 16.2347 13.5562 16.14 13.6501L15.94 13.8501C15.8459 13.9477 15.7156 14.002 15.58 14.0001H8.42C8.28441 14.002 8.15407 13.9477 8.06 13.8501L7.86 13.6501C7.76534 13.5562 7.7121 13.4284 7.7121 13.2951C7.7121 13.1617 7.76534 13.0339 7.86 12.9401L11.65 9.15005C11.7407 9.05338 11.8674 8.99854 12 8.99854C12.1326 8.99854 12.2593 9.05338 12.35 9.15005L16.14 12.9401Z" fill="#5C697B"/>
</svg>
