<svg width="7" height="11" viewBox="0 0 7 11" fill="none" xmlns="http://www.w3.org/2000/svg">
<path d="M0.849837 6.34134C0.732594 6.22424 0.66665 6.06537 0.666504 5.89967V5.583C0.668424 5.41766 0.734101 5.25944 0.849837 5.14134L5.13317 0.866337C5.21141 0.787457 5.31791 0.743088 5.429 0.743088C5.5401 0.743088 5.6466 0.787457 5.72484 0.866337L6.3165 1.458C6.39489 1.53481 6.43906 1.63993 6.43906 1.74967C6.43906 1.85941 6.39489 1.96453 6.3165 2.04134L2.60817 5.74134L6.3165 9.44134C6.39539 9.51957 6.43975 9.62607 6.43975 9.73717C6.43975 9.84827 6.39539 9.95477 6.3165 10.033L5.72484 10.6163C5.6466 10.6952 5.5401 10.7396 5.429 10.7396C5.31791 10.7396 5.21141 10.6952 5.13317 10.6163L0.849837 6.34134Z" fill="#8697AB"/>
</svg>
