<svg width="7" height="11" viewBox="0 0 7 11" fill="none" xmlns="http://www.w3.org/2000/svg">
<path d="M6.14997 5.14134C6.26722 5.25843 6.33316 5.4173 6.33331 5.583V5.89967C6.33139 6.06502 6.26571 6.22324 6.14997 6.34134L1.86664 10.6163C1.78841 10.6952 1.68191 10.7396 1.57081 10.7396C1.45971 10.7396 1.35321 10.6952 1.27497 10.6163L0.683308 10.0247C0.604921 9.94787 0.560748 9.84274 0.560748 9.733C0.560748 9.62326 0.604921 9.51814 0.683308 9.44134L4.39164 5.74134L0.683308 2.04134C0.604428 1.9631 0.560059 1.8566 0.560059 1.7455C0.560059 1.6344 0.604428 1.52791 0.683308 1.44967L1.27497 0.866337C1.35321 0.787457 1.45971 0.743088 1.57081 0.743088C1.68191 0.743088 1.78841 0.787457 1.86664 0.866337L6.14997 5.14134Z" fill="#8697AB"/>
</svg>
