<svg width="21" height="21" viewBox="0 0 21 21" fill="none" xmlns="http://www.w3.org/2000/svg">
<path d="M8.00033 4.41528H6.66699C5.56242 4.41528 4.66699 5.31071 4.66699 6.41528V15.7486C4.66699 16.8532 5.56242 17.7486 6.66699 17.7486H8.00033M13.0003 4.41528H14.3337C15.4382 4.41528 16.3337 5.31071 16.3337 6.41528V7.74862" stroke="#FC7932" stroke-width="1.5" stroke-linecap="round" stroke-linejoin="round"/>
<path d="M12.8688 17.2037L11.0961 17.5582L11.4506 15.7855C11.4894 15.5919 11.5845 15.4141 11.7241 15.2745L15.0833 11.9152L16.75 10.2485L18.4057 11.9043L16.7391 13.5709L13.3798 16.9302C13.2402 17.0698 13.0624 17.165 12.8688 17.2037Z" stroke="#FC7932" stroke-width="1.5" stroke-linecap="round" stroke-linejoin="round"/>
<path d="M8 4.74853C8 3.64397 8.89543 2.74854 10 2.74854H11C12.1046 2.74854 13 3.64397 13 4.74854V6.08187H8V4.74853Z" stroke="#FC7932" stroke-width="1.5" stroke-linecap="round" stroke-linejoin="round"/>
</svg>
