<svg width="8" height="8" viewBox="0 0 8 8" fill="none" xmlns="http://www.w3.org/2000/svg">
<path d="M7.89994 6.96C7.96305 7.02259 7.99854 7.10779 7.99854 7.19667C7.99854 7.28555 7.96305 7.37075 7.89994 7.43334L7.43328 7.9C7.37069 7.96311 7.28549 7.9986 7.19661 7.9986C7.10773 7.9986 7.02253 7.96311 6.95994 7.9L3.99994 4.94L1.03994 7.9C0.977353 7.96311 0.892155 7.9986 0.803276 7.9986C0.714396 7.9986 0.629198 7.96311 0.566609 7.9L0.0999422 7.43334C0.036838 7.37075 0.00134277 7.28555 0.00134277 7.19667C0.00134277 7.10779 0.036838 7.02259 0.0999422 6.96L3.05994 4L0.0999422 1.04C0.036838 0.977414 0.00134277 0.892216 0.00134277 0.803337C0.00134277 0.714458 0.036838 0.629259 0.0999422 0.56667L0.566609 0.100003C0.629198 0.036899 0.714396 0.00140381 0.803276 0.00140381C0.892155 0.00140381 0.977353 0.036899 1.03994 0.100003L3.99994 3.06L6.95994 0.100003C7.02253 0.036899 7.10773 0.00140381 7.19661 0.00140381C7.28549 0.00140381 7.37069 0.036899 7.43328 0.100003L7.89994 0.56667C7.96305 0.629259 7.99854 0.714458 7.99854 0.803337C7.99854 0.892216 7.96305 0.977414 7.89994 1.04L4.93994 4L7.89994 6.96Z" fill="#061425"/>
</svg>
