<svg width="16" height="11" viewBox="0 0 16 11" fill="none" xmlns="http://www.w3.org/2000/svg">
<path fill-rule="evenodd" clip-rule="evenodd" d="M7.99984 0.166733C9.9865 0.166733 11.6305 1.61607 11.9418 3.51407C13.8378 3.6554 15.3332 5.23473 15.3332 7.16673C15.3332 9.1914 13.6912 10.8334 11.6665 10.8334H3.99984C2.15917 10.8334 0.666504 9.34073 0.666504 7.50007C0.666504 5.6594 2.15917 4.16673 3.99984 4.16673C3.99984 1.9574 5.79117 0.166733 7.99984 0.166733ZM10.4545 5.89873L10.5925 5.76073C10.7225 5.63073 10.7225 5.4194 10.5925 5.2894L8.23584 2.93207C8.10384 2.80007 7.8965 2.80073 7.7645 2.93207L5.40784 5.2894C5.27717 5.4194 5.27717 5.63073 5.40784 5.76073L5.54584 5.89873C5.60784 5.9614 5.6925 5.99673 5.78117 5.99673H6.6665V8.50007C6.6665 8.68407 6.81584 8.8334 6.99984 8.8334H8.99984C9.1845 8.8334 9.33317 8.68407 9.33317 8.50007V5.99673H10.2185C10.3072 5.99673 10.3918 5.9614 10.4545 5.89873Z" fill="#94A3B8"/>
</svg>
