<svg width="64" height="44" viewBox="0 0 64 44" fill="none" xmlns="http://www.w3.org/2000/svg">
<path d="M32 0C26.721 0.0165541 21.6219 1.92054 17.624 5.368C14.56 8.008 12.34 11.448 11.768 14.9C5.064 16.38 0 22.22 0 29.272C0 37.464 6.832 44 15.124 44H50.748C58.008 44 64 38.28 64 31.092C64 24.548 59.032 19.216 52.664 18.316C51.692 7.996 42.76 0 32 0Z" fill="#0038FF"/>
<path d="M41.8497 21.2372C41.7491 20.9943 41.6015 20.7735 41.4156 20.5876L33.4156 12.5876C33.2298 12.4013 33.0091 12.2535 32.7661 12.1527C32.5231 12.0519 32.2627 12 31.9996 12C31.7365 12 31.476 12.0519 31.2331 12.1527C30.9901 12.2535 30.7694 12.4013 30.5836 12.5876L22.5836 20.5876C22.2081 20.9631 21.9971 21.4725 21.9971 22.0036C21.9971 22.5347 22.2081 23.044 22.5836 23.4196C22.9591 23.7951 23.4685 24.0061 23.9996 24.0061C24.5307 24.0061 25.0401 23.7951 25.4156 23.4196L29.9996 18.8316V34.0036C29.9996 34.534 30.2103 35.0427 30.5854 35.4178C30.9605 35.7929 31.4692 36.0036 31.9996 36.0036C32.53 36.0036 33.0387 35.7929 33.4138 35.4178C33.7889 35.0427 33.9996 34.534 33.9996 34.0036V18.8316L38.5836 23.4196C38.7695 23.6055 38.9903 23.753 39.2333 23.8537C39.4762 23.9543 39.7366 24.0061 39.9996 24.0061C40.2626 24.0061 40.523 23.9543 40.7659 23.8537C41.0089 23.753 41.2296 23.6055 41.4156 23.4196C41.6015 23.2336 41.7491 23.0129 41.8497 22.7699C41.9503 22.527 42.0021 22.2666 42.0021 22.0036C42.0021 21.7406 41.9503 21.4802 41.8497 21.2372Z" fill="white"/>
</svg>
