<svg width="18" height="18" viewBox="0 0 18 18" fill="none" xmlns="http://www.w3.org/2000/svg">
<path fill-rule="evenodd" clip-rule="evenodd" d="M0.666748 8.99996C0.666748 4.39759 4.39771 0.666626 9.00008 0.666626C11.2102 0.666626 13.3298 1.5446 14.8926 3.1074C16.4554 4.67021 17.3334 6.78982 17.3334 8.99996C17.3334 13.6023 13.6025 17.3333 9.00008 17.3333C4.39771 17.3333 0.666748 13.6023 0.666748 8.99996ZM7.94175 11.7916L12.6251 7.10829C12.7785 6.94734 12.7785 6.69425 12.6251 6.53329L12.1834 6.09163C12.0214 5.93282 11.7621 5.93282 11.6001 6.09163L7.65008 10.0416L6.40008 8.79996C6.32447 8.7194 6.2189 8.67369 6.10841 8.67369C5.99793 8.67369 5.89236 8.7194 5.81675 8.79996L5.37508 9.24163C5.2962 9.31986 5.25183 9.42636 5.25183 9.53746C5.25183 9.64856 5.2962 9.75506 5.37508 9.83329L7.35842 11.7916C7.43403 11.8722 7.53959 11.9179 7.65008 11.9179C7.76057 11.9179 7.86614 11.8722 7.94175 11.7916Z" fill="white"/>
</svg>
