<svg width="13" height="13" viewBox="0 0 13 13" fill="none" xmlns="http://www.w3.org/2000/svg">
<path fill-rule="evenodd" clip-rule="evenodd" d="M3.38972 11.2168H5.55733C5.76792 11.2168 5.9422 11.3511 5.99667 11.5544L6.16005 12.1608C6.19636 12.3024 6.17095 12.4403 6.08018 12.5565C5.99304 12.6727 5.86596 12.7344 5.72072 12.7344H3.38972C2.71438 12.7344 2.09714 12.4585 1.65418 12.0119C1.21122 11.5653 0.931641 10.9518 0.931641 10.2764V3.20027C0.931641 2.52134 1.20758 1.90775 1.65418 1.46481C2.09714 1.01824 2.71075 0.74231 3.38972 0.74231H10.4662C11.1416 0.74231 11.7588 1.01824 12.2018 1.46481C12.6484 1.90775 12.9243 2.52497 12.9243 3.20027V5.53116C12.9243 5.67639 12.8626 5.80346 12.7464 5.89423C12.6302 5.985 12.4922 6.01041 12.3506 5.9741L11.7443 5.81072C11.541 5.75626 11.4066 5.57836 11.4066 5.37141V3.20027C11.4066 2.9425 11.3013 2.7065 11.1307 2.53586C10.96 2.36522 10.724 2.25993 10.4662 2.25993H3.38972C3.13193 2.25993 2.89593 2.36522 2.72528 2.53586C2.55463 2.7065 2.44933 2.9425 2.44933 3.20027V10.2764C2.44933 10.5342 2.55463 10.7702 2.72528 10.9409C2.89593 11.1115 3.13193 11.2168 3.38972 11.2168Z" fill="url(#paint0_linear_51_2907)"/>
<path fill-rule="evenodd" clip-rule="evenodd" d="M12.9315 7.83726V8.7413C12.9315 9.02812 12.7427 9.27501 12.4631 9.34762L10.5061 9.85228L9.57298 8.9192C9.73274 8.57066 9.67101 8.14224 9.38055 7.85179C9.0102 7.48146 8.41111 7.48146 8.04077 7.85179C7.67042 8.22211 7.67042 8.82117 8.04077 9.1915C8.33123 9.48196 8.75967 9.54368 9.10823 9.38393L10.0414 10.317L9.53667 12.2739C9.46406 12.5535 9.22079 12.7423 8.93032 12.7423H8.02624C7.73941 12.7423 7.49614 12.5571 7.42352 12.2776L5.85863 6.43583C5.80053 6.21435 5.85863 5.99288 6.02202 5.83313C6.1854 5.66975 6.40325 5.61166 6.62474 5.66975L12.4704 7.23457C12.7463 7.30719 12.9351 7.55044 12.9315 7.83726Z" fill="url(#paint1_linear_51_2907)"/>
<defs>
<linearGradient id="paint0_linear_51_2907" x1="8.59635" y1="1.49023" x2="2.8237" y2="10.411" gradientUnits="userSpaceOnUse">
<stop stop-color="#42CCFB"/>
<stop offset="1" stop-color="#4361EE"/>
</linearGradient>
<linearGradient id="paint1_linear_51_2907" x1="6.88979" y1="10.6982" x2="10.0738" y2="6.62447" gradientUnits="userSpaceOnUse">
<stop stop-color="#F72585"/>
<stop offset="1" stop-color="#FC7932"/>
</linearGradient>
</defs>
</svg>
