<svg width="164" height="24" viewBox="0 0 164 24" fill="none" xmlns="http://www.w3.org/2000/svg">
<g clip-path="url(#clip0_516_5286)">
<path fill-rule="evenodd" clip-rule="evenodd" d="M4.5997 19.7177H8.65585C9.04992 19.7177 9.37604 19.9706 9.47795 20.3533L9.7837 21.4947C9.85164 21.7613 9.80408 22.021 9.63422 22.2397C9.47116 22.4584 9.23336 22.5746 8.96159 22.5746H4.5997C3.33597 22.5746 2.18095 22.0551 1.35205 21.2145C0.523156 20.3738 0 19.2188 0 17.9476V4.627C0 3.34894 0.516362 2.1939 1.35205 1.36008C2.18095 0.519427 3.32917 0 4.5997 0H17.8417C19.1054 0 20.2604 0.519427 21.0893 1.36008C21.925 2.1939 22.4413 3.35577 22.4413 4.627V9.01479C22.4413 9.28817 22.3258 9.52738 22.1084 9.69825C21.891 9.86911 21.6328 9.91695 21.3679 9.84861L20.2332 9.54105C19.8527 9.43853 19.6014 9.10364 19.6014 8.71407V4.627C19.6014 4.14175 19.4043 3.6975 19.085 3.37628C18.7657 3.05505 18.324 2.85685 17.8417 2.85685H4.5997C4.1173 2.85685 3.67568 3.05505 3.35635 3.37628C3.03702 3.6975 2.83999 4.14175 2.83999 4.627V17.9476C2.83999 18.4328 3.03702 18.8771 3.35635 19.1983C3.67568 19.5195 4.1173 19.7177 4.5997 19.7177Z" fill="url(#paint0_linear_516_5286)"/>
<path fill-rule="evenodd" clip-rule="evenodd" d="M22.455 13.3547V15.0565C22.455 15.5965 22.1017 16.0612 21.5785 16.1979L17.9164 17.1479L16.1703 15.3914C16.4692 14.7353 16.3537 13.9288 15.8102 13.3821C15.1172 12.6849 13.9961 12.6849 13.3031 13.3821C12.6101 14.0792 12.6101 15.2069 13.3031 15.904C13.8467 16.4508 14.6484 16.567 15.3006 16.2662L17.0468 18.0227L16.1024 21.7066C15.9665 22.2328 15.5113 22.5882 14.9677 22.5882H13.276C12.7392 22.5882 12.284 22.2397 12.1481 21.7134L9.2198 10.7166C9.11109 10.2997 9.2198 9.88276 9.52554 9.58204C9.83128 9.27449 10.2389 9.16513 10.6534 9.27449L21.5921 12.2202C22.1085 12.3569 22.4618 12.8148 22.455 13.3547Z" fill="url(#paint1_linear_516_5286)"/>
<path d="M34.3245 5.39526C37.4086 5.39526 39.4889 7.01067 40.1641 9.80091H36.7881C36.4322 8.74539 35.6019 8.06619 34.3063 8.06619C32.5636 8.06619 31.3956 9.39706 31.3956 11.8202C31.3956 14.2433 32.5544 15.5558 34.3063 15.5558C35.6019 15.5558 36.4049 14.9684 36.7881 13.8486H40.1641C39.4889 16.5012 37.4177 18.2543 34.3245 18.2543C30.7478 18.2543 28.2021 15.7394 28.2021 11.8202C28.2021 7.90097 30.7478 5.38608 34.3245 5.38608V5.39526Z" fill="#061425"/>
<path d="M45.6023 18.0616H42.4726V5.59722H45.6023V7.53387C46.387 6.24889 47.6826 5.42283 49.4071 5.42283V8.72707H48.5768C46.7246 8.72707 45.6023 9.44299 45.6023 11.8569V18.0616Z" fill="#061425"/>
<path d="M57.0077 18.2634C53.4309 18.2634 50.721 15.7486 50.721 11.8294C50.721 7.91016 53.5131 5.39527 57.0898 5.39527C60.6665 5.39527 63.4585 7.89181 63.4585 11.8294C63.4585 15.7669 60.5935 18.2634 56.9985 18.2634H57.0077ZM57.0077 15.5191C58.6592 15.5191 60.2468 14.3075 60.2468 11.8294C60.2468 9.35118 58.7048 8.13962 57.0533 8.13962C55.4018 8.13962 53.8963 9.33282 53.8963 11.8294C53.8963 14.3259 55.3288 15.5191 57.0077 15.5191Z" fill="#061425"/>
<path d="M72.9934 5.39527C76.1687 5.39527 78.6505 7.89181 78.6505 11.7835C78.6505 15.6751 76.1687 18.2634 72.9934 18.2634C71.0499 18.2634 69.663 17.2997 68.9057 16.2809V24H65.7761V5.59719H68.9057V7.39617C69.6448 6.34065 71.0773 5.39527 72.9934 5.39527ZM72.1631 8.15798C70.4842 8.15798 68.8966 9.46132 68.8966 11.8202C68.8966 14.179 70.4842 15.4824 72.1631 15.4824C73.842 15.4824 75.4478 14.1331 75.4478 11.7743C75.4478 9.41543 73.8602 8.1488 72.1631 8.1488V8.15798Z" fill="#061425"/>
<path d="M82.3273 18.2175C81.1868 18.2175 80.3839 17.4098 80.3839 16.3726C80.3839 15.3355 81.1868 14.5278 82.3273 14.5278C83.4679 14.5278 84.2252 15.3355 84.2252 16.3726C84.2252 17.4098 83.4222 18.2175 82.3273 18.2175Z" fill="#061425"/>
<path d="M93.9792 5.39527C97.1545 5.39527 99.6363 7.89181 99.6363 11.7835C99.6363 15.6751 97.1545 18.2634 93.9792 18.2634C92.0358 18.2634 90.6489 17.2997 89.8916 16.2809V24H86.7619V5.59719H89.8916V7.39617C90.6306 6.34065 92.0631 5.39527 93.9792 5.39527ZM93.1489 8.15798C91.4701 8.15798 89.8824 9.46132 89.8824 11.8202C89.8824 14.179 91.4701 15.4824 93.1489 15.4824C94.8278 15.4824 96.4337 14.1331 96.4337 11.7743C96.4337 9.41543 94.8461 8.1488 93.1489 8.1488V8.15798Z" fill="#061425"/>
<path d="M101.917 1.41174H105.047V7.14827C105.85 6.09275 107.237 5.41355 108.888 5.41355C111.68 5.41355 113.715 7.30431 113.715 10.7462V18.0523H110.585V11.1684C110.585 9.16753 109.49 8.08447 107.839 8.08447C106.187 8.08447 105.047 9.16753 105.047 11.1684V18.0523H101.917V1.41174Z" fill="#061425"/>
<path d="M122.2 18.2634C118.624 18.2634 115.914 15.7486 115.914 11.8294C115.914 7.91016 118.706 5.39527 122.282 5.39527C125.859 5.39527 128.651 7.89181 128.651 11.8294C128.651 15.7669 125.786 18.2634 122.191 18.2634H122.2ZM122.2 15.5191C123.852 15.5191 125.439 14.3075 125.439 11.8294C125.439 9.35118 123.897 8.13962 122.246 8.13962C120.594 8.13962 119.089 9.33282 119.089 11.8294C119.089 14.3259 120.522 15.5191 122.2 15.5191Z" fill="#061425"/>
<path d="M131.462 8.18539H129.984V5.59707H131.462V2.51311H134.619V5.59707H137.393V8.18539H134.619V14.2156C134.619 15.0509 134.956 15.4088 135.942 15.4088H137.393V18.0614H135.422C133.05 18.0614 131.462 17.0518 131.462 14.1973V8.18539Z" fill="#061425"/>
<path d="M145.148 18.2634C141.572 18.2634 138.862 15.7486 138.862 11.8294C138.862 7.91016 141.654 5.39527 145.23 5.39527C148.807 5.39527 151.599 7.89181 151.599 11.8294C151.599 15.7669 148.734 18.2634 145.139 18.2634H145.148ZM145.148 15.5191C146.8 15.5191 148.387 14.3075 148.387 11.8294C148.387 9.35118 146.845 8.13962 145.194 8.13962C143.542 8.13962 142.037 9.33282 142.037 11.8294C142.037 14.3259 143.469 15.5191 145.148 15.5191Z" fill="#061425"/>
<path d="M156.718 3.72473C157.831 3.72473 158.597 4.29379 158.953 4.92711V3.82569H159.957V9.85593H158.953V8.73616C158.588 9.38783 157.813 9.95689 156.708 9.95689C155.112 9.95689 153.871 8.69027 153.871 6.81787C153.871 4.94546 155.112 3.72473 156.718 3.72473ZM156.918 4.59668C155.823 4.59668 154.893 5.40438 154.893 6.81787C154.893 8.23135 155.823 9.07576 156.918 9.07576C158.013 9.07576 158.953 8.2497 158.953 6.82704C158.953 5.40438 158.013 4.59668 156.918 4.59668Z" fill="#061425"/>
<path d="M161.48 2.16445C161.48 1.77895 161.772 1.48524 162.156 1.48524C162.521 1.48524 162.812 1.77895 162.812 2.16445C162.812 2.54994 162.521 2.84365 162.156 2.84365C161.772 2.84365 161.48 2.54994 161.48 2.16445ZM161.645 3.82575H162.639V9.85598H161.645V3.82575Z" fill="#061425"/>
</g>
<defs>
<linearGradient id="paint0_linear_516_5286" x1="14.3426" y1="1.40792" x2="3.44944" y2="18.1416" gradientUnits="userSpaceOnUse">
<stop stop-color="#42CCFB"/>
<stop offset="1" stop-color="#4361EE"/>
</linearGradient>
<linearGradient id="paint1_linear_516_5286" x1="11.1494" y1="18.7404" x2="17.1517" y2="11.1065" gradientUnits="userSpaceOnUse">
<stop stop-color="#F72585"/>
<stop offset="1" stop-color="#FC7932"/>
</linearGradient>
<clipPath id="clip0_516_5286">
<rect width="163.5" height="24" fill="white"/>
</clipPath>
</defs>
</svg>
