<svg width="39" height="30" viewBox="0 0 39 30" fill="none" xmlns="http://www.w3.org/2000/svg">
<path d="M38.1578 0.406749C38.1013 0.385665 37.9818 0.412017 38.0101 0.482647L38.2207 0.516388L38.1578 0.406749Z" fill="#0055A3" fill-opacity="0.46"/>
<path d="M37.8047 0.92831C37.9105 1.00632 38.0938 1.09698 38.2813 1.03056C38.076 0.955716 38.1577 0.929368 37.9147 0.853467C37.8853 0.782837 37.9733 0.721701 38.0498 0.728026C37.9953 0.705888 38.0875 0.609943 37.9555 0.58148C37.8015 0.690061 37.8026 0.807075 37.9429 0.924089C37.8989 0.95466 37.8434 0.931473 37.8047 0.92831Z" fill="#0055A3" fill-opacity="0.46"/>
<path d="M36.3184 7.69415L36.3585 7.66252C36.3416 7.66779 36.3278 7.67939 36.3184 7.69415Z" fill="#0055A3" fill-opacity="0.46"/>
<path d="M34.1642 11.3716C34.1789 11.3421 34.1705 11.3189 34.1557 11.3073C34.1494 11.34 34.1452 11.3674 34.1642 11.3716Z" fill="#0055A3" fill-opacity="0.46"/>
<path d="M33.5501 11.8134C33.5648 11.805 33.5753 11.7966 33.588 11.7892C33.5627 11.7902 33.5437 11.7955 33.5501 11.8134Z" fill="#0055A3" fill-opacity="0.46"/>
<path d="M36.3185 7.69369L36.2148 7.77486C36.2756 7.8086 36.284 7.74007 36.3185 7.69369Z" fill="#0055A3" fill-opacity="0.46"/>
<path d="M38.3341 1.90311C38.3236 1.87781 38.3046 1.85671 38.2793 1.83774C38.2888 1.85882 38.2962 1.87886 38.3014 1.89889C38.312 1.89994 38.3204 1.901 38.3341 1.90311Z" fill="#0055A3" fill-opacity="0.46"/>
<path d="M36.7694 5.86404L36.7789 5.83136C36.7589 5.81555 36.7335 5.79868 36.7051 5.78076L36.7694 5.86404Z" fill="#0055A3" fill-opacity="0.46"/>
<path d="M37.0612 4.46207C37.0486 4.49264 37.2194 4.53691 37.2938 4.56326C37.2257 4.53164 37.1953 4.50108 37.1869 4.47051C37.1545 4.46313 37.1136 4.45996 37.0612 4.46207Z" fill="#0055A3" fill-opacity="0.46"/>
<path d="M37.617 2.22537C37.6096 2.21167 37.6022 2.19795 37.5937 2.18424C37.6022 2.19479 37.6085 2.21272 37.617 2.22537Z" fill="#0055A3" fill-opacity="0.46"/>
<path d="M36.4237 6.82848C36.3984 6.82216 36.3741 6.81899 36.3594 6.82004C36.3805 6.82742 36.4026 6.82954 36.4237 6.82848Z" fill="#0055A3" fill-opacity="0.46"/>
<path d="M1.72296 22.2273C1.72718 22.2157 1.72713 22.2073 1.72924 22.1968C1.71765 22.2115 1.71137 22.2242 1.72296 22.2273Z" fill="#0055A3" fill-opacity="0.46"/>
<path d="M0.257812 20.9715L0.283138 20.9683C0.293679 20.9367 0.305228 20.9051 0.313662 20.8734L0.257812 20.9715Z" fill="#0055A3" fill-opacity="0.46"/>
<path d="M32.543 12.6726C32.5461 12.6716 32.5471 12.6716 32.5492 12.6705C32.5566 12.6315 32.5461 12.6484 32.543 12.6726Z" fill="#0055A3" fill-opacity="0.46"/>
<path d="M22.6016 19.2992C22.7859 19.3993 22.4602 19.5701 22.7168 19.6629C22.6759 19.6038 22.7985 19.334 22.6016 19.2992Z" fill="#0055A3" fill-opacity="0.46"/>
<path d="M38.3105 1.94246C38.3127 1.96355 38.3137 1.98464 38.3127 2.00467C38.3179 1.97726 38.3179 1.95722 38.3105 1.94246Z" fill="#0055A3" fill-opacity="0.46"/>
<path d="M22.7168 19.6603L22.7168 19.6613L22.7432 19.6687C22.7326 19.6656 22.7263 19.6635 22.7168 19.6603Z" fill="#0055A3" fill-opacity="0.46"/>
<path d="M30.4512 14.8357C30.4765 14.8557 30.5007 14.8663 30.5249 14.8758C30.5123 14.8631 30.4923 14.8504 30.4512 14.8357Z" fill="#0055A3" fill-opacity="0.46"/>
<path d="M32.2785 13.4825L32.2227 13.5068C32.2501 13.5015 32.2659 13.492 32.2785 13.4825Z" fill="#0055A3" fill-opacity="0.46"/>
<path d="M29.6823 15.7627C29.6496 15.77 29.6264 15.7574 29.6074 15.8017C29.6159 15.807 29.6233 15.809 29.6306 15.8112C29.6285 15.7827 29.638 15.7616 29.6823 15.7627Z" fill="#0055A3" fill-opacity="0.46"/>
<path d="M28.6777 16.48C28.6904 16.4874 28.7041 16.4916 28.7168 16.4969C28.7252 16.4874 28.7358 16.4768 28.7442 16.4673L28.6777 16.48Z" fill="#0055A3" fill-opacity="0.46"/>
<path d="M5.58019 22.782C5.55819 22.7293 5.54666 22.6724 5.53932 22.6176C5.54456 22.7451 5.35288 22.7704 5.58019 22.782Z" fill="#0055A3" fill-opacity="0.46"/>
<path d="M38.2344 1.90318C38.2787 1.91161 38.3018 1.92214 38.3113 1.94217C38.3092 1.92741 38.3061 1.91266 38.3019 1.89896C38.2755 1.89474 38.2502 1.89369 38.2344 1.90318Z" fill="#0055A3" fill-opacity="0.46"/>
<path d="M30.4722 16.9218L30.291 17.0262C30.3486 17.0061 30.4136 16.9661 30.4722 16.9218Z" fill="#0055A3" fill-opacity="0.46"/>
<path d="M14.7435 22.7006L14.6992 22.7269C14.7171 22.7291 14.7329 22.7227 14.7435 22.7006Z" fill="#0055A3" fill-opacity="0.46"/>
<path d="M29.8051 17.4008C29.7391 17.3702 29.6867 17.3629 29.6406 17.3671C29.6417 17.3839 29.6396 17.3987 29.6469 17.4187L29.8051 17.4008Z" fill="#0055A3" fill-opacity="0.46"/>
<path d="M4.15463 22.8566C4.34737 22.8882 4.27821 22.6426 4.33897 22.5161C4.57675 22.4813 4.42068 22.7005 4.48249 22.8302C4.63542 22.7891 4.77367 22.5909 4.87842 22.6151C4.88156 22.6542 4.9004 22.671 4.87003 22.7153C5.04496 22.5498 5.32048 22.7733 5.52369 22.5551C5.53416 22.5772 5.53942 22.5972 5.54047 22.6151C5.52475 22.496 5.53416 22.3769 5.54988 22.2936C5.63577 22.2978 5.72481 22.1629 5.73948 22.3179C5.6871 22.3084 5.67662 22.3685 5.64624 22.4138L5.74367 22.3569C5.80024 22.5835 5.61274 22.4201 5.59494 22.5814C5.7793 22.5287 6.00132 22.3685 6.12912 22.4433C6.13645 22.6594 5.80753 22.4834 5.9678 22.691L5.76776 22.5877C5.89137 22.9409 5.64309 22.5508 5.75099 22.9261C6.02124 23.0157 6.07151 22.8492 6.34071 22.9388C6.41404 22.826 6.33657 22.7606 6.40884 22.6478C6.81527 22.4739 6.67071 23.216 6.98287 22.9514C7.06876 22.8133 7.11586 22.5445 7.30965 22.7016L7.22377 22.9388C7.48983 22.981 7.39873 22.6004 7.66793 22.7817C7.61242 22.8734 7.45318 22.8481 7.49194 22.8797C7.66163 23.0832 7.6281 22.7512 7.76741 22.7596L7.78419 22.9767C8.0712 22.9672 8.39174 22.8133 8.70704 22.7859C8.68818 22.8492 8.63162 22.9145 8.70285 22.9831C8.90396 22.9356 9.11553 22.9493 9.32607 22.9915C9.53662 23.0305 9.74508 23.0927 9.93887 23.157L10.0855 22.9704C10.1201 22.9725 10.1494 23.0537 10.1128 23.0906C10.2636 23.1602 10.1201 22.9725 10.1913 22.8998C10.2762 22.8861 10.3044 23.0062 10.251 23.0621C10.383 22.9831 10.5695 22.8987 10.758 22.8555C10.9466 22.8081 11.1372 22.8049 11.2797 22.8987L11.2273 22.9556C11.4473 23.0231 11.4567 22.5656 11.6641 22.7311L11.6274 22.7659C12.1009 22.8355 12.6048 22.6173 12.984 22.8734C13.0301 22.6014 13.4595 22.9599 13.4553 22.5825C13.7382 22.7374 13.668 22.8123 14.0587 22.8945C14.1613 22.9008 14.1844 22.6468 14.3027 22.5941L14.3279 22.787L14.4735 22.5656L14.5908 22.787L14.7018 22.7248C14.6537 22.7185 14.5929 22.6489 14.5929 22.592C14.7636 22.4886 15.0517 22.6668 15.0695 22.7669L15.4759 22.5414C15.478 22.6204 15.4099 22.6573 15.3597 22.7153C15.5608 22.4855 15.4309 22.9124 15.6152 22.7016C15.5807 22.6615 15.6131 22.5846 15.6131 22.5445C15.7346 22.6457 15.9746 22.6141 16.1422 22.5371L16.1296 22.6763C16.4532 22.6531 16.7885 22.4918 17.1457 22.4307C17.0063 22.3927 16.9938 22.1576 17.0933 22.1176L17.1729 22.3126C17.2158 22.1756 17.0503 22.2557 17.1582 22.0775C17.2944 22.0775 17.2912 22.2915 17.2273 22.3716L17.3751 22.2725C17.396 22.3316 17.3646 22.3695 17.3698 22.4486C17.4117 22.3136 17.6882 22.5941 17.7406 22.3558L17.7616 22.4138C18.1167 22.339 18.2623 22.2346 18.5482 22.1618C18.5147 21.9869 18.6362 22.0016 18.6886 21.8424C18.9096 21.8466 19.1757 21.9215 19.425 21.8435C19.5811 21.7128 19.4396 21.6843 19.4931 21.562C19.5454 21.7159 19.7937 21.6369 19.6932 21.7824C19.8419 21.7307 19.9362 21.698 20.0378 21.6506C20.1383 21.6 20.2441 21.5325 20.4159 21.4134C20.3573 21.3617 20.3028 21.347 20.3122 21.2869C20.373 21.2415 20.4861 21.3069 20.4976 21.3839L20.484 21.4049C20.6631 21.2257 20.9397 21.2679 21.2057 21.3006C21.4718 21.3343 21.7232 21.3449 21.8394 21.1319L21.8258 21.1541L22.1192 20.8736C22.2878 20.8473 22.0615 21.0212 22.2124 21.0771C22.4983 20.6891 22.8168 20.9053 23.0629 20.6259C23.263 20.8051 23.4714 20.7155 23.6809 20.6027C23.8915 20.492 24.0999 20.3487 24.3157 20.4235L24.255 20.3265C24.2948 20.1905 24.3786 20.3455 24.4488 20.3434C24.4069 20.2664 24.322 20.2865 24.3493 20.2095C24.9872 19.8026 25.8273 19.7383 26.5689 19.4811C26.835 19.3756 26.4474 18.8886 26.8832 18.9635L26.8905 19.1954C26.9879 19.0731 27.101 18.9803 27.2225 18.9002C27.3419 18.8169 27.4687 18.7473 27.5965 18.6788C27.7243 18.6103 27.8521 18.5439 27.9726 18.4648C28.0909 18.3837 28.1999 18.2888 28.291 18.1707C28.2879 18.2298 28.3182 18.2835 28.2711 18.3109C28.4502 18.3794 28.6482 18.0906 28.5843 17.9841C28.666 17.9515 28.6597 18.0685 28.7393 18.0948C28.8891 18.1106 28.886 17.7691 29.02 17.8639C29.042 17.8787 29.019 17.924 29.0064 17.9451C29.0316 17.8407 29.3186 17.7627 29.1615 17.6573C29.3825 17.6109 29.4547 17.3759 29.6475 17.3632C29.6255 17.1397 29.9942 17.2336 29.8643 16.9869C30.0152 17.2283 30.3011 16.9647 30.3241 16.7729C30.3399 16.8699 30.4687 16.775 30.498 16.9025C30.6164 16.8066 30.696 16.6801 30.586 16.5789C30.7997 16.6306 30.8709 16.4903 30.9348 16.3691C30.9977 16.2468 31.0522 16.1414 31.2512 16.2626C31.3769 16.0581 31.5047 15.8726 31.6304 15.6955C31.753 15.5142 31.8765 15.3466 32.0043 15.1874C32.1835 15.4088 31.6911 15.5047 31.8996 15.7187C32.1101 15.3698 32.1164 15.0514 32.4317 14.8353C32.5291 14.7952 32.4768 14.9639 32.4852 15.0229C32.68 14.6708 33.0414 14.5264 33.1618 14.1659C33.1807 14.1849 33.1754 14.2323 33.1671 14.2724C33.2069 14.2175 33.3053 14.188 33.2069 14.1037L33.187 14.1754C32.9796 14.1216 33.0864 13.7115 33.0214 13.6367C33.2131 13.9719 33.3179 13.4596 33.5379 13.9076C33.5504 13.8591 33.5442 13.7769 33.4729 13.7252C33.5347 13.6925 33.585 13.7105 33.6143 13.8275C33.7212 13.5977 33.563 13.5703 33.7076 13.4079C33.7537 13.4501 33.7432 13.4996 33.783 13.565C33.7652 13.4005 33.7442 13.2371 33.9045 13.1328C33.9255 13.1655 33.9768 13.1813 33.9401 13.2224C33.9883 13.1591 34.0197 13.0895 34.0428 13.0168C34.0637 12.942 34.0784 12.8661 34.0962 12.7912C34.1318 12.6426 34.1821 12.5034 34.335 12.4054C34.4858 12.6531 34.4785 12.3685 34.6754 12.4982C34.6964 12.4349 34.7163 12.3717 34.7331 12.3063L34.598 12.2979C34.6964 12.1672 34.642 11.9489 34.7855 11.8815L34.7928 12.0364L34.9342 11.7623L34.7614 11.8499C34.7582 11.6464 34.51 11.6896 34.688 11.5547C34.6828 11.6032 34.7833 11.4271 34.9457 11.4376C34.9457 11.4376 34.9457 11.4376 34.9457 11.4387C34.9279 11.3291 34.9069 11.2173 35.0201 11.1499C35.0997 11.1657 35.2223 11.3154 35.2746 11.3259C35.1542 11.1509 35.437 10.9759 35.3144 10.7798C35.3375 10.8336 35.4412 10.9021 35.4684 10.9063L35.37 10.7651C35.4538 10.7292 35.481 10.7335 35.5575 10.7957C35.6989 10.6175 35.2683 10.6997 35.5134 10.5374C35.5134 10.5627 35.5396 10.5658 35.5375 10.6164C35.7313 10.4182 35.7125 10.1168 35.9042 9.94388C36.1472 9.99659 35.8455 10.1589 36.0613 10.1853C36.1367 10.0208 36.1556 9.81843 36.1901 9.62868C36.2236 9.43787 36.2666 9.2576 36.3693 9.11634C36.3525 9.13215 36.3347 9.14693 36.3169 9.16168C36.0414 8.97193 36.5735 9.00249 36.5065 8.77478C36.5107 8.82433 36.65 8.9055 36.6217 8.87809C36.6961 8.78111 36.7286 8.66199 36.7495 8.52179C36.7726 8.38264 36.7746 8.21817 36.7924 8.03158L36.8553 8.10645C36.9778 8.0063 37.0334 7.78176 37.1266 7.65631C37.0638 7.58357 37.1088 7.50871 36.9726 7.51293C37.2827 7.38326 37.2911 7.14503 37.2911 6.91838C37.29 6.80453 37.2879 6.69278 37.3141 6.59157C37.3382 6.48932 37.3948 6.39971 37.5205 6.32908C37.5079 6.37652 37.5592 6.46401 37.5707 6.42606L37.5927 6.06448C37.445 6.05183 37.4953 6.08452 37.3665 6.12352C37.2963 6.05711 37.2586 5.94537 37.2827 5.86314C37.3319 6.03814 37.5079 5.92428 37.6053 5.88C37.5592 5.87895 37.5183 5.84417 37.4733 5.83784C37.7729 5.72821 37.202 5.73452 37.4272 5.53845L37.4985 5.57008C37.4817 5.46993 37.4031 5.36345 37.4461 5.27174C37.6189 5.26963 37.5006 5.38558 37.6336 5.42459C37.6566 5.28333 37.3864 5.08305 37.578 4.99555C37.6105 5.06302 37.5917 5.14734 37.6231 5.21586C37.8473 5.12415 37.8023 5.09568 37.8557 5.0008L37.8494 5.0103C37.8986 4.93862 37.9426 4.86482 37.9845 4.79102L37.9217 4.84162C37.5226 4.58229 37.9059 4.46844 37.664 4.18592C37.8923 4.45685 37.8127 4.24918 37.997 4.29767C38.0599 4.24602 38.1343 4.16274 38.1825 4.19753C38.1165 4.12901 38.1542 4.08684 38.1846 4.03729C38.2128 3.98669 38.2317 3.92872 38.1301 3.83384C38.1919 3.8349 38.15 3.71261 38.2998 3.75794C38.2694 3.60298 38.1898 3.78008 38.1155 3.75689C38.0254 3.63039 38.1029 3.506 38.1741 3.36474C38.2097 3.29411 38.2422 3.2203 38.2516 3.14124C38.2579 3.06217 38.237 2.97888 38.1699 2.89138C38.0683 2.60043 37.8651 2.53825 37.7771 2.27892C37.8798 2.19564 37.996 2.35799 37.996 2.35799C38.0976 2.21989 38.0777 2.1113 38.0075 1.97742C38.061 2.00482 38.106 1.97848 38.1751 1.93737C38.1584 1.82879 37.952 1.86463 38.0421 1.72337C38.1102 1.74761 38.2202 1.77819 38.2883 1.8309C38.2317 1.70229 38.1165 1.57788 38.061 1.44821C38.1678 1.41026 38.2233 1.52413 38.2935 1.56946C38.2694 1.49461 38.2443 1.39867 38.2055 1.31644C38.1615 1.23422 38.1018 1.16676 38.017 1.14779L37.9625 1.24371C37.951 1.191 38.106 1.20998 38.1395 1.24899C38.2799 1.37127 38.084 1.43345 38.0232 1.44188L37.9834 1.35018C37.6241 1.45455 38.0421 1.71915 38.0222 1.90996L37.7603 1.8309L37.9782 2.02274C37.9101 2.0628 37.7645 2.08704 37.7247 1.99533C37.5948 2.12394 37.819 2.11447 37.6724 2.22305C37.6493 2.23464 37.6367 2.22831 37.6273 2.21672L37.6975 2.34744C37.6441 2.32003 37.5121 2.36113 37.554 2.28523C37.3905 2.5045 37.7289 2.66369 37.5257 2.73748L37.511 2.71745C37.5812 3.04003 37.7006 2.75963 37.9112 3.01896C37.7519 3.06007 37.5896 3.10012 37.4251 3.13807L37.6126 3.18761C37.6021 3.21924 37.5802 3.28249 37.5048 3.26351C37.621 3.39845 37.5907 3.25088 37.7048 3.33522C37.5131 3.47331 37.7352 3.78218 37.4283 3.77691C37.5666 3.85387 37.5571 3.64092 37.6378 3.82329C37.4723 3.82434 37.4807 3.87496 37.5089 3.94032C37.5341 4.00567 37.5802 4.08684 37.4932 4.14588C37.333 4.07525 37.445 3.95613 37.2712 4.07314C37.5393 4.20492 37.1612 4.33774 37.1947 4.46319C37.4157 4.51062 37.2502 4.74148 37.2733 4.95337C37.201 4.92491 37.0637 5.29915 36.9422 5.46044L36.9066 5.44569C37.0135 5.49208 37.048 5.56058 37.0522 5.63437C37.0553 5.70922 37.0334 5.79041 37.0365 5.86525C36.9045 5.82309 36.8595 5.78301 36.8207 5.69446L36.7851 5.82096C36.848 5.87051 36.8741 5.92111 36.8752 6.01177L36.7191 5.93165C36.6992 6.01704 36.7233 6.11613 36.7306 6.21839C36.738 6.31959 36.7307 6.42501 36.6364 6.51357C36.7851 6.57787 37.1235 6.47877 37.1444 6.74548C37.0585 6.72651 36.915 6.6875 36.9014 6.61687C36.9056 6.64007 36.9454 6.71071 36.8962 6.73812L36.7893 6.60002C36.694 6.67802 36.8878 6.69066 36.8469 6.7655C36.7296 6.72439 36.7432 6.79503 36.6532 6.75181C36.649 6.72757 36.7254 6.70017 36.6898 6.65378C36.6384 6.73495 36.5316 6.81822 36.4311 6.82138C36.5002 6.83719 36.5892 6.87727 36.5819 6.94685C36.5327 7.11762 36.4216 6.95317 36.3284 7.02802C36.3955 7.0976 36.275 7.17242 36.4478 7.24094C36.4279 7.28838 36.3431 7.26624 36.2886 7.2673C36.3305 7.38115 36.1514 7.67001 36.3724 7.64892L36.3934 7.63207C36.3955 7.63734 36.3934 7.6426 36.3955 7.64892C36.3955 7.64787 36.3955 7.64892 36.3955 7.64787L36.3955 7.64892C36.4248 7.82392 36.341 7.96095 36.2467 8.08956C36.1451 8.21607 36.032 8.33519 36.0058 8.48805L35.9492 8.46169C35.9366 8.6525 35.8256 8.8412 35.8822 9.01303C35.857 9.06047 35.723 9.07207 35.6674 9.0183C35.6465 9.15956 35.6999 9.207 35.5187 9.33245C35.4862 9.16062 35.4118 9.32928 35.5134 9.17116C35.3846 9.30293 35.2799 9.28817 35.3406 9.53801C35.2861 9.47054 35.2264 9.47581 35.1814 9.50954C35.1343 9.54222 35.1007 9.60232 35.1007 9.64976L35.2621 9.60022C35.2348 9.69298 35.1814 9.7573 35.1269 9.8216L34.9688 9.67822C34.7687 9.76783 34.7823 9.95864 34.7802 10.1347C34.7812 10.3118 34.753 10.4625 34.5016 10.4615C34.5728 10.6207 34.6943 10.355 34.7928 10.5184C34.6776 10.6439 34.334 10.6217 34.3057 10.6628C34.0868 10.7841 34.4492 11.0128 34.2439 11.1604C34.3225 11.1794 34.5037 11.269 34.4555 11.4566C34.335 11.5778 34.0815 11.4398 34.0941 11.3196C34.1119 11.2838 34.1423 11.2816 34.1622 11.2985C34.1716 11.2395 34.1863 11.1636 34.0815 11.1699L34.1297 11.231C34.0197 11.2532 33.8951 11.4408 33.827 11.3248C33.8124 11.4672 33.8951 11.4408 33.9799 11.3892C33.7694 11.4956 33.7893 11.658 33.5944 11.7813C33.6479 11.7792 33.738 11.8087 33.716 11.8351C33.4457 12.028 33.74 12.0333 33.63 12.2251C33.4645 12.2504 33.4457 12.0196 33.3849 12.2504C33.2435 12.3052 33.2153 12.1461 33.1995 12.067C33.1912 12.3158 32.8937 12.2873 32.8015 12.3537L32.8224 12.2378C32.8099 12.3074 32.7763 12.3442 32.7418 12.3822L32.8926 12.436C32.8329 12.4644 32.7994 12.5024 32.7533 12.4613C32.7858 12.573 32.9723 12.5888 32.9911 12.7723C32.8811 12.7839 32.8874 13.0158 32.7229 12.903C32.9408 12.7554 32.5564 12.7902 32.6737 12.6067C32.6643 12.6542 32.6308 12.6911 32.571 12.7196C32.549 12.7111 32.5459 12.6858 32.548 12.6658C32.2589 12.728 32.6423 12.9019 32.4642 13.0832C32.4045 12.9831 32.2694 12.9799 32.2589 13.0263C32.3301 12.9546 32.4286 13.1191 32.4254 13.2466C32.2505 13.3046 32.35 13.4206 32.283 13.4754L32.3793 13.4332C32.437 13.5355 32.3699 13.585 32.3155 13.6936C32.2463 13.6399 32.3448 13.5755 32.2893 13.5787C32.3427 13.8117 31.9457 13.6409 31.9111 13.857C31.8001 13.8591 31.7592 13.7115 31.6723 13.7242C31.6314 13.9656 31.4146 13.76 31.3496 13.9909C31.4942 14.0605 31.4775 14.0257 31.4722 14.2344L31.6451 13.9192L31.6367 14.2312C31.7132 14.1606 31.7288 14.0099 31.7906 13.9856C31.8001 14.148 31.7812 14.1132 31.9038 14.1691C31.6461 14.1026 31.7927 14.4653 31.5654 14.4631L31.3182 14.1849C31.026 14.2228 31.1213 14.6171 30.8217 14.7594L30.9401 14.7404C30.9726 14.811 30.9391 14.8479 30.8919 14.8817C30.8437 14.9133 30.783 14.9418 30.7631 14.9976C30.6908 14.8954 30.6122 14.9017 30.5284 14.8701C30.5913 14.9386 30.3441 15.0113 30.4782 15.2232L30.2655 15.1863C30.0278 15.2981 30.2529 15.6481 30.0288 15.7682C30.0068 15.6143 29.8633 15.6133 29.9366 15.4351C29.8706 15.4847 29.7973 15.511 29.8486 15.5806C29.7638 15.5469 29.7669 15.8547 29.6349 15.8062C29.6391 15.8715 29.7072 15.9833 29.6266 16.0328C29.6035 16.0191 29.5909 15.9833 29.5909 15.9833C29.6276 16.0339 29.5207 16.1361 29.6684 16.2004C29.4495 16.1172 29.307 16.2268 29.1719 16.3396C29.0368 16.4513 28.909 16.5705 28.7215 16.4914C28.5927 16.6253 28.4313 16.7792 28.2983 16.8772C28.2868 16.8403 28.2658 16.8245 28.2983 16.8182C28.0469 16.8446 28.3727 17.2009 28.0804 17.2262C27.8615 17.1239 28.1412 17.0617 28.0301 17.0396C27.785 16.7086 27.7924 17.2494 27.52 17.1345L27.5431 17.0923C27.3598 17.0406 27.3461 17.3959 27.1398 17.475C27.1398 17.475 27.1314 17.4381 27.1105 17.4201C27.0843 17.6752 26.8706 17.8755 26.7135 18.0295C26.6957 17.8566 26.7564 17.9082 26.6454 17.7838C26.5742 17.8492 26.7941 18.002 26.6485 18.1307C26.5521 18.0811 26.3961 18.0769 26.3008 17.9304L26.4526 17.8397C26.2672 17.6826 26.2546 17.9525 26.153 17.9609L26.1185 17.8682C25.8933 18.0189 26.0054 18.2498 25.733 18.3605L25.7927 18.4142C25.756 18.7052 25.6115 18.3489 25.5476 18.5829L25.3968 18.3794C25.3276 18.4775 25.1694 18.7621 25.0144 18.8802C25.0374 18.6694 25.1956 18.488 25.27 18.3289C25.1757 18.3721 24.962 18.4996 24.962 18.6324C24.9903 18.5934 25.0134 18.5165 25.0668 18.5334C25.0333 18.7653 24.9181 18.9213 24.7253 19.0035C24.564 18.5471 24.1806 19.1153 23.8946 18.8222C23.7606 18.9751 23.5857 19.0267 23.3982 19.0647C23.2086 19.0984 23.0053 19.1142 22.8126 19.2049C23.086 19.5032 22.7005 19.2597 22.8597 19.6118C22.7749 19.6708 22.7372 19.6792 22.7204 19.6582C22.5999 19.6223 22.4784 19.5812 22.358 19.5433C22.2532 19.461 22.4187 19.4315 22.38 19.3525C22.1663 19.3967 22.2396 19.2281 22.071 19.1796C22.1443 19.2997 22.0657 19.3915 21.9327 19.383L22.1548 19.4937C21.9348 19.7878 21.8049 19.2776 21.5807 19.5654L21.6331 19.4199C21.5074 19.5359 21.0873 19.5949 21.0339 19.9396C20.9941 19.9059 20.9281 19.8163 20.9857 19.7678C20.617 19.8332 20.2797 20.3213 19.9466 20.22L19.9487 20.121C19.889 20.1673 19.8796 20.3265 19.7696 20.259C19.7633 20.22 19.7717 20.16 19.7392 20.1642C19.713 20.2074 19.6031 20.3739 19.4994 20.3423L19.5486 20.22C19.1642 20.1895 19.0709 20.609 18.786 20.7482C18.72 20.4762 18.4225 20.4646 18.2727 20.4477L18.2685 20.4088C17.8475 20.4646 17.6149 20.7861 17.2483 20.978C16.9498 20.7303 16.4082 21.0023 15.9934 20.9063C16.0605 20.9453 16.0196 21.1224 15.9546 21.1625C15.8551 21.1245 15.7315 21.3912 15.7064 21.1382L15.7399 21.1382C15.632 20.901 15.456 20.9938 15.3094 21.0075L15.3335 21.3417C15.1062 21.1287 14.8631 21.2089 14.64 21.2932C14.4169 21.3723 14.2127 21.4492 14.0838 21.2458C14 21.3385 13.8848 21.3501 13.801 21.444L13.7874 21.2647C13.6565 21.2563 13.559 21.25 13.4543 21.2553C13.3506 21.2616 13.2395 21.2774 13.0814 21.309L13.1348 21.1773C12.9557 21.1794 12.9504 21.7086 12.7839 21.7307L12.7137 21.4682C12.5566 21.4819 12.3942 21.4355 12.236 21.4197C12.1564 21.4113 12.0779 21.4113 12.0004 21.4292C11.9228 21.445 11.8464 21.4777 11.771 21.542C11.7741 21.503 11.7793 21.425 11.8296 21.4123C11.6809 21.4113 11.2514 21.2531 11.3184 21.6179C11.3058 21.3797 10.9937 21.6073 10.824 21.7191L10.846 21.542C10.7077 21.7729 10.7035 21.835 10.5024 21.8972C10.4542 21.8741 10.4585 21.756 10.5224 21.8013C10.3621 21.7096 10.3998 21.9689 10.2049 21.8751L10.2762 21.7623C10.1128 21.7497 10.1253 21.8098 10.0352 21.9415C9.93153 22.0122 9.72311 21.8983 9.70006 21.7391C9.67807 21.8361 9.58691 21.9668 9.48949 21.9215C9.47692 21.8614 9.51255 21.8235 9.53036 21.8055C9.25906 21.6864 9.11867 22.0006 8.93326 21.8235C8.93117 21.7655 8.91967 21.7349 8.90396 21.717C9.12079 21.7286 9.29573 21.7433 9.27897 21.756C9.28106 21.5937 9.10822 21.5599 9.25068 21.3396C9.10927 21.4576 8.86203 21.7159 8.69338 21.6348C8.68605 21.6189 8.6777 21.6031 8.67246 21.5778L8.69026 21.5599C8.65151 21.542 8.61589 21.5567 8.58132 21.5831C8.5279 21.5546 8.49437 21.5336 8.44199 21.5293C8.42733 21.3944 8.24507 21.4503 8.15813 21.4419C8.15708 21.62 8.04396 21.5873 8.14452 21.7381C8.13091 21.7244 8.16233 21.717 8.22099 21.7117C8.2346 21.7064 8.2503 21.7043 8.25868 21.6948C8.25659 21.6991 8.25449 21.7043 8.25239 21.7107C8.31 21.7075 8.38543 21.7054 8.47028 21.7054C8.398 21.794 8.32156 21.8667 8.22938 21.7655C8.1791 21.8783 8.12355 21.9942 8.09317 22.048C7.98423 21.7929 7.76115 21.6432 7.73811 21.4893C7.46576 21.5715 7.10855 21.5135 6.91372 21.8351C6.83411 21.873 6.83408 21.7339 6.80999 21.6801C6.85713 21.6495 6.90847 21.6579 6.93571 21.6116C6.77649 21.6906 6.48425 21.6021 6.42664 21.833C6.24438 21.7086 6.55443 21.6295 6.28732 21.6411L6.32921 21.5736C6.08933 21.3617 5.86727 21.4893 5.63473 21.6021C5.40219 21.7181 5.16124 21.8003 4.9067 21.5262C4.94232 21.561 4.96013 21.5768 4.96327 21.6168C4.80719 21.542 4.64377 21.5051 4.47722 21.4861C4.31067 21.4671 4.13997 21.465 3.97132 21.4513C3.63298 21.4271 3.29671 21.3881 3.0076 21.1678C2.83896 21.0708 2.79289 21.2078 2.65985 21.2974L2.65776 21.1014L2.42627 21.2774C2.12354 21.3786 2.06068 20.7218 1.65844 20.9485L1.67415 21.0834C1.55787 21.036 1.274 21.0644 1.32742 20.9263C1.30961 20.9464 1.25727 21.0465 1.22584 20.9696L1.24574 20.8715L0.909495 20.9643C0.696854 20.8368 1.04039 20.588 0.712528 20.4868C0.580543 20.4931 0.286193 20.6807 0.315523 20.7566C0.364755 20.7735 0.428665 20.8483 0.406667 20.9464L0.278902 20.9685C0.18358 21.2479 0.014931 21.5167 0.250617 21.7876L0.494641 21.6632L0.523999 21.8182L0.35327 21.7855C0.416119 21.9394 0.506208 21.8393 0.59315 21.7771C0.591055 21.8551 0.605714 21.9131 0.639234 21.951L0.90213 21.7265C0.898988 21.8445 0.760721 21.9268 0.87804 22.0217C1.0006 21.9173 0.84977 21.7486 1.02156 21.7033C1.08546 21.8572 1.0331 21.9563 1.17137 21.873C1.17032 21.951 1.13572 21.9921 1.08334 22.0132C1.20485 21.9489 1.35673 22.0427 1.44368 21.9004C1.50862 22.0828 1.79254 21.9299 1.7234 22.1998C1.76949 22.1418 1.94647 22.0237 2.04179 22.0311C1.80506 22.3221 2.38437 22.1229 2.26914 22.4644C2.36132 22.3305 2.48074 22.3221 2.60958 22.3316C2.73842 22.3421 2.87666 22.3632 3.00341 22.301C2.98665 22.3221 2.95312 22.3653 2.93636 22.3474C3.05787 22.3938 3.07882 22.4886 3.15005 22.5593C3.20976 22.3179 3.41507 22.2957 3.54496 22.164C3.65913 22.4264 3.40357 22.4349 3.413 22.67C3.43918 22.4707 3.71466 22.5192 3.68848 22.3442C3.78275 22.5108 3.77855 22.4328 3.80683 22.6457C3.87597 22.3432 3.92523 22.6141 4.05198 22.4412C4.20072 22.6162 4.05302 22.7343 4.25519 22.6668C4.33899 22.7712 4.15463 22.8566 4.15463 22.8566ZM8.70806 22.729C8.70806 22.7311 8.70806 22.7322 8.70806 22.7322C8.6693 22.7353 8.63577 22.7374 8.61482 22.7395C8.63472 22.7374 8.66092 22.7343 8.70806 22.729ZM9.08619 22.7385C9.0401 22.73 8.98358 22.7269 8.92283 22.7269C8.91131 22.6658 8.92701 22.6025 8.96472 22.6067C8.94272 22.6468 9.03068 22.6847 9.08619 22.7385ZM8.33934 21.4819C8.398 21.4587 8.41584 21.4935 8.42317 21.5304C8.39594 21.5325 8.36347 21.5378 8.32052 21.5483C8.31843 21.5547 8.3142 21.562 8.31316 21.5694C8.31944 21.5367 8.32677 21.5051 8.33934 21.4819Z" fill="#0055A3" fill-opacity="0.46"/>
<path d="M8.22542 21.7126C8.21698 21.7168 8.21171 21.7232 8.20117 21.7253C8.21277 21.7411 8.22332 21.7548 8.23386 21.7664C8.24229 21.7474 8.24964 21.7284 8.25702 21.7116C8.24542 21.7116 8.2349 21.7116 8.22542 21.7126Z" fill="#0055A3" fill-opacity="0.46"/>
<path d="M36.3657 7.65567L36.3594 7.66092C36.3678 7.65776 36.3773 7.65461 36.3889 7.65567C36.3794 7.65778 36.3741 7.65567 36.3657 7.65567Z" fill="#0055A3" fill-opacity="0.46"/>
<path d="M14.3317 22.8347L14.3264 22.7894L14.2969 22.8326L14.3317 22.8347Z" fill="#0055A3" fill-opacity="0.46"/>
<path d="M37.5977 5.88748C37.6135 5.88748 37.6314 5.8843 37.6493 5.87271C37.6377 5.8706 37.6187 5.87799 37.5977 5.88748Z" fill="#0055A3" fill-opacity="0.46"/>
<path d="M37.8477 5.00858C37.8772 4.97062 37.9099 4.93372 37.9373 4.89472C37.893 4.94321 37.8645 4.97906 37.8477 5.00858Z" fill="#0055A3" fill-opacity="0.46"/>
<path d="M38.062 4.33084C38.0325 4.31714 38.0104 4.31081 37.9893 4.30449L37.9883 4.30554L38.062 4.33084Z" fill="#0055A3" fill-opacity="0.46"/>
<path d="M33.1596 14.2758C33.1533 14.2832 33.1491 14.2917 33.147 14.3012C33.1269 14.3718 33.148 14.3307 33.1596 14.2758Z" fill="#0055A3" fill-opacity="0.46"/>
<path d="M34.9395 11.445C34.9458 11.4914 34.9511 11.5378 34.9469 11.5789C34.9922 11.5388 35.0227 11.504 34.9395 11.445Z" fill="#0055A3" fill-opacity="0.46"/>
<path d="M30.4927 16.9082C30.4927 16.9072 30.4916 16.9071 30.4916 16.905C30.4853 16.9103 30.48 16.9145 30.4727 16.9187L30.4927 16.9082Z" fill="#0055A3" fill-opacity="0.46"/>
<path d="M34.8535 11.7019C34.9164 11.6745 34.9394 11.6303 34.9457 11.5786C34.908 11.6113 34.8598 11.6471 34.8535 11.7019Z" fill="#0055A3" fill-opacity="0.46"/>
<path d="M38.3454 1.26639L38.3507 1.23159C38.3391 1.23265 38.3296 1.23056 38.3223 1.22845L38.3454 1.26639Z" fill="#0055A3" fill-opacity="0.46"/>
<path d="M38.322 1.22928L38.2988 1.19237C38.2999 1.20924 38.302 1.22401 38.322 1.22928Z" fill="#0055A3" fill-opacity="0.46"/>
<path d="M38.25 1.11416L38.2996 1.19217C38.2985 1.16476 38.3027 1.12997 38.25 1.11416Z" fill="#0055A3" fill-opacity="0.46"/>
<path d="M38.2695 2.2088L38.3339 2.22147C38.3212 2.21514 38.3001 2.21091 38.2695 2.2088Z" fill="#0055A3" fill-opacity="0.46"/>
<path d="M38.2715 2.49484C38.2904 2.42737 38.4182 2.32931 38.3836 2.23233L38.3333 2.2218C38.4255 2.27029 38.1668 2.42632 38.2715 2.49484Z" fill="#0055A3" fill-opacity="0.46"/>
<path d="M37.3852 3.58475L37.4627 3.36444C37.3905 3.39712 37.293 3.43717 37.2888 3.33386C37.0531 3.59319 37.447 3.29274 37.3852 3.58475Z" fill="#0055A3" fill-opacity="0.46"/>
<path d="M37.1859 4.26209C37.1754 4.1377 37.0874 4.24736 37.0508 4.23365C37.099 4.32009 37.1115 4.34115 37.1859 4.26209Z" fill="#0055A3" fill-opacity="0.46"/>
<path d="M35.5805 9.04373L35.4432 8.95939C35.4212 9.05111 35.4988 8.98786 35.5805 9.04373Z" fill="#0055A3" fill-opacity="0.46"/>
<path d="M35.8359 10.3154L35.97 10.2827L35.8653 10.1699L35.8359 10.3154Z" fill="#0055A3" fill-opacity="0.46"/>
<path d="M34.56 10.2189L34.5621 10.1726L34.5273 10.3328L34.56 10.2189Z" fill="#0055A3" fill-opacity="0.46"/>
<path d="M28.7734 16.2252L28.9075 16.3738C28.94 16.3074 28.8248 16.1155 28.7734 16.2252Z" fill="#0055A3" fill-opacity="0.46"/>
<path d="M25.7119 18.2524C25.6312 18.1807 25.5108 18.168 25.4961 18.284C25.5768 18.2597 25.6846 18.2935 25.7119 18.2524Z" fill="#0055A3" fill-opacity="0.46"/>
<path d="M15.1148 21.1238L15.1787 21.0469L15.0488 21.1217L15.1148 21.1238Z" fill="#0055A3" fill-opacity="0.46"/>
<path d="M10.4504 29.5486C10.4776 29.5012 10.5216 29.3863 10.4965 29.401L10.4043 29.5887L10.4504 29.5486Z" fill="#0055A3" fill-opacity="0.46"/>
<path d="M10.4958 29.1455C10.4382 29.2309 10.3471 29.3848 10.2832 29.5672C10.3806 29.3901 10.3523 29.4691 10.4654 29.2583C10.4906 29.2425 10.4665 29.3321 10.434 29.4017C10.4602 29.3542 10.4403 29.4544 10.5 29.3374C10.543 29.1792 10.5199 29.1624 10.4414 29.273C10.4529 29.2277 10.4801 29.1803 10.4958 29.1455Z" fill="#0055A3" fill-opacity="0.46"/>
<path d="M9.14469 28.155L9.14258 28.1824C9.14574 28.1676 9.1468 28.1592 9.14469 28.155Z" fill="#0055A3" fill-opacity="0.46"/>
<path d="M8.30273 27.5847C8.31222 27.5837 8.3249 27.5668 8.33439 27.551C8.32174 27.5595 8.31011 27.5679 8.30273 27.5847Z" fill="#0055A3" fill-opacity="0.46"/>
<path d="M8.26172 27.2992C8.26172 27.3066 8.26277 27.3108 8.26383 27.3172C8.27015 27.2982 8.27226 27.2866 8.26172 27.2992Z" fill="#0055A3" fill-opacity="0.46"/>
<path d="M9.14505 28.1551L9.1503 28.0844C9.11762 28.1435 9.13978 28.135 9.14505 28.1551Z" fill="#0055A3" fill-opacity="0.46"/>
<path d="M10.0879 29.5163C10.0974 29.51 10.1101 29.4931 10.1238 29.4721C10.1153 29.4784 10.108 29.4836 10.1016 29.4868C10.0974 29.4973 10.0932 29.5058 10.0879 29.5163Z" fill="#0055A3" fill-opacity="0.46"/>
<path d="M9.61719 28.1988L9.6246 28.2019C9.63725 28.1798 9.65197 28.1556 9.66779 28.1281L9.61719 28.1988Z" fill="#0055A3" fill-opacity="0.46"/>
<path d="M9.93857 28.3167C9.93438 28.3061 9.85788 28.4663 9.82227 28.5359C9.85683 28.4716 9.87677 28.4421 9.8883 28.4326C9.90296 28.402 9.91867 28.3652 9.93857 28.3167Z" fill="#0055A3" fill-opacity="0.46"/>
<path d="M10.3047 28.825L10.3236 28.8071C10.3184 28.8123 10.3121 28.8165 10.3047 28.825Z" fill="#0055A3" fill-opacity="0.46"/>
<path d="M9.41602 28.0574C9.42761 28.0332 9.43602 28.0121 9.44129 27.9994C9.4318 28.0194 9.42339 28.0384 9.41602 28.0574Z" fill="#0055A3" fill-opacity="0.46"/>
<path d="M0.787402 23.4597C0.79689 23.4503 0.802156 23.445 0.809536 23.4376C0.794777 23.4482 0.785294 23.4566 0.787402 23.4597Z" fill="#0055A3" fill-opacity="0.46"/>
<path d="M1.125 22.5535L1.13555 22.5503C1.1598 22.5271 1.18404 22.504 1.20828 22.4818L1.125 22.5535Z" fill="#0055A3" fill-opacity="0.46"/>
<path d="M8.10156 26.9464C8.10156 26.9488 8.10156 26.9488 8.10156 26.95C8.12065 26.9357 8.11468 26.9369 8.10156 26.9464Z" fill="#0055A3" fill-opacity="0.46"/>
<path d="M5.6253 25.5239C5.56036 25.6726 5.46505 25.6599 5.4043 25.8328C5.43991 25.7727 5.59912 25.6315 5.6253 25.5239Z" fill="#0055A3" fill-opacity="0.46"/>
<path d="M10.0879 29.4923C10.0826 29.4923 10.0774 29.4912 10.0742 29.4881C10.0774 29.4954 10.0816 29.4965 10.0879 29.4923Z" fill="#0055A3" fill-opacity="0.46"/>
<path d="M5.40282 25.8305L5.40179 25.8316L5.39648 25.8484C5.39965 25.841 5.40071 25.8368 5.40282 25.8305Z" fill="#0055A3" fill-opacity="0.46"/>
<path d="M7.43025 26.6779C7.41549 26.7054 7.40597 26.7275 7.39648 26.7486C7.40597 26.7328 7.41655 26.7127 7.43025 26.6779Z" fill="#0055A3" fill-opacity="0.46"/>
<path d="M7.76371 27.1707L7.76371 27.1433C7.76055 27.1601 7.76161 27.1665 7.76371 27.1707Z" fill="#0055A3" fill-opacity="0.46"/>
<path d="M7.06283 26.7486C7.06389 26.7328 7.07445 26.7106 7.05336 26.7264C7.0502 26.7338 7.04808 26.7401 7.04492 26.7465C7.06073 26.7275 7.07021 26.7201 7.06283 26.7486Z" fill="#0055A3" fill-opacity="0.46"/>
<path d="M6.81555 26.594C6.81028 26.6056 6.80605 26.6161 6.80078 26.6277C6.805 26.6267 6.80923 26.6256 6.81344 26.6246L6.81555 26.594Z" fill="#0055A3" fill-opacity="0.46"/>
<path d="M1.50837 24.0496C1.5377 24.0085 1.57226 23.9652 1.60683 23.9241C1.52407 24.019 1.46123 24.0201 1.50837 24.0496Z" fill="#0055A3" fill-opacity="0.46"/>
<path d="M10.1269 29.4246C10.1069 29.4647 10.0963 29.4847 10.0879 29.491C10.0921 29.491 10.0963 29.4889 10.1006 29.4868C10.1121 29.4625 10.1227 29.4404 10.1269 29.4246Z" fill="#0055A3" fill-opacity="0.46"/>
<path d="M6.32339 27.9383L6.29492 27.8908C6.29808 27.913 6.30863 27.9298 6.32339 27.9383Z" fill="#0055A3" fill-opacity="0.46"/>
<path d="M3.16276 25.4723L3.14062 25.4817C3.14063 25.4881 3.14695 25.486 3.16276 25.4723Z" fill="#0055A3" fill-opacity="0.46"/>
<path d="M6.16016 27.8347C6.18546 27.7768 6.19704 27.7409 6.20231 27.7156C6.19283 27.7262 6.18547 27.7346 6.17282 27.7515L6.16016 27.8347Z" fill="#0055A3" fill-opacity="0.46"/>
<path d="M1.60702 23.9211L1.60547 23.9226L1.60702 23.9211Z" fill="#0055A3" fill-opacity="0.46"/>
<path d="M1.08805 24.0042C1.11842 24.0401 1.26189 23.8545 1.36035 23.7649C1.4452 23.7555 1.25981 23.9062 1.19172 24.0053C1.25981 23.9842 1.42532 23.8482 1.43789 23.8725C1.41275 23.902 1.40648 23.9157 1.36982 23.9463C1.52275 23.8366 1.4536 24.0148 1.6432 23.8746C1.63167 23.8914 1.61912 23.9073 1.6076 23.921C1.68302 23.8314 1.76263 23.7439 1.82129 23.6838C1.8391 23.6954 1.94906 23.6026 1.8506 23.7186C1.84431 23.707 1.80241 23.7513 1.76575 23.7818L1.82651 23.7481C1.69138 23.921 1.75423 23.7829 1.6432 23.9009C1.72176 23.8777 1.88099 23.7797 1.86108 23.8472C1.71967 24.0085 1.75841 23.8482 1.6589 24.0169L1.6788 23.9231C1.47558 24.1961 1.67252 23.8851 1.4515 24.1729C1.45674 24.2636 1.57825 24.1445 1.58453 24.2351C1.67671 24.1582 1.7008 24.1023 1.79193 24.0253C2.00562 23.9305 1.48081 24.4713 1.72488 24.3079C1.83487 24.2151 2.02239 24.019 1.96164 24.1581L1.78564 24.3258C1.81707 24.3869 2.04648 24.0928 1.98573 24.2583C1.91345 24.3205 1.8946 24.2836 1.88308 24.3121C1.78671 24.4829 1.99831 24.2309 2.0224 24.253L1.88308 24.4164C1.9564 24.4375 2.11457 24.3722 2.19523 24.3933C2.15019 24.4386 2.09569 24.4797 2.06532 24.5398C2.20568 24.524 2.19734 24.6958 2.18372 24.8508L2.33138 24.7348C2.33662 24.7411 2.28739 24.8075 2.25702 24.8286C2.23816 24.9045 2.33559 24.7411 2.39634 24.6979C2.42043 24.7011 2.34712 24.7959 2.29998 24.8297C2.45082 24.7527 2.65509 24.6905 2.57653 24.8845L2.53147 24.9182C2.52204 25.0089 2.82163 24.6673 2.74516 24.8307L2.71688 24.8497C2.74935 24.9846 2.95046 24.9351 2.83733 25.2029C3.02064 25.0078 2.84677 25.3652 3.08979 25.0827C3.02171 25.265 2.96511 25.3051 2.95569 25.459C2.96302 25.4875 3.13063 25.302 3.17777 25.2904L3.05522 25.4411L3.21444 25.3083L3.08458 25.5022L3.13797 25.4812C3.13693 25.4653 3.17466 25.3979 3.21132 25.3557C3.30036 25.3146 3.20816 25.5286 3.14636 25.6066L3.3286 25.5444C3.27832 25.6045 3.24795 25.614 3.20605 25.6446C3.3726 25.5244 3.0856 25.8111 3.23853 25.7015C3.26053 25.6625 3.31395 25.6129 3.33909 25.5834C3.28566 25.6909 3.32966 25.7268 3.39356 25.7141L3.30451 25.8143C3.34431 25.8891 3.47108 25.8638 3.53708 25.9187C3.55069 25.8501 3.69945 25.6709 3.73297 25.6688L3.61456 25.8375C3.7057 25.7468 3.64184 25.7605 3.76335 25.6572C3.77383 25.6952 3.63658 25.8554 3.58106 25.8965L3.65543 25.8638C3.61982 25.9134 3.5926 25.9334 3.54337 25.9946C3.6345 25.9039 3.47004 26.2001 3.62403 26.0388L3.58838 26.0884C3.65542 26.1432 3.72876 26.1116 3.79056 26.1463C3.8995 26.0061 3.89636 26.0546 4.00006 25.9524C4.00635 26.0283 3.96866 26.1738 4.02732 26.1991C4.11531 26.1548 4.12788 26.0863 4.20644 26.0135C4.11216 26.1453 4.17082 26.1695 4.0755 26.2433C4.15092 26.2665 4.17079 26.2739 4.32372 26.2244C4.35514 26.1653 4.36248 26.1348 4.40018 26.0936C4.42951 26.082 4.39078 26.1717 4.34259 26.2328L4.32899 26.2433C4.55525 26.1094 4.24624 26.7704 4.5123 26.5469L4.49869 26.5575L4.67152 26.4647C4.68828 26.51 4.58144 26.5501 4.54687 26.6481C4.77942 26.4826 4.64532 26.7662 4.81187 26.6639C4.5877 27.0898 5.00357 26.7588 4.89672 27.0561L4.95641 26.9612C5.03602 26.8822 4.94071 27.0287 4.93861 27.0593C4.98575 26.9865 4.9774 26.9633 5.02244 26.9201C5.24242 26.9106 5.23193 27.2606 5.3283 27.4483C5.36706 27.5105 5.67917 26.9834 5.60061 27.2543L5.46655 27.4156C5.71376 27.2817 5.69072 27.5758 5.91593 27.4662C5.88346 27.5031 5.84994 27.5547 5.83947 27.5474C5.78185 27.6897 5.92221 27.6085 5.9882 27.5041C5.99763 27.5273 5.93269 27.6011 5.90964 27.6612C5.88555 27.7519 6.07199 27.5347 6.00391 27.6707C5.99343 27.6928 5.97147 27.7087 5.96099 27.715C6.01546 27.6623 6.02275 27.7761 6.10027 27.619C6.09817 27.716 6.22077 27.6032 6.19878 27.7129C6.32343 27.56 6.22074 27.8383 6.37263 27.6075C6.21969 27.8489 6.32446 27.851 6.42188 27.7508C6.36846 27.8193 6.39884 27.8415 6.32552 27.9374C6.35799 27.9522 6.41351 27.9237 6.48474 27.7951C6.36428 28.1219 6.73822 27.6275 6.54443 28.0217C6.71412 27.9448 6.84925 27.9047 6.96343 27.8963C6.81678 28.1398 6.85973 27.8668 6.71204 28.1272C6.84926 28.0723 7.01579 27.8879 7.05769 27.9933C7.05769 28.0386 6.98437 28.0934 6.95294 28.1314C7.08807 28.0766 7.09016 28.2399 7.23681 28.1451C7.22319 28.1683 7.20227 28.1894 7.18341 28.2041C7.20122 28.2041 7.1949 28.2589 7.2567 28.1451L7.22632 28.1683C7.29755 27.9922 7.47459 27.8573 7.52487 27.7729C7.31956 28.0829 7.54688 27.8931 7.27977 28.28C7.30072 28.2642 7.34262 28.2168 7.38242 28.1409C7.38347 28.1704 7.36254 28.2168 7.30074 28.2948C7.38454 28.2611 7.43374 28.1314 7.47669 28.1588C7.44631 28.2136 7.42537 28.2294 7.38452 28.2916C7.46623 28.1978 7.54897 28.104 7.55944 28.1714C7.5385 28.2031 7.51967 28.2484 7.50814 28.241C7.58147 28.261 7.77417 28.0175 7.78674 28.1609C7.63486 28.3886 7.76789 28.2537 7.6579 28.4624L7.73017 28.4213L7.77002 28.3127C7.80144 28.3338 7.91348 28.1988 7.9051 28.2821L7.8339 28.3538L7.91768 28.3485L7.92504 28.2505C8.01618 28.1619 8.06331 27.9859 8.07588 28.0671C8.05598 28.0839 8.10729 28.0871 8.0591 28.2189C8.11148 28.1619 8.1649 28.1008 8.16175 28.1651C8.13242 28.2347 8.03394 28.3928 8.01404 28.4392C8.12298 28.2737 8.11778 28.4329 8.2372 28.2579C8.20682 28.2979 8.14919 28.4065 8.13976 28.4308L8.22773 28.2969C8.21935 28.3506 8.20994 28.3738 8.16175 28.4592C8.19423 28.5098 8.28642 28.1862 8.28118 28.3306C8.27071 28.3401 8.26129 28.3622 8.24139 28.3791C8.26548 28.4687 8.39536 28.3464 8.41002 28.4434C8.31575 28.6627 8.3388 28.4708 8.26338 28.6585C8.35661 28.6606 8.54617 28.4877 8.59226 28.572L8.59124 28.5414C8.75255 28.2473 8.56922 28.7164 8.67711 28.5931C8.65721 28.611 8.58179 28.7533 8.60065 28.7207C8.62579 28.7934 8.73892 28.6985 8.86042 28.6416L8.81332 28.7143C8.80808 28.7976 8.86985 28.7924 8.88452 28.844C8.93165 28.7713 8.9432 28.7934 8.98824 28.6753C8.86987 29.1645 9.28573 28.533 9.19564 28.9399C9.18517 28.9357 9.13801 28.9958 9.14639 29L9.25431 28.9631C9.31087 28.8282 9.28258 28.8788 9.3161 28.7692C9.36219 28.6954 9.41245 28.6448 9.43026 28.6532C9.35588 28.7249 9.32971 28.8651 9.3098 28.9452C9.32656 28.9041 9.35276 28.8619 9.37057 28.8198C9.29829 29.0728 9.50253 28.5573 9.48053 28.7407L9.44493 28.8092C9.4816 28.7829 9.54236 28.6996 9.55388 28.7301C9.49103 28.8872 9.4994 28.7913 9.43864 28.9167C9.47321 28.922 9.63245 28.6543 9.58845 28.8198C9.55598 28.8567 9.5371 28.8482 9.50462 28.8851C9.45015 29.0791 9.47532 29.0348 9.4837 29.0738L9.4837 29.0685L9.49629 29.174L9.5057 29.1191C9.72777 28.7375 9.6157 29.0823 9.78644 28.844C9.62408 29.0696 9.71207 28.9842 9.62932 29.156C9.61989 29.2109 9.61461 29.2741 9.58738 29.3205C9.67537 29.1908 9.57692 29.4502 9.70471 29.2604C9.68062 29.3173 9.72776 29.2783 9.65863 29.4164C9.70996 29.3869 9.69531 29.3152 9.72988 29.2456C9.86396 29.077 9.73929 29.5292 9.92679 29.2973C10.0347 29.2151 10.13 29.0295 10.2264 28.96C10.2054 29.058 10.1206 29.1592 10.1206 29.1592C10.1143 29.2551 10.1436 29.2499 10.2002 29.1982C10.1729 29.2446 10.1604 29.2889 10.1415 29.3563C10.1708 29.3521 10.2463 29.1571 10.24 29.2541C10.2075 29.3152 10.1572 29.4122 10.1185 29.4712C10.1677 29.4312 10.241 29.3373 10.2902 29.2983C10.2557 29.4006 10.2086 29.4407 10.1709 29.5008C10.2211 29.4702 10.2913 29.447 10.3678 29.2952L10.372 29.2309C10.3866 29.2288 10.3207 29.3679 10.2997 29.3922C10.2201 29.5029 10.284 29.3205 10.307 29.2636L10.3426 29.2362C10.4652 28.8957 10.241 29.2541 10.2086 29.2172L10.3301 28.9831L10.2023 29.1655C10.2211 29.0991 10.2735 28.9621 10.3091 28.9347C10.3332 28.8029 10.2463 29.0095 10.2808 28.8661C10.2871 28.844 10.2934 28.8334 10.3007 28.825L10.2421 28.8841C10.2693 28.8356 10.3122 28.7122 10.3143 28.7544C10.3269 28.5942 10.1551 28.8999 10.217 28.7091L10.2274 28.6964C10.1227 28.747 10.1426 28.8704 9.99906 29.0538L10.1583 28.6037L10.0724 28.7765C10.0682 28.767 10.0598 28.7481 10.0944 28.6785C10.0137 28.7871 10.064 28.7565 9.99804 28.864C10.0358 28.689 9.87024 28.8956 9.98965 28.6121C9.91738 28.7396 9.97497 28.7301 9.89641 28.806C10.0232 28.5003 9.83148 28.8377 9.86291 28.6848C9.94357 28.5341 9.93519 28.63 9.96766 28.4772C9.82939 28.7302 9.93411 28.3917 9.88593 28.4297C9.78851 28.6374 9.78954 28.4898 9.71412 28.5393C9.74974 28.4708 9.68589 28.3865 9.6817 28.2927L9.69949 28.2579C9.59265 28.4645 9.56961 28.4044 9.51828 28.4339C9.57903 28.3095 9.60837 28.2621 9.65131 28.2136L9.62303 28.2009C9.58427 28.2653 9.55909 28.2958 9.52871 28.3116L9.61045 28.1588C9.56855 28.1493 9.44601 28.3074 9.44811 28.1788C9.37478 28.3232 9.29094 28.6036 9.19247 28.6753C9.22809 28.5952 9.29198 28.4603 9.32131 28.435C9.31188 28.4434 9.27419 28.4929 9.28152 28.4539L9.36637 28.3317C9.37266 28.2621 9.30143 28.436 9.28991 28.4149C9.34438 28.3032 9.31611 28.3285 9.36116 28.24C9.37058 28.2315 9.35379 28.2937 9.38208 28.2537C9.3716 28.2231 9.38001 28.1451 9.41353 28.0565C9.3842 28.1208 9.34019 28.2073 9.31819 28.2147C9.27629 28.2041 9.3716 28.0734 9.37788 28.0049C9.33074 28.0787 9.34647 27.9859 9.26372 28.1525C9.25325 28.1461 9.2899 28.0671 9.30771 28.0196C9.25219 28.0839 9.20716 27.9954 9.14117 28.1841L9.1401 28.1988C9.138 28.202 9.13595 28.201 9.13386 28.2041C8.98721 28.338 9.04901 28.0428 8.95055 28.0829L8.97878 28.027C8.9086 28.0713 8.87614 28.0228 8.78815 28.1282C8.77663 28.1219 8.81328 28.0133 8.85204 27.9501C8.80176 27.9775 8.76617 28.0386 8.77245 27.9248C8.85101 27.8436 8.80701 27.8341 8.83843 27.8689C8.82586 27.8014 8.86358 27.7087 8.74626 27.8383C8.83321 27.7034 8.81118 27.6443 8.77138 27.6781L8.74417 27.793C8.71379 27.8035 8.70331 27.7814 8.69179 27.7603L8.79864 27.579C8.84263 27.3123 8.46136 27.8921 8.60382 27.483C8.51478 27.6022 8.59646 27.5959 8.498 27.7392C8.476 27.696 8.58179 27.4103 8.57236 27.404C8.58074 27.2764 8.38385 27.6517 8.37233 27.5547C8.343 27.6243 8.25498 27.8035 8.18375 27.8457C8.16175 27.8025 8.29059 27.5463 8.34087 27.5052C8.35239 27.5041 8.34505 27.5273 8.33248 27.5495C8.35658 27.5315 8.38695 27.5115 8.41105 27.4324L8.37125 27.4957C8.39011 27.4188 8.33981 27.4008 8.40895 27.2986C8.34924 27.3471 8.3388 27.4008 8.33985 27.4451C8.34718 27.326 8.27174 27.4061 8.26231 27.3165C8.24974 27.3566 8.21415 27.4377 8.20681 27.4335C8.18586 27.3144 8.10937 27.5421 8.04862 27.5452C8.07795 27.4303 8.189 27.3112 8.09787 27.3703C8.10835 27.287 8.18796 27.1931 8.22881 27.1457C8.11777 27.249 8.19949 27.0192 8.18902 26.9834L8.23929 26.9423C8.20892 26.9665 8.19949 26.9591 8.18902 26.9528L8.12825 27.0909C8.12825 27.0614 8.11775 27.054 8.14917 27.0002C8.08842 27.0783 8.0371 27.2237 7.94596 27.326C7.96587 27.2501 7.85483 27.3681 7.94596 27.191C7.96587 27.2796 8.03816 27.0139 8.09787 27.0108C8.07797 27.0266 8.06749 27.0203 8.06749 26.9897C8.07692 26.9697 8.08947 26.9549 8.09889 26.9465C8.13556 26.7631 7.96586 27.1299 7.91558 27.0951C7.97738 27.0013 8.00776 26.9033 7.98785 26.9191C8.00776 26.9328 7.90619 27.0877 7.84439 27.151C7.85381 27.0561 7.77522 27.1868 7.76265 27.1678L7.76265 27.2153C7.70085 27.3091 7.69037 27.2859 7.64952 27.3038C7.69037 27.2269 7.70088 27.2638 7.71135 27.2258C7.5867 27.3818 7.75322 27.015 7.65161 27.1099C7.67256 27.035 7.75535 26.9264 7.76582 26.8737C7.65269 26.976 7.7993 26.7145 7.6977 26.7936C7.6338 26.9306 7.65476 26.9001 7.55106 27.0097L7.67361 26.9602L7.51965 27.1225C7.53955 27.1373 7.61184 27.0677 7.6108 27.0972C7.52804 27.191 7.54896 27.1594 7.49658 27.2743C7.58143 27.0614 7.37298 27.3534 7.41593 27.2016L7.60451 26.8801C7.63907 26.7072 7.41908 26.9918 7.40232 26.8716L7.38974 26.9401C7.30594 27.0624 7.33946 26.9338 7.28709 26.9728C7.35308 26.8664 7.36251 26.82 7.39393 26.7483C7.34784 26.8284 7.35102 26.7125 7.21799 26.9233L7.27348 26.7652C7.25567 26.6766 7.03048 27.034 7.0022 26.9665C7.08704 26.86 7.1101 26.7704 7.1939 26.7082C7.17818 26.6966 7.175 26.6682 7.12996 26.7419C7.16034 26.6692 6.9959 26.8579 7.04199 26.7472C7.00637 26.7894 6.93618 26.9001 6.92256 26.8801C6.93408 26.8569 6.95504 26.8273 6.95504 26.8273C6.92257 26.8801 6.88172 26.8801 6.8262 27.0087C6.97809 26.645 6.667 26.9412 6.79899 26.6292C6.74033 26.6418 6.67538 26.6482 6.63767 26.6344C6.65967 26.6039 6.6712 26.5817 6.67015 26.5965C6.68691 26.47 6.45118 26.8811 6.46899 26.7388C6.55069 26.5522 6.55491 26.6639 6.579 26.5891C6.79165 26.2381 6.48683 26.5965 6.5811 26.373L6.60202 26.3582C6.6502 26.2244 6.45436 26.4479 6.42607 26.3962C6.42607 26.3962 6.44805 26.3667 6.45958 26.3445C6.31607 26.5016 6.22282 26.5227 6.15054 26.5438C6.2511 26.4183 6.21553 26.4848 6.29723 26.3435C6.26581 26.3509 6.15997 26.567 6.09817 26.5796C6.13378 26.4974 6.14951 26.4162 6.24169 26.2676L6.28148 26.2834C6.38728 26.0831 6.23225 26.2602 6.2354 26.2149L6.29197 26.1337C6.22178 26.1253 6.0846 26.3319 6.03746 26.2781L6.00181 26.3445C5.83421 26.528 6.05211 26.2117 5.92013 26.3424L6.04897 26.1284C5.99554 26.1643 5.84263 26.2802 5.77978 26.2939C5.90443 26.1548 5.99975 26.1052 6.08774 26.0314C6.06888 26.0167 6.00915 26.0009 5.92954 26.0957C5.95153 26.081 5.99553 26.0378 5.98191 26.0747C5.84783 26.2201 5.76089 26.2781 5.72214 26.2465C6.00077 25.8512 5.68339 26.0747 5.86775 25.7436C5.69701 25.8406 5.77245 25.5824 5.67503 25.5486C5.48857 25.8775 5.64464 25.5402 5.42886 25.8596C5.39534 25.8659 5.3922 25.8565 5.40477 25.8343L5.47913 25.6045C5.53046 25.5033 5.54618 25.5476 5.59437 25.4759C5.57028 25.4221 5.67084 25.3294 5.70331 25.2271C5.62894 25.3441 5.57445 25.3778 5.58179 25.3188L5.51161 25.4875C5.33459 25.614 5.64882 25.1881 5.47284 25.3125L5.56189 25.2271C5.48961 25.264 5.454 25.147 5.24345 25.3757C5.2644 25.3357 5.31887 25.245 5.3482 25.2324C5.3063 25.1428 4.99726 25.3821 5.05487 25.186L5.11563 25.1143C5.0863 25.1269 4.98785 25.2398 5.02766 25.1512C5.05175 25.1206 5.08842 25.0795 5.08632 25.07C5.06014 25.0911 4.95331 25.1765 4.96797 25.1196L5.04653 25.0458C5.05177 24.895 4.78674 25.1744 4.68932 25.1828C4.85692 24.9604 4.8569 24.8486 4.85795 24.7917L4.88312 24.7612C4.82655 24.6726 4.61077 24.8402 4.47041 24.8687C4.60973 24.5946 4.3939 24.6484 4.42637 24.4586C4.40647 24.5071 4.29021 24.6273 4.25984 24.6389C4.27764 24.5809 4.09328 24.7527 4.25355 24.5556L4.25672 24.564C4.39918 24.3585 4.3227 24.3838 4.3007 24.3553L4.08803 24.6125C4.32162 24.1761 3.79161 24.5978 4.02625 24.2288C3.95711 24.2794 3.93616 24.2615 3.86703 24.3121L3.98119 24.175C3.96338 24.1012 3.954 24.0643 3.8702 24.0496L3.96339 23.961C3.93825 23.9252 3.59366 24.3237 3.55595 24.3057L3.71722 24.0939C3.65646 24.0506 3.75286 23.8219 3.54127 23.9579C3.56746 23.9294 3.6188 23.8714 3.63451 23.8714C3.61251 23.843 3.65019 23.6458 3.42184 23.9326C3.57582 23.7512 3.37993 23.8651 3.28042 23.9178L3.39985 23.7892C3.22806 23.9368 3.1872 23.9832 3.10969 23.999C3.11597 23.9747 3.19452 23.8862 3.17567 23.9305C3.20814 23.8366 3.04476 24.0369 3.07199 23.9368L3.15894 23.863C3.13904 23.8272 3.10133 23.8746 2.99972 23.96C2.93478 23.9969 2.97353 23.8778 3.07409 23.7555C3.006 23.825 2.90437 23.9083 2.91799 23.8588C2.9557 23.8113 2.98611 23.7892 3.00182 23.7787C3.0322 23.6469 2.79542 23.8672 2.87712 23.708C2.91483 23.6638 2.93268 23.6406 2.94106 23.6248C2.97562 23.6627 2.99969 23.6975 2.98816 23.7049C3.09501 23.5836 3.08454 23.5341 3.25633 23.3886C3.15158 23.4582 2.93371 23.6184 2.95466 23.5341C2.96409 23.5214 2.97245 23.5088 2.98816 23.4888L3.00284 23.4782C3.00703 23.4603 2.99029 23.4656 2.96724 23.4803C2.97562 23.4519 2.98297 23.4318 2.97563 23.4213C3.06153 23.318 2.98923 23.3359 2.97875 23.3169C2.86143 23.4497 2.86037 23.4107 2.78076 23.5362C2.78705 23.5246 2.79753 23.5235 2.81324 23.5267C2.81953 23.5246 2.82373 23.5257 2.83211 23.5193C2.82897 23.5225 2.8248 23.5267 2.82061 23.5299C2.83422 23.5351 2.84993 23.5446 2.86669 23.5552C2.79441 23.611 2.73155 23.6564 2.77974 23.5678C2.69699 23.6427 2.61002 23.7217 2.56707 23.7607C2.71162 23.5573 2.76088 23.4223 2.8583 23.3043C2.74517 23.3359 2.70535 23.2537 2.45081 23.4719C2.40891 23.4909 2.50007 23.3875 2.53045 23.3443C2.56083 23.3264 2.56606 23.3391 2.60272 23.3074C2.51892 23.3464 2.50213 23.26 2.33767 23.4255C2.37538 23.318 2.50215 23.2863 2.43092 23.2716L2.48539 23.2252C2.65194 22.87 1.93545 23.5204 2.16485 23.0787C2.15123 23.1061 2.14597 23.1198 2.11979 23.1493C2.15435 22.8889 1.75006 23.0702 1.87576 22.7224C1.89252 22.6433 1.7846 22.7466 1.68718 22.8078L1.81393 22.6654L1.6275 22.7898C1.46828 22.8573 1.87887 22.3798 1.60652 22.5368L1.52275 22.6349C1.5196 22.5969 1.40332 22.6222 1.51226 22.5221C1.49341 22.5368 1.41067 22.6096 1.45047 22.5537L1.52065 22.4831L1.34885 22.5516C1.36142 22.4609 1.63689 22.2807 1.59394 22.209C1.54576 22.2142 1.32686 22.3502 1.28706 22.4051C1.2923 22.4177 1.264 22.4704 1.19382 22.541L1.13725 22.5579C0.92356 22.7593 0.692072 22.9532 0.595703 23.1461L0.758044 23.0555L0.667974 23.1662L0.632375 23.143C0.552766 23.2537 0.648069 23.1809 0.718252 23.1356C0.666924 23.1915 0.634485 23.2337 0.620867 23.26L0.854457 23.0977C0.776942 23.182 0.677414 23.2421 0.654369 23.3096C0.763308 23.2337 0.821986 23.1135 0.908928 23.0797C0.830366 23.1904 0.748629 23.2621 0.849188 23.201C0.797861 23.2568 0.760162 23.2864 0.728737 23.3022C0.810441 23.2558 0.802045 23.3211 0.921459 23.2199C0.821947 23.3538 1.00947 23.2484 0.811493 23.4434C0.863868 23.4023 0.995825 23.3201 1.01992 23.3275C0.756997 23.5341 1.06501 23.4013 0.806276 23.6469C1.03777 23.4561 0.976977 23.6311 1.13096 23.551C1.1121 23.5657 1.07442 23.5963 1.08175 23.5815C1.08594 23.6205 1.02833 23.6922 1.00319 23.746C1.17812 23.572 1.25145 23.5636 1.37611 23.4719C1.23679 23.669 1.1582 23.6648 1.00631 23.8366C1.14458 23.6912 1.19172 23.7386 1.29857 23.6089C1.21686 23.7344 1.26609 23.6775 1.13515 23.8345C1.35303 23.6153 1.19069 23.8156 1.33943 23.6954C1.26297 23.8335 1.14668 23.9115 1.2441 23.8756C1.19277 23.9536 1.08805 24.0042 1.08805 24.0042ZM2.2361 24.349C2.23505 24.35 2.234 24.3511 2.234 24.3511C2.22457 24.3479 2.21617 24.3458 2.21093 24.3437C2.21617 24.3458 2.22353 24.3469 2.2361 24.349ZM2.30417 24.4069C2.30103 24.3943 2.2916 24.3848 2.28008 24.3753C2.31884 24.3279 2.36284 24.2825 2.36703 24.291C2.33666 24.3194 2.32931 24.3595 2.30417 24.4069ZM2.98504 23.3654C3.01228 23.3559 2.99239 23.3855 2.96934 23.4129C2.96306 23.4108 2.95255 23.4097 2.93789 23.4129C2.9337 23.4171 2.92742 23.4234 2.92218 23.4276C2.94523 23.4034 2.96828 23.3812 2.98504 23.3654Z" fill="#0055A3" fill-opacity="0.46"/>
<path d="M2.81306 23.5213C2.80885 23.5234 2.80356 23.5276 2.8004 23.5265C2.79197 23.5402 2.78457 23.5518 2.7793 23.5613C2.793 23.5487 2.80672 23.536 2.82042 23.5234C2.81726 23.5234 2.81517 23.5223 2.81306 23.5213Z" fill="#0055A3" fill-opacity="0.46"/>
<path d="M9.14413 28.1878L9.14413 28.1836C9.14202 28.1909 9.14094 28.1973 9.13672 28.2078C9.13988 28.1983 9.14097 28.1941 9.14413 28.1878Z" fill="#0055A3" fill-opacity="0.46"/>
<path d="M3.02853 25.4773L3.057 25.4426L3.02539 25.4679L3.02853 25.4773Z" fill="#0055A3" fill-opacity="0.46"/>
<path d="M9.31257 28.9485C9.30625 28.9633 9.30094 28.978 9.29883 28.9928C9.3041 28.9822 9.30835 28.9664 9.31257 28.9485Z" fill="#0055A3" fill-opacity="0.46"/>
<path d="M9.48828 29.0747L9.48828 29.1453C9.4925 29.1073 9.49144 29.0873 9.48828 29.0747Z" fill="#0055A3" fill-opacity="0.46"/>
<path d="M9.59961 29.2273C9.61437 29.1989 9.62487 29.1778 9.63435 29.1599L9.63435 29.1588L9.59961 29.2273Z" fill="#0055A3" fill-opacity="0.46"/>
<path d="M7.18649 28.2072C7.18438 28.2072 7.18123 28.2083 7.17702 28.2114C7.14645 28.2336 7.16224 28.2272 7.18649 28.2072Z" fill="#0055A3" fill-opacity="0.46"/>
<path d="M8.06413 28.2219C8.042 28.2461 8.01987 28.2704 8.00195 28.2841C8.00828 28.302 8.01564 28.3104 8.06413 28.2219Z" fill="#0055A3" fill-opacity="0.46"/>
<path d="M6.32664 27.9441L6.32905 27.9417C6.32664 27.9417 6.32543 27.9393 6.32422 27.9381L6.32664 27.9441Z" fill="#0055A3" fill-opacity="0.46"/>
<path d="M7.97147 28.2645C7.96725 28.3024 7.98096 28.3014 8.00204 28.2845C7.99782 28.2687 7.99466 28.2455 7.97147 28.2645Z" fill="#0055A3" fill-opacity="0.46"/>
<path d="M10.2148 29.5909L10.2191 29.6004C10.2233 29.5898 10.2275 29.5814 10.2317 29.574L10.2148 29.5909Z" fill="#0055A3" fill-opacity="0.46"/>
<path d="M10.2305 29.575L10.2474 29.5592C10.2431 29.5571 10.24 29.5571 10.2305 29.575Z" fill="#0055A3" fill-opacity="0.46"/>
<path d="M10.2828 29.5251L10.248 29.5588C10.2533 29.562 10.2586 29.5693 10.2828 29.5251Z" fill="#0055A3" fill-opacity="0.46"/>
<path d="M10.048 29.4272L10.0195 29.4851C10.0269 29.4735 10.0364 29.4546 10.048 29.4272Z" fill="#0055A3" fill-opacity="0.46"/>
<path d="M9.98067 29.418C9.9891 29.4381 9.96171 29.5593 9.99755 29.5319L10.0197 29.4855C9.97225 29.5688 10.0387 29.3242 9.98067 29.418Z" fill="#0055A3" fill-opacity="0.46"/>
<path d="M10.0566 28.5816L10.0849 28.6512C10.1048 28.5847 10.131 28.4962 10.1603 28.4909C10.1823 28.2759 10.109 28.6364 10.0566 28.5816Z" fill="#0055A3" fill-opacity="0.46"/>
<path d="M9.94922 28.4187C9.98928 28.4019 9.99034 28.3281 10.0083 28.2933C9.96504 28.3418 9.95449 28.3544 9.94922 28.4187Z" fill="#0055A3" fill-opacity="0.46"/>
<path d="M8.87109 27.8894L8.94805 27.7471C8.91748 27.7577 8.91959 27.803 8.87109 27.8894Z" fill="#0055A3" fill-opacity="0.46"/>
<path d="M8.28221 28.5246L8.25586 28.6237L8.33389 28.4972L8.28221 28.5246Z" fill="#0055A3" fill-opacity="0.46"/>
<path d="M8.6963 27.4399L8.71632 27.423L8.65625 27.4578L8.6963 27.4399Z" fill="#0055A3" fill-opacity="0.46"/>
<path d="M6.94133 26.4882L6.8418 26.6611C6.87322 26.639 6.9937 26.4503 6.94133 26.4882Z" fill="#0055A3" fill-opacity="0.46"/>
<path d="M6.10479 26.1861C6.15223 26.0976 6.16699 26.0311 6.10057 26.1039C6.10901 26.126 6.08266 26.2019 6.10479 26.1861Z" fill="#0055A3" fill-opacity="0.46"/>
<path d="M4.21228 24.3855L4.2671 24.3444L4.20703 24.3676L4.21228 24.3855Z" fill="#0055A3" fill-opacity="0.46"/>
<path d="M9.81023 5.91815C9.75576 5.92132 9.63738 5.95609 9.66671 5.97928L9.87309 5.95081L9.81023 5.91815Z" fill="#0055A3" fill-opacity="0.46"/>
<path d="M9.47461 6.20209C9.57936 6.21263 9.76162 6.21474 9.94388 6.15254C9.74172 6.16098 9.82128 6.13462 9.5814 6.15043C9.55207 6.12724 9.6359 6.08507 9.71132 6.07242C9.65685 6.07453 9.74587 6.01654 9.61598 6.0313C9.46724 6.10614 9.4704 6.15359 9.61076 6.17362C9.56782 6.1947 9.51232 6.19681 9.47461 6.20209Z" fill="#0055A3" fill-opacity="0.46"/>
<path d="M9.3418 8.98148L9.36707 8.96567C9.35337 8.96884 9.34496 8.97515 9.3418 8.98148Z" fill="#0055A3" fill-opacity="0.46"/>
<path d="M8.96778 10.6297C8.96567 10.616 8.94671 10.6065 8.92773 10.6012C8.93933 10.6149 8.94986 10.6276 8.96778 10.6297Z" fill="#0055A3" fill-opacity="0.46"/>
<path d="M8.67851 10.8504C8.68694 10.8462 8.69115 10.842 8.69642 10.8377C8.67534 10.8398 8.66375 10.843 8.67851 10.8504Z" fill="#0055A3" fill-opacity="0.46"/>
<path d="M9.34092 8.98261L9.27344 9.02268C9.33985 9.03111 9.32405 9.00264 9.34092 8.98261Z" fill="#0055A3" fill-opacity="0.46"/>
<path d="M10.0484 6.49456C10.0368 6.48612 10.0157 6.48084 9.98828 6.47768C9.99882 6.484 10.0083 6.4914 10.0157 6.49878C10.0273 6.49773 10.0368 6.49667 10.0484 6.49456Z" fill="#0055A3" fill-opacity="0.46"/>
<path d="M9.19868 8.23709L9.19868 8.22337C9.17443 8.21916 9.14596 8.21601 9.11328 8.21285L9.19868 8.23709Z" fill="#0055A3" fill-opacity="0.46"/>
<path d="M9.15055 7.67784C9.14427 7.69049 9.32023 7.68522 9.39775 7.68522C9.32442 7.68206 9.28882 7.67466 9.2752 7.66412C9.24063 7.66623 9.20083 7.67046 9.15055 7.67784Z" fill="#0055A3" fill-opacity="0.46"/>
<path d="M9.36229 6.74863L9.33594 6.73599C9.34437 6.73915 9.3528 6.74546 9.36229 6.74863Z" fill="#0055A3" fill-opacity="0.46"/>
<path d="M9.15115 8.63709C9.1248 8.63709 9.10159 8.63815 9.08789 8.6392C9.11003 8.64026 9.13112 8.6392 9.15115 8.63709Z" fill="#0055A3" fill-opacity="0.46"/>
<path d="M1.43218 22.6431C1.42375 22.6336 1.41843 22.6273 1.41211 22.6188C1.42054 22.6346 1.42797 22.6452 1.43218 22.6431Z" fill="#0055A3" fill-opacity="0.46"/>
<path d="M0.350213 22.4109L0.351294 22.3972C0.330211 22.3708 0.309092 22.3455 0.289062 22.3192L0.350213 22.4109Z" fill="#0055A3" fill-opacity="0.46"/>
<path d="M8.32205 11.282C8.32432 11.282 8.32427 11.2809 8.32655 11.2809C8.31063 11.2604 8.31182 11.2695 8.32205 11.282Z" fill="#0055A3" fill-opacity="0.46"/>
<path d="M6.30273 15.5327C6.463 15.5822 6.41271 15.7245 6.6044 15.7625C6.54365 15.7266 6.42634 15.539 6.30273 15.5327Z" fill="#0055A3" fill-opacity="0.46"/>
<path d="M10.0293 6.51437C10.0325 6.52281 10.0367 6.53019 10.0356 6.53967C10.0398 6.52702 10.0367 6.51964 10.0293 6.51437Z" fill="#0055A3" fill-opacity="0.46"/>
<path d="M6.60547 15.762L6.6065 15.7631L6.62549 15.7663C6.61706 15.7642 6.61285 15.7631 6.60547 15.762Z" fill="#0055A3" fill-opacity="0.46"/>
<path d="M8.02539 12.4271C8.05491 12.4366 8.07915 12.4419 8.10234 12.4461C8.08548 12.4387 8.06334 12.4334 8.02539 12.4271Z" fill="#0055A3" fill-opacity="0.46"/>
<path d="M8.56856 11.6804L8.53906 11.6941C8.55698 11.691 8.56539 11.6857 8.56856 11.6804Z" fill="#0055A3" fill-opacity="0.46"/>
<path d="M8.07194 12.9528C8.05507 12.958 8.03083 12.9517 8.04559 12.977C8.05402 12.9791 8.06034 12.9802 8.06772 12.9812C8.04769 12.9654 8.04032 12.9538 8.07194 12.9528Z" fill="#0055A3" fill-opacity="0.46"/>
<path d="M7.86523 13.3938C7.87894 13.398 7.88946 13.399 7.90106 13.4012C7.90001 13.3959 7.9 13.3885 7.89895 13.3832L7.86523 13.3938Z" fill="#0055A3" fill-opacity="0.46"/>
<path d="M2.5453 21.5771C2.50445 21.5466 2.46363 21.5097 2.42383 21.4717C2.51182 21.5624 2.4856 21.6456 2.5453 21.5771Z" fill="#0055A3" fill-opacity="0.46"/>
<path d="M9.94922 6.51232C9.99349 6.50705 10.0167 6.50811 10.0283 6.51443C10.0251 6.50916 10.0199 6.5039 10.0157 6.49863C9.98826 6.50179 9.96398 6.506 9.94922 6.51232Z" fill="#0055A3" fill-opacity="0.46"/>
<path d="M9.3334 13.5496C9.31337 13.5717 9.29542 13.5949 9.27539 13.616C9.30069 13.6033 9.32075 13.578 9.3334 13.5496Z" fill="#0055A3" fill-opacity="0.46"/>
<path d="M5.20898 19.0524L5.21109 19.0808C5.21847 19.0777 5.21953 19.0692 5.20898 19.0524Z" fill="#0055A3" fill-opacity="0.46"/>
<path d="M9.18758 13.8559C9.12473 13.8422 9.08492 13.8411 9.05664 13.8453C9.06816 13.8548 9.07655 13.8633 9.09331 13.8738L9.18758 13.8559Z" fill="#0055A3" fill-opacity="0.46"/>
<path d="M2.42187 21.47L2.42342 21.4715L2.42187 21.47Z" fill="#0055A3" fill-opacity="0.46"/>
<path d="M2.29466 22.1381C2.35647 22.0917 2.17417 21.941 2.09979 21.8282C2.12598 21.7186 2.24331 21.9315 2.34387 22.0021C2.34701 21.9178 2.24123 21.7259 2.27999 21.7049C2.30722 21.7323 2.32295 21.7375 2.34704 21.7797C2.27267 21.5994 2.47691 21.6542 2.37844 21.4318C2.39625 21.4445 2.41093 21.4571 2.4235 21.4698C2.33866 21.3886 2.26006 21.3 2.20664 21.2347C2.22969 21.2094 2.15846 21.0818 2.2674 21.1883C2.24855 21.1988 2.2873 21.2463 2.31139 21.2884L2.29569 21.2146C2.46329 21.3591 2.30825 21.3043 2.41404 21.4265C2.42033 21.3264 2.36377 21.1356 2.44442 21.1472C2.59317 21.3022 2.39624 21.2842 2.57536 21.3812L2.4591 21.3738C2.72726 21.5878 2.4057 21.3897 2.68538 21.6247C2.80898 21.5994 2.70736 21.4613 2.82992 21.436C2.77021 21.3296 2.70841 21.3085 2.64871 21.202C2.62461 20.9374 3.09389 21.5267 2.99334 21.2357C2.92211 21.1082 2.75133 20.8973 2.90741 20.9511L3.04673 21.1514C3.14205 21.0987 2.86238 20.8499 3.05302 20.8984C3.10121 20.9827 3.04362 21.0143 3.07399 21.0249C3.25416 21.1208 3.02161 20.8879 3.06351 20.851L3.21434 21.0038C3.27719 20.9026 3.26673 20.7023 3.33377 20.5895C3.37148 20.6412 3.39974 20.7065 3.46573 20.735C3.51182 20.5484 3.73493 20.5273 3.93291 20.5157L3.85123 20.3386C3.86275 20.3312 3.92663 20.3829 3.9392 20.4198C4.03033 20.4303 3.86169 20.3313 3.83445 20.2575C3.85016 20.2248 3.9392 20.3049 3.96119 20.3608C3.93291 20.1731 3.95179 19.9085 4.16757 19.976L4.18957 20.0308C4.30374 20.0255 4.001 19.6861 4.17698 19.7567L4.18849 19.7915C4.38018 19.7198 4.4127 19.4552 4.7081 19.5533C4.54154 19.3435 4.92385 19.5069 4.67245 19.2328C4.87776 19.2886 4.90293 19.3572 5.09881 19.3382C5.13966 19.3213 4.97727 19.1305 4.9846 19.0673L5.1229 19.2033L5.02649 19.0104L5.21716 19.1485L5.21507 19.0789C5.19412 19.0841 5.12496 19.0462 5.08725 19.0051C5.07573 18.8902 5.30828 18.9714 5.3816 19.0399L5.3858 18.7995C5.43922 18.8564 5.43816 18.8965 5.45807 18.9482C5.38055 18.7436 5.61732 19.0778 5.54609 18.8902C5.50629 18.868 5.4675 18.8058 5.44027 18.7763C5.55444 18.8269 5.62147 18.7563 5.63509 18.6688L5.72311 18.7711C5.83729 18.6983 5.86348 18.5254 5.96509 18.42C5.88338 18.4158 5.72098 18.2492 5.73355 18.2039L5.89594 18.3304C5.82157 18.2239 5.80899 18.3104 5.73252 18.1638C5.78595 18.1396 5.92839 18.2946 5.95772 18.3631L5.94934 18.265C5.99752 18.303 6.01117 18.3367 6.06564 18.3926C5.98918 18.2861 6.29501 18.4453 6.15674 18.2661L6.20492 18.3041C6.30443 18.1944 6.29503 18.0974 6.36731 18.0015C6.23637 17.8824 6.29608 17.874 6.21228 17.7527C6.31075 17.7243 6.47938 17.7401 6.53594 17.6494C6.51709 17.5356 6.43538 17.5355 6.37672 17.4417C6.50347 17.5419 6.55899 17.4512 6.61241 17.5682C6.67316 17.4533 6.69414 17.4238 6.69204 17.2161C6.63024 17.1877 6.59565 17.1845 6.56003 17.1423C6.55794 17.1033 6.65325 17.1339 6.71087 17.1866L6.71925 17.2035C6.64069 16.9125 7.34671 17.1719 7.17073 16.8482L7.17912 16.8651L7.12986 16.6384C7.19271 16.6005 7.20109 16.7449 7.31108 16.7649C7.19271 16.4729 7.49545 16.5836 7.43051 16.3696C7.87779 16.5678 7.61276 16.0513 7.94167 16.1124L7.84531 16.0555C7.77618 15.9627 7.92281 16.0565 7.95947 16.0492C7.88615 16.0028 7.85474 16.0239 7.81703 15.9711C7.85055 15.8088 7.96787 15.6992 8.11348 15.6032C8.25803 15.5062 8.43401 15.4261 8.55656 15.3133C8.64141 15.2279 8.09464 14.956 8.39632 14.9697L8.55447 15.112C8.50733 14.9465 8.56913 14.8463 8.63513 14.7473C8.69693 14.646 8.76293 14.5469 8.72417 14.3962C8.75979 14.431 8.81423 14.4605 8.80376 14.4805C8.95983 14.5101 8.8949 14.3256 8.78596 14.2676C8.81529 14.2433 8.8886 14.3119 8.95459 14.3224C9.0562 14.3203 8.84149 14.1263 8.98605 14.1716C9.01014 14.179 9.02375 14.2065 9.03003 14.2202C8.97871 14.158 9.11068 14.0957 8.94308 14.0441C9.05516 14.004 8.9452 13.8628 9.06671 13.8459C8.91063 13.7215 9.21546 13.7542 8.97244 13.6235C9.22593 13.751 9.24687 13.5866 9.14527 13.4801C9.2165 13.5328 9.24474 13.4738 9.3453 13.5434C9.36625 13.4843 9.34113 13.4105 9.20286 13.3599C9.56006 13.3916 9.04157 13.0416 9.4679 13.1544C9.40296 12.9256 9.36313 12.7285 9.35998 12.5524C9.6229 12.66 9.32228 12.7316 9.60196 12.8349C9.54959 12.6431 9.35373 12.4744 9.4721 12.3542C9.52238 12.33 9.57998 12.4175 9.62083 12.447C9.56951 12.2625 9.74339 12.1676 9.64283 11.9863C9.66797 11.9948 9.691 12.018 9.70671 12.039C9.70671 12.0095 9.76643 11.9916 9.64283 11.9537L9.66794 11.9895C9.4773 11.9716 9.32961 11.765 9.23743 11.7312C9.57473 11.8883 9.36733 11.6321 9.78947 11.8419C9.77166 11.8177 9.72031 11.7776 9.63756 11.7555C9.67003 11.7375 9.72032 11.7449 9.80517 11.7997C9.76746 11.6848 9.62817 11.6785 9.65541 11.5942C9.71512 11.6121 9.73393 11.6364 9.80097 11.6669C9.69727 11.5879 9.59147 11.5109 9.66165 11.454C9.69622 11.4687 9.74547 11.474 9.73919 11.4951C9.75595 11.3644 9.48465 11.1978 9.63444 11.0955C9.88584 11.2041 9.73289 11.0724 9.96229 11.124L9.91411 11.0334L9.79576 11.0344C9.81671 10.9712 9.66166 10.8731 9.7486 10.8362L9.83243 10.9068L9.81565 10.7751L9.71402 10.8225C9.61032 10.7298 9.42389 10.7614 9.5056 10.6918C9.5255 10.714 9.52236 10.6296 9.66482 10.6264C9.66482 10.6264 9.6648 10.6264 9.66584 10.6264C9.59985 10.579 9.52968 10.5305 9.59777 10.4957C9.67423 10.4989 9.84918 10.56 9.90051 10.5621C9.7151 10.4904 9.88062 10.3998 9.68369 10.3197C9.72978 10.3418 9.8502 10.3671 9.87534 10.3671L9.72349 10.3102C9.779 10.2902 9.80306 10.2902 9.89943 10.3134C9.94343 10.228 9.60195 10.2859 9.7465 10.2037C9.75802 10.2143 9.78212 10.2143 9.80307 10.2364C9.88687 10.1405 9.73813 10.0119 9.83136 9.92753C10.0691 9.93491 9.87434 10.0235 10.0765 10.0224C10.0587 9.86954 9.8471 9.68295 9.91519 9.55224L9.8869 9.57437C9.55799 9.51428 10.0618 9.49108 9.91411 9.40252C9.93611 9.42255 10.0953 9.44575 10.0587 9.43732C10.1226 9.34666 10 9.23177 9.90992 9.07996L9.99375 9.10526C10.0744 9.05466 10.0461 8.95977 10.088 8.90073C10.0032 8.87649 10.0199 8.84276 9.89422 8.85646C10.1425 8.7774 10.0817 8.68147 10.0115 8.59186C9.97593 8.54654 9.93823 8.50331 9.93508 8.46115C9.92985 8.41898 9.95812 8.37787 10.0597 8.33676C10.0608 8.35679 10.1351 8.38526 10.1351 8.36945L10.0555 8.22501C9.90993 8.23661 9.96755 8.24398 9.85442 8.27244C9.76853 8.25452 9.70147 8.21553 9.70042 8.18074C9.79679 8.24294 9.93401 8.17969 10.0147 8.15122C9.97067 8.15649 9.92143 8.14701 9.87534 8.15017C10.133 8.07427 9.58313 8.14068 9.75596 8.03947L9.83243 8.0437C9.79367 8.0068 9.69203 7.97517 9.71402 7.93511C9.88162 7.91297 9.79262 7.97202 9.93089 7.97096C9.92041 7.91298 9.61348 7.86976 9.77688 7.81284C9.82612 7.83497 9.82611 7.86976 9.87325 7.8919C10.0702 7.82865 10.0199 7.82337 10.0482 7.78015L10.044 7.78437L10.1268 7.68212L10.0754 7.70953C9.63339 7.66209 9.98533 7.56721 9.69203 7.49236C9.96962 7.56404 9.85024 7.49657 10.0398 7.48919C10.0912 7.46073 10.1467 7.41752 10.2012 7.42385C10.0451 7.39011 10.3164 7.33424 10.088 7.28891C10.1488 7.28048 10.0901 7.23831 10.2441 7.23409C10.1917 7.17822 10.1393 7.25939 10.0618 7.2615C9.95498 7.22566 10.0136 7.16557 10.0576 7.10021C10.1027 7.03485 10.1372 6.96316 9.98638 6.91573C9.85335 6.81769 9.64594 6.82716 9.53071 6.74282C9.62289 6.69328 9.75489 6.73652 9.75489 6.73652C9.83659 6.66589 9.81461 6.62476 9.73709 6.58364C9.79156 6.5847 9.83451 6.56678 9.89841 6.53832C9.87327 6.49826 9.67321 6.54885 9.74967 6.47717C9.81881 6.47401 9.92878 6.46662 10.0011 6.47611C9.93507 6.435 9.81252 6.40656 9.74758 6.36544C9.84918 6.33066 9.91308 6.36542 9.98536 6.37069C9.92565 6.32009 9.8586 6.23577 9.68891 6.25264L9.63756 6.30218C9.62499 6.28321 9.77794 6.26107 9.81146 6.27055C9.95182 6.2948 9.76851 6.35491 9.70881 6.36966L9.66272 6.3412C9.3181 6.44873 9.74964 6.47506 9.74441 6.55518L9.48043 6.571L9.70881 6.60789C9.64386 6.6353 9.50139 6.67114 9.45844 6.64163C9.33798 6.71542 9.55692 6.67219 9.42075 6.74071C9.39875 6.74915 9.38616 6.74915 9.37568 6.74599L9.45952 6.78395C9.404 6.7829 9.27828 6.82085 9.3118 6.78395C9.17458 6.89569 9.52549 6.89991 9.3338 6.9621L9.31707 6.95683C9.42182 7.06962 9.50875 6.94207 9.74548 7.00848L9.28459 7.13078L9.47624 7.12023C9.471 7.13393 9.46056 7.16134 9.38305 7.16555C9.52027 7.19823 9.46473 7.14763 9.59148 7.16133C9.42911 7.2425 9.68994 7.32792 9.38617 7.37114C9.53282 7.38063 9.49407 7.3005 9.59986 7.35848C9.27409 7.40697 9.66166 7.43123 9.51501 7.50186C9.34427 7.49764 9.43017 7.43753 9.28352 7.505C9.57158 7.51765 9.22908 7.61885 9.28669 7.66207C9.51504 7.65047 9.38932 7.76012 9.47102 7.83708C9.3956 7.83497 9.34742 7.99309 9.26572 8.06794L9.22695 8.06688C9.4574 8.07743 9.41445 8.15545 9.46264 8.21132C9.32437 8.20921 9.26993 8.19971 9.20813 8.17019L9.20915 8.22185C9.28352 8.23344 9.32226 8.25032 9.3495 8.28405L9.17667 8.27033C9.18505 8.3378 9.38408 8.41267 9.26362 8.49911C9.42389 8.50965 9.7151 8.43795 9.81775 8.53916C9.73081 8.54021 9.58206 8.53916 9.54749 8.5128C9.55901 8.52123 9.61768 8.54442 9.57997 8.56023L9.43543 8.51702C9.36943 8.55603 9.55691 8.54233 9.5412 8.57501C9.41759 8.56974 9.45111 8.59608 9.35369 8.58764C9.34217 8.57921 9.4061 8.5613 9.35896 8.54654C9.33487 8.58238 9.25941 8.62456 9.16409 8.6351C9.23427 8.6351 9.33064 8.64246 9.3453 8.66987C9.35054 8.7405 9.19451 8.68674 9.12957 8.72364C9.21441 8.74472 9.12328 8.78372 9.30868 8.79531C9.30659 8.81534 9.21964 8.81431 9.16936 8.81853C9.24897 8.85964 9.18403 8.98613 9.38305 8.96083L9.39666 8.95241C9.40085 8.95452 9.40083 8.95661 9.40397 8.95872C9.58519 9.09365 9.27517 9.19698 9.34326 9.32138L9.28142 9.31399C9.34427 9.392 9.30551 9.47422 9.43225 9.54168C9.43016 9.56277 9.31493 9.57649 9.24265 9.55751C9.28246 9.61655 9.35266 9.63339 9.23743 9.69559C9.13897 9.62707 9.13895 9.69982 9.16828 9.63024C9.10334 9.69139 9.0028 9.69139 9.15887 9.79048C9.00594 9.74094 8.95253 9.81049 8.99443 9.8495L9.11489 9.82C9.13165 9.86006 9.11277 9.88957 9.09392 9.92014L8.89071 9.86744C8.75349 9.91487 8.85089 9.99393 8.92631 10.0677C9.00173 10.1415 9.05831 10.21 8.83624 10.2195C8.97136 10.2849 8.95357 10.1658 9.11489 10.2311C9.07299 10.2902 8.76396 10.2954 8.75977 10.3134C8.62779 10.3734 9.0405 10.4588 8.94308 10.5326C9.0185 10.5379 9.21544 10.5695 9.26782 10.656C9.22592 10.7161 8.94626 10.6633 8.89598 10.6096C8.89283 10.5927 8.91797 10.5906 8.94206 10.5969C8.92006 10.5706 8.89492 10.5358 8.81112 10.5432L8.88232 10.5685C8.80166 10.5822 8.79017 10.6707 8.67599 10.6212C8.73465 10.6855 8.79015 10.6707 8.83624 10.6444C8.71368 10.6992 8.80586 10.7698 8.71159 10.8341C8.75454 10.832 8.84357 10.8415 8.83833 10.8541C8.71578 10.9522 8.96089 10.9437 8.96927 11.0355C8.84671 11.0523 8.71161 10.9469 8.78074 11.0555C8.69275 11.085 8.58692 11.0123 8.5335 10.9764C8.65186 11.0892 8.4047 11.0892 8.36803 11.123L8.32088 11.0671C8.34916 11.0998 8.34289 11.1188 8.33765 11.1377L8.48639 11.1578C8.45496 11.1736 8.44974 11.1925 8.39003 11.1746C8.47697 11.2263 8.63304 11.2273 8.74826 11.3138C8.66865 11.3233 8.79644 11.4318 8.60474 11.3844C8.70007 11.3085 8.41199 11.3359 8.40675 11.2463C8.42456 11.2684 8.41723 11.2874 8.38476 11.3022C8.36276 11.299 8.34708 11.2864 8.33765 11.2769C8.13968 11.3138 8.53771 11.3844 8.50209 11.4782C8.39944 11.4318 8.29366 11.435 8.31147 11.4571C8.32613 11.4202 8.49474 11.4962 8.56388 11.5583C8.46122 11.5921 8.60373 11.6448 8.58382 11.6743L8.6341 11.65C8.73571 11.6975 8.71158 11.7238 8.73149 11.7787C8.64769 11.7544 8.68749 11.7196 8.64663 11.7228C8.81633 11.8345 8.41936 11.765 8.52306 11.8735C8.44136 11.8788 8.32404 11.8061 8.26748 11.8156C8.37642 11.9368 8.09463 11.8409 8.17843 11.9568C8.32718 11.9874 8.29468 11.9705 8.41095 12.0749L8.35965 11.9125L8.5335 12.0686C8.55026 12.0306 8.47591 11.9547 8.50838 11.941C8.60894 12.0211 8.5754 12.0053 8.69901 12.0285C8.46751 12.0043 8.78176 12.1793 8.61625 12.1877L8.26958 12.0549C8.08103 12.0844 8.38688 12.2836 8.2549 12.3669L8.32927 12.3532C8.4602 12.4238 8.32089 12.4344 8.36174 12.4945C8.24861 12.4438 8.19623 12.4502 8.11767 12.4365C8.20356 12.4702 8.07365 12.5166 8.29781 12.6241L8.12498 12.6115C8.02338 12.6768 8.40363 12.8592 8.32507 12.934C8.21299 12.8518 8.11556 12.8571 8.05271 12.758C8.03909 12.7875 8.00663 12.8044 8.08519 12.8402C8.00663 12.8255 8.20149 12.992 8.08207 12.972C8.12607 13.0078 8.24232 13.0658 8.21823 13.0953C8.19413 13.0879 8.16273 13.069 8.16273 13.069C8.21825 13.0943 8.21296 13.1565 8.35228 13.1849C7.95738 13.1122 8.2528 13.4569 7.91446 13.3905C7.92075 13.4738 7.91863 13.5697 7.89769 13.633C7.86626 13.6119 7.84323 13.6045 7.85999 13.5992C7.71544 13.6256 8.15014 13.8132 7.98673 13.8449C7.78457 13.7974 7.91655 13.7458 7.8338 13.7394C7.46613 13.5602 7.82439 13.8744 7.58241 13.8227L7.56876 13.7964C7.42211 13.7753 7.64421 13.983 7.57822 14.0451C7.57822 14.0451 7.54886 14.0241 7.52477 14.0146C7.68085 14.1695 7.68193 14.3003 7.68926 14.4025C7.56461 14.2992 7.63582 14.3266 7.48708 14.2592C7.48812 14.3034 7.71859 14.3814 7.71964 14.4689C7.63165 14.4457 7.53838 14.4531 7.38545 14.3709L7.41271 14.3055C7.20111 14.2222 7.37394 14.3867 7.32156 14.3994L7.23988 14.3445C7.21369 14.4521 7.42422 14.5828 7.34985 14.6734L7.419 14.7019C7.59498 14.8864 7.27445 14.6745 7.39491 14.8242L7.17385 14.7072C7.20213 14.7736 7.29747 14.9591 7.29538 15.0487C7.16444 14.9117 7.13197 14.7873 7.06808 14.684C7.04399 14.7177 7.00835 14.8105 7.09948 14.8948C7.08796 14.8674 7.0482 14.8168 7.08905 14.8242C7.22627 14.9728 7.27024 15.0825 7.22101 15.1499C6.8282 14.8706 7.00419 15.2648 6.65957 15.1004C6.72346 15.3207 6.43435 15.2912 6.36312 15.4441C6.70041 15.6159 6.34425 15.4904 6.66059 15.7087C6.6564 15.755 6.64279 15.7635 6.6208 15.7519L6.36414 15.7108C6.25729 15.6665 6.31809 15.6306 6.24686 15.5811C6.17249 15.6317 6.09392 15.5126 5.97869 15.4957C6.09601 15.5695 6.11902 15.638 6.04779 15.6444L6.23008 15.696C6.32226 15.9153 5.9106 15.5832 6.00069 15.8025L5.92734 15.6981C5.94829 15.7919 5.79118 15.8763 5.9944 16.1145C5.9525 16.0955 5.86138 16.0418 5.85615 16.0028C5.7294 16.0882 5.90746 16.4677 5.68854 16.4381L5.62256 16.3696C5.62675 16.4086 5.72936 16.5204 5.63299 16.4856C5.60471 16.4592 5.56807 16.4171 5.5555 16.4234C5.57121 16.455 5.6351 16.5857 5.56911 16.5784L5.50834 16.4867C5.32189 16.5172 5.56281 16.8229 5.53244 16.96C5.32189 16.7787 5.18259 16.8071 5.11032 16.8187L5.08203 16.7913C4.94586 16.8936 5.06526 17.1571 5.04117 17.349C4.75625 17.2204 4.72485 17.5071 4.4965 17.506C4.54887 17.5229 4.65045 17.6578 4.65255 17.6969C4.58656 17.6853 4.72275 17.9045 4.54258 17.7243L4.55511 17.7179C4.35504 17.5651 4.35403 17.6673 4.3069 17.7042L4.53941 17.9425C4.0848 17.7158 4.38229 18.3589 4.01567 18.1143C4.04919 18.1997 4.0157 18.2324 4.04712 18.3167L3.92247 18.1881C3.81668 18.2281 3.76534 18.2482 3.70459 18.3684L3.63334 18.2587C3.57468 18.3009 3.9277 18.6909 3.8879 18.7468L3.68781 18.5697C3.60192 18.6625 3.34633 18.5792 3.42384 18.8417C3.3987 18.8122 3.34843 18.7531 3.35576 18.731C3.30758 18.7668 3.06663 18.7584 3.3327 19.0104C3.16824 18.8375 3.22375 19.0841 3.24365 19.2075L3.13159 19.0715C3.24157 19.275 3.28243 19.3213 3.26462 19.4225C3.23529 19.4183 3.15672 19.3308 3.20595 19.3466C3.09701 19.3224 3.28243 19.5027 3.16197 19.4869L3.1075 19.3846C3.04988 19.4194 3.09495 19.4605 3.15675 19.5817C3.17351 19.6618 3.03524 19.6344 2.92106 19.5227C2.97972 19.6007 3.04046 19.7209 2.98075 19.7135C2.93676 19.6724 2.92211 19.6355 2.91477 19.6165C2.75346 19.6028 2.93046 19.879 2.75867 19.801C2.71887 19.7588 2.69585 19.7399 2.67909 19.7314C2.74717 19.6756 2.80581 19.6355 2.80895 19.6503C2.70001 19.5301 2.62878 19.5564 2.52089 19.3519C2.56069 19.4805 2.66648 19.743 2.56488 19.7325C2.55231 19.723 2.53974 19.7135 2.52089 19.6966L2.51357 19.6787C2.49158 19.6777 2.49052 19.6977 2.4989 19.7272C2.46538 19.7219 2.44129 19.7167 2.42453 19.7293C2.32921 19.6344 2.31665 19.7293 2.28628 19.7483C2.40569 19.879 2.35333 19.8885 2.48217 19.9696C2.4696 19.9633 2.47272 19.9496 2.48529 19.9285C2.48529 19.9212 2.48841 19.9148 2.48422 19.9043C2.48631 19.9085 2.48946 19.9127 2.4926 19.918C2.50622 19.899 2.52613 19.8758 2.54917 19.8505C2.58898 19.9359 2.61726 20.0129 2.52299 19.9655C2.58479 20.0624 2.64763 20.1636 2.67592 20.2121C2.47584 20.0603 2.31875 20.0213 2.20771 19.9159C2.19305 20.0614 2.06106 20.1331 2.22971 20.4293C2.23495 20.482 2.14064 20.3808 2.0977 20.3492C2.08932 20.3123 2.10818 20.3017 2.08409 20.2595C2.09457 20.365 1.96994 20.405 2.11135 20.5906C1.98461 20.5621 2.00343 20.3998 1.94896 20.4989L1.91336 20.4356C1.51322 20.2912 2.04431 21.1092 1.55722 20.8994C1.58865 20.911 1.60328 20.9163 1.63052 20.9437C1.29322 20.9564 1.34354 21.4508 0.928728 21.3654C0.828168 21.3622 0.918228 21.4814 0.955938 21.5973L0.820807 21.4624L0.903563 21.6806C0.922418 21.8756 0.458388 21.4466 0.547425 21.7691L0.643787 21.8556C0.590364 21.8693 0.571505 22.0158 0.482468 21.8978C0.493991 21.9188 0.555783 22.0105 0.498171 21.9726L0.433265 21.8967L0.448967 22.1075C0.329553 22.1139 0.206975 21.7944 0.0875609 21.8693C0.072896 21.9325 0.160886 22.1877 0.218498 22.2256C0.237353 22.2161 0.299169 22.2393 0.364114 22.3142L0.360994 22.3848C0.543258 22.6157 0.70768 22.8697 0.927654 22.9519L0.874256 22.7611L0.985296 22.8539L0.939162 22.9045C1.05439 22.9825 0.997848 22.875 0.966423 22.7949C1.01985 22.8486 1.06279 22.8824 1.09317 22.8929L0.973737 22.6262C1.05439 22.7084 1.09317 22.8244 1.17383 22.8381C1.11831 22.7137 0.98107 22.6631 0.973737 22.5577C1.08896 22.6346 1.14975 22.7253 1.11204 22.6083C1.16546 22.662 1.18851 22.7053 1.19689 22.7422C1.16966 22.6462 1.25448 22.6431 1.16963 22.5102C1.30685 22.6104 1.24716 22.389 1.42209 22.6041C1.38962 22.545 1.33619 22.3901 1.35714 22.3574C1.5195 22.6568 1.47657 22.2815 1.69236 22.5672C1.53837 22.3057 1.74574 22.3468 1.70698 22.1624C1.71851 22.1834 1.74157 22.2267 1.72586 22.2203C1.78033 22.2066 1.84944 22.2667 1.91019 22.2878C1.75621 22.0949 1.77929 22 1.71225 21.8567C1.91337 21.9979 1.87145 22.1033 2.03381 22.2646C1.90183 22.1139 1.98669 22.0422 1.86308 21.9283C1.99402 22.0106 1.94057 21.9568 2.09141 22.097C1.89762 21.8556 2.09144 22.0285 1.99822 21.8577C2.14905 21.9294 2.19932 22.0664 2.19513 21.9462C2.27474 22.0105 2.29466 22.1381 2.29466 22.1381ZM3.2929 20.5463C3.29395 20.5474 3.295 20.5484 3.295 20.5484C3.28662 20.5621 3.27927 20.5737 3.27403 20.5811C3.27822 20.5748 3.28452 20.5642 3.2929 20.5463ZM3.40287 20.443C3.38506 20.4504 3.36728 20.4651 3.34947 20.482C3.30443 20.4398 3.2667 20.3892 3.28032 20.3819C3.30127 20.4177 3.35154 20.4198 3.40287 20.443ZM2.35016 19.7388C2.35121 19.704 2.37949 19.7251 2.40673 19.7504C2.40044 19.7599 2.39522 19.7736 2.39103 19.7936C2.39417 19.7989 2.39942 19.8063 2.40361 19.8115C2.38161 19.7852 2.36168 19.7599 2.35016 19.7388Z" fill="#0055A3" fill-opacity="0.46"/>
<path d="M2.47266 19.9417C2.47266 19.947 2.47585 19.9533 2.47374 19.9575C2.48744 19.9659 2.50005 19.9733 2.51059 19.9775C2.50005 19.9617 2.48956 19.9449 2.48007 19.9301C2.47796 19.9343 2.47582 19.9386 2.47266 19.9417Z" fill="#0055A3" fill-opacity="0.46"/>
<path d="M9.37141 8.96439L9.36719 8.96756C9.37457 8.96545 9.38197 8.96334 9.39251 8.96334C9.38408 8.96439 9.37879 8.96334 9.37141 8.96439Z" fill="#0055A3" fill-opacity="0.46"/>
<path d="M5.15378 19.2364L5.12109 19.2048L5.14004 19.2427L5.15378 19.2364Z" fill="#0055A3" fill-opacity="0.46"/>
<path d="M10.002 8.15506C10.0178 8.15295 10.0336 8.14978 10.0473 8.14345C10.0357 8.14345 10.0199 8.14873 10.002 8.15506Z" fill="#0055A3" fill-opacity="0.46"/>
<path d="M10.0352 7.78397L10.0942 7.72809C10.0605 7.75234 10.0446 7.77026 10.0352 7.78397Z" fill="#0055A3" fill-opacity="0.46"/>
<path d="M10.1034 7.4919C10.0718 7.49084 10.0486 7.49084 10.0264 7.4919C10.0264 7.4919 10.0264 7.4919 10.0254 7.49295L10.1034 7.4919Z" fill="#0055A3" fill-opacity="0.46"/>
<path d="M9.69531 12.0375C9.69531 12.0417 9.69637 12.0459 9.69953 12.0501C9.72378 12.086 9.7164 12.0649 9.69531 12.0375Z" fill="#0055A3" fill-opacity="0.46"/>
<path d="M9.65625 10.6284C9.68471 10.6494 9.71212 10.6695 9.72898 10.6884C9.7469 10.6684 9.75534 10.6515 9.65625 10.6284Z" fill="#0055A3" fill-opacity="0.46"/>
<path d="M9.34042 13.5412C9.33923 13.54 9.33919 13.54 9.33681 13.54C9.33561 13.5436 9.33442 13.546 9.33203 13.5496L9.34042 13.5412Z" fill="#0055A3" fill-opacity="0.46"/>
<path d="M9.71028 10.7487C9.75034 10.7339 9.74719 10.7118 9.72716 10.6886C9.71135 10.7055 9.68814 10.7234 9.71028 10.7487Z" fill="#0055A3" fill-opacity="0.46"/>
<path d="M10.0125 6.23709L10.0167 6.22232C10.0052 6.22443 9.99566 6.22654 9.98828 6.22654L10.0125 6.23709Z" fill="#0055A3" fill-opacity="0.46"/>
<path d="M9.98713 6.22524L9.96289 6.21469C9.965 6.22101 9.96711 6.22629 9.98713 6.22524Z" fill="#0055A3" fill-opacity="0.46"/>
<path d="M9.91406 6.19242L9.96466 6.21561C9.96255 6.20401 9.96572 6.1882 9.91406 6.19242Z" fill="#0055A3" fill-opacity="0.46"/>
<path d="M10.0039 6.62967L10.0682 6.62334C10.0545 6.62334 10.0334 6.62545 10.0039 6.62967Z" fill="#0055A3" fill-opacity="0.46"/>
<path d="M10.0376 6.741C10.0481 6.71148 10.1633 6.65035 10.1183 6.61767L10.068 6.62189C10.1644 6.62505 9.92766 6.73151 10.0376 6.741Z" fill="#0055A3" fill-opacity="0.46"/>
<path d="M9.31093 7.30173C9.32664 7.2701 9.33922 7.23849 9.35179 7.20686C9.2858 7.23005 9.19779 7.25956 9.1758 7.22161C8.98829 7.35444 9.32769 7.1826 9.31093 7.30173Z" fill="#0055A3" fill-opacity="0.46"/>
<path d="M9.23293 7.58627C9.19836 7.54094 9.13446 7.59365 9.0957 7.59365C9.1596 7.61895 9.17532 7.62527 9.23293 7.58627Z" fill="#0055A3" fill-opacity="0.46"/>
<path d="M9.16703 9.57108L9.00781 9.54472C9.02667 9.58373 9.06962 9.55315 9.16703 9.57108Z" fill="#0055A3" fill-opacity="0.46"/>
<path d="M9.92534 10.0906L10.0301 10.0695L9.88867 10.0274L9.92534 10.0906Z" fill="#0055A3" fill-opacity="0.46"/>
<path d="M8.76026 10.1133L8.74023 10.0933L8.78769 10.1629L8.76026 10.1133Z" fill="#0055A3" fill-opacity="0.46"/>
<path d="M7.76233 13.2461L7.94564 13.323C7.92364 13.2851 7.72567 13.1828 7.76233 13.2461Z" fill="#0055A3" fill-opacity="0.46"/>
<path d="M7.2465 14.6125C7.15432 14.5745 7.07885 14.5745 7.14799 14.6472C7.17836 14.6283 7.26011 14.6409 7.2465 14.6125Z" fill="#0055A3" fill-opacity="0.46"/>
<path d="M4.29501 17.8341L4.26758 17.7666L4.26866 17.8446L4.29501 17.8341Z" fill="#0055A3" fill-opacity="0.46"/>
</svg>
