<svg width="33" height="28" viewBox="0 0 33 28" fill="none" xmlns="http://www.w3.org/2000/svg">
<path d="M3.87475 10.3143C5.7398 11.4583 7.8627 12.2463 9.92348 12.956C12.0058 13.6718 14.1247 14.2712 16.2726 14.7575C20.6095 15.7377 25.0508 16.2623 29.5002 16.332C30.4301 16.3462 30.9382 15.4328 30.4439 14.6479C29.1855 12.6504 27.6745 10.8634 25.9595 9.24769C25.141 8.4765 24.276 7.75534 23.371 7.08943C22.3999 6.37409 21.3274 5.50482 20.1367 5.25491C19.2865 5.07668 18.6169 6.29179 19.1996 6.92893C19.9388 7.73702 21.0116 8.22086 21.9032 8.85721C22.8171 9.51017 23.6922 10.2188 24.5212 10.9764C26.132 12.4485 27.5547 14.1403 28.7959 15.9349C29.0206 15.3748 29.2448 14.8158 29.4695 14.2557C25.1804 14.3508 20.8839 13.976 16.6731 13.1761C14.5723 12.7774 12.4879 12.281 10.4375 11.6811C8.35306 11.0713 6.31851 10.2742 4.22853 9.69405C3.87486 9.59543 3.49948 10.0836 3.87475 10.3143Z" fill="#0055A3" fill-opacity="0.46"/>
<path d="M29.9162 15.1313C29.4044 15.1118 29.0838 15.5736 28.7739 15.9239C28.3378 16.4183 27.9044 16.9188 27.4409 17.3869C26.5086 18.3274 25.5119 19.1949 24.477 20.0191C23.4713 20.8207 22.4636 21.6685 21.3641 22.3384C20.2918 22.991 19.1538 23.2433 17.9299 23.4165C17.2653 23.51 17.2676 24.352 17.786 24.6262C19.0693 25.3039 20.6155 24.8413 21.8124 24.1711C23.1607 23.4167 24.3375 22.3554 25.5132 21.3599C26.6776 20.3739 27.8364 19.3449 28.8001 18.1562C29.2507 17.6002 29.6607 17.0164 29.9718 16.3701C30.0676 16.1693 30.4444 15.1511 29.9162 15.1313Z" fill="#0055A3" fill-opacity="0.46"/>
</svg>
