<svg width="72" height="66" viewBox="0 0 72 66" fill="none" xmlns="http://www.w3.org/2000/svg">
<g clip-path="url(#clip0_2295_12917)">
<path d="M22.9652 4.82576C22.9652 4.82576 31.544 14.2287 49.3093 2.87032C65.0864 -7.21718 72.4297 14.6331 70.7587 24.1418C68.594 36.4595 53.2189 43.8036 58.314 53.0936C63.4091 62.3837 41.3174 72.1087 32.86 58.6156C22.3393 41.8307 16.6249 52.8429 9.12099 51.4613C3.73551 50.4698 -4.85799 35.0527 4.44149 26.4717C12.2668 19.251 9.35204 15.8398 8.22708 12.6299C6.60468 8.00053 14.3824 -2.32229 22.9652 4.82576Z" fill="#DEE9FF"/>
<rect width="24.4937" height="23.0553" transform="matrix(0.96513 0.261772 -0.255895 0.966705 40.6406 8.16309)" fill="white"/>
<path fill-rule="evenodd" clip-rule="evenodd" d="M65.2061 16.2314C65.6446 14.5751 64.6735 12.8726 63.0372 12.4287L42.2977 6.80359C40.6614 6.35978 38.9795 7.34272 38.5411 8.99905L32.984 29.9924C32.5455 31.6487 33.5166 33.3512 35.1529 33.795L55.8923 39.4202C57.5286 39.864 59.2105 38.8811 59.649 37.2247L65.2061 16.2314ZM57.5517 33.1522C57.5024 33.3547 57.3746 33.5286 57.1972 33.6347C57.0198 33.7408 56.8076 33.7701 56.6086 33.7161C56.3824 33.656 56.1967 33.4928 56.1063 33.2745L52.1654 24.1697C52.075 23.9514 51.8893 23.7881 51.6631 23.728C51.4376 23.6631 51.195 23.7107 51.0099 23.8562L46.4743 27.2548C46.2892 27.4003 46.0467 27.4479 45.8212 27.383C45.5892 27.3176 45.3999 27.1477 45.308 26.9224L44.3665 24.4812C44.2669 24.255 44.0736 24.0849 43.8385 24.0166C43.6053 23.9558 43.3574 24.0071 43.1665 24.1557L38.0225 28.3535C37.8348 28.5092 37.5835 28.5612 37.3505 28.4927C37.1518 28.4432 36.9815 28.3138 36.8792 28.1344C36.7769 27.955 36.7513 27.741 36.8083 27.5421L41.5041 9.80268L62.2435 15.4278L57.5517 33.1522ZM48.6061 18.9613C48.2773 20.2036 47.0158 20.9408 45.7886 20.6079C44.5614 20.275 43.8331 18.9982 44.1619 17.7559C44.4908 16.5137 45.7522 15.7765 46.9794 16.1093C48.2066 16.4422 48.9349 17.7191 48.6061 18.9613Z" fill="#7997FF"/>
<rect width="25.5426" height="27.5077" transform="matrix(0.920364 -0.391063 0.383056 0.923725 9.6123 26.9588)" fill="white"/>
<path fill-rule="evenodd" clip-rule="evenodd" d="M36.6005 16.875C35.8208 15.0619 33.7366 14.2319 31.9455 15.0212L9.24318 25.0249C7.45202 25.8142 6.6321 27.9238 7.41183 29.7369L17.2946 52.7171C18.0743 54.5302 20.1584 55.3602 21.9496 54.5709L44.6519 44.5671C46.4431 43.7779 47.263 41.6682 46.4833 39.8552L36.6005 16.875ZM41.7011 37.7059C41.8003 37.9245 41.8084 38.1743 41.7236 38.399C41.6388 38.6236 41.4682 38.8043 41.2503 38.9003C41.0036 39.0106 40.7203 38.9983 40.4838 38.8671L30.4679 33.5181C30.2314 33.3869 29.948 33.3746 29.7013 33.4849C29.4518 33.5902 29.2668 33.8095 29.203 34.0755L27.5226 40.4391C27.4589 40.7051 27.2738 40.9244 27.0243 41.0297C26.7686 41.1394 26.4773 41.1237 26.2345 40.9872L23.6529 39.4694C23.4025 39.3377 23.1075 39.3248 22.8468 39.4341C22.5933 39.5488 22.4061 39.7753 22.3394 40.0482L20.6771 47.5754C20.6182 47.8522 20.4284 48.0819 20.1697 48.1895C19.9552 48.2894 19.7098 48.2964 19.4902 48.2089C19.2705 48.1214 19.0956 47.947 19.0059 47.7261L10.655 28.3078L33.3572 18.304L41.7011 37.7059ZM23.5613 31.407C24.1461 32.7668 23.5312 34.349 22.1878 34.941C20.8444 35.533 19.2814 34.9105 18.6966 33.5507C18.1118 32.1909 18.7267 30.6086 20.0701 30.0167C21.4135 29.4247 22.9765 30.0472 23.5613 31.407Z" fill="#0038FF"/>
</g>
<defs>
<clipPath id="clip0_2295_12917">
<rect width="72" height="66" fill="white"/>
</clipPath>
</defs>
</svg>
