<svg width="41" height="40" viewBox="0 0 41 40" fill="none" xmlns="http://www.w3.org/2000/svg">
<rect x="0.900391" width="40" height="40" rx="20" fill="#0038FF" fill-opacity="0.05"/>
<path d="M29.288 15.1575L20.9005 20L12.5098 15.1497" stroke="#0038FF" stroke-width="2" stroke-linecap="round" stroke-linejoin="round"/>
<path d="M20.9004 20V29" stroke="#0038FF" stroke-width="2" stroke-linecap="round" stroke-linejoin="round"/>
<path d="M19.9004 10.5774C20.5192 10.2201 21.2816 10.2201 21.9004 10.5774L28.5606 14.4226C29.1794 14.7799 29.5606 15.4402 29.5606 16.1547V23.8453C29.5606 24.5598 29.1794 25.2201 28.5606 25.5774L21.9004 29.4226C21.2816 29.7799 20.5192 29.7799 19.9004 29.4226L13.2401 25.5774C12.6213 25.2201 12.2401 24.5598 12.2401 23.8453V16.1547C12.2401 15.4402 12.6213 14.7799 13.2401 14.4226L19.9004 10.5774Z" stroke="#0038FF" stroke-width="2" stroke-linecap="round" stroke-linejoin="round"/>
<path d="M17.4004 12.5L24.9004 17" stroke="#0038FF" stroke-width="2" stroke-linecap="round" stroke-linejoin="round"/>
</svg>
