<svg width="41" height="40" viewBox="0 0 41 40" fill="none" xmlns="http://www.w3.org/2000/svg">
<g opacity="0.5">
<rect x="0.800293" width="40" height="40" rx="20" fill="#E9EBF4"/>
<path d="M29.1877 15.1574L20.8003 19.9999L12.4095 15.1497" stroke="#5C697B" stroke-width="2" stroke-linecap="round" stroke-linejoin="round"/>
<path d="M20.8003 20V29" stroke="#5C697B" stroke-width="2" stroke-linecap="round" stroke-linejoin="round"/>
<path d="M19.8003 10.5774C20.4191 10.2201 21.1815 10.2201 21.8003 10.5774L28.4605 14.4226C29.0794 14.7799 29.4605 15.4402 29.4605 16.1547V23.8453C29.4605 24.5598 29.0794 25.2201 28.4605 25.5774L21.8003 29.4226C21.1815 29.7799 20.4191 29.7799 19.8003 29.4226L13.14 25.5774C12.5212 25.2201 12.14 24.5598 12.14 23.8453V16.1547C12.14 15.4402 12.5212 14.7799 13.14 14.4226L19.8003 10.5774Z" stroke="#5C697B" stroke-width="2" stroke-linecap="round" stroke-linejoin="round"/>
<path d="M17.3003 12.5L24.8003 17" stroke="#5C697B" stroke-width="2" stroke-linecap="round" stroke-linejoin="round"/>
</g>
</svg>
