<svg width="12" height="14" viewBox="0 0 12 14" fill="none" xmlns="http://www.w3.org/2000/svg">
<path fill-rule="evenodd" clip-rule="evenodd" d="M11.3337 2.66668V2.00001C11.3337 1.81592 11.1844 1.66668 11.0003 1.66668H8.00033V1.00001C8.00033 0.63182 7.70185 0.333344 7.33366 0.333344H4.66699C4.2988 0.333344 4.00033 0.63182 4.00033 1.00001V1.66668H1.00033C0.816231 1.66668 0.666992 1.81592 0.666992 2.00001V2.66668C0.666992 2.85077 0.816231 3.00001 1.00033 3.00001H11.0003C11.1844 3.00001 11.3337 2.85077 11.3337 2.66668ZM3.14699 11H8.85366L9.33366 4.33334H10.667L10.1003 12.4267C10.0512 13.1264 9.46841 13.6684 8.76699 13.6667H3.24699C2.54557 13.6684 1.96276 13.1264 1.91366 12.4267L1.33366 4.33334H2.66699L3.14699 11Z" fill="currentcolor"/>
</svg>
