<svg width="41" height="40" viewBox="0 0 41 40" fill="none" xmlns="http://www.w3.org/2000/svg">
<rect x="0.699219" width="40" height="40" rx="20" fill="#0038FF" fill-opacity="0.05"/>
<circle cx="28.6992" cy="24" r="1" fill="#0038FF"/>
<circle cx="28.6992" cy="28" r="1" fill="#0038FF"/>
<circle cx="24.6992" cy="28" r="1" fill="#0038FF"/>
<circle cx="16.6992" cy="12" r="1" fill="#0038FF"/>
<circle cx="28.6992" cy="20" r="1" fill="#0038FF"/>
<circle cx="20.6992" cy="12" r="1" fill="#0038FF"/>
<circle cx="12.6992" cy="12" r="1" fill="#0038FF"/>
<circle cx="12.6992" cy="16" r="1" fill="#0038FF"/>
<rect x="12.6992" y="20" width="8" height="8" rx="2" stroke="#0038FF" stroke-width="2" stroke-linecap="round" stroke-linejoin="round"/>
<path d="M12.6992 25L15.0171 23.4547C15.4137 23.1903 15.9418 23.2426 16.2789 23.5797L19.6992 27" stroke="#0038FF" stroke-width="2" stroke-linecap="round" stroke-linejoin="round"/>
<path d="M28.6992 12H29.6992C29.6992 11.4477 29.2515 11 28.6992 11V12ZM24.6992 11C24.1469 11 23.6992 11.4477 23.6992 12C23.6992 12.5523 24.1469 13 24.6992 13V11ZM27.6992 16C27.6992 16.5523 28.1469 17 28.6992 17C29.2515 17 29.6992 16.5523 29.6992 16H27.6992ZM21.9921 17.2929C21.6016 17.6834 21.6016 18.3166 21.9921 18.7071C22.3826 19.0976 23.0158 19.0976 23.4063 18.7071L21.9921 17.2929ZM28.6992 11H24.6992V13H28.6992V11ZM27.6992 12V16H29.6992V12H27.6992ZM23.4063 18.7071L29.4063 12.7071L27.9921 11.2929L21.9921 17.2929L23.4063 18.7071Z" fill="#0038FF"/>
</svg>
