<svg width="41" height="40" viewBox="0 0 41 40" fill="none" xmlns="http://www.w3.org/2000/svg">
<g opacity="0.5">
<rect x="0.600098" width="40" height="40" rx="20" fill="#E9EBF4"/>
<circle cx="28.6001" cy="24" r="1" fill="#5C697B"/>
<circle cx="28.6001" cy="28" r="1" fill="#5C697B"/>
<circle cx="24.6001" cy="28" r="1" fill="#5C697B"/>
<circle cx="16.6001" cy="12" r="1" fill="#5C697B"/>
<circle cx="28.6001" cy="20" r="1" fill="#5C697B"/>
<circle cx="20.6001" cy="12" r="1" fill="#5C697B"/>
<circle cx="12.6001" cy="12" r="1" fill="#5C697B"/>
<circle cx="12.6001" cy="16" r="1" fill="#5C697B"/>
<rect x="12.6001" y="20" width="8" height="8" rx="2" stroke="#5C697B" stroke-width="2" stroke-linecap="round" stroke-linejoin="round"/>
<path d="M12.6001 25L14.918 23.4547C15.3146 23.1903 15.8427 23.2426 16.1798 23.5797L19.6001 27" stroke="#5C697B" stroke-width="2" stroke-linecap="round" stroke-linejoin="round"/>
<path d="M28.6001 12H29.6001C29.6001 11.4477 29.1524 11 28.6001 11V12ZM24.6001 11C24.0478 11 23.6001 11.4477 23.6001 12C23.6001 12.5523 24.0478 13 24.6001 13V11ZM27.6001 16C27.6001 16.5523 28.0478 17 28.6001 17C29.1524 17 29.6001 16.5523 29.6001 16H27.6001ZM21.893 17.2929C21.5025 17.6834 21.5025 18.3166 21.893 18.7071C22.2835 19.0976 22.9167 19.0976 23.3072 18.7071L21.893 17.2929ZM28.6001 11H24.6001V13H28.6001V11ZM27.6001 12V16H29.6001V12H27.6001ZM23.3072 18.7071L29.3072 12.7071L27.893 11.2929L21.893 17.2929L23.3072 18.7071Z" fill="#5C697B"/>
</g>
</svg>
