<svg width="12" height="12" viewBox="0 0 12 12" fill="none" xmlns="http://www.w3.org/2000/svg">
<path fill-rule="evenodd" clip-rule="evenodd" d="M12 5.66667V10.6667C12 11.403 11.403 12 10.6667 12H1.33333C0.596954 12 0 11.403 0 10.6667V1.33333C0 0.596954 0.596954 0 1.33333 0H6.33333C6.51743 0 6.66667 0.149238 6.66667 0.333333V1C6.66667 1.18409 6.51743 1.33333 6.33333 1.33333H1.33333V10.6667H10.6667V5.66667C10.6667 5.48257 10.8159 5.33333 11 5.33333H11.6667C11.8508 5.33333 12 5.48257 12 5.66667ZM11.5267 0.193333C11.4025 0.0701705 11.2349 0.000736414 11.06 0H10.86C10.6851 0.000736414 10.5175 0.0701705 10.3933 0.193333L9.19333 1.39333C9.06629 1.52295 9.06629 1.73039 9.19333 1.86L10.14 2.80667C10.2696 2.93371 10.4771 2.93371 10.6067 2.80667L11.8067 1.60667C11.9298 1.48249 11.9993 1.31489 12 1.14V0.94C11.9993 0.765107 11.9298 0.597507 11.8067 0.473333L11.5267 0.193333ZM2.69333 8.86L3.22 7.52667C3.28584 7.35713 3.38566 7.20286 3.51333 7.07333L7.9 2.66667C8.02961 2.53962 8.23705 2.53962 8.36667 2.66667L9.33333 3.63333C9.46038 3.76295 9.46038 3.97039 9.33333 4.1L4.91333 8.47333C4.78381 8.60101 4.62954 8.70083 4.46 8.76667L3.12667 9.29333C3.00281 9.34319 2.86115 9.31434 2.76667 9.22C2.67233 9.12552 2.64347 8.98386 2.69333 8.86Z" fill="#94A3B8"/>
</svg>
