<svg width="60" height="29" viewBox="0 0 60 29" fill="none" xmlns="http://www.w3.org/2000/svg">
<path d="M6.38533 2.16667V10.1773C6.38533 10.1773 9.208 10.1773 10.7187 10.0627C11.9067 9.85467 12.1253 9.74 12.344 8.552L12.7813 6.812H14.0733L13.8547 10.6147L13.9693 14.5107H12.6667L12.344 12.9893C12.0213 11.9067 11.584 11.6867 10.7187 11.5827C9.636 11.468 6.38533 11.468 6.38533 11.468V18.1867C6.38533 19.4787 7.04133 20.0307 8.552 20.0307H13.104C14.5107 20.0307 15.916 19.916 16.792 17.864L17.9693 15.26H19.0627C18.948 15.8013 18.4067 20.572 18.3027 21.6453C18.3027 21.6453 14.188 21.5413 12.4587 21.5413H4.656L0 21.6453V20.468L1.51067 20.1347C2.604 19.916 2.92667 19.5933 2.92667 18.728C2.92667 18.728 3.04133 15.8013 3.04133 10.9253C3.04133 6.06133 2.92667 3.13333 2.92667 3.13333C2.92667 2.164 2.604 1.94533 1.51067 1.72667L0 1.40667V0.218667L4.552 0.312H13.2187C14.948 0.312 17.864 0 17.864 0C17.864 0 17.76 1.83333 17.6453 6.16667H16.4573L16.02 4.64533C15.5933 2.69733 14.9467 1.728 13.7493 1.728H6.93733C6.38533 1.72933 6.38533 1.83333 6.38533 2.16667ZM23.9267 3.02133H25.2293V7.57333L29.6773 7.35467L29.4587 9.41733L25.1253 9.084V17.1053C25.1253 19.376 25.8853 20.2507 27.188 20.2507C28.3653 20.2507 29.24 19.5947 29.5627 19.0533L30.208 19.8133C29.5627 21.324 27.7293 22.084 25.9893 22.084C23.8333 22.084 22.0827 20.792 22.0827 18.3027V9.19733H19.4987V8.11467C21.6667 7.896 23.2813 6.59333 23.9267 3.02133ZM33.2493 16.9893L34.1133 19.052C34.436 19.916 35.196 20.792 36.9253 20.792C38.7693 20.792 39.5293 19.8133 39.5293 18.6253C39.5293 14.9373 32.2693 16.0213 32.2693 11.0413C32.2693 8.22933 34.54 6.916 37.4667 6.916C38.7693 6.916 40.7173 7.13467 41.696 7.572C41.4773 8.65467 41.3627 10.0613 41.3627 11.1453L40.2893 11.2493L39.5293 9.08267C39.3107 8.552 38.436 8.11333 37.3627 8.11333C36.06 8.11333 34.7587 8.65467 34.7587 10.0613C34.7587 13.416 42.2373 12.6653 42.2373 17.6453C42.2373 20.468 39.748 21.9787 36.7067 21.9787C34.436 21.9787 32.1547 21.104 32.1547 21.104C32.3733 19.812 32.2693 18.4067 32.1547 16.9893H33.2493ZM41.6973 27.3853C42.02 26.1973 42.2387 24.688 42.4573 23.2707L43.6453 23.1667L44.0827 25.4373C44.1867 25.9787 44.5093 26.416 45.3747 26.416C46.7813 26.416 48.6253 25.552 50.364 22.52C49.5933 20.676 47.3227 14.728 45.26 10.176C44.7187 8.97867 44.6147 8.87333 43.864 8.65467L43.312 8.44667V7.35333L46.572 7.468L50.572 7.24933V8.33333L49.5933 8.552C48.8333 8.656 48.52 9.08267 48.52 9.52133C48.52 9.636 48.52 9.74 48.624 9.95867C48.832 10.6147 50.572 15.48 51.8747 18.7293C52.948 16.4587 55.0107 11.3653 55.3333 10.5C55.448 10.0627 55.552 9.95867 55.552 9.636C55.552 9.084 55.2293 8.76133 54.4787 8.55333L53.708 8.33333V7.25067L56.7493 7.35467L59.5613 7.25067V8.33333L59.02 8.76C57.9373 9.19733 57.8227 9.30133 57.3947 10.176L52.6347 21.3213C49.812 27.7173 46.8853 28.2587 44.832 28.2587C43.5307 28.26 42.552 27.9267 41.6973 27.3853Z" fill="#64748B"/>
</svg>
