<svg width="14" height="10" viewBox="0 0 14 10" fill="none" xmlns="http://www.w3.org/2000/svg">
<path fill-rule="evenodd" clip-rule="evenodd" d="M6.99593 0.333385C9.92536 0.30328 12.5721 2.07769 13.6585 4.80005C13.6694 4.86628 13.6694 4.93382 13.6585 5.00005C13.6607 5.07537 13.6471 5.15031 13.6186 5.22005C12.5311 7.92087 9.90588 9.68355 6.99593 9.66672C4.08269 9.68137 1.45651 7.91278 0.373295 5.20672C0.34655 5.14112 0.332967 5.0709 0.33332 5.00005C0.334171 4.92499 0.347687 4.85061 0.373295 4.78005C1.46074 2.07923 4.08598 0.316553 6.99593 0.333385ZM4.99714 5.00005C4.99714 6.10462 5.89203 7.00005 6.99593 7.00005C7.52604 7.00005 8.03443 6.78934 8.40928 6.41427C8.78412 6.03919 8.99471 5.53048 8.99471 5.00005C8.99471 3.89548 8.09982 3.00005 6.99593 3.00005C5.89203 3.00005 4.99714 3.89548 4.99714 5.00005Z" fill="currentcolor"/>
</svg>
