<svg width="14" height="12" viewBox="0 0 14 12" fill="none" xmlns="http://www.w3.org/2000/svg">
<path fill-rule="evenodd" clip-rule="evenodd" d="M1.91896 0.100036C1.85851 0.0355844 1.7741 -0.000976562 1.68577 -0.000976562C1.59743 -0.000976562 1.51303 0.0355844 1.45258 0.100036L1.09946 0.453369C1.03505 0.513858 0.998508 0.598312 0.998508 0.686703C0.998508 0.775093 1.03505 0.859547 1.09946 0.920036L2.83174 2.6667C1.70409 3.42144 0.843621 4.51342 0.373234 5.7867C0.348352 5.85515 0.334848 5.92722 0.333259 6.00004C0.332906 6.07088 0.346489 6.1411 0.373234 6.2067C1.45644 8.91276 4.08263 10.6814 6.99587 10.6667C8.0738 10.6564 9.13619 10.4083 10.1073 9.94004L12.0728 11.9C12.1332 11.9645 12.2176 12.001 12.306 12.001C12.3943 12.001 12.4787 11.9645 12.5392 11.9L12.8923 11.5467C12.9567 11.4862 12.9932 11.4018 12.9932 11.3134C12.9932 11.225 12.9567 11.1405 12.8923 11.08L1.91896 0.100036ZM6.99586 8.00004C5.89196 8.00004 4.99708 7.10461 4.99708 6.00004C4.99876 5.67303 5.08359 5.35184 5.24359 5.0667L7.90863 7.73337C7.63144 7.89722 7.31761 7.9889 6.99586 8.00004ZM5.07703 1.60671C8.58965 0.587655 12.3018 2.40162 13.6585 5.80004C13.6693 5.86627 13.6693 5.93381 13.6585 6.00004C13.6606 6.07536 13.647 6.1503 13.6185 6.22004C13.2898 7.12176 12.7587 7.93598 12.0661 8.60004L5.07703 1.60671Z" fill="currentcolor"/>
</svg>
