<svg width="15" height="16" viewBox="0 0 15 16" fill="none" xmlns="http://www.w3.org/2000/svg">
<path d="M15 2.16667V13.8333C15 14.7538 14.2538 15.5 13.3333 15.5H10.2083C9.97821 15.5 9.79167 15.3135 9.79167 15.0833V10.0833H11.7417C11.9397 10.0834 12.1104 9.94403 12.15 9.75L12.45 8.25C12.4624 8.18941 12.4472 8.12644 12.4086 8.07815C12.3699 8.02985 12.3118 8.00122 12.25 8H9.79167V5.29167C9.79167 5.17661 9.88494 5.08333 10 5.08333H12.0833C12.3135 5.08333 12.5 4.89679 12.5 4.66667V3.41667C12.5 3.18655 12.3135 3 12.0833 3H10C8.61929 3 7.5 4.11929 7.5 5.5V8H6.475C6.24488 8 6.05833 8.18655 6.05833 8.41667V9.66667C6.05833 9.89678 6.24488 10.0833 6.475 10.0833H7.5V15.0833C7.5 15.3135 7.31345 15.5 7.08333 15.5H1.66667C0.746192 15.5 0 14.7538 0 13.8333V2.16667C0 1.24619 0.746192 0.5 1.66667 0.5H13.3333C14.2538 0.5 15 1.24619 15 2.16667Z" fill="currentcolor"/>
</svg>
