<svg width="126" height="126" viewBox="0 0 126 126" fill="none" xmlns="http://www.w3.org/2000/svg">
<g clip-path="url(#clip0_881_46096)">
<path d="M19.5409 56.4866C19.5409 56.4866 38.8412 55.7137 43.012 23.9881C46.7158 -4.18734 79.2613 8.63708 88.6689 19.8685C100.856 34.4178 94.3593 59.4457 110.124 62.6074C125.89 65.7692 115.595 100.922 91.6641 97.5575C61.8953 93.3719 69.0976 110.767 60.1612 118.13C53.7478 123.414 27.4502 118.327 26.5737 99.1451C25.8361 83.0036 19.0273 83.0548 14.2012 81.2245C7.24074 78.5848 2.85492 59.4674 19.5409 56.4866Z" fill="#B8C8FF" fill-opacity="0.3"/>
<path d="M92.3191 97.9822L68.1289 74.0791L63.3389 78.9266L87.5291 102.83L92.3191 97.9822Z" fill="#58BFF9"/>
<path d="M101.56 104.405L82.7401 85.8081C82.6354 85.7045 82.4665 85.7055 82.3629 85.8103L75.2397 93.0191C75.1362 93.1239 75.1372 93.2928 75.242 93.3963L94.062 111.993C94.1668 112.097 94.3356 112.096 94.4392 111.991L101.562 104.782C101.666 104.677 101.665 104.508 101.56 104.405Z" fill="#0038FF"/>
<path d="M46.6886 86.1004C63.3307 86.1004 76.8218 72.6093 76.8218 55.9672C76.8218 39.3251 63.3307 25.834 46.6886 25.834C30.0465 25.834 16.5554 39.3251 16.5554 55.9672C16.5554 72.6093 30.0465 86.1004 46.6886 86.1004Z" fill="#3284FF"/>
<path d="M46.6894 81.1838C60.6161 81.1838 71.9058 69.894 71.9058 55.9674C71.9058 42.0407 60.6161 30.751 46.6894 30.751C32.7628 30.751 21.473 42.0407 21.473 55.9674C21.473 69.894 32.7628 81.1838 46.6894 81.1838Z" fill="#D4E5FF"/>
<path d="M102.715 11.8693C97.5345 9.70127 93.8725 11.7811 93.0067 13.8568C92.3813 15.3561 93.3586 16.578 94.3951 17.0117C96.4671 17.8788 96.8576 14.5655 100.772 16.2035C102.691 17.0064 103.872 18.4946 103.135 20.2629C102.269 22.3389 99.623 22.6313 97.9076 23.1776C96.394 23.673 94.2785 24.639 92.8995 27.9449C92.0657 29.9437 92.3622 30.7452 93.9357 31.4036C95.8158 32.1905 96.5522 31.5054 96.8569 30.775C97.6907 28.7759 98.2103 27.6387 101.01 26.869C102.383 26.4954 106.735 25.2462 108.242 21.6328C109.75 18.0194 107.626 13.9249 102.715 11.8693Z" fill="#0038FF"/>
<path d="M92.8651 34.072C92.0835 33.7553 91.2087 33.7601 90.4306 34.0853C89.6525 34.4106 89.0338 35.03 88.7088 35.8093C88.3837 36.5885 88.3785 37.4647 88.6944 38.2478C89.0102 39.0308 89.6215 39.6576 90.3957 39.992C91.1785 40.3146 92.0568 40.3137 92.8389 39.9895C93.621 39.6653 94.2431 39.0442 94.5694 38.262C94.8957 37.4797 94.8996 36.5999 94.5803 35.8148C94.2609 35.0297 93.6443 34.4031 92.8651 34.072V34.072Z" fill="#0038FF"/>
<path d="M41.4558 52.3491C41.7461 50.5592 41.2303 48.9861 40.3037 48.8353C39.3772 48.6845 38.3907 50.0133 38.1004 51.8031C37.8101 53.593 38.326 55.1662 39.2525 55.3169C40.1791 55.4677 41.1656 54.139 41.4558 52.3491Z" fill="#0038FF"/>
<path d="M49.6603 53.6128C49.9408 51.8835 49.4495 50.3647 48.5631 50.2205C47.6767 50.0763 46.7308 51.3612 46.4503 53.0905C46.1699 54.8198 46.6611 56.3386 47.5475 56.4828C48.4339 56.6271 49.3798 55.3421 49.6603 53.6128Z" fill="#0038FF"/>
<path d="M52.3005 66C52.2056 66.0002 52.1116 65.9806 52.0244 65.9425C51.9371 65.9044 51.8584 65.8486 51.7931 65.7784L50.8085 64.7234C49.2288 63.0357 47.1481 61.9229 44.8864 61.5562C42.6247 61.1894 40.3071 61.5891 38.2903 62.6936L37.0323 63.3848C36.9514 63.4293 36.8627 63.4571 36.7713 63.4666C36.6799 63.4762 36.5875 63.4673 36.4995 63.4406C36.4114 63.4138 36.3294 63.3696 36.2581 63.3106C36.1869 63.2516 36.1277 63.1789 36.084 63.0966C36.0404 63.0143 36.0131 62.9241 36.0037 62.831C35.9943 62.738 36.003 62.644 36.0293 62.5544C36.0556 62.4648 36.099 62.3813 36.157 62.3088C36.2149 62.2362 36.2864 62.176 36.3673 62.1316L37.6253 61.4403C39.9127 60.1876 42.5412 59.7343 45.1064 60.1503C47.6716 60.5662 50.0315 61.8283 51.8231 63.7424L52.8077 64.7975C52.9019 64.8984 52.965 65.0253 52.9891 65.1624C53.0132 65.2994 52.9972 65.4407 52.9433 65.5687C52.8893 65.6966 52.7996 65.8057 52.6854 65.8823C52.5712 65.9589 52.4374 65.9998 52.3005 65.9999V66Z" fill="#0038FF"/>
<g style="mix-blend-mode:color">
<!-- <path d="M-8 0H125V126H-8V0Z" fill="#FFF"/> -->
</g>
</g>
<defs>
<clipPath id="clip0_881_46096">
<rect width="126" height="126" fill="white"/>
</clipPath>
</defs>
</svg>
