<svg width="16" height="16" viewBox="0 0 16 16" fill="none" xmlns="http://www.w3.org/2000/svg">
<path d="M15.5 7.82517C15.5 11.2835 13.6583 15.5002 8.10833 15.5002C3.93717 15.5279 0.532101 12.1713 0.5 8.00017C0.532101 3.82904 3.93717 0.472453 8.10833 0.50017C9.8339 0.506569 11.5071 1.09365 12.8583 2.16684C12.9517 2.24311 13.0091 2.35484 13.0167 2.47517C13.0171 2.59691 12.9692 2.71384 12.8833 2.80017C12.3408 3.29617 11.8235 3.81905 11.3333 4.36684C11.1908 4.52375 10.9518 4.54547 10.7833 4.41684C10.0135 3.84707 9.07398 3.55349 8.11667 3.5835C5.6544 3.5835 3.65833 5.57957 3.65833 8.04184C3.65833 10.5041 5.6544 12.5002 8.11667 12.5002C10.6167 12.5002 11.675 11.4335 12.225 9.54184H8.41667C8.18655 9.54184 8 9.35529 8 9.12517V6.91684C8 6.68672 8.18655 6.50017 8.41667 6.50017H15.0833C15.2752 6.49898 15.437 6.64282 15.4583 6.8335C15.4893 7.16312 15.5032 7.49412 15.5 7.82517Z" fill="currentcolor"/>
</svg>
