<svg width="41" height="41" viewBox="0 0 41 41" fill="none" xmlns="http://www.w3.org/2000/svg">
<path d="M22.0007 23.8333C22.0007 23.0049 21.3291 22.3333 20.5007 22.3333C19.6722 22.3333 19.0007 23.0049 19.0007 23.8333H22.0007ZM19.0007 28.8333C19.0007 29.6618 19.6722 30.3333 20.5007 30.3333C21.3291 30.3333 22.0007 29.6618 22.0007 28.8333H19.0007ZM18.834 7H22.1673V4H18.834V7ZM25.6673 10.5V15.5H28.6673V10.5H25.6673ZM27.1673 14H13.834V17H27.1673V14ZM15.334 15.5V10.5H12.334V15.5H15.334ZM30.6673 20.5V30.5H33.6673V20.5H30.6673ZM27.1673 34H13.834V37H27.1673V34ZM10.334 30.5V20.5H7.33398V30.5H10.334ZM13.834 34C11.901 34 10.334 32.433 10.334 30.5H7.33398C7.33398 34.0898 10.2441 37 13.834 37V34ZM30.6673 30.5C30.6673 32.433 29.1003 34 27.1673 34V37C30.7572 37 33.6673 34.0898 33.6673 30.5H30.6673ZM27.1673 17C29.1003 17 30.6673 18.567 30.6673 20.5H33.6673C33.6673 16.9101 30.7572 14 27.1673 14V17ZM13.834 14C10.2441 14 7.33398 16.9101 7.33398 20.5H10.334C10.334 18.567 11.901 17 13.834 17V14ZM20.6673 23.8333C20.6673 23.9254 20.5927 24 20.5007 24V27C22.2496 27 23.6673 25.5822 23.6673 23.8333H20.6673ZM20.5007 24C20.4086 24 20.334 23.9254 20.334 23.8333H17.334C17.334 25.5822 18.7517 27 20.5007 27V24ZM20.334 23.8333C20.334 23.7413 20.4086 23.6667 20.5007 23.6667V20.6667C18.7517 20.6667 17.334 22.0844 17.334 23.8333H20.334ZM20.5007 23.6667C20.5927 23.6667 20.6673 23.7413 20.6673 23.8333H23.6673C23.6673 22.0844 22.2496 20.6667 20.5007 20.6667V23.6667ZM19.0007 23.8333V28.8333H22.0007V23.8333H19.0007ZM22.1673 7C24.1003 7 25.6673 8.567 25.6673 10.5H28.6673C28.6673 6.91015 25.7572 4 22.1673 4V7ZM18.834 4C15.2441 4 12.334 6.91015 12.334 10.5H15.334C15.334 8.567 16.901 7 18.834 7V4Z" fill="url(#paint0_linear_476_39940)"/>
<defs>
<linearGradient id="paint0_linear_476_39940" x1="31.859" y1="7.84375" x2="8.53744" y2="8.19036" gradientUnits="userSpaceOnUse">
<stop stop-color="#42CCFB"/>
<stop offset="1" stop-color="#4361EE"/>
</linearGradient>
</defs>
</svg>
