<svg width="17" height="16" viewBox="0 0 17 16" fill="none" xmlns="http://www.w3.org/2000/svg">
<path d="M9.25065 9.33333C9.25065 8.91912 8.91486 8.58333 8.50065 8.58333C8.08644 8.58333 7.75065 8.91912 7.75065 9.33333H9.25065ZM7.75065 11.3333C7.75065 11.7475 8.08644 12.0833 8.50065 12.0833C8.91486 12.0833 9.25065 11.7475 9.25065 11.3333H7.75065ZM7.83398 2.75H9.16732V1.25H7.83398V2.75ZM10.4173 4V6H11.9173V4H10.4173ZM11.1673 5.25H5.83398V6.75H11.1673V5.25ZM6.58398 6V4H5.08398V6H6.58398ZM12.4173 8V12H13.9173V8H12.4173ZM11.1673 13.25H5.83398V14.75H11.1673V13.25ZM4.58398 12V8H3.08398V12H4.58398ZM5.83398 13.25C5.14363 13.25 4.58398 12.6904 4.58398 12H3.08398C3.08398 13.5188 4.3152 14.75 5.83398 14.75V13.25ZM12.4173 12C12.4173 12.6904 11.8577 13.25 11.1673 13.25V14.75C12.6861 14.75 13.9173 13.5188 13.9173 12H12.4173ZM11.1673 6.75C11.8577 6.75 12.4173 7.30964 12.4173 8H13.9173C13.9173 6.48122 12.6861 5.25 11.1673 5.25V6.75ZM5.83398 5.25C4.3152 5.25 3.08398 6.48122 3.08398 8H4.58398C4.58398 7.30964 5.14363 6.75 5.83398 6.75V5.25ZM8.41732 9.33333C8.41732 9.28731 8.45463 9.25 8.50065 9.25V10.75C9.28305 10.75 9.91732 10.1157 9.91732 9.33333H8.41732ZM8.50065 9.25C8.54667 9.25 8.58398 9.28731 8.58398 9.33333H7.08398C7.08398 10.1157 7.71825 10.75 8.50065 10.75V9.25ZM8.58398 9.33333C8.58398 9.37936 8.54667 9.41667 8.50065 9.41667V7.91667C7.71825 7.91667 7.08398 8.55093 7.08398 9.33333H8.58398ZM8.50065 9.41667C8.45463 9.41667 8.41732 9.37936 8.41732 9.33333H9.91732C9.91732 8.55093 9.28305 7.91667 8.50065 7.91667V9.41667ZM7.75065 9.33333V11.3333H9.25065V9.33333H7.75065ZM9.16732 2.75C9.85767 2.75 10.4173 3.30964 10.4173 4H11.9173C11.9173 2.48122 10.6861 1.25 9.16732 1.25V2.75ZM7.83398 1.25C6.3152 1.25 5.08398 2.48122 5.08398 4H6.58398C6.58398 3.30964 7.14363 2.75 7.83398 2.75V1.25Z" fill="#64748B"/>
</svg>
