<svg width="18" height="17" viewBox="0 0 18 17" fill="none" xmlns="http://www.w3.org/2000/svg">
<path fill-rule="evenodd" clip-rule="evenodd" d="M17.2435 6.55833L17.31 6.76666C17.3646 6.9239 17.3186 7.09867 17.1936 7.20833L13.1547 10.6667L14.3515 15.85C14.392 16.0157 14.3298 16.1896 14.1936 16.2917L14.0107 16.4167C13.9397 16.4725 13.8516 16.5019 13.7614 16.5C13.6853 16.5016 13.6103 16.4814 13.5453 16.4417L8.99952 13.6667L4.47863 16.4417C4.41363 16.4814 4.33865 16.5016 4.26256 16.5C4.17235 16.5019 4.08425 16.4725 4.01324 16.4167L3.80548 16.2917C3.66923 16.1896 3.60706 16.0157 3.64758 15.85L4.84429 10.6667L0.813714 7.21666C0.682272 7.10765 0.632518 6.92804 0.689057 6.76666L0.780472 6.55833C0.829079 6.39369 0.975213 6.27712 1.14613 6.26666L6.45652 5.84166L8.49258 0.933332C8.55782 0.770328 8.71634 0.664359 8.89148 0.666665H9.10755C9.28113 0.662972 9.43795 0.770038 9.49815 0.933332L11.5674 5.84166L16.8778 6.26666C17.0488 6.27712 17.1949 6.39369 17.2435 6.55833ZM12.4234 14.05L11.4927 10.15L14.5426 7.54167L10.5453 7.225L8.99952 3.50833V11.9583L12.4234 14.05Z" fill="#F2A742"/>
</svg>
