<svg width="14" height="14" viewBox="0 0 14 14" fill="none" xmlns="http://www.w3.org/2000/svg">
<path fill-rule="evenodd" clip-rule="evenodd" d="M6.66667 0.333496C2.98477 0.333496 0 3.31826 0 7.00016C0 10.6821 2.98477 13.6668 6.66667 13.6668C10.3486 13.6668 13.3333 10.6821 13.3333 7.00016C13.3333 5.23205 12.631 3.53636 11.3807 2.28612C10.1305 1.03588 8.43478 0.333496 6.66667 0.333496ZM7.33333 10.6668C7.33333 10.8509 7.18409 11.0002 7 11.0002H6.33333C6.14924 11.0002 6 10.8509 6 10.6668V10.0002C6 9.81607 6.14924 9.66683 6.33333 9.66683H7C7.18409 9.66683 7.33333 9.81607 7.33333 10.0002V10.6668ZM7.92 7.1935C8.71032 6.9377 9.24771 6.20416 9.25333 5.3735V5.00016C9.25333 4.49095 9.05105 4.00259 8.69098 3.64252C8.33091 3.28245 7.84255 3.08016 7.33333 3.08016H6C4.93961 3.08016 4.08 3.93978 4.08 5.00016V5.3335C4.08 5.51759 4.22924 5.66683 4.41333 5.66683H4.92C5.10409 5.66683 5.25333 5.51759 5.25333 5.3335V5.00016C5.25333 4.58779 5.58763 4.2535 6 4.2535H7.33333C7.53594 4.24626 7.73278 4.32171 7.87863 4.46253C8.02448 4.60335 8.1068 4.79743 8.10667 5.00016V5.3735C8.10732 5.69504 7.90382 5.98155 7.6 6.08683L6.96667 6.2935C6.45451 6.46278 6.10811 6.94076 6.10667 7.48016V8.00016C6.10667 8.18426 6.2559 8.3335 6.44 8.3335H6.94667C7.13076 8.3335 7.28 8.18426 7.28 8.00016V7.48016C7.28 7.44517 7.30104 7.41362 7.33333 7.40016L7.92 7.1935Z" fill="#626970"/>
</svg>
