<svg width="18" height="18" viewBox="0 0 18 18" fill="none" xmlns="http://www.w3.org/2000/svg">
<path fill-rule="evenodd" clip-rule="evenodd" d="M16.9167 5.66663H15.6667V2.33329C15.6667 1.41282 14.9205 0.666626 14 0.666626H4.00001C3.07953 0.666626 2.33334 1.41282 2.33334 2.33329V5.66663H1.08334C0.85322 5.66663 0.666672 5.85317 0.666672 6.08329V6.91663C0.666672 7.14674 0.85322 7.33329 1.08334 7.33329H16.9167C17.1468 7.33329 17.3333 7.14674 17.3333 6.91663V6.08329C17.3333 5.85317 17.1468 5.66663 16.9167 5.66663ZM4.00001 2.33329H14V5.66663H4.00001V2.33329ZM9.83334 10.6666H14V8.99996H15.6667V11.3C15.6661 11.9628 15.4023 12.5982 14.9333 13.0666L11.4 16.6C10.9316 17.0689 10.2962 17.3327 9.63334 17.3333H4.00001C3.07953 17.3333 2.33334 16.5871 2.33334 15.6666V8.99996H4.00001V15.6666H9V11.5C9 11.0397 9.3731 10.6666 9.83334 10.6666Z" fill="url(#paint0_linear_621_12248)"/>
<defs>
<linearGradient id="paint0_linear_621_12248" x1="3.14056" y1="12.5313" x2="10.6208" y2="2.96147" gradientUnits="userSpaceOnUse">
<stop stop-color="#F72585"/>
<stop offset="1" stop-color="#FC7932"/>
</linearGradient>
</defs>
</svg>
