<svg width="12" height="12" viewBox="0 0 12 12" fill="none" xmlns="http://www.w3.org/2000/svg">
<path fill-rule="evenodd" clip-rule="evenodd" d="M12 1.33333C12 0.596954 11.403 0 10.6667 0H1.33333C0.596954 0 0 0.596954 0 1.33333V10.6667C0 11.403 0.596954 12 1.33333 12H10.6667C11.403 12 12 11.403 12 10.6667V1.33333ZM10.6667 9.21333C10.6685 9.30289 10.6341 9.3894 10.5714 9.45336C10.5087 9.51732 10.4229 9.55335 10.3333 9.55333C10.2317 9.55387 10.1356 9.50704 10.0733 9.42667L7.40667 6.09333C7.34443 6.01296 7.24832 5.96613 7.14667 5.96667C7.04478 5.96508 6.94822 6.01212 6.88667 6.09333L5.36 8.01333C5.29845 8.09455 5.20189 8.14158 5.1 8.14C4.99533 8.13898 4.89696 8.08979 4.83333 8.00667L4.16667 7.1C4.09972 7.01736 3.99967 6.96856 3.89333 6.96667C3.78866 6.96769 3.69029 7.01687 3.62667 7.1L1.93333 9.42C1.87184 9.50567 1.77209 9.55554 1.66667 9.55333C1.57771 9.55517 1.49186 9.52064 1.42894 9.45772C1.36603 9.39481 1.3315 9.30896 1.33333 9.22V1.33333H10.6667V9.21333ZM5.33333 4.33333C5.33333 4.88562 4.88562 5.33333 4.33333 5.33333C3.78105 5.33333 3.33333 4.88562 3.33333 4.33333C3.33333 3.78105 3.78105 3.33333 4.33333 3.33333C4.88562 3.33333 5.33333 3.78105 5.33333 4.33333Z" fill="white"/>
</svg>
