<svg width="14" height="18" viewBox="0 0 14 18" fill="none" xmlns="http://www.w3.org/2000/svg">
  <path fill-rule="evenodd" clip-rule="evenodd" d="M2.00016 0.666992H12.0002C12.9206 0.666992 13.6668 1.41318 13.6668 2.33366V11.642C13.6672 12.0862 13.4902 12.5122 13.1752 12.8253L9.15849 16.842C8.84533 17.157 8.41937 17.334 7.97516 17.3337H2.00016C1.07969 17.3337 0.333496 16.5875 0.333496 15.667V2.33366C0.333496 1.41318 1.07969 0.666992 2.00016 0.666992ZM3.25016 4.00033C3.02004 4.00033 2.8335 4.18687 2.8335 4.41699V5.25033C2.8335 5.48044 3.02004 5.66699 3.25016 5.66699H10.7502C10.9803 5.66699 11.1668 5.48044 11.1668 5.25033V4.41699C11.1668 4.18687 10.9803 4.00033 10.7502 4.00033H3.25016ZM7.41683 9.00033H3.25016C3.02004 9.00033 2.8335 8.81378 2.8335 8.58366V7.75033C2.8335 7.52021 3.02004 7.33366 3.25016 7.33366H7.41683C7.64695 7.33366 7.8335 7.52021 7.8335 7.75033V8.58366C7.8335 8.81378 7.64695 9.00033 7.41683 9.00033ZM7.8335 12.3337V15.817L12.1502 11.5003H8.66683C8.20659 11.5003 7.8335 11.8734 7.8335 12.3337Z" fill="#061425"/>
</svg>