<svg width="18" height="18" viewBox="0 0 18 18" fill="none" xmlns="http://www.w3.org/2000/svg">
<path fill-rule="evenodd" clip-rule="evenodd" d="M18 6.08V5.92C18.0004 5.75501 17.9177 5.60091 17.78 5.51L10.11 0.26C9.86253 0.090805 9.56978 0.000191595 9.27 0H8.73C8.43022 0.000191595 8.13747 0.090805 7.89 0.26L0.220002 5.51C0.0823196 5.60091 -0.000367324 5.75501 1.22687e-06 5.92V6.08C-0.000367324 6.24499 0.0823196 6.39909 0.220002 6.49L7.89 11.74C8.13747 11.9092 8.43022 11.9998 8.73 12H9.27C9.56978 11.9998 9.86253 11.9092 10.11 11.74L17.78 6.49C17.9177 6.39909 18.0004 6.24499 18 6.08ZM13.9 11.27L15.67 10.06L17.78 11.51C17.9177 11.6009 18.0004 11.755 18 11.92V12.08C18.0004 12.245 17.9177 12.3991 17.78 12.49L10.11 17.74C9.86253 17.9092 9.56978 17.9998 9.27 18H8.73C8.43022 17.9998 8.13747 17.9092 7.89 17.74L0.220002 12.49C0.0823196 12.3991 -0.000367324 12.245 1.22687e-06 12.08V11.92C-0.000367324 11.755 0.0823196 11.6009 0.220002 11.51L2.33 10.06L4.06 11.27L3 12L8.93 16H9.15L15 12L13.9 11.27Z" fill="#061425"/>
</svg>
