<svg width="21" height="20" viewBox="0 0 21 20" fill="none" xmlns="http://www.w3.org/2000/svg">
<path d="M11.2493 11.6667C11.2493 11.2525 10.9136 10.9167 10.4993 10.9167C10.0851 10.9167 9.74935 11.2525 9.74935 11.6667H11.2493ZM9.74935 14.1667C9.74935 14.5809 10.0851 14.9167 10.4993 14.9167C10.9136 14.9167 11.2493 14.5809 11.2493 14.1667H9.74935ZM9.66602 3.25H11.3327V1.75H9.66602V3.25ZM13.0827 5V7.5H14.5827V5H13.0827ZM13.8327 6.75H7.16602V8.25H13.8327V6.75ZM7.91602 7.5V5H6.41602V7.5H7.91602ZM15.5827 10V15H17.0827V10H15.5827ZM13.8327 16.75H7.16602V18.25H13.8327V16.75ZM5.41602 15V10H3.91602V15H5.41602ZM7.16602 16.75C6.19952 16.75 5.41602 15.9665 5.41602 15H3.91602C3.91602 16.7949 5.37109 18.25 7.16602 18.25V16.75ZM15.5827 15C15.5827 15.9665 14.7992 16.75 13.8327 16.75V18.25C15.6276 18.25 17.0827 16.7949 17.0827 15H15.5827ZM13.8327 8.25C14.7992 8.25 15.5827 9.0335 15.5827 10H17.0827C17.0827 8.20507 15.6276 6.75 13.8327 6.75V8.25ZM7.16602 6.75C5.37109 6.75 3.91602 8.20507 3.91602 10H5.41602C5.41602 9.0335 6.19952 8.25 7.16602 8.25V6.75ZM10.5827 11.6667C10.5827 11.7127 10.5454 11.75 10.4993 11.75V13.25C11.3738 13.25 12.0827 12.5411 12.0827 11.6667H10.5827ZM10.4993 11.75C10.4533 11.75 10.416 11.7127 10.416 11.6667H8.91602C8.91602 12.5411 9.6249 13.25 10.4993 13.25V11.75ZM10.416 11.6667C10.416 11.6206 10.4533 11.5833 10.4993 11.5833V10.0833C9.6249 10.0833 8.91602 10.7922 8.91602 11.6667H10.416ZM10.4993 11.5833C10.5454 11.5833 10.5827 11.6206 10.5827 11.6667H12.0827C12.0827 10.7922 11.3738 10.0833 10.4993 10.0833V11.5833ZM9.74935 11.6667V14.1667H11.2493V11.6667H9.74935ZM11.3327 3.25C12.2992 3.25 13.0827 4.0335 13.0827 5H14.5827C14.5827 3.20507 13.1276 1.75 11.3327 1.75V3.25ZM9.66602 1.75C7.87109 1.75 6.41602 3.20507 6.41602 5H7.91602C7.91602 4.0335 8.69952 3.25 9.66602 3.25V1.75Z" fill="white"/>
</svg>
