<svg width="20" height="20" viewBox="0 0 20 20" fill="none" xmlns="http://www.w3.org/2000/svg">
<path d="M10.7501 11.6667C10.7501 11.2525 10.4143 10.9167 10.0001 10.9167C9.58587 10.9167 9.25008 11.2525 9.25008 11.6667H10.7501ZM9.25008 14.1667C9.25008 14.5809 9.58587 14.9167 10.0001 14.9167C10.4143 14.9167 10.7501 14.5809 10.7501 14.1667H9.25008ZM9.16675 3.25H10.8334V1.75H9.16675V3.25ZM12.5834 5V7.5H14.0834V5H12.5834ZM13.3334 6.75H6.66675V8.25H13.3334V6.75ZM7.41675 7.5V5H5.91675V7.5H7.41675ZM15.0834 10V15H16.5834V10H15.0834ZM13.3334 16.75H6.66675V18.25H13.3334V16.75ZM4.91675 15V10H3.41675V15H4.91675ZM6.66675 16.75C5.70025 16.75 4.91675 15.9665 4.91675 15H3.41675C3.41675 16.7949 4.87182 18.25 6.66675 18.25V16.75ZM15.0834 15C15.0834 15.9665 14.2999 16.75 13.3334 16.75V18.25C15.1283 18.25 16.5834 16.7949 16.5834 15H15.0834ZM13.3334 8.25C14.2999 8.25 15.0834 9.0335 15.0834 10H16.5834C16.5834 8.20507 15.1283 6.75 13.3334 6.75V8.25ZM6.66675 6.75C4.87182 6.75 3.41675 8.20507 3.41675 10H4.91675C4.91675 9.0335 5.70025 8.25 6.66675 8.25V6.75ZM10.0834 11.6667C10.0834 11.7127 10.0461 11.75 10.0001 11.75V13.25C10.8745 13.25 11.5834 12.5411 11.5834 11.6667H10.0834ZM10.0001 11.75C9.95406 11.75 9.91675 11.7127 9.91675 11.6667H8.41675C8.41675 12.5411 9.12563 13.25 10.0001 13.25V11.75ZM9.91675 11.6667C9.91675 11.6206 9.95406 11.5833 10.0001 11.5833V10.0833C9.12563 10.0833 8.41675 10.7922 8.41675 11.6667H9.91675ZM10.0001 11.5833C10.0461 11.5833 10.0834 11.6206 10.0834 11.6667H11.5834C11.5834 10.7922 10.8745 10.0833 10.0001 10.0833V11.5833ZM9.25008 11.6667V14.1667H10.7501V11.6667H9.25008ZM10.8334 3.25C11.7999 3.25 12.5834 4.0335 12.5834 5H14.0834C14.0834 3.20507 12.6283 1.75 10.8334 1.75V3.25ZM9.16675 1.75C7.37182 1.75 5.91675 3.20507 5.91675 5H7.41675C7.41675 4.0335 8.20025 3.25 9.16675 3.25V1.75Z" fill="#5C697B"/>
</svg>
