<svg width="174" height="24" viewBox="0 0 174 24" fill="none" xmlns="http://www.w3.org/2000/svg">
<g clip-path="url(#clip0_932_6079)">
<path fill-rule="evenodd" clip-rule="evenodd" d="M4.89509 19.7177H9.21173C9.63111 19.7177 9.97817 19.9706 10.0866 20.3533L10.412 21.4947C10.4843 21.7613 10.4337 22.021 10.2529 22.2397C10.0794 22.4584 9.82633 22.5746 9.53711 22.5746H4.89509C3.5502 22.5746 2.32101 22.0551 1.43888 21.2145C0.556753 20.3738 0 19.2188 0 17.9476V4.627C0 3.34894 0.549523 2.1939 1.43888 1.36008C2.32101 0.519427 3.54297 0 4.89509 0H18.9874C20.3323 0 21.5615 0.519427 22.4437 1.36008C23.333 2.1939 23.8825 3.35577 23.8825 4.627V9.01479C23.8825 9.28817 23.7596 9.52738 23.5282 9.69825C23.2969 9.86911 23.0221 9.91695 22.7401 9.84861L21.5326 9.54105C21.1277 9.43853 20.8602 9.10364 20.8602 8.71407V4.627C20.8602 4.14175 20.6505 3.6975 20.3106 3.37628C19.9708 3.05505 19.5008 2.85685 18.9874 2.85685H4.89509C4.38172 2.85685 3.91173 3.05505 3.5719 3.37628C3.23206 3.6975 3.02237 4.14175 3.02237 4.627V17.9476C3.02237 18.4328 3.23206 18.8771 3.5719 19.1983C3.91173 19.5195 4.38172 19.7177 4.89509 19.7177Z" fill="url(#paint0_linear_932_6079)"/>
<path fill-rule="evenodd" clip-rule="evenodd" d="M23.8974 13.355V15.0568C23.8974 15.5967 23.5214 16.0615 22.9647 16.1981L19.0674 17.1482L17.2091 15.3917C17.5273 14.7355 17.4044 13.9291 16.8259 13.3823C16.0884 12.6852 14.8954 12.6852 14.1578 13.3823C13.4203 14.0794 13.4203 15.2071 14.1578 15.9043C14.7363 16.451 15.5895 16.5672 16.2836 16.2665L18.1419 18.023L17.1368 21.7068C16.9922 22.2331 16.5078 22.5885 15.9293 22.5885H14.1289C13.5577 22.5885 13.0733 22.2399 12.9287 21.7136L9.81228 10.7168C9.69659 10.2999 9.81228 9.88301 10.1377 9.58229C10.463 9.27473 10.8969 9.16538 11.3379 9.27473L22.9791 12.2204C23.5287 12.3571 23.9046 12.815 23.8974 13.355Z" fill="url(#paint1_linear_932_6079)"/>
<path d="M36.5288 5.39492C39.8108 5.39492 42.0248 7.01033 42.7433 9.80057H39.1505C38.7718 8.74505 37.8882 8.06585 36.5093 8.06585C34.6547 8.06585 33.4118 9.39672 33.4118 11.8198C33.4118 14.2429 34.645 15.5555 36.5093 15.5555C37.8882 15.5555 38.7427 14.968 39.1505 13.8483H42.7433C42.0248 16.5008 39.8205 18.2539 36.5288 18.2539C32.7223 18.2539 30.0132 15.739 30.0132 11.8198C30.0132 7.90064 32.7223 5.38574 36.5288 5.38574V5.39492Z" fill="#061425"/>
<path d="M48.5308 18.0616H45.2002V5.59724H48.5308V7.53389C49.3659 6.24891 50.7447 5.42285 52.58 5.42285V8.72709H51.6964C49.7252 8.72709 48.5308 9.44301 48.5308 11.8569V18.0616Z" fill="#061425"/>
<path d="M60.6684 18.2632C56.862 18.2632 53.978 15.7483 53.978 11.8291C53.978 7.90991 56.9494 5.39502 60.7558 5.39502C64.5622 5.39502 67.5335 7.89156 67.5335 11.8291C67.5335 15.7667 64.4845 18.2632 60.6587 18.2632H60.6684ZM60.6684 15.5188C62.4259 15.5188 64.1155 14.3073 64.1155 11.8291C64.1155 9.35093 62.4745 8.13937 60.7169 8.13937C58.9594 8.13937 57.3572 9.33257 57.3572 11.8291C57.3572 14.3256 58.8817 15.5188 60.6684 15.5188Z" fill="#061425"/>
<path d="M77.6808 5.39502C81.06 5.39502 83.7012 7.89156 83.7012 11.7832C83.7012 15.6749 81.06 18.2632 77.6808 18.2632C75.6125 18.2632 74.1366 17.2995 73.3306 16.2807V23.9997H70V5.59694H73.3306V7.39592C74.1171 6.3404 75.6416 5.39502 77.6808 5.39502ZM76.7972 8.15773C75.0105 8.15773 73.3209 9.46107 73.3209 11.8199C73.3209 14.1788 75.0105 15.4821 76.7972 15.4821C78.5839 15.4821 80.2929 14.1329 80.2929 11.774C80.2929 9.41518 78.6033 8.14855 76.7972 8.14855V8.15773Z" fill="#061425"/>
<path d="M87.6142 18.2176C86.4004 18.2176 85.5459 17.4099 85.5459 16.3727C85.5459 15.3355 86.4004 14.5278 87.6142 14.5278C88.828 14.5278 89.6339 15.3355 89.6339 16.3727C89.6339 17.4099 88.7794 18.2176 87.6142 18.2176Z" fill="#061425"/>
<path d="M100.014 5.39502C103.393 5.39502 106.035 7.89156 106.035 11.7832C106.035 15.6749 103.393 18.2632 100.014 18.2632C97.946 18.2632 96.4701 17.2995 95.6641 16.2807V23.9997H92.3335V5.59694H95.6641V7.39592C96.4506 6.3404 97.9751 5.39502 100.014 5.39502ZM99.1307 8.15773C97.344 8.15773 95.6544 9.46107 95.6544 11.8199C95.6544 14.1788 97.344 15.4821 99.1307 15.4821C100.917 15.4821 102.626 14.1329 102.626 11.774C102.626 9.41518 100.937 8.14855 99.1307 8.14855V8.15773Z" fill="#061425"/>
<path d="M108.462 1.41162H111.793V7.14815C112.648 6.09263 114.123 5.41342 115.881 5.41342C118.852 5.41342 121.018 7.30418 121.018 10.7461V18.0521H117.687V11.1683C117.687 9.16741 116.522 8.08435 114.764 8.08435C113.007 8.08435 111.793 9.16741 111.793 11.1683V18.0521H108.462V1.41162Z" fill="#061425"/>
<path d="M130.048 18.2632C126.241 18.2632 123.357 15.7483 123.357 11.8291C123.357 7.90991 126.329 5.39502 130.135 5.39502C133.942 5.39502 136.913 7.89156 136.913 11.8291C136.913 15.7667 133.864 18.2632 130.038 18.2632H130.048ZM130.048 15.5188C131.805 15.5188 133.495 14.3073 133.495 11.8291C133.495 9.35093 131.854 8.13937 130.096 8.13937C128.339 8.13937 126.737 9.33257 126.737 11.8291C126.737 14.3256 128.261 15.5188 130.048 15.5188Z" fill="#061425"/>
<path d="M139.904 8.18546H138.331V5.59714H139.904V2.51318H143.264V5.59714H146.216V8.18546H143.264V14.2157C143.264 15.0509 143.623 15.4089 144.672 15.4089H146.216V18.0615H144.118C141.594 18.0615 139.904 17.0518 139.904 14.1973V8.19464V8.18546Z" fill="#061425"/>
<path d="M154.47 18.2632C150.663 18.2632 147.779 15.7483 147.779 11.8291C147.779 7.90991 150.751 5.39502 154.557 5.39502C158.363 5.39502 161.335 7.89156 161.335 11.8291C161.335 15.7667 158.286 18.2632 154.46 18.2632H154.47ZM154.47 15.5188C156.227 15.5188 157.917 14.3073 157.917 11.8291C157.917 9.35093 156.276 8.13937 154.518 8.13937C152.761 8.13937 151.158 9.33257 151.158 11.8291C151.158 14.3256 152.683 15.5188 154.47 15.5188Z" fill="#061425"/>
<path d="M166.782 3.72461C167.967 3.72461 168.782 4.29367 169.161 4.92699V3.82557H170.229V9.85581H169.161V8.73604C168.773 9.38771 167.947 9.95677 166.772 9.95677C165.073 9.95677 163.752 8.69015 163.752 6.81775C163.752 4.94534 165.073 3.72461 166.782 3.72461ZM166.996 4.59656C165.83 4.59656 164.84 5.40426 164.84 6.81775C164.84 8.23123 165.83 9.07564 166.996 9.07564C168.161 9.07564 169.161 8.24958 169.161 6.82692C169.161 5.40427 168.161 4.59656 166.996 4.59656Z" fill="#061425"/>
<path d="M171.851 2.16456C171.851 1.77906 172.161 1.48535 172.569 1.48535C172.958 1.48535 173.268 1.77906 173.268 2.16456C173.268 2.55005 172.958 2.84376 172.569 2.84376C172.161 2.84376 171.851 2.55005 171.851 2.16456ZM172.025 3.82585H173.084V9.85609H172.025V3.82585Z" fill="#061425"/>
</g>
<defs>
<linearGradient id="paint0_linear_932_6079" x1="15.2637" y1="1.40792" x2="4.65841" y2="18.7456" gradientUnits="userSpaceOnUse">
<stop stop-color="#42CCFB"/>
<stop offset="1" stop-color="#4361EE"/>
</linearGradient>
<linearGradient id="paint1_linear_932_6079" x1="11.8658" y1="18.7406" x2="17.77" y2="10.7493" gradientUnits="userSpaceOnUse">
<stop stop-color="#F72585"/>
<stop offset="1" stop-color="#FC7932"/>
</linearGradient>
<clipPath id="clip0_932_6079">
<rect width="174" height="24" fill="white"/>
</clipPath>
</defs>
</svg>
