<svg width="66" height="47" viewBox="0 0 66 47" fill="none" xmlns="http://www.w3.org/2000/svg">
<g filter="url(#filter0_d_154_4804)">
<path d="M1 7C1 3.68629 3.68629 1 7 1H58.8496C62.1633 1 64.8496 3.68629 64.8496 7V39C64.8496 42.3137 62.1633 45 58.8496 45H7C3.68629 45 1 42.3137 1 39V7Z" fill="white"/>
<path d="M38.7706 32.8742H27.3755V12.5635H38.7706V32.8742Z" fill="#FF5F00"/>
<path d="M28.1055 22.7171C28.1055 18.597 30.0506 14.9269 33.0795 12.5618C30.8646 10.8323 28.0691 9.79996 25.031 9.79996C17.8387 9.79996 12.0085 15.5831 12.0085 22.7171C12.0085 29.8512 17.8387 35.6343 25.031 35.6343C28.0691 35.6343 30.8646 34.602 33.0795 32.8725C30.0506 30.5073 28.1055 26.8372 28.1055 22.7171Z" fill="#EB001B"/>
<path d="M54.139 22.7171C54.139 29.8512 48.3088 35.6343 41.1165 35.6343C38.0784 35.6343 35.283 34.602 33.0671 32.8725C36.0969 30.5073 38.042 26.8372 38.042 22.7171C38.042 18.597 36.0969 14.9269 33.0671 12.5618C35.283 10.8323 38.0784 9.79996 41.1165 9.79996C48.3088 9.79996 54.139 15.5831 54.139 22.7171Z" fill="#F79E1B"/>
<path d="M7 2H58.8496V0H7V2ZM63.8496 7V39H65.8496V7H63.8496ZM58.8496 44H7V46H58.8496V44ZM2 39V7H0V39H2ZM7 44C4.23858 44 2 41.7614 2 39H0C0 42.866 3.13401 46 7 46V44ZM63.8496 39C63.8496 41.7614 61.611 44 58.8496 44V46C62.7156 46 65.8496 42.866 65.8496 39H63.8496ZM58.8496 2C61.611 2 63.8496 4.23858 63.8496 7H65.8496C65.8496 3.13401 62.7156 0 58.8496 0V2ZM7 0C3.13401 0 0 3.13401 0 7H2C2 4.23858 4.23858 2 7 2V0Z" fill="#EFF1F3"/>
</g>
<defs>
<filter id="filter0_d_154_4804" x="0" y="0.5" width="65.8496" height="46" filterUnits="userSpaceOnUse" color-interpolation-filters="sRGB">
<feFlood flood-opacity="0" result="BackgroundImageFix"/>
<feColorMatrix in="SourceAlpha" type="matrix" values="0 0 0 0 0 0 0 0 0 0 0 0 0 0 0 0 0 0 127 0" result="hardAlpha"/>
<feOffset dy="0.5"/>
<feGaussianBlur stdDeviation="0.5"/>
<feComposite in2="hardAlpha" operator="out"/>
<feColorMatrix type="matrix" values="0 0 0 0 0.0235294 0 0 0 0 0.0784314 0 0 0 0 0.145098 0 0 0 0.05 0"/>
<feBlend mode="normal" in2="BackgroundImageFix" result="effect1_dropShadow_154_4804"/>
<feBlend mode="normal" in="SourceGraphic" in2="effect1_dropShadow_154_4804" result="shape"/>
</filter>
</defs>
</svg>
