<svg width="7" height="10" viewBox="0 0 7 10" fill="none" xmlns="http://www.w3.org/2000/svg">
<path d="M6.14997 4.40002C6.26722 4.51712 6.33316 4.67598 6.33331 4.84169V5.15835C6.33139 5.3237 6.26571 5.48192 6.14997 5.60002L1.86664 9.87502C1.78841 9.9539 1.68191 9.99827 1.57081 9.99827C1.45971 9.99827 1.35321 9.9539 1.27497 9.87502L0.683308 9.28335C0.604921 9.20655 0.560748 9.10143 0.560748 8.99169C0.560748 8.88194 0.604921 8.77682 0.683308 8.70002L4.39164 5.00002L0.683308 1.30002C0.604428 1.22178 0.560059 1.11529 0.560059 1.00419C0.560059 0.893087 0.604428 0.786589 0.683308 0.708353L1.27497 0.125019C1.35321 0.0461391 1.45971 0.00177002 1.57081 0.00177002C1.68191 0.00177002 1.78841 0.0461391 1.86664 0.125019L6.14997 4.40002Z" fill="#061425"/>
</svg>
