<svg width="171" height="22" viewBox="0 0 171 22" fill="none" xmlns="http://www.w3.org/2000/svg">
<path d="M161.36 12.8255L170.423 0.124823V21.4695H167.341V9.98582L161.329 18.2553L155.378 9.98582V21.4695H152.296V0.093617L161.36 12.8255ZM90.9375 15.9149C90.8771 14.8227 90.3937 12.6383 87.6445 10.3603L85.2276 8.17589C84.2004 7.33333 83.717 6.42837 83.6868 5.36738C83.6868 4.15035 84.4723 3.3078 85.6506 3.24539C85.6808 3.24539 87.1611 3.05816 88.0674 4.36879L88.0977 4.43121L90.5447 2.71489L90.5145 2.65248C90.0916 1.96596 88.1883 0.093617 85.6203 0.21844C84.1702 0.280851 82.8711 0.873759 81.9648 1.80993C81.0283 2.80851 80.5751 4.11915 80.6657 5.64823C80.7564 7.42695 81.7533 9.08085 83.8379 10.8284L86.1037 12.8879C87.3726 13.9489 87.9164 14.8539 87.9768 15.9149C88.0372 16.695 87.7653 17.444 87.282 18.0057C86.859 18.505 86.3756 18.7234 85.711 18.7858H85.5599C83.6566 18.7858 82.8711 17.3816 82.418 16.539L82.2971 16.3206L79.6688 17.6312C79.9104 18.3177 81.3304 21.7816 85.4995 21.7816H85.5599C87.0705 21.6879 88.4602 21.0638 89.4572 20.0028C90.4843 18.9418 91.0281 17.4752 90.9375 15.9149ZM30.4549 0C24.594 0 19.8206 4.9305 19.8206 10.9844C19.8206 17.0383 24.594 21.9688 30.4549 21.9688C36.3159 21.9688 41.0892 17.0383 41.0892 10.9844C41.1194 4.9305 36.3461 0 30.4549 0ZM30.4549 18.817C26.2858 18.817 22.9022 15.322 22.9022 11.0156C22.9022 6.70922 26.2858 3.21418 30.4549 3.21418C34.6241 3.21418 38.0077 6.70922 38.0077 11.0156C38.0379 15.2908 34.6241 18.817 30.4549 18.817ZM137.674 0C131.813 0 127.04 4.9305 127.04 10.9844C127.04 17.0383 131.813 21.9688 137.674 21.9688C143.535 21.9688 148.308 17.0383 148.308 10.9844C148.308 4.9305 143.535 0 137.674 0ZM137.674 18.817C133.505 18.817 130.121 15.322 130.121 11.0156C130.121 6.70922 133.505 3.21418 137.674 3.21418C141.843 3.21418 145.227 6.70922 145.227 11.0156C145.227 15.2908 141.843 18.817 137.674 18.817ZM15.7723 22V0.530496H12.6908V13.8553L0.576172 0.093617V21.4383H3.6577V8.33192L3.77855 8.45674L15.7723 22ZM106.496 0.530496H93.5658V3.46383H98.4298V21.4383H101.632V3.46383H106.496V0.530496ZM120.001 13.5745L120.061 13.5433C120.393 13.3872 120.726 13.1688 120.998 12.9504C122.659 11.6709 123.656 9.58014 123.656 7.30213C123.656 3.55745 120.967 0.499291 117.674 0.499291H110.544V21.4071H113.626V14.0738H113.686C113.686 14.0738 115.348 14.0738 116.587 14.0738H116.617L116.647 14.105L121.33 21.4071H125.046L120.001 13.5745ZM117.342 10.922H113.656V3.65106H117.342C119.124 3.65106 120.544 5.27376 120.544 7.27092C120.544 9.29929 119.124 10.922 117.342 10.922ZM68.4604 0.530496H63.4454V21.4383H68.4604C73.3546 21.4383 77.2217 16.7574 77.2217 10.9844C77.2217 5.24255 73.3244 0.530496 68.4604 0.530496ZM68.3698 18.4426H66.4967V3.55745H68.3698C71.693 3.55745 74.2006 6.89645 74.2006 11.0156C74.2006 15.1035 71.693 18.4426 68.3698 18.4426ZM54.5634 13.5745L54.6238 13.5433C54.9561 13.3872 55.2884 13.1688 55.5603 12.9504C57.2219 11.6709 58.2189 9.58014 58.2189 7.30213C58.2189 3.55745 55.5301 0.499291 52.2371 0.499291H45.1073V21.4071H48.1888V14.0738H48.2492C48.2492 14.0738 49.9109 14.0738 51.1495 14.0738H51.1797L51.2099 14.105L55.8926 21.4071H59.5784L54.5634 13.5745ZM51.9048 10.922H48.219V3.65106H51.9048C53.6872 3.65106 55.1072 5.27376 55.1072 7.27092C55.1072 9.29929 53.6872 10.922 51.9048 10.922Z" fill="#64748B"/>
</svg>
