<svg width="41" height="40" viewBox="0 0 41 40" fill="none" xmlns="http://www.w3.org/2000/svg">
<rect x="0.5" width="40" height="40" rx="20" fill="#0038FF" fill-opacity="0.05"/>
<path d="M12.5 12L28.5 28" stroke="#0038FF" stroke-width="1.5" stroke-linecap="round"/>
<path fill-rule="evenodd" clip-rule="evenodd" d="M15.1984 13.8124L12.1648 15.3292C11.9107 15.4562 11.7502 15.7159 11.7502 16C11.7502 16.2841 11.9107 16.5438 12.1648 16.6708L20.1648 20.6708C20.376 20.7764 20.6245 20.7764 20.8356 20.6708L21.6498 20.2637L20.5317 19.1457L20.5002 19.1615L14.1773 16L16.3164 14.9304L15.1984 13.8124ZM22.4174 18.2029L26.8232 16L20.5002 12.8385L18.2021 13.9876L17.084 12.8696L20.1648 11.3292C20.376 11.2236 20.6245 11.2236 20.8356 11.3292L28.8356 15.3292C29.0897 15.4562 29.2502 15.7159 29.2502 16C29.2502 16.2841 29.0897 16.5438 28.8356 16.6708L23.5354 19.3209L22.4174 18.2029ZM23.0121 21.626L20.5002 22.882L12.9474 19.1056C12.4535 18.8586 11.8528 19.0588 11.6058 19.5528C11.3588 20.0468 11.559 20.6474 12.053 20.8944L20.053 24.8944C20.3345 25.0352 20.6659 25.0352 20.9474 24.8944L24.5028 23.1168L23.0121 21.626ZM26.3884 22.1739L24.8977 20.6832L28.053 19.1056C28.547 18.8586 29.1477 19.0588 29.3946 19.5528C29.6416 20.0468 29.4414 20.6474 28.9474 20.8944L26.3884 22.1739ZM25.6787 24.2927L20.5002 26.882L12.9474 23.1056C12.4535 22.8586 11.8528 23.0588 11.6058 23.5528C11.3588 24.0468 11.559 24.6474 12.053 24.8944L20.053 28.8944C20.3345 29.0352 20.6659 29.0352 20.9474 28.8944L27.1694 25.7834L25.6787 24.2927ZM29.0499 24.8355L27.5644 23.3499L28.053 23.1056C28.547 22.8586 29.1477 23.0588 29.3946 23.5528C29.6238 24.011 29.468 24.5611 29.0499 24.8355Z" fill="#0038FF"/>
</svg>
