<svg width="24" height="24" viewBox="0 0 16 20" fill="none" xmlns="http://www.w3.org/2000/svg">
      <path fill-rule="evenodd" clip-rule="evenodd" d="M14.88 12.88L15.71 13.71C15.8947 13.8963 15.9989 14.1477 16 14.41V15C16 15.5523 15.5523 16 15 16H1C0.447715 16 0 15.5523 0 15V14.41C0.00110462 14.1477 0.105256 13.8963 0.29 13.71L1.12 12.88C1.68277 12.3179 1.9993 11.5554 2 10.76V8C2 6.70178 2.42107 5.43858 3.2 4.4L4.1 3.2C4.66656 2.44458 5.55573 2 6.5 2H7V0.5C7 0.223858 7.22386 0 7.5 0H8.5C8.77614 0 9 0.223858 9 0.5V2H9.5C10.4443 2 11.3334 2.44458 11.9 3.2L12.8 4.4C13.5789 5.43858 14 6.70178 14 8V10.76C14.0007 11.5554 14.3172 12.3179 14.88 12.88ZM8 20C9.10457 20 10 19.1046 10 18H6C6 19.1046 6.89543 20 8 20Z" fill="#061425"/>
    </svg>