<svg width="20" height="16" viewBox="0 0 20 16" fill="none" xmlns="http://www.w3.org/2000/svg">
        <path fill-rule="evenodd" clip-rule="evenodd" d="M15.8335 10.5V2.16667C15.8335 1.24619 15.0873 0.5 14.1668 0.5H2.50016C1.57969 0.5 0.833496 1.24619 0.833496 2.16667V10.5C0.833496 11.4205 1.57969 12.1667 2.50016 12.1667H14.1668C15.0873 12.1667 15.8335 11.4205 15.8335 10.5ZM2.50016 3.83333H14.1668V10.5H2.50016V3.83333ZM17.5002 12.1667V3.83333C18.4206 3.83333 19.1668 4.57952 19.1668 5.5V12.1667C19.1668 14.0076 17.6744 15.5 15.8335 15.5H5.8335C4.91302 15.5 4.16683 14.7538 4.16683 13.8333H15.8335C16.754 13.8333 17.5002 13.0871 17.5002 12.1667Z" fill="#061425"/>
      </svg>