<svg width="92" height="16" viewBox="0 0 92 16" fill="none" xmlns="http://www.w3.org/2000/svg">
<path d="M0 12.5843H2.72654V8.39551H5.14406C8.52497 8.39551 9.9973 6.65169 9.9973 4.20674C9.9973 1.74382 8.52497 0 5.14406 0H0V12.5843ZM2.72654 6.05843V2.33708H5.05318C6.54369 2.33708 7.19806 3.07416 7.19806 4.20674C7.19806 5.32135 6.54369 6.05843 5.05318 6.05843H2.72654Z" fill="#061425"/>
<path d="M17.2118 3.05618C15.2669 3.05618 14.3581 4.31461 14.1945 5.19551H14.0854V0H11.4316V12.5843H14.0854V7.2809C14.0854 5.86068 14.9579 5.23146 16.0667 5.23146C17.1755 5.23146 17.8117 5.86068 17.8117 7.2809V12.5843H20.4655V6.65169C20.4655 4.22472 19.0477 3.05618 17.2118 3.05618Z" fill="#061425"/>
<path d="M26.6381 12.764C29.0193 12.764 31.3823 11.3079 31.3823 7.91011C31.3823 4.51236 29.0193 3.05618 26.6381 3.05618C24.2569 3.05618 21.8939 4.51236 21.8939 7.91011C21.8939 11.3079 24.2569 12.764 26.6381 12.764ZM26.6381 10.5888C25.3657 10.5888 24.3842 9.7618 24.3842 7.91011C24.3842 6.05843 25.3657 5.23146 26.6381 5.23146C27.9105 5.23146 28.8921 6.05843 28.8921 7.91011C28.8921 9.7618 27.9105 10.5888 26.6381 10.5888Z" fill="#061425"/>
<path d="M37.2279 10.6067C36.3917 10.6067 36.1191 10.1213 36.1191 9.40225V5.24944H37.9913V3.23595H36.1191V0.826966H33.4653V3.23595H31.8657V5.24944H33.4653V9.77978C33.4653 11.8652 34.7013 12.7101 36.5735 12.7101C37.0825 12.7101 37.5551 12.7101 38.064 12.6562V10.6067H37.2279Z" fill="#061425"/>
<path d="M43.608 12.764C45.9891 12.764 48.3521 11.3079 48.3521 7.91011C48.3521 4.51236 45.9891 3.05618 43.608 3.05618C41.2268 3.05618 38.8638 4.51236 38.8638 7.91011C38.8638 11.3079 41.2268 12.764 43.608 12.764ZM43.608 10.5888C42.3356 10.5888 41.354 9.7618 41.354 7.91011C41.354 6.05843 42.3356 5.23146 43.608 5.23146C44.8803 5.23146 45.8619 6.05843 45.8619 7.91011C45.8619 9.7618 44.8803 10.5888 43.608 10.5888Z" fill="#061425"/>
<path d="M50.8519 12.764C51.7426 12.764 52.4696 12.0809 52.4696 11.2C52.4696 10.3371 51.7426 9.63595 50.8519 9.63595C49.9794 9.63595 49.2523 10.3371 49.2523 11.2C49.2523 12.0809 49.9794 12.764 50.8519 12.764Z" fill="#061425"/>
<path d="M58.3767 12.764C60.0672 12.764 62.4302 12.0809 62.721 8.93483H60.3762C60.158 10.0494 59.431 10.5888 58.3585 10.5888C56.8498 10.5888 56.1228 9.47416 56.1228 7.92809C56.1228 6.34607 56.8498 5.23146 58.3585 5.23146C59.3946 5.23146 60.158 5.71685 60.3762 6.84944H62.721C62.3756 3.70337 60.049 3.05618 58.3767 3.05618C56.0501 3.05618 53.6325 4.38652 53.6325 7.92809C53.6325 11.4337 56.0501 12.764 58.3767 12.764Z" fill="#061425"/>
<path d="M69.658 3.16404C68.1493 3.16404 67.2587 4.13483 66.9315 5.50112H66.8588V3.23595H64.205V12.5843H66.8588V8.44944C66.8588 6.18427 68.2221 5.41124 69.6399 5.41124C69.8762 5.41124 70.0943 5.42921 70.3851 5.46517V3.25393C70.1124 3.18202 69.8762 3.16404 69.658 3.16404Z" fill="#061425"/>
<path d="M75.6661 12.764C78.0472 12.764 80.4102 11.3079 80.4102 7.91011C80.4102 4.51236 78.0472 3.05618 75.6661 3.05618C73.2849 3.05618 70.9219 4.51236 70.9219 7.91011C70.9219 11.3079 73.2849 12.764 75.6661 12.764ZM75.6661 10.5888C74.3937 10.5888 73.4121 9.7618 73.4121 7.91011C73.4121 6.05843 74.3937 5.23146 75.6661 5.23146C76.9385 5.23146 77.92 6.05843 77.92 7.91011C77.92 9.7618 76.9385 10.5888 75.6661 10.5888Z" fill="#061425"/>
<path d="M87.2842 3.05618C85.8846 3.05618 84.8485 3.77528 84.5032 4.58427V3.23595H81.8493V16H84.5032V11.236C84.8485 12.0449 85.8846 12.764 87.2842 12.764C89.2655 12.764 91.4286 11.3438 91.4286 7.91011C91.4286 4.47641 89.2655 3.05618 87.2842 3.05618ZM86.648 10.5888C85.4847 10.5888 84.3941 9.74382 84.3941 7.91011C84.3941 6.07641 85.4847 5.23146 86.648 5.23146C87.8295 5.23146 88.9202 6.07641 88.9202 7.91011C88.9202 9.74382 87.8295 10.5888 86.648 10.5888Z" fill="#061425"/>
</svg>
