<svg width="7" height="10" viewBox="0 0 7 10" fill="none" xmlns="http://www.w3.org/2000/svg">
<path d="M0.850081 5.60002C0.732838 5.48292 0.666894 5.32406 0.666748 5.15835V4.84169C0.668668 4.67634 0.734345 4.51812 0.850081 4.40002L5.13342 0.125019C5.21165 0.0461391 5.31815 0.00177002 5.42925 0.00177002C5.54035 0.00177002 5.64685 0.0461391 5.72508 0.125019L6.31675 0.716686C6.39514 0.793489 6.43931 0.898611 6.43931 1.00835C6.43931 1.11809 6.39514 1.22322 6.31675 1.30002L2.60841 5.00002L6.31675 8.70002C6.39563 8.77826 6.44 8.88475 6.44 8.99585C6.44 9.10695 6.39563 9.21345 6.31675 9.29169L5.72508 9.87502C5.64685 9.9539 5.54035 9.99827 5.42925 9.99827C5.31815 9.99827 5.21165 9.9539 5.13342 9.87502L0.850081 5.60002Z" fill="#061425"/>
</svg>
