<svg width="17" height="16" viewBox="0 0 17 16" fill="none" xmlns="http://www.w3.org/2000/svg">
<path d="M3.04829 8.25021C2.76567 7.94739 2.29107 7.93103 1.98826 8.21365C1.68545 8.49628 1.66908 8.97087 1.95171 9.27368L3.04829 8.25021ZM4.9 11.3334L4.35171 11.8451C4.49049 11.9938 4.68371 12.0798 4.88707 12.0833C5.09044 12.0868 5.28651 12.0075 5.43033 11.8637L4.9 11.3334ZM11.0483 5.84511C11.3309 5.5423 11.3146 5.06771 11.0117 4.78508C10.7089 4.50246 10.2343 4.51882 9.95171 4.82164L11.0483 5.84511ZM7.72049 7.21223L7.20875 7.76052L8.30533 8.78399L8.81707 8.2357L7.72049 7.21223ZM6.03033 11.2637L6.56066 10.7334L5.5 9.67271L4.96967 10.203L6.03033 11.2637ZM1.95171 9.27368L4.35171 11.8451L5.44829 10.8216L3.04829 8.25021L1.95171 9.27368ZM8.81707 8.2357L11.0483 5.84511L9.95171 4.82164L7.72049 7.21223L8.81707 8.2357ZM5.43033 11.8637L6.03033 11.2637L4.96967 10.203L4.36967 10.803L5.43033 11.8637Z" fill="#00B047"/>
<path d="M6.5 8.76195L8.9 11.3334L14.5 5.33337" stroke="#00B047" stroke-width="1.5" stroke-linecap="round" stroke-linejoin="round"/>
</svg>
