<svg width="113" height="116" viewBox="0 0 113 116" fill="none" xmlns="http://www.w3.org/2000/svg">
<rect width="168" height="20" transform="translate(14.1421 -17) rotate(45)" fill="#FDBE1B"/>
<path d="M26.7993 16.8704L27.86 17.9311L30.0661 15.7249L30.8722 16.531L30.1934 20.2645L31.3814 21.4525L32.0602 17.6341C32.6966 18.0159 34.0542 18.4402 35.2846 17.2098C36.4301 16.0643 36.3452 14.537 35.1997 13.3914L32.739 10.9307L26.7993 16.8704ZM30.9995 14.7915L32.8663 12.9248L34.1815 14.24C34.7755 14.8339 34.8179 15.5552 34.2239 16.1492C33.63 16.7431 32.9087 16.7007 32.3232 16.1152L30.9995 14.7915ZM33.0252 23.0963L37.0132 27.0843L37.9466 26.151L35.0192 23.2235L36.6314 21.6113L39.3043 24.2842L40.1952 23.3932L37.5224 20.7204L39.0921 19.1506L41.9347 21.9932L42.8681 21.0598L38.9649 17.1566L33.0252 23.0963ZM41.197 31.4378C42.5546 32.7954 44.082 32.8803 45.5245 32.1166L44.4214 31.0135C43.6153 31.3105 42.8516 31.2257 42.1304 30.5044C41.1121 29.4862 41.1546 28.0861 42.5546 26.686C43.9547 25.286 45.3548 25.2435 46.373 26.2618C47.0943 26.983 47.1791 27.7467 46.8821 28.5528L47.9852 29.6559C48.7489 28.2134 48.664 26.686 47.3064 25.3284C45.6518 23.6738 43.488 23.6313 41.494 25.6254C39.4999 27.6194 39.5424 29.7832 41.197 31.4378ZM47.8455 38.0863C49.5086 39.7494 51.7063 39.7409 53.6579 37.7893C55.6095 35.8377 55.618 33.64 53.9549 31.9769C52.2917 30.3137 50.0941 30.3222 48.1424 32.2738C46.1908 34.2255 46.1823 36.4231 47.8455 38.0863ZM48.7788 37.1529C47.7606 36.1347 47.803 34.7346 49.2031 33.3345C50.6032 31.9344 52.0032 31.892 53.0215 32.9102C54.0397 33.9285 53.9973 35.3285 52.5972 36.7286C51.1971 38.1287 49.7971 38.1711 48.7788 37.1529ZM52.4153 42.4865L53.476 43.5471L58.0156 39.0075L58.0581 39.0499L55.1306 45.2017L56.0216 46.0927L62.1734 43.1653L62.2158 43.2077L57.6762 47.7473L58.7369 48.808L64.6766 42.8683L63.1068 41.2985L57.1247 44.1411L57.0823 44.0987L59.9248 38.1165L58.355 36.5468L52.4153 42.4865ZM60.7128 50.7839L61.7735 51.8446L66.3131 47.3049L66.3555 47.3474L63.4281 53.4992L64.319 54.3902L70.4709 51.4627L70.5133 51.5052L65.9737 56.0448L67.0343 57.1054L72.974 51.1658L71.4043 49.596L65.4221 52.4385L65.3797 52.3961L68.2223 46.414L66.6525 44.8442L60.7128 50.7839ZM69.0103 59.0814L72.9983 63.0695L73.9317 62.1361L71.0043 59.2086L72.6165 57.5964L75.2894 60.2693L76.1803 59.3784L73.5075 56.7055L75.0772 55.1357L77.9198 57.9783L78.8532 57.0449L74.95 53.1417L69.0103 59.0814ZM74.7638 64.8349L75.8245 65.8956L80.2792 61.4408L80.3216 61.4832L78.4125 68.4836L79.8125 69.8836L85.7522 63.9439L84.6916 62.8833L80.2368 67.3381L80.1944 67.2956L82.1036 60.2953L80.7035 58.8952L74.7638 64.8349ZM81.7934 71.8645L83.9996 74.0707C85.6118 75.6829 87.7331 75.6829 89.6423 73.7737C91.5515 71.8645 91.5515 69.7432 89.9393 68.131L87.7331 65.9248L81.7934 71.8645ZM83.7875 71.9918L87.8604 67.9189L88.9635 69.022C89.8969 69.9553 89.9393 71.3554 88.5817 72.7131C87.224 74.0707 85.8239 74.0283 84.8906 73.0949L83.7875 71.9918ZM88.4005 78.4716L92.3885 82.4596L93.3219 81.5263L90.3945 78.5988L92.0067 76.9866L94.6796 79.6595L95.5705 78.7685L92.8977 76.0957L94.4674 74.5259L97.31 77.3685L98.2434 76.4351L94.3402 72.5319L88.4005 78.4716ZM94.154 84.2251L96.3602 86.4313C97.9724 88.0435 100.094 88.0435 102.003 86.1343C103.912 84.2251 103.912 82.1038 102.3 80.4916L100.094 78.2854L94.154 84.2251ZM96.148 84.3524L100.221 80.2794L101.324 81.3825C102.257 82.3159 102.3 83.716 100.942 85.0736C99.5846 86.4313 98.1845 86.3888 97.2511 85.4555L96.148 84.3524Z" fill="#061425"/>
</svg>

