<svg width="18" height="16" viewBox="0 0 18 16" fill="none" xmlns="http://www.w3.org/2000/svg">
<path fill-rule="evenodd" clip-rule="evenodd" d="M2.33341 0.5H15.6667C16.5872 0.5 17.3334 1.24619 17.3334 2.16667V12.1667C17.3334 13.0871 16.5872 13.8333 15.6667 13.8333H11.4251C11.2065 13.8343 10.997 13.921 10.8417 14.075L9.60008 15.3167C9.48298 15.4339 9.32412 15.4999 9.15841 15.5H8.84175C8.67604 15.4999 8.51718 15.4339 8.40008 15.3167L7.15841 14.075C7.0032 13.921 6.7937 13.8343 6.57508 13.8333H2.33341C1.41294 13.8333 0.666748 13.0871 0.666748 12.1667V2.16667C0.666748 1.24619 1.41294 0.5 2.33341 0.5ZM11.4251 12.1667H15.6667V2.16667H2.33341V12.1667H6.57508C7.2379 12.1672 7.87336 12.431 8.34175 12.9L9.00008 13.5583L9.65841 12.9C10.1268 12.431 10.7623 12.1672 11.4251 12.1667ZM4.41675 9.66667H10.2501C10.4802 9.66667 10.6667 9.48012 10.6667 9.25V8.41667C10.6667 8.18655 10.4802 8 10.2501 8H4.41675C4.18663 8 4.00008 8.18655 4.00008 8.41667V9.25C4.00008 9.48012 4.18663 9.66667 4.41675 9.66667ZM13.5834 6.33333H4.41675C4.18663 6.33333 4.00008 6.14679 4.00008 5.91667V5.08333C4.00008 4.85321 4.18663 4.66667 4.41675 4.66667H13.5834C13.8135 4.66667 14.0001 4.85321 14.0001 5.08333V5.91667C14.0001 6.14679 13.8135 6.33333 13.5834 6.33333Z" fill="white"/>
</svg>
