<svg width="22" height="22" viewBox="0 0 22 22" fill="none" xmlns="http://www.w3.org/2000/svg">
<path fill-rule="evenodd" clip-rule="evenodd" d="M16 0H2C0.89543 0 0 0.89543 0 2V16C0 17.1046 0.89543 18 2 18H16C17.1046 18 18 17.1046 18 16V2C18 0.89543 17.1046 0 16 0ZM12.06 9.62L8.17 12.22C7.94033 12.3752 7.64377 12.3911 7.39882 12.2613C7.15388 12.1315 7.00051 11.8772 7 11.6V6.4C7.00051 6.12279 7.15388 5.86846 7.39882 5.73867C7.64377 5.60887 7.94033 5.62476 8.17 5.78L12.06 8.38C12.2696 8.51658 12.396 8.74982 12.396 9C12.396 9.25018 12.2696 9.48342 12.06 9.62ZM20 18V4C21.1046 4 22 4.89543 22 6V18C22 20.2091 20.2091 22 18 22H6C4.89543 22 4 21.1046 4 20H18C19.1046 20 20 19.1046 20 18Z" fill="white"/>
</svg>
