<svg width="22" height="14" viewBox="0 0 22 14" fill="none" xmlns="http://www.w3.org/2000/svg">
<path fill-rule="evenodd" clip-rule="evenodd" d="M17.9311 4.09C17.4916 1.7222 15.4215 0.00312726 13.0061 0H4.98164C2.40251 0.0173873 0.257105 1.98213 0.0212597 4.54268C-0.214585 7.10322 1.53603 9.42463 4.06885 9.91C4.50845 12.2778 6.5785 13.9969 8.99388 14H17.0184C19.5975 13.9826 21.7429 12.0179 21.9787 9.45732C22.2146 6.89678 20.464 4.57537 17.9311 4.09ZM1.97246 5C1.97246 3.34315 3.31971 2 4.98164 2H13.0061C14.668 2 16.0153 3.34315 16.0153 5C16.0153 6.65685 14.668 8 13.0061 8H6.16525C6.58929 6.80427 7.72174 6.00356 8.99388 6H13.7083C14.051 5.78206 14.2588 5.40524 14.2599 5C14.2539 4.59851 14.0517 4.22521 13.7183 4H8.99388C6.66763 4.00385 4.64939 5.60193 4.119 7.86C2.85013 7.4815 1.97868 6.3204 1.97246 5ZM8.99388 12H17.0184C18.4944 11.9781 19.7365 10.892 19.9508 9.43594C20.1652 7.97988 19.2884 6.58381 17.881 6.14C17.3506 8.39807 15.3324 9.99615 13.0061 10H6.16525C6.58929 11.1957 7.72174 11.9964 8.99388 12Z" fill="white"/>
</svg>
