<svg width="20" height="20" viewBox="0 0 20 20" fill="none" xmlns="http://www.w3.org/2000/svg">
<path fill-rule="evenodd" clip-rule="evenodd" d="M0 4.5C0 4.77614 0.223858 5 0.5 5H15V13H17V5C17 3.89543 16.1046 3 15 3H5V0.5C5 0.223858 4.77614 0 4.5 0H3.5C3.22386 0 3 0.223858 3 0.5V3H0.5C0.223858 3 0 3.22386 0 3.5V4.5ZM5 15H19.5C19.7761 15 20 15.2239 20 15.5V16.5C20 16.7761 19.7761 17 19.5 17H17V19.5C17 19.7761 16.7761 20 16.5 20H15.5C15.2239 20 15 19.7761 15 19.5V17H5C3.89543 17 3 16.1046 3 15V7H5V15Z" fill="white"/>
</svg>
