<svg width="18" height="17" viewBox="0 0 18 17" fill="none" xmlns="http://www.w3.org/2000/svg">
<path d="M0.833876 7.21187C0.693082 7.10936 0.632888 6.92877 0.684021 6.76228L0.750623 6.55413C0.799316 6.38963 0.945711 6.27317 1.11694 6.26273L6.43679 5.83811L8.47648 0.934174C8.5449 0.762379 8.71663 0.654621 8.90107 0.667746H9.11753C9.29141 0.664056 9.44851 0.771027 9.50881 0.934174L11.5568 5.83811L16.8767 6.26273C17.0479 6.27317 17.1943 6.38963 17.243 6.55413L17.3096 6.76228C17.3662 6.92351 17.3164 7.10296 17.1847 7.21187L13.1719 10.6588L14.4041 15.8291C14.4447 15.9946 14.3824 16.1684 14.2459 16.2704L14.0045 16.4036C13.8636 16.4988 13.6791 16.4988 13.5382 16.4036L9.0093 13.6561L4.45537 16.4286C4.31454 16.5238 4.12998 16.5238 3.98916 16.4286L3.806 16.3037C3.66951 16.2017 3.60723 16.028 3.64782 15.8624L4.84666 10.6588L0.833876 7.21187Z" fill="#F2A742"/>
</svg>
