<svg width="18" height="18" viewBox="0 0 18 18" fill="none" xmlns="http://www.w3.org/2000/svg">
<path fill-rule="evenodd" clip-rule="evenodd" d="M2 0H16C17.1046 0 18 0.89543 18 2V16C18 17.1046 17.1046 18 16 18H2C0.89543 18 0 17.1046 0 16V2C0 0.89543 0.89543 0 2 0ZM5.5 15C5.77614 15 6 14.7761 6 14.5V9.5C6 9.22386 5.77614 9 5.5 9H4.5C4.22386 9 4 9.22386 4 9.5V14.5C4 14.7761 4.22386 15 4.5 15H5.5ZM10 14.5C10 14.7761 9.77614 15 9.5 15H8.5C8.22386 15 8 14.7761 8 14.5V3.5C8 3.22386 8.22386 3 8.5 3H9.5C9.77614 3 10 3.22386 10 3.5V14.5ZM13.5 15C13.7761 15 14 14.7761 14 14.5V7.5C14 7.22386 13.7761 7 13.5 7H12.5C12.2239 7 12 7.22386 12 7.5V14.5C12 14.7761 12.2239 15 12.5 15H13.5Z" fill="black"/>
</svg>
