<svg width="16" height="17" viewBox="0 0 16 17" fill="none" xmlns="http://www.w3.org/2000/svg">
<path fill-rule="evenodd" clip-rule="evenodd" d="M8.00016 2.07446C4.31826 2.07446 1.3335 5.05923 1.3335 8.74113C1.3335 12.423 4.31826 15.4078 8.00016 15.4078C11.6821 15.4078 14.6668 12.423 14.6668 8.74113C14.6668 6.97302 13.9645 5.27733 12.7142 4.02708C11.464 2.77684 9.76827 2.07446 8.00016 2.07446ZM8.00016 14.0745C5.05464 14.0745 2.66683 11.6866 2.66683 8.74113C2.66683 5.79561 5.05464 3.4078 8.00016 3.4078C10.9457 3.4078 13.3335 5.79561 13.3335 8.74113C13.3335 10.1556 12.7716 11.5122 11.7714 12.5124C10.7712 13.5126 9.41465 14.0745 8.00016 14.0745ZM10.0802 6.40113C10.2098 6.27408 10.4172 6.27408 10.5468 6.40113L10.8802 6.75446C10.9433 6.81705 10.9788 6.90225 10.9788 6.99113C10.9788 7.08001 10.9433 7.16521 10.8802 7.2278L7.1335 10.9745C7.07301 11.0389 6.98855 11.0755 6.90016 11.0755C6.81177 11.0755 6.72732 11.0389 6.66683 10.9745L5.10016 9.39446C5.03706 9.33187 5.00156 9.24668 5.00156 9.1578C5.00156 9.06892 5.03706 8.98372 5.10016 8.92113L5.4535 8.5678C5.51398 8.50335 5.59844 8.46678 5.68683 8.46678C5.77522 8.46678 5.85967 8.50335 5.92016 8.5678L6.92016 9.56113L10.0802 6.40113Z" fill="#0FBD68"/>
</svg>
