<svg width="20" height="20" viewBox="0 0 20 20" fill="none" xmlns="http://www.w3.org/2000/svg">
<g filter="url(#filter0_b_30_2868)">
<rect width="20" height="20" rx="10" fill="#0ED574" fill-opacity="0.1"/>
<path fill-rule="evenodd" clip-rule="evenodd" d="M5 10C5 7.23858 7.23858 5 10 5C11.3261 5 12.5979 5.52678 13.5355 6.46447C14.4732 7.40215 15 8.67392 15 10C15 12.7614 12.7614 15 10 15C7.23858 15 5 12.7614 5 10ZM9.365 11.675L12.175 8.865C12.2671 8.76843 12.2671 8.61657 12.175 8.52L11.91 8.255C11.8128 8.15971 11.6572 8.15971 11.56 8.255L9.19 10.625L8.44 9.88C8.39463 9.83166 8.33129 9.80424 8.265 9.80424C8.19871 9.80424 8.13537 9.83166 8.09 9.88L7.825 10.145C7.77767 10.1919 7.75105 10.2558 7.75105 10.3225C7.75105 10.3892 7.77767 10.4531 7.825 10.5L9.015 11.675C9.06037 11.7233 9.12371 11.7508 9.19 11.7508C9.25629 11.7508 9.31963 11.7233 9.365 11.675Z" fill="#0FBD68"/>
</g>
<defs>
<filter id="filter0_b_30_2868" x="-4" y="-4" width="28" height="28" filterUnits="userSpaceOnUse" color-interpolation-filters="sRGB">
<feFlood flood-opacity="0" result="BackgroundImageFix"/>
<feGaussianBlur in="BackgroundImage" stdDeviation="2"/>
<feComposite in2="SourceAlpha" operator="in" result="effect1_backgroundBlur_30_2868"/>
<feBlend mode="normal" in="SourceGraphic" in2="effect1_backgroundBlur_30_2868" result="shape"/>
</filter>
</defs>
</svg>
