<svg width="124" height="124" viewBox="0 0 124 124" fill="none" xmlns="http://www.w3.org/2000/svg">
<path d="M108.181 26.4888C116.09 40.5622 114.877 57.7685 109.697 71.4629C104.491 85.1826 95.2947 95.365 83.369 101.884C71.4427 108.377 56.7888 111.182 41.6036 106.987C26.3932 102.793 10.6775 91.5749 9.13564 78.866C7.62014 66.157 20.2782 51.9067 32.1533 36.949C44.0032 21.9917 55.07 6.3008 69.1432 3.90054C83.1926 1.52549 100.247 12.4154 108.181 26.4888Z" fill="url(#paint0_linear_245_6652)"/>
<path d="M6.83657 79.2482C8.03804 79.2482 9.01201 78.2395 9.01201 76.9951C9.01201 75.7507 8.03804 74.7419 6.83657 74.7419C5.6351 74.7419 4.66113 75.7507 4.66113 76.9951C4.66113 78.2395 5.6351 79.2482 6.83657 79.2482Z" stroke="#4D5C71" stroke-width="1.70927"/>
<path d="M110.65 20.7745L111.452 20.4798C111.328 20.1434 111.008 19.9199 110.65 19.9199C110.291 19.9199 109.971 20.1434 109.848 20.4798L110.65 20.7745ZM114.85 24.9751L115.145 25.7773C115.481 25.6537 115.705 25.3334 115.705 24.9751C115.705 24.6168 115.481 24.2965 115.145 24.1729L114.85 24.9751ZM110.65 29.1757L109.848 29.4704C109.971 29.8068 110.291 30.0303 110.65 30.0303C111.008 30.0303 111.328 29.8068 111.452 29.4704L110.65 29.1757ZM106.449 24.9751L106.154 24.1729C105.818 24.2965 105.595 24.6168 105.595 24.9751C105.595 25.3334 105.818 25.6537 106.154 25.7773L106.449 24.9751ZM106.655 24.8995L106.95 25.7017L106.655 24.8995ZM110.574 20.9802L111.376 21.2749V21.2749L110.574 20.9802ZM110.574 28.97L111.376 28.6753L111.376 28.6753L110.574 28.97ZM106.655 25.0507L106.95 24.2485H106.95L106.655 25.0507ZM114.645 25.0507L114.35 24.2485L114.35 24.2485L114.645 25.0507ZM110.725 28.97L109.923 28.6753L109.923 28.6753L110.725 28.97ZM110.725 20.9802L109.923 21.2749L110.725 20.9802ZM114.645 24.8995L114.35 25.7017L114.35 25.7017L114.645 24.8995ZM109.848 21.0693L109.923 21.2749L111.528 20.6854L111.452 20.4798L109.848 21.0693ZM114.35 25.7017L114.556 25.7773L115.145 24.1729L114.939 24.0973L114.35 25.7017ZM114.556 24.1729L114.35 24.2485L114.939 25.8529L115.145 25.7773L114.556 24.1729ZM109.923 28.6753L109.848 28.8809L111.452 29.4704L111.528 29.2648L109.923 28.6753ZM111.452 28.8809L111.376 28.6753L109.772 29.2648L109.848 29.4704L111.452 28.8809ZM106.95 24.2485L106.744 24.1729L106.154 25.7773L106.36 25.8529L106.95 24.2485ZM106.744 25.7773L106.95 25.7017L106.36 24.0973L106.154 24.1729L106.744 25.7773ZM111.376 21.2749L111.452 21.0693L109.848 20.4798L109.772 20.6854L111.376 21.2749ZM106.95 25.7017C109.003 24.9472 110.622 23.3286 111.376 21.2749L109.772 20.6854C109.19 22.2683 107.943 23.5158 106.36 24.0973L106.95 25.7017ZM111.376 28.6753C110.622 26.6216 109.003 25.003 106.95 24.2485L106.36 25.8529C107.943 26.4345 109.19 27.6819 109.772 29.2648L111.376 28.6753ZM114.35 24.2485C112.296 25.003 110.678 26.6216 109.923 28.6753L111.528 29.2648C112.109 27.6819 113.357 26.4345 114.939 25.8529L114.35 24.2485ZM109.923 21.2749C110.678 23.3286 112.296 24.9472 114.35 25.7017L114.939 24.0973C113.357 23.5158 112.109 22.2683 111.528 20.6854L109.923 21.2749Z" fill="#4D5C71"/>
<path opacity="0.2" d="M19.5712 8.54639L20.3734 8.25164C20.2499 7.91529 19.9296 7.69175 19.5712 7.69175C19.2129 7.69175 18.8926 7.91529 18.769 8.25164L19.5712 8.54639ZM22.7011 11.6762L22.9958 12.4784C23.3322 12.3548 23.5557 12.0346 23.5557 11.6762C23.5557 11.3179 23.3322 10.9976 22.9958 10.874L22.7011 11.6762ZM19.5712 14.8061L18.769 15.1008C18.8926 15.4372 19.2129 15.6607 19.5712 15.6607C19.9296 15.6607 20.2499 15.4372 20.3734 15.1008L19.5712 14.8061ZM16.4414 11.6762L16.1467 10.874C15.8103 10.9976 15.5868 11.3179 15.5868 11.6762C15.5868 12.0346 15.8103 12.3548 16.1467 12.4784L16.4414 11.6762ZM16.5946 11.6199L16.8894 12.4221H16.8894L16.5946 11.6199ZM19.5149 8.69962L20.3171 8.99437V8.99437L19.5149 8.69962ZM19.5149 14.6528L20.3171 14.3581V14.3581L19.5149 14.6528ZM16.5946 11.7325L16.8894 10.9303H16.8894L16.5946 11.7325ZM22.5478 11.7325L22.2531 10.9303L22.2531 10.9303L22.5478 11.7325ZM19.6275 14.6528L18.8253 14.3581L18.8253 14.3581L19.6275 14.6528ZM19.6275 8.69962L18.8253 8.99437V8.99437L19.6275 8.69962ZM22.5478 11.6199L22.2531 12.4221H22.2531L22.5478 11.6199ZM18.769 8.84114L18.8253 8.99437L20.4297 8.40487L20.3734 8.25164L18.769 8.84114ZM22.2531 12.4221L22.4063 12.4784L22.9958 10.874L22.8426 10.8177L22.2531 12.4221ZM22.4063 10.874L22.2531 10.9303L22.8426 12.5347L22.9958 12.4784L22.4063 10.874ZM18.8253 14.3581L18.769 14.5113L20.3734 15.1008L20.4297 14.9476L18.8253 14.3581ZM20.3734 14.5113L20.3171 14.3581L18.7127 14.9476L18.769 15.1008L20.3734 14.5113ZM16.8894 10.9303L16.7362 10.874L16.1467 12.4784L16.2999 12.5347L16.8894 10.9303ZM16.7362 12.4784L16.8894 12.4221L16.2999 10.8177L16.1467 10.874L16.7362 12.4784ZM20.3171 8.99437L20.3734 8.84114L18.769 8.25164L18.7127 8.40487L20.3171 8.99437ZM16.8894 12.4221C18.4796 11.8378 19.7329 10.5846 20.3171 8.99437L18.7127 8.40487C18.3015 9.52423 17.4193 10.4064 16.2999 10.8177L16.8894 12.4221ZM20.3171 14.3581C19.7329 12.7679 18.4796 11.5146 16.8894 10.9303L16.2999 12.5347C17.4193 12.946 18.3015 13.8282 18.7127 14.9476L20.3171 14.3581ZM22.2531 10.9303C20.6629 11.5146 19.4096 12.7679 18.8253 14.3581L20.4297 14.9476C20.841 13.8282 21.7232 12.946 22.8426 12.5347L22.2531 10.9303ZM18.8253 8.99437C19.4096 10.5846 20.6629 11.8378 22.2531 12.4221L22.8426 10.8177C21.7232 10.4064 20.841 9.52423 20.4297 8.40487L18.8253 8.99437Z" fill="#4D5C71"/>
<ellipse opacity="0.1" cx="44.9457" cy="112.426" rx="21.9486" ry="2.70003" fill="#4D5C71"/>
<ellipse opacity="0.1" cx="97.1711" cy="112.426" rx="12.4845" ry="1.5358" fill="#4D5C71"/>
<path d="M70.9755 62.9835C68.892 66.9765 68.3663 69.0988 62.0461 73.061C61.997 73.093 61.9602 73.1407 61.9417 73.1963C60.932 76.3266 59.2227 79.1859 56.9436 81.5574C56.9129 81.589 56.8913 81.6283 56.8811 81.6712C56.8709 81.714 56.8724 81.7589 56.8856 81.8009C57.593 84.1551 58.3586 88.3995 56.2284 91.8784C53.0973 97.0005 50.7783 93.9079 51.2612 92.7482C51.6748 91.7547 55.208 89.6209 54.3923 84.2904C54.3855 84.2477 54.3677 84.2076 54.3409 84.1737C54.314 84.1399 54.2789 84.1136 54.2389 84.0973C54.1989 84.081 54.1553 84.0752 54.1125 84.0806C54.0696 84.086 54.0289 84.1023 53.9941 84.128C51.4332 85.9867 48.4939 87.2578 45.3856 87.8507C45.3511 87.8564 45.3182 87.8693 45.289 87.8887C45.2599 87.908 45.2352 87.9333 45.2165 87.9629C45.1979 87.9925 45.1858 88.0257 45.1809 88.0604C45.1761 88.095 45.1786 88.1303 45.1884 88.1639C45.9809 91.0011 46.3558 95.4352 43.0469 99.5131C41.2804 101.639 38.9378 98.5312 41.2804 96.4131C42.7338 95.1027 42.6217 91.3338 41.9414 88.4307C41.9284 88.3744 41.8962 88.3243 41.8504 88.2891C41.8045 88.2538 41.7479 88.2356 41.6901 88.2375C41.5548 88.2413 41.4156 88.2413 41.2804 88.2413C36.4991 88.2485 31.8507 86.6685 28.0641 83.7492C28.0294 83.7221 27.9884 83.7045 27.9449 83.6981C27.9014 83.6918 27.857 83.6968 27.816 83.7128C27.7751 83.7288 27.739 83.7552 27.7113 83.7893C27.6836 83.8235 27.6653 83.8643 27.6582 83.9077C26.7498 89.9068 30.3565 91.9828 30.8704 93.5213C31.4426 95.2415 30.1282 96.7722 28.5086 96.3393C28.4735 96.3288 28.4407 96.3118 28.412 96.289C23.1316 92.323 23.5916 84.012 24.1715 80.0112C24.1768 79.9785 24.175 79.945 24.1663 79.913C24.1577 79.881 24.1423 79.8512 24.1212 79.8257C21.1683 76.0258 19.5697 71.3482 19.5791 66.5359C19.5791 57.7108 24.8479 50.115 32.4128 46.7249C32.4133 46.725 32.4138 46.7249 32.4143 46.7247C32.4148 46.7245 32.4152 46.7242 32.4156 46.7239C32.4159 46.7235 32.4162 46.7231 32.4164 46.7226C32.4166 46.7221 32.4167 46.7216 32.4167 46.7211C33.5802 45.2481 34.9989 43.1648 35.2154 41.7036C35.2225 41.6541 35.2443 41.6079 35.2778 41.5708C35.3114 41.5337 35.3552 41.5075 35.4038 41.4954C35.4523 41.4834 35.5034 41.4861 35.5504 41.5032C35.5974 41.5203 35.6382 41.5511 35.6676 41.5915C36.2243 42.3414 37.0863 43.7717 36.8969 45.2792C36.8892 45.3295 36.8853 45.3797 36.8776 45.43C36.8621 45.5151 36.8428 45.5962 36.8235 45.6812C36.8041 45.747 36.7887 45.8127 36.7655 45.8784C37.0358 45.6528 37.2938 45.4128 37.5382 45.1594C38.1064 44.5757 38.8254 43.6982 39.1347 42.7589C39.1493 42.7088 39.1791 42.6645 39.22 42.632C39.2609 42.5995 39.3108 42.5805 39.3629 42.5775C39.415 42.5746 39.4668 42.5879 39.511 42.6156C39.5553 42.6433 39.5899 42.684 39.6101 42.7321C39.8109 43.2269 40.0469 43.9189 40.128 44.6262C40.135 44.6897 40.1655 44.7482 40.2134 44.7904C40.2613 44.8326 40.3232 44.8554 40.387 44.8543C40.6847 44.8427 40.9823 44.835 41.28 44.835C53.267 44.835 62.9851 54.553 62.9851 66.5362C62.9851 66.8107 62.9812 67.0812 62.9695 67.3518C62.9678 67.3931 62.9762 67.4342 62.994 67.4715C63.0117 67.5089 63.0383 67.5413 63.0714 67.566C63.1046 67.5908 63.1432 67.6071 63.1841 67.6135C63.2249 67.62 63.2667 67.6164 63.3058 67.603C64.5969 67.1508 66.2243 66.0607 67.2062 63.4669C69.0423 58.635 69.2356 57.2821 68.6558 53.5131C68.076 49.7441 70.8787 49.9377 71.4583 51.1938C72.0378 52.4499 73.2947 58.5381 70.9755 62.9835Z" fill="white" stroke="#4D5C71" stroke-width="1.86466"/>
<path d="M32.8031 68.4396C32.7292 68.4396 32.6574 68.415 32.5989 68.3698C32.5404 68.3247 32.4984 68.2614 32.4797 68.1899C32.3339 67.5533 32.3026 66.8958 32.3872 66.2482C32.5776 64.8407 33.3435 63.8061 34.6023 63.2562C35.425 62.8969 36.2026 62.8761 36.9135 63.1948C38.3706 63.8479 38.991 65.6997 39.0167 65.7782C39.0416 65.8618 39.0329 65.9518 38.9924 66.0291C38.952 66.1064 38.883 66.1648 38.8 66.1919C38.7171 66.2191 38.6269 66.2128 38.5486 66.1744C38.4702 66.1361 38.41 66.0686 38.3806 65.9865C38.3753 65.9704 37.8235 64.3345 36.6376 63.8048C36.1067 63.5677 35.5122 63.5895 34.8706 63.8698C33.8289 64.3251 33.2176 65.1487 33.0537 66.318C32.9789 66.8855 33.0039 67.4618 33.1278 68.0207C33.1501 68.1066 33.1374 68.1979 33.0924 68.2745C33.0475 68.3511 32.974 68.4067 32.8881 68.4291C32.8603 68.4362 32.8318 68.4397 32.8031 68.4396Z" stroke="#4D5C71" stroke-width="0.932331"/>
<path d="M42.8948 65.3737C42.8247 65.3736 42.7563 65.3516 42.6994 65.3106C42.6425 65.2696 42.5999 65.2118 42.5776 65.1452C42.3907 64.5221 42.3168 63.8706 42.3593 63.2215C42.4581 61.8104 43.1555 60.7325 44.3761 60.1043C45.1753 59.6932 45.951 59.6223 46.6823 59.8948C48.1754 60.4506 48.9133 62.2464 48.944 62.3225C48.9762 62.4046 48.9747 62.4962 48.9397 62.5772C48.9048 62.6582 48.8393 62.7222 48.7574 62.7551C48.6756 62.7881 48.584 62.7874 48.5027 62.7533C48.4213 62.7191 48.3568 62.6542 48.323 62.5727C48.3163 62.5571 47.6616 60.9719 46.4462 60.5214C45.8996 60.3187 45.3063 60.3787 44.6826 60.6998C43.6728 61.2193 43.1164 62.0766 43.0288 63.2481C42.991 63.8163 43.0533 64.3868 43.2129 64.9334C43.2295 64.9837 43.2339 65.0373 43.2258 65.0896C43.2177 65.142 43.1973 65.1917 43.1663 65.2347C43.1353 65.2777 43.0945 65.3127 43.0473 65.3368C43.0002 65.361 42.9479 65.3736 42.895 65.3737H42.8948Z" stroke="#4D5C71" stroke-width="0.932331"/>
<path d="M42.0425 72.3778C39.764 72.3778 38.0266 70.8613 37.9396 70.7843C37.9068 70.7551 37.88 70.7197 37.8608 70.6801C37.8416 70.6406 37.8303 70.5977 37.8277 70.5538C37.8251 70.5099 37.8312 70.4659 37.8456 70.4244C37.86 70.3828 37.8824 70.3445 37.9116 70.3116C37.9408 70.2788 37.9762 70.252 38.0157 70.2328C38.0553 70.2136 38.0982 70.2023 38.1421 70.1997C38.186 70.1971 38.23 70.2032 38.2715 70.2176C38.3131 70.232 38.3514 70.2544 38.3842 70.2836C38.4071 70.3037 40.7013 72.2978 43.2845 71.5278C45.8555 70.7617 46.5606 67.4971 46.5675 67.4643C46.5863 67.3782 46.6383 67.303 46.7121 67.2549C46.786 67.2069 46.8758 67.1899 46.9621 67.2077C47.0485 67.2254 47.1243 67.2765 47.1732 67.3498C47.2221 67.4231 47.2401 67.5128 47.2233 67.5993C47.0641 68.2755 46.8148 68.9272 46.482 69.537C45.747 70.8921 44.7077 71.8025 43.4758 72.1695C43.0107 72.3081 42.5278 72.3783 42.0425 72.3778V72.3778Z" stroke="#4D5C71" stroke-width="0.932331"/>
<path d="M108.84 47.0364C108.819 47.5634 108.765 48.0887 108.679 48.609C107.509 55.7674 100.761 60.6196 93.6023 59.4493C86.4467 58.2796 81.5918 51.5307 82.7621 44.3722C82.8367 43.9159 82.9353 43.4693 83.0519 43.0337C77.7428 39.4282 78.0529 32.4757 79.0706 31.7049C80.0985 30.9243 81.2207 31.582 81.1034 33.7411C80.9828 36.8765 82.9132 39.4695 83.9838 40.5989C86.4905 35.6015 92.0306 32.5823 97.8391 33.5319C103.476 34.4533 107.681 38.8355 108.644 44.1502C109.695 43.7682 111.551 42.6657 113.054 39.532C113.264 38.9075 113.322 38.4484 113.333 38.1719C113.341 37.9136 113.442 37.6667 113.617 37.4771C113.946 37.1332 114.528 36.7683 115.28 37.3286C115.451 37.4565 115.589 37.6235 115.682 37.8156C115.775 38.0077 115.821 38.2194 115.815 38.4328C115.768 40.1264 114.413 44.2471 108.84 47.0364Z" fill="white" stroke="#4D5C71" stroke-width="1.86466"/>
<path d="M100.996 48.3815L100.69 48.4541C100.756 48.7338 100.766 49.0237 100.72 49.3074C100.577 50.1816 99.8979 50.925 98.8315 51.3961C97.7683 51.8657 96.3578 52.0435 94.8562 51.798C93.3531 51.5523 92.0719 50.9345 91.2133 50.1507C90.3523 49.3647 89.9449 48.4438 90.0875 47.5699C90.1428 47.2397 90.2718 46.9261 90.4649 46.6526C90.4785 46.6339 90.4986 46.621 90.5213 46.6166C90.5442 46.6121 90.5679 46.6166 90.5875 46.6291L90.5875 46.6291L90.5894 46.6303C91.7492 47.3564 93.5546 47.9812 95.6126 48.3177C97.5085 48.6277 99.278 48.6353 100.583 48.3877L100.584 48.3876C100.607 48.3832 100.631 48.3878 100.651 48.4005C100.67 48.4132 100.684 48.433 100.69 48.4558L100.996 48.3815ZM100.996 48.3815C100.972 48.28 100.909 48.1919 100.821 48.1354C100.733 48.0789 100.627 48.0583 100.525 48.078L89.7765 47.5185C89.4451 49.5459 91.6963 51.6009 94.8053 52.1091C97.9116 52.6168 100.7 51.3858 101.031 49.3583C101.084 49.0335 101.072 48.7016 100.996 48.3815Z" fill="#4D5C71" stroke="#4D5C71" stroke-width="0.630463"/>
<path d="M95.1368 45.3353C95.1016 45.3353 95.0668 45.3277 95.0348 45.313C95.0029 45.2982 94.9745 45.2767 94.9517 45.2499C94.9288 45.223 94.9121 45.1916 94.9027 45.1577C94.8932 45.1237 94.8913 45.0882 94.897 45.0534C94.9784 44.555 94.8586 44.0446 94.5638 43.6346C94.2689 43.2246 93.8233 42.9485 93.3249 42.867C92.8265 42.7855 92.3162 42.9054 91.9061 43.2002C91.4961 43.495 91.22 43.9407 91.1385 44.4391C91.1281 44.5026 91.0929 44.5594 91.0407 44.597C90.9884 44.6345 90.9233 44.6498 90.8598 44.6394C90.7963 44.629 90.7395 44.5938 90.7019 44.5416C90.6643 44.4893 90.649 44.4242 90.6594 44.3607C90.7617 43.7352 91.1082 43.176 91.6228 42.806C92.1373 42.4361 92.7778 42.2856 93.4033 42.3879C94.0287 42.4901 94.5879 42.8366 94.9579 43.3512C95.3279 43.8658 95.4783 44.5062 95.3761 45.1317C95.3668 45.1885 95.3376 45.2401 95.2938 45.2774C95.25 45.3147 95.1944 45.3352 95.1368 45.3353V45.3353Z" stroke="#4D5C71" stroke-width="0.932331"/>
<path d="M100.959 46.2873C100.924 46.2873 100.889 46.2796 100.857 46.2648C100.825 46.25 100.797 46.2285 100.774 46.2017C100.751 46.1749 100.735 46.1434 100.725 46.1095C100.716 46.0756 100.714 46.0401 100.719 46.0054C100.799 45.5079 100.678 44.9991 100.383 44.5906C100.088 44.1821 99.6434 43.9071 99.1462 43.8259C98.649 43.7446 98.1398 43.8637 97.7302 44.157C97.3207 44.4504 97.044 44.8941 96.9609 45.391C96.9559 45.4225 96.9446 45.4528 96.9279 45.48C96.9111 45.5072 96.8892 45.5308 96.8633 45.5495C96.8374 45.5682 96.808 45.5816 96.7769 45.5889C96.7458 45.5962 96.7136 45.5973 96.6821 45.5922C96.6506 45.587 96.6204 45.5757 96.5932 45.5589C96.5661 45.542 96.5425 45.52 96.5239 45.494C96.5053 45.4681 96.492 45.4387 96.4848 45.4076C96.4776 45.3764 96.4766 45.3442 96.4818 45.3127C96.5858 44.6888 96.9329 44.1316 97.447 43.7632C97.961 43.3948 98.6002 43.2452 99.2244 43.3472C99.8486 43.4493 100.407 43.7946 100.777 44.3075C101.147 44.8205 101.299 45.4592 101.198 46.0837C101.189 46.1405 101.16 46.1921 101.116 46.2294C101.072 46.2667 101.017 46.2872 100.959 46.2873Z" stroke="#4D5C71" stroke-width="0.932331"/>
<defs>
<linearGradient id="paint0_linear_245_6652" x1="61.4297" y1="3.57397" x2="61.4297" y2="108.973" gradientUnits="userSpaceOnUse">
<stop stop-color="#E2E8F0"/>
<stop offset="0.53125" stop-color="#E2E8F0" stop-opacity="0.56"/>
<stop offset="1" stop-color="white" stop-opacity="0"/>
</linearGradient>
</defs>
</svg>
