<svg width="15" height="15" viewBox="0 0 15 15" fill="none" xmlns="http://www.w3.org/2000/svg">
<path d="M6.69883 11.5008H8.29883V6.70078H6.69883V11.5008ZM7.49883 3.50078C7.09883 3.50078 6.69883 3.90078 6.69883 4.30078C6.69883 4.70078 7.09883 5.10078 7.49883 5.10078C7.89883 5.10078 8.29883 4.70078 8.29883 4.30078C8.29883 3.90078 7.89883 3.50078 7.49883 3.50078ZM7.49883 0.300781C3.49883 0.300781 0.298828 3.50078 0.298828 7.50078C0.298828 11.5008 3.49883 14.7008 7.49883 14.7008C11.4988 14.7008 14.6988 11.5008 14.6988 7.50078C14.6988 3.50078 11.4988 0.300781 7.49883 0.300781ZM7.49883 13.1008C4.37883 13.1008 1.89883 10.6208 1.89883 7.50078C1.89883 4.38078 4.37883 1.90078 7.49883 1.90078C10.6188 1.90078 13.0988 4.38078 13.0988 7.50078C13.0988 10.6208 10.6188 13.1008 7.49883 13.1008Z" fill="#0038FF"/>
</svg>
