<svg width="19" height="18" viewBox="0 0 19 18" fill="none" xmlns="http://www.w3.org/2000/svg">
<path d="M8.5 14.0002H10.5V8.00015H8.5V14.0002ZM9.5 4.00015C9 4.00015 8.5 4.50015 8.5 5.00015C8.5 5.50015 9 6.00015 9.5 6.00015C10 6.00015 10.5 5.50015 10.5 5.00015C10.5 4.50015 10 4.00015 9.5 4.00015ZM9.5 0.000152588C4.5 0.000152588 0.5 4.00015 0.5 9.00015C0.5 14.0002 4.5 18.0002 9.5 18.0002C14.5 18.0002 18.5 14.0002 18.5 9.00015C18.5 4.00015 14.5 0.000152588 9.5 0.000152588ZM9.5 16.0002C5.6 16.0002 2.5 12.9002 2.5 9.00015C2.5 5.10015 5.6 2.00015 9.5 2.00015C13.4 2.00015 16.5 5.10015 16.5 9.00015C16.5 12.9002 13.4 16.0002 9.5 16.0002Z" fill="#94A3B8"/>
</svg>
