<svg width="12" height="7" viewBox="0 0 12 7" fill="none" xmlns="http://www.w3.org/2000/svg">
<path d="M5.27985 0.22C5.42037 0.0793075 5.61101 0.000175052 5.80985 0H6.18985C6.38827 0.00230401 6.57813 0.081116 6.71985 0.22L11.8499 5.36C11.9445 5.45388 11.9978 5.58168 11.9978 5.715C11.9978 5.84832 11.9445 5.97612 11.8499 6.07L11.1399 6.78C11.0477 6.87406 10.9215 6.92707 10.7899 6.92707C10.6582 6.92707 10.532 6.87406 10.4399 6.78L5.99985 2.33L1.55985 6.78C1.46597 6.87466 1.33817 6.9279 1.20485 6.9279C1.07153 6.9279 0.943736 6.87466 0.849852 6.78L0.149852 6.07C0.055196 5.97612 0.00195312 5.84832 0.00195312 5.715C0.00195312 5.58168 0.055196 5.45388 0.149852 5.36L5.27985 0.22Z" fill="black"/>
</svg>
