<svg width="1024" height="1024" viewBox="0 0 1024 1024" fill="none" xmlns="http://www.w3.org/2000/svg">
<path opacity="0.04" d="M585.92 789.02C749.954 789.02 882.93 656.044 882.93 492.01C882.93 327.976 749.954 195 585.92 195C421.886 195 288.91 327.976 288.91 492.01C288.91 656.044 421.886 789.02 585.92 789.02Z" fill="black"/>
<path d="M623.77 327.24C616.98 325 609.56 324.25 601.94 325.03C593.33 325.91 587.24 329.21 579.1 332.06C572.14 334.5 562.11 334.32 555.93 338.7C552.93 340.83 548.1 345.45 547.79 353.96C547.59 359.68 550.3 366.05 555.1 368.81C565.77 374.94 578.18 364.71 583.22 355.88C592.09 361.68 597.13 370.5 595.32 381.15C594.46 386.17 592.8 391.07 592.61 396.15C592.28 405.03 596.82 413.94 604.21 418.88C606.28 420.26 608.59 421.39 610.21 423.28C612.78 426.27 613.11 430.5 613.6 434.41C614.53 441.94 616.59 449.62 620.95 455.93C625.3 462.22 633.35 464.94 637.07 471.62C640.45 477.69 638.94 485.3 640.44 491.88C642.11 499.21 644.42 506.4 648.32 512.87C652.87 520.44 659.67 526.87 667.99 529.81C677.68 533.24 688.29 531.22 695.77 524.15C699.54 520.59 702.44 516.03 703.7 511C705.29 504.65 704.23 497.87 701.89 491.76C695.58 475.22 673.31 462.47 665.21 446.91C655.42 428.11 659.31 406.34 659.2 386.08C659.13 372.97 655.54 358.61 648.77 347.34C642.76 337.33 633.97 330.6 623.77 327.24Z" fill="black"/>
<path d="M561.33 371.07C559.74 383.13 560.14 392.91 560.86 399.75C561.85 409.13 563.54 414.07 567.38 417.9C573.1 423.6 580.76 424.04 582.7 424.14C590.62 424.59 597.23 421.15 601.98 417.41" stroke="black" stroke-width="3" stroke-miterlimit="10" stroke-linecap="round" stroke-linejoin="round"/>
<path d="M584.69 424.16C585.46 428.1 586.13 432.26 586.66 436.64C588.35 450.6 588.14 463.08 587.22 473.44C579.79 481.52 572.15 490.44 564.49 500.23C553.55 514.22 542.89 532 535.03 544.7" stroke="black" stroke-width="3" stroke-miterlimit="10" stroke-linecap="round" stroke-linejoin="round"/>
<path d="M663.86 527.45C665.06 540.72 667.42 557.86 672.2 577.24C690.73 652.46 727.5 687.78 712.39 708.98C700.43 725.76 664.2 722.13 660.35 721.71C647.14 720.25 644.74 716.3 621.04 710.85C591.97 704.17 589.73 708.76 582.76 703.3C567.33 691.21 576.47 667.3 568.47 623.7C564.92 604.31 559.44 589.03 555.55 579.48" stroke="black" stroke-width="3" stroke-miterlimit="10" stroke-linecap="round" stroke-linejoin="round"/>
<path d="M581.36 702.11C573.06 706.78 562.34 712.81 549.95 719.79C511.55 741.44 498.83 748.73 482.88 761.58C473.36 769.24 463.39 773.06 458.14 784.12C457.91 784.6 457.46 785.55 456.94 786.87C455.88 789.55 454.53 793.77 454.12 798.77C453.71 803.8 454.26 809.63 457.04 815.46C460.38 822.47 465.59 826.63 468.58 828.65H475.91H484.17C534.69 828.65 585.23 828.65 635.75 828.65H647.35V801.01C647.35 789.72 647.35 778.56 647.35 772.25" stroke="black" stroke-width="3" stroke-miterlimit="10" stroke-linecap="round" stroke-linejoin="round"/>
<path d="M696.66 719.18C693.42 732.22 686.81 747.76 673.11 759.38C672.84 759.61 672.53 759.85 672.21 760.1C669.91 761.81 666.43 763.74 662.46 765.66C661.93 765.93 661.38 766.19 660.83 766.45C658.03 767.77 655.05 769.07 652.11 770.3C650.5 770.98 648.9 771.63 647.35 772.25C642.75 774.08 638.56 775.62 635.75 776.6C634.55 777.01 633.6 777.33 632.97 777.52C611.51 784.02 592.97 786.14 580.19 786.87" stroke="black" stroke-width="3" stroke-miterlimit="10" stroke-linecap="round" stroke-linejoin="round"/>
<path d="M475.91 766.66C478.25 747.89 480.06 728.08 481.14 707.32C481.77 695.26 482.11 683.53 482.22 672.14C493.89 680.32 507.06 688.77 521.73 697.03C534.27 704.1 546.37 710.16 557.8 715.37" stroke="black" stroke-width="3" stroke-miterlimit="10" stroke-linecap="round" stroke-linejoin="round"/>
<path d="M474.04 767.93H437.3C437.87 748.9 437.33 730.16 436.8 711.1C436.26 692.28 437.1 673.29 438.74 654.48C439.48 645.95 440.87 637.28 444.87 629.71C453.79 612.82 474.33 609.71 491.52 613.44C518.87 619.36 545.88 629.07 571.03 641.84" stroke="black" stroke-width="3" stroke-miterlimit="10" stroke-linecap="round" stroke-linejoin="round"/>
<path d="M475.91 828.65H468.58H378.95V827.64C378.95 822.42 382.07 817.71 386.88 815.67L427.87 798.29C428 797.93 428.15 797.54 428.31 797.12C429.28 794.54 430.66 790.84 432.16 786.87C434.81 779.78 437.79 771.83 439.25 767.93" stroke="black" stroke-width="3" stroke-miterlimit="10" stroke-linecap="round" stroke-linejoin="round"/>
<path d="M428.31 797.12C431.57 798.03 435.28 798.78 439.36 799.16C444.84 799.67 449.82 799.4 454.12 798.77" stroke="black" stroke-width="3" stroke-miterlimit="10" stroke-linecap="round" stroke-linejoin="round"/>
<path d="M652.11 770.3C677.3 788.78 693.51 806.01 724.4 828.19C704.24 828.19 709.64 828.65 690.49 828.65C684.95 828.65 681.76 823.5 678.85 819.56C672.93 811.56 664.41 807.01 655.22 803.71C652.63 802.78 649.93 802.01 647.35 801.01" stroke="black" stroke-width="3" stroke-miterlimit="10" stroke-linecap="round" stroke-linejoin="round"/>
<path d="M647.35 828.65H690.49H695.24" stroke="black" stroke-width="3" stroke-miterlimit="10" stroke-linecap="round" stroke-linejoin="round"/>
<path d="M551.68 537C555.21 542.16 558.91 548.28 562.37 555.37C565.58 561.94 567.85 567.68 569.71 573.33" stroke="black" stroke-width="3" stroke-miterlimit="10" stroke-linecap="round" stroke-linejoin="round"/>
<path d="M576.77 523.97L502.46 562.85C498.14 565.15 492.91 564.82 488.87 562.05C474.96 552.5 460.7 545.96 446.08 537.53C433.51 530.28 418.34 523.49 407.95 513C397.7 502.64 393.91 487.72 387.01 474.89C382.63 466.74 376.89 459.32 370.11 453.02C370.02 452.93 369.91 452.85 369.8 452.77C366.95 450.79 363.48 454.51 365.47 457.36C367.34 460.03 369.59 462.5 370.87 465.59C377.41 481.38 372.6 500.55 384.94 514.11C390.02 519.69 396.5 523.66 402.78 527.74C409.56 532.16 415.68 537.23 421.96 542.32C437.77 555.12 453.49 568.04 469.09 581.09C476.14 586.99 483.17 592.91 490.16 598.88C493.92 602.09 499.17 602.92 503.73 601L582.37 568" stroke="black" stroke-width="3" stroke-miterlimit="10" stroke-linecap="round" stroke-linejoin="round"/>
<path d="M587.93 473.16C596.45 472.27 601.1 471.39 606.91 468.56C613.4 465.4 618.62 462.01 622.32 458.73" stroke="black" stroke-width="3" stroke-miterlimit="10" stroke-linecap="round" stroke-linejoin="round"/>
<path d="M887.22 651.4H769.72V828.65H887.22V651.4Z" stroke="black" stroke-width="3" stroke-miterlimit="10" stroke-linecap="round" stroke-linejoin="round"/>
<path d="M887.22 750.76H769.72V777.4H887.22V750.76Z" fill="black"/>
<path d="M887.22 702.65H769.72V729.29H887.22V702.65Z" fill="black"/>
<path d="M789.72 809.61C793.36 809.61 796.31 806.659 796.31 803.02C796.31 799.38 793.36 796.43 789.72 796.43C786.08 796.43 783.13 799.38 783.13 803.02C783.13 806.659 786.08 809.61 789.72 809.61Z" fill="black"/>
<path d="M815.55 809.61C819.19 809.61 822.14 806.659 822.14 803.02C822.14 799.38 819.19 796.43 815.55 796.43C811.91 796.43 808.96 799.38 808.96 803.02C808.96 806.659 811.91 809.61 815.55 809.61Z" fill="black"/>
<path d="M841.39 809.61C845.03 809.61 847.98 806.659 847.98 803.02C847.98 799.38 845.03 796.43 841.39 796.43C837.75 796.43 834.8 799.38 834.8 803.02C834.8 806.659 837.75 809.61 841.39 809.61Z" fill="black"/>
<path d="M867.22 809.61C870.86 809.61 873.81 806.659 873.81 803.02C873.81 799.38 870.86 796.43 867.22 796.43C863.58 796.43 860.63 799.38 860.63 803.02C860.63 806.659 863.58 809.61 867.22 809.61Z" fill="black"/>
<path d="M789.72 683.61C793.36 683.61 796.31 680.659 796.31 677.02C796.31 673.38 793.36 670.43 789.72 670.43C786.08 670.43 783.13 673.38 783.13 677.02C783.13 680.659 786.08 683.61 789.72 683.61Z" fill="black"/>
<path d="M815.55 683.61C819.19 683.61 822.14 680.659 822.14 677.02C822.14 673.38 819.19 670.43 815.55 670.43C811.91 670.43 808.96 673.38 808.96 677.02C808.96 680.659 811.91 683.61 815.55 683.61Z" fill="black"/>
<path d="M841.39 683.61C845.03 683.61 847.98 680.659 847.98 677.02C847.98 673.38 845.03 670.43 841.39 670.43C837.75 670.43 834.8 673.38 834.8 677.02C834.8 680.659 837.75 683.61 841.39 683.61Z" fill="black"/>
<path d="M867.22 683.61C870.86 683.61 873.81 680.659 873.81 677.02C873.81 673.38 870.86 670.43 867.22 670.43C863.58 670.43 860.63 673.38 860.63 677.02C860.63 680.659 863.58 683.61 867.22 683.61Z" fill="black"/>
<path d="M273.301 540.657L180.747 513.872L153.962 606.425L246.516 633.211L273.301 540.657Z" stroke="black" stroke-width="3" stroke-miterlimit="10" stroke-linecap="round" stroke-linejoin="round"/>
<path d="M163.22 574.17L194.84 557.08L210.05 583.98" stroke="black" stroke-width="3" stroke-miterlimit="10" stroke-linecap="round" stroke-linejoin="round"/>
<path d="M181 599.68L228.38 574.08L244.55 602.67" stroke="black" stroke-width="3" stroke-miterlimit="10" stroke-linecap="round" stroke-linejoin="round"/>
<path d="M242.97 564.23C247.714 564.23 251.56 560.384 251.56 555.64C251.56 550.896 247.714 547.05 242.97 547.05C238.226 547.05 234.38 550.896 234.38 555.64C234.38 560.384 238.226 564.23 242.97 564.23Z" fill="black"/>
<path d="M357.28 476.4L284.98 495.4L255.33 382.56L368.17 352.91L397.82 465.75" stroke="black" stroke-width="3" stroke-miterlimit="10" stroke-linecap="round" stroke-linejoin="round"/>
<path d="M349.41 418.16L306.69 406.49L317.95 449.32L349.41 418.16Z" stroke="black" stroke-width="3" stroke-miterlimit="10" stroke-linecap="round" stroke-linejoin="round"/>
<path d="M192.01 464.05C202.575 464.05 211.14 455.485 211.14 444.92C211.14 434.355 202.575 425.79 192.01 425.79C181.445 425.79 172.88 434.355 172.88 444.92C172.88 455.485 181.445 464.05 192.01 464.05Z" fill="black"/>
<path d="M344.58 592.78C351.417 592.78 356.96 587.237 356.96 580.4C356.96 573.562 351.417 568.02 344.58 568.02C337.743 568.02 332.2 573.562 332.2 580.4C332.2 587.237 337.743 592.78 344.58 592.78Z" fill="black"/>
<path d="M463.43 428.09C471.394 428.09 477.85 421.634 477.85 413.67C477.85 405.706 471.394 399.25 463.43 399.25C455.466 399.25 449.01 405.706 449.01 413.67C449.01 421.634 455.466 428.09 463.43 428.09Z" fill="black"/>
<path d="M416.77 674.91L386.44 690.71L351.57 623.76L418.51 588.89L428.01 607.13" stroke="black" stroke-width="3" stroke-miterlimit="10" stroke-linecap="round" stroke-linejoin="round"/>
<path d="M381.67 641.36L389.28 655.95" stroke="black" stroke-width="3" stroke-miterlimit="10" stroke-linecap="round" stroke-linejoin="round"/>
<path d="M387.22 631.25L400.73 657.2" stroke="black" stroke-width="3" stroke-miterlimit="10" stroke-linecap="round" stroke-linejoin="round"/>
<path d="M398.67 632.5L406.28 647.1" stroke="black" stroke-width="3" stroke-miterlimit="10" stroke-linecap="round" stroke-linejoin="round"/>
<path d="M404.21 622.4L417.73 648.35" stroke="black" stroke-width="3" stroke-miterlimit="10" stroke-linecap="round" stroke-linejoin="round"/>
<path d="M415.67 623.65L423.27 638.24" stroke="black" stroke-width="3" stroke-miterlimit="10" stroke-linecap="round" stroke-linejoin="round"/>
<path d="M468.58 828.65H378.95V827.64C378.95 822.42 382.07 817.71 386.88 815.67L427.87 798.29C428 797.93 428.15 797.54 428.31 797.12C431.57 798.03 435.28 798.78 439.36 799.16C444.84 799.67 449.82 799.4 454.12 798.77C453.71 803.8 454.26 809.63 457.04 815.46C460.38 822.47 465.59 826.63 468.58 828.65Z" fill="black"/>
<path d="M724.4 828.19C704.24 828.19 709.64 828.65 690.49 828.65C684.95 828.65 681.76 823.5 678.85 819.56C672.93 811.56 664.41 807.01 655.22 803.71C652.63 802.78 649.93 802.01 647.35 801.01V772.25C648.9 771.63 650.5 770.98 652.11 770.3C677.3 788.78 693.51 806.01 724.4 828.19Z" fill="black"/>
<path d="M827.81 502.86C830.57 495.61 833.89 488.57 837.74 481.84C841.39 475.46 845.32 468.91 850.68 463.81C855.11 459.6 864.02 453.65 870.48 456.43C874.11 458 875.38 462.43 875.33 466.07C875.19 476.73 865.57 484.94 857.35 490.31C850.31 494.9 842.41 498.66 834.37 501.12C833.54 501.37 828.02 502.3 827.81 502.86Z" fill="black"/>
<path d="M827.81 573.53C830.94 565.31 834.7 557.33 839.07 549.7C843.21 542.47 847.66 535.04 853.73 529.27C858.76 524.49 868.85 517.75 876.17 520.91C880.29 522.68 881.73 527.71 881.67 531.83C881.51 543.92 870.61 553.22 861.28 559.31C853.29 564.52 844.34 568.77 835.23 571.56C834.3 571.84 828.05 572.89 827.81 573.53Z" fill="black"/>
<path d="M829.13 573.53C826 565.31 822.24 557.33 817.87 549.7C813.73 542.47 809.28 535.04 803.21 529.27C798.18 524.49 788.09 517.75 780.77 520.91C776.65 522.68 775.21 527.71 775.27 531.83C775.43 543.92 786.33 553.22 795.66 559.31C803.65 564.52 812.6 568.77 821.71 571.56C822.64 571.84 828.89 572.89 829.13 573.53Z" fill="black"/>
<path d="M827.81 626.89C830.94 618.67 834.7 610.69 839.07 603.06C843.21 595.83 847.66 588.4 853.73 582.63C858.76 577.85 868.85 571.11 876.17 574.27C880.29 576.04 881.73 581.07 881.67 585.19C881.51 597.28 870.61 606.58 861.28 612.67C853.29 617.88 844.34 622.13 835.23 624.92C834.3 625.2 828.05 626.26 827.81 626.89Z" fill="black"/>
<path d="M829.13 626.89C826 618.67 822.24 610.69 817.87 603.06C813.73 595.83 809.28 588.4 803.21 582.63C798.18 577.85 788.09 571.11 780.77 574.27C776.65 576.04 775.21 581.07 775.27 585.19C775.43 597.28 786.33 606.58 795.66 612.67C803.65 617.88 812.6 622.13 821.71 624.92C822.64 625.2 828.89 626.26 829.13 626.89Z" fill="black"/>
<path d="M827.81 523.78C825.2 516.94 822.08 510.29 818.44 503.94C815 497.92 811.29 491.74 806.23 486.93C802.05 482.95 793.64 477.34 787.54 479.97C784.11 481.45 782.91 485.63 782.96 489.06C783.1 499.12 792.17 506.87 799.93 511.93C806.58 516.26 814.03 519.81 821.62 522.13C822.4 522.37 827.6 523.25 827.81 523.78Z" fill="black"/>
<path d="M827.81 452.22V651.47" stroke="black" stroke-width="3" stroke-miterlimit="10" stroke-linecap="round" stroke-linejoin="round"/>
<path d="M96 828.65H927.24" stroke="black" stroke-width="3" stroke-miterlimit="10" stroke-linecap="round" stroke-linejoin="round"/>
<path d="M324.45 709H131.75V828.64H324.45V709Z" stroke="black" stroke-width="3" stroke-miterlimit="10" stroke-linecap="round" stroke-linejoin="round"/>
<path d="M192.01 828.65V709.01" stroke="black" stroke-width="3" stroke-miterlimit="10" stroke-linecap="round" stroke-linejoin="round"/>
<path d="M172.01 675.08H111.75L131.75 709H192.01L172.01 675.08Z" stroke="black" stroke-width="3" stroke-miterlimit="10" stroke-linecap="round" stroke-linejoin="round"/>
<path d="M284.06 675.08H344.33L324.33 709H264.06L284.06 675.08Z" stroke="black" stroke-width="3" stroke-miterlimit="10" stroke-linecap="round" stroke-linejoin="round"/>
<path d="M192.01 709H131.75V828.64H192.01V709Z" fill="black"/>
<path d="M270.19 737.82L257.37 732.02L244.55 737.82V709.01H270.19V737.82Z" stroke="black" stroke-width="3" stroke-miterlimit="10" stroke-linecap="round" stroke-linejoin="round"/>
<path d="M270.19 799.42H244.55V828.24H270.19V799.42Z" stroke="black" stroke-width="3" stroke-miterlimit="10" stroke-linecap="round" stroke-linejoin="round"/>
<path d="M584.69 424.16C587.27 424.06 591.12 423.69 595.11 421.67C598.64 419.88 602.69 416.2 604.71 414.76C604.71 418.03 602.92 424.19 599.35 428.6C594.56 434.51 588.6 436.37 586.9 436.83C586.07 431.63 586.57 434.4 586.01 431.29C585.49 428.36 585.48 427.69 584.69 424.16Z" fill="black" stroke="black" stroke-width="3" stroke-miterlimit="10" stroke-linecap="round" stroke-linejoin="round"/>
</svg>
