<svg width="18" height="18" viewBox="0 0 18 18" fill="none" xmlns="http://www.w3.org/2000/svg">
<path fill-rule="evenodd" clip-rule="evenodd" d="M9.00008 0.666748C4.39771 0.666748 0.666748 4.39771 0.666748 9.00008C0.666748 13.6025 4.39771 17.3334 9.00008 17.3334C13.6025 17.3334 17.3334 13.6025 17.3334 9.00008C17.3334 6.78994 16.4554 4.67033 14.8926 3.10752C13.3298 1.54472 11.2102 0.666748 9.00008 0.666748ZM9.00008 15.6667C5.31818 15.6667 2.33341 12.682 2.33341 9.00008C2.33341 5.31818 5.31818 2.33341 9.00008 2.33341C12.682 2.33341 15.6667 5.31818 15.6667 9.00008C15.6667 10.7682 14.9644 12.4639 13.7141 13.7141C12.4639 14.9644 10.7682 15.6667 9.00008 15.6667ZM9.15841 4.00008C9.32376 4.002 9.48198 4.06768 9.60008 4.18341L12.2084 6.79175C12.2873 6.86998 12.3317 6.97648 12.3317 7.08758C12.3317 7.19868 12.2873 7.30518 12.2084 7.38341L11.6167 7.97508C11.5399 8.05347 11.4348 8.09764 11.3251 8.09764C11.2153 8.09764 11.1102 8.05347 11.0334 7.97508L9.83342 6.77508V13.5834C9.83342 13.8135 9.64687 14.0001 9.41675 14.0001H8.58342C8.3533 14.0001 8.16675 13.8135 8.16675 13.5834V6.77508L6.96675 7.98342C6.88851 8.0623 6.78201 8.10666 6.67092 8.10666C6.55982 8.10666 6.45332 8.0623 6.37508 7.98342L5.79175 7.39175C5.71287 7.31351 5.6685 7.20701 5.6685 7.09591C5.6685 6.98482 5.71287 6.87832 5.79175 6.80008L8.40008 4.18341C8.51718 4.06617 8.67604 4.00023 8.84175 4.00008H9.15841Z" fill="#061425"/>
</svg>
