<svg width="66" height="47" viewBox="0 0 66 47" fill="none" xmlns="http://www.w3.org/2000/svg">
<g filter="url(#filter0_d_747_7051)">
<path d="M1 7C1 3.68629 3.68629 1 7 1H58.8496C62.1633 1 64.8496 3.68629 64.8496 7V39C64.8496 42.3137 62.1633 45 58.8496 45H7C3.68629 45 1 42.3137 1 39V7Z" fill="white" shape-rendering="crispEdges"/>
<path d="M30.3277 29.9095H26.8007L29.0068 17.1315H32.5336L30.3277 29.9095Z" fill="#15195A"/>
<path d="M43.1132 17.4439C42.4176 17.1854 41.3141 16.8999 39.9498 16.8999C36.4668 16.8999 34.0141 18.6398 33.999 21.1273C33.9701 22.9626 35.7551 23.982 37.0901 24.5939C38.4547 25.2192 38.9185 25.6274 38.9185 26.1848C38.9046 27.0408 37.8159 27.4354 36.8004 27.4354C35.3923 27.4354 34.6378 27.2319 33.4912 26.7557L33.0268 26.5515L32.5332 29.4199C33.3604 29.7729 34.8845 30.0862 36.4668 30.1C40.1675 30.1 42.5769 28.387 42.6054 25.7361C42.6195 24.2815 41.6769 23.1669 39.6449 22.2562C38.4113 21.6715 37.6558 21.2773 37.6558 20.6791C37.6703 20.1352 38.2948 19.5782 39.6873 19.5782C40.8339 19.5509 41.6764 19.8091 42.3146 20.0675L42.6336 20.2032L43.1132 17.4439Z" fill="#15195A"/>
<path fill-rule="evenodd" clip-rule="evenodd" d="M49.4265 17.1316H52.1546L55 29.9094H51.7343C51.7343 29.9094 51.4147 28.4413 51.3135 27.9926H46.7851C46.6542 28.3323 46.0449 29.9094 46.0449 29.9094H42.3441L47.583 18.1918C47.946 17.3625 48.5852 17.1316 49.4265 17.1316ZM49.2091 21.8076C49.2091 21.8076 48.0915 24.6487 47.801 25.3828H50.7326C50.5876 24.7439 49.9197 21.6853 49.9197 21.6853L49.6732 20.5842C49.5694 20.8678 49.4193 21.2576 49.318 21.5205C49.2494 21.6987 49.2032 21.8186 49.2091 21.8076Z" fill="#15195A"/>
<path fill-rule="evenodd" clip-rule="evenodd" d="M11.519 17.1316H17.1936C17.9627 17.1585 18.5869 17.3896 18.79 18.2057L20.0234 24.0776C20.0234 24.0776 20.0234 24.0777 20.0235 24.0778L20.4009 25.845L23.855 17.1316H27.5845L22.0407 29.896H18.311L15.1674 18.793C14.0827 18.199 12.8449 17.7213 11.4609 17.3898L11.519 17.1316Z" fill="#15195A"/>
<path d="M7 2H58.8496V0H7V2ZM63.8496 7V39H65.8496V7H63.8496ZM58.8496 44H7V46H58.8496V44ZM2 39V7H0V39H2ZM7 44C4.23858 44 2 41.7614 2 39H0C0 42.866 3.13401 46 7 46V44ZM63.8496 39C63.8496 41.7614 61.611 44 58.8496 44V46C62.7156 46 65.8496 42.866 65.8496 39H63.8496ZM58.8496 2C61.611 2 63.8496 4.23858 63.8496 7H65.8496C65.8496 3.13401 62.7156 0 58.8496 0V2ZM7 0C3.13401 0 0 3.13401 0 7H2C2 4.23858 4.23858 2 7 2V0Z" fill="#E9ECEE"/>
</g>
<defs>
<filter id="filter0_d_747_7051" x="0" y="0.5" width="65.8496" height="46" filterUnits="userSpaceOnUse" color-interpolation-filters="sRGB">
<feFlood flood-opacity="0" result="BackgroundImageFix"/>
<feColorMatrix in="SourceAlpha" type="matrix" values="0 0 0 0 0 0 0 0 0 0 0 0 0 0 0 0 0 0 127 0" result="hardAlpha"/>
<feOffset dy="0.5"/>
<feGaussianBlur stdDeviation="0.5"/>
<feComposite in2="hardAlpha" operator="out"/>
<feColorMatrix type="matrix" values="0 0 0 0 0.0235294 0 0 0 0 0.0784314 0 0 0 0 0.145098 0 0 0 0.05 0"/>
<feBlend mode="normal" in2="BackgroundImageFix" result="effect1_dropShadow_747_7051"/>
<feBlend mode="normal" in="SourceGraphic" in2="effect1_dropShadow_747_7051" result="shape"/>
</filter>
</defs>
</svg>
