<svg width="256" height="256" viewBox="0 0 256 256" fill="none" xmlns="http://www.w3.org/2000/svg">
<g filter="url(#filter0_f_30_2897)">
<rect x="100.615" y="100.357" width="55.3846" height="55.3846" rx="16" fill="url(#paint0_linear_30_2897)"/>
</g>
<g filter="url(#filter1_d_30_2897)">
<rect x="66" y="65.7413" width="76.1538" height="76.1538" rx="12" fill="url(#paint1_linear_30_2897)"/>
</g>
<path fill-rule="evenodd" clip-rule="evenodd" d="M108.221 95.938C108.99 94.3479 110.273 93.0643 111.863 92.2955C112.138 92.1556 112.318 91.8792 112.333 91.5709V91.4534C112.318 91.1451 112.138 90.8687 111.863 90.7288C110.284 89.9614 109.008 88.6855 108.24 87.1059C108.087 86.8038 107.776 86.6135 107.437 86.6135C107.099 86.6135 106.788 86.8038 106.635 87.1059C105.867 88.6855 104.591 89.9614 103.012 90.7288C102.736 90.8687 102.557 91.1451 102.542 91.4534V91.5709C102.557 91.8792 102.736 92.1556 103.012 92.2955C104.602 93.0643 105.885 94.3479 106.654 95.938C106.794 96.2131 107.07 96.3924 107.379 96.408H107.496C107.804 96.3924 108.081 96.2131 108.221 95.938ZM117.68 121.573L95.002 98.8951C94.8167 98.7112 94.7124 98.461 94.7124 98.1999C94.7124 97.9388 94.8167 97.6885 95.002 97.5047L97.7633 94.7434C97.9472 94.558 98.1974 94.4538 98.4585 94.4538C98.7196 94.4538 98.9699 94.558 99.1537 94.7434L121.831 117.421C122.017 117.605 122.121 117.855 122.121 118.116C122.121 118.377 122.017 118.627 121.831 118.811L119.07 121.573C118.886 121.758 118.636 121.862 118.375 121.862C118.114 121.862 117.863 121.758 117.68 121.573ZM87.2275 89.9063C88.4994 89.2973 89.5278 88.2758 90.1454 87.008C90.2736 86.7696 90.521 86.6197 90.7916 86.6163C91.0622 86.6197 91.3097 86.7696 91.4379 87.008C92.048 88.2744 93.0698 89.2962 94.3362 89.9063C94.5905 90.0038 94.7445 90.2631 94.7083 90.533C94.7173 90.7821 94.5681 91.0097 94.3362 91.1009C93.063 91.7175 92.0349 92.7456 91.4183 94.0188C91.32 94.2793 91.0701 94.4512 90.7916 94.4497C90.5457 94.4497 90.3199 94.3141 90.2041 94.0972C89.5927 92.8203 88.5631 91.7907 87.2862 91.1792C87.0265 91.0721 86.862 90.8136 86.875 90.533C86.8599 90.2732 86.9976 90.0284 87.2275 89.9063ZM92.5541 111.605C93.3229 110.015 94.6065 108.731 96.1966 107.962C96.4718 107.822 96.6511 107.546 96.6666 107.238V107.12C96.6511 106.812 96.4718 106.535 96.1966 106.396C94.617 105.628 93.3411 104.352 92.5737 102.773C92.42 102.47 92.1098 102.28 91.7708 102.28C91.4318 102.28 91.1216 102.47 90.9679 102.773C90.2005 104.352 88.9246 105.628 87.345 106.396C87.0698 106.535 86.8905 106.812 86.875 107.12V107.238C86.8905 107.546 87.0698 107.822 87.345 107.962C88.9351 108.731 90.2187 110.015 90.9875 111.605C91.1274 111.88 91.4038 112.059 91.712 112.075H91.8295C92.1378 112.059 92.4142 111.88 92.5541 111.605Z" fill="white"/>
<defs>
<filter id="filter0_f_30_2897" x="0.615479" y="0.35672" width="255.385" height="255.385" filterUnits="userSpaceOnUse" color-interpolation-filters="sRGB">
<feFlood flood-opacity="0" result="BackgroundImageFix"/>
<feBlend mode="normal" in="SourceGraphic" in2="BackgroundImageFix" result="shape"/>
<feGaussianBlur stdDeviation="50" result="effect1_foregroundBlur_30_2897"/>
</filter>
<filter id="filter1_d_30_2897" x="50" y="41.7413" width="204.154" height="204.154" filterUnits="userSpaceOnUse" color-interpolation-filters="sRGB">
<feFlood flood-opacity="0" result="BackgroundImageFix"/>
<feColorMatrix in="SourceAlpha" type="matrix" values="0 0 0 0 0 0 0 0 0 0 0 0 0 0 0 0 0 0 127 0" result="hardAlpha"/>
<feMorphology radius="16" operator="erode" in="SourceAlpha" result="effect1_dropShadow_30_2897"/>
<feOffset dx="48" dy="40"/>
<feGaussianBlur stdDeviation="40"/>
<feComposite in2="hardAlpha" operator="out"/>
<feColorMatrix type="matrix" values="0 0 0 0 0.0235294 0 0 0 0 0.0784314 0 0 0 0 0.145098 0 0 0 0.24 0"/>
<feBlend mode="normal" in2="BackgroundImageFix" result="effect1_dropShadow_30_2897"/>
<feBlend mode="normal" in="SourceGraphic" in2="effect1_dropShadow_30_2897" result="shape"/>
</filter>
<linearGradient id="paint0_linear_30_2897" x1="136.013" y1="103.811" x2="109.352" y2="145.01" gradientUnits="userSpaceOnUse">
<stop stop-color="#42CCFB"/>
<stop offset="1" stop-color="#4361EE"/>
</linearGradient>
<linearGradient id="paint1_linear_30_2897" x1="114.671" y1="70.4909" x2="78.0122" y2="127.139" gradientUnits="userSpaceOnUse">
<stop stop-color="#42CCFB"/>
<stop offset="1" stop-color="#4361EE"/>
</linearGradient>
</defs>
</svg>
