<svg width="6" height="4" viewBox="0 0 6 4" fill="none" xmlns="http://www.w3.org/2000/svg">
      <path
        d="M5.7602 2.62768C5.82331 2.69027 5.8588 2.77547 5.8588 2.86435C5.8588 2.95323 5.82331 3.03842 5.7602 3.10101L5.62687 3.23435C5.56415 3.29945 5.47726 3.33566 5.38687 3.33435H0.613534C0.523144 3.33566 0.436251 3.29945 0.373534 3.23435L0.240201 3.10101C0.177097 3.03842 0.141602 2.95323 0.141602 2.86435C0.141602 2.77547 0.177097 2.69027 0.240201 2.62768L2.76687 0.101012C2.82736 0.0365609 2.91181 0 3.0002 0C3.08859 0 3.17305 0.0365609 3.23353 0.101012L5.7602 2.62768Z"
        fill="#061425"
      />
    </svg>