<svg width="6" height="4" viewBox="0 0 6 4" fill="none" xmlns="http://www.w3.org/2000/svg">
      <path
        d="M0.240201 1.37272C0.177097 1.31013 0.141602 1.22493 0.141602 1.13605C0.141602 1.04717 0.177097 0.961972 0.240201 0.899383L0.373534 0.76605C0.436251 0.700944 0.523144 0.664739 0.613534 0.66605H5.38687C5.47726 0.664739 5.56415 0.700944 5.62687 0.76605L5.7602 0.899383C5.82331 0.961972 5.8588 1.04717 5.8588 1.13605C5.8588 1.22493 5.82331 1.31013 5.7602 1.37272L3.23353 3.89938C3.17305 3.96383 3.08859 4.0004 3.0002 4.0004C2.91181 4.0004 2.82736 3.96383 2.76687 3.89938L0.240201 1.37272Z"
        fill="#8697AB"
      />
    </svg>