<svg xmlns="http://www.w3.org/2000/svg" fill="none" viewBox="0 0 24 24">
      <path
        fill="#061425"
        fillRule="evenodd"
        d="M13.362 13.428l7.495-8.134a.498.498 0 00-.03-.719l-1.44-1.437a.5.5 0 00-.689 0l-8.144 7.485a.499.499 0 000 .719l2.089 2.085a.5.5 0 00.72 0zM9.075 12.32l2.609 2.614c.163.15.272.35.31.57v.488a3.99 3.99 0 01-1.17 2.835 7.76 7.76 0 01-5.905 2.156 2.9 2.9 0 01-1.78-.6.499.499 0 01-.06-.628c.761-1.13.827-2.211.89-3.247.072-1.17.14-2.281 1.2-3.34A4 4 0 017.995 12c.163-.01.327-.01.49 0 .225.042.431.154.59.32z"
        clipRule="evenodd"
      ></path>
    </svg>