<svg width="18" height="18" viewBox="0 0 18 18" fill="none" xmlns="http://www.w3.org/2000/svg">
  <path fill-rule="evenodd" clip-rule="evenodd"
        d="M9.00008 0.666504C4.39771 0.666504 0.666748 4.39746 0.666748 8.99984C0.666748 13.6022 4.39771 17.3332 9.00008 17.3332C13.6025 17.3332 17.3334 13.6022 17.3334 8.99984C17.3334 6.7897 16.4554 4.67008 14.8926 3.10728C13.3298 1.54448 11.2102 0.666504 9.00008 0.666504ZM9.83342 13.5832C9.83342 13.8133 9.64687 13.9998 9.41675 13.9998H8.58342C8.3533 13.9998 8.16675 13.8133 8.16675 13.5832V12.7498C8.16675 12.5197 8.3533 12.3332 8.58342 12.3332H9.41675C9.64687 12.3332 9.83342 12.5197 9.83342 12.7498V13.5832ZM10.5667 9.2415C11.5546 8.92176 12.2264 8.00484 12.2334 6.9665V6.49984C12.2334 5.86332 11.9806 5.25287 11.5305 4.80278C11.0804 4.35269 10.4699 4.09984 9.83341 4.09984H8.16675C6.84126 4.09984 5.76675 5.17435 5.76675 6.49984V6.9165C5.76675 7.14662 5.9533 7.33317 6.18341 7.33317H6.81675C7.04687 7.33317 7.23341 7.14662 7.23341 6.9165V6.49984C7.23341 5.98437 7.65128 5.5665 8.16675 5.5665H9.83341C10.0867 5.55745 10.3327 5.65178 10.515 5.8278C10.6973 6.00382 10.8002 6.24642 10.8001 6.49984V6.9665C10.8009 7.36843 10.5465 7.72657 10.1667 7.85817L9.37508 8.1165C8.73489 8.3281 8.30188 8.92558 8.30008 9.59984V10.2498C8.30008 10.48 8.48663 10.6665 8.71675 10.6665H9.35008C9.5802 10.6665 9.76675 10.48 9.76675 10.2498V9.59984C9.76675 9.5561 9.79304 9.51666 9.83341 9.49984L10.5667 9.2415Z"
        fill="#061425"/>
</svg>
