<svg width="18" height="18" viewBox="0 0 18 18" fill="none" xmlns="http://www.w3.org/2000/svg">
<path fill-rule="evenodd" clip-rule="evenodd" d="M8.41 0H9.59C9.85234 0.00110462 10.1037 0.105256 10.29 0.29L17.12 7.12C17.6828 7.68207 17.9993 8.44462 18 9.24V17C18 17.5523 17.5523 18 17 18H12C11.4477 18 11 17.5523 11 17V11.25C11 11.1119 10.8881 11 10.75 11H7.25C7.11193 11 7 11.1119 7 11.25V17C7 17.5523 6.55228 18 6 18H1C0.447715 18 0 17.5523 0 17V9.24C0.000700208 8.44462 0.31723 7.68207 0.88 7.12L7.71 0.29C7.89626 0.105256 8.14766 0.00110462 8.41 0ZM15.71 8.54L9.17 2H8.83L2.29 8.54C2.10526 8.72626 2.0011 8.97766 2 9.24V16H5V10C5 9.44771 5.44772 9 6 9H12C12.5523 9 13 9.44771 13 10V16H16V9.24C15.9989 8.97766 15.8947 8.72626 15.71 8.54Z" fill="white"/>
</svg>
