<svg width="17" height="18" viewBox="0 0 17 18" fill="none" xmlns="http://www.w3.org/2000/svg">
<path fill-rule="evenodd" clip-rule="evenodd" d="M8.50008 0.666626C3.89771 0.666626 0.166748 4.39759 0.166748 8.99996C0.166748 13.6023 3.89771 17.3333 8.50008 17.3333C13.1025 17.3333 16.8334 13.6023 16.8334 8.99996C16.8334 6.78982 15.9554 4.67021 14.3926 3.1074C12.8298 1.5446 10.7102 0.666626 8.50008 0.666626ZM8.50008 15.6666C4.81818 15.6666 1.83341 12.6819 1.83341 8.99996C1.83341 5.31806 4.81818 2.33329 8.50008 2.33329C12.182 2.33329 15.1667 5.31806 15.1667 8.99996C15.1667 10.7681 14.4644 12.4638 13.2141 13.714C11.9639 14.9642 10.2682 15.6666 8.50008 15.6666ZM6.32479 5.41384C6.52386 5.30478 6.76641 5.31223 6.95841 5.43329L11.8334 8.46663C12.0152 8.58306 12.1252 8.78407 12.1252 8.99996C12.1252 9.21585 12.0152 9.41686 11.8334 9.53329L6.95841 12.5666C6.76641 12.6877 6.52386 12.6951 6.32479 12.5861C6.12571 12.477 6.00142 12.2686 6.00008 12.0416V5.95829C6.00142 5.73131 6.12571 5.5229 6.32479 5.41384Z" fill="currentcolor"/>
</svg>
