<svg width="16" height="16" viewBox="0 0 16 16" fill="none" xmlns="http://www.w3.org/2000/svg">
  <path d="M8.48055 10.52C8.38687 10.6138 8.25978 10.6665 8.12722 10.6667H7.87389C7.74161 10.6651 7.61503 10.6126 7.52055 10.52L4.10055 7.09333C4.03745 7.03074 4.00195 6.94554 4.00195 6.85666C4.00195 6.76779 4.03745 6.68259 4.10055 6.62L4.57389 6.14666C4.63533 6.08396 4.71943 6.04862 4.80722 6.04862C4.89501 6.04862 4.97911 6.08396 5.04055 6.14666L8.00055 9.11333L10.9606 6.14666C11.0231 6.08356 11.1083 6.04807 11.1972 6.04807C11.2861 6.04807 11.3713 6.08356 11.4339 6.14666L11.9006 6.62C11.9637 6.68259 11.9992 6.76779 11.9992 6.85666C11.9992 6.94554 11.9637 7.03074 11.9006 7.09333L8.48055 10.52Z" fill="currentcolor"/>
</svg>
