<svg width="24" height="24" viewBox="0 0 24 24" fill="none" xmlns="http://www.w3.org/2000/svg">
<rect width="24" height="24" fill="white"/>
<path fill-rule="evenodd" clip-rule="evenodd" d="M13.5967 11.5805C13.5966 11.5395 13.5966 11.4981 13.5966 11.4565V10.9506C11.9081 10.9506 10.1245 11.3119 10.1245 13.3025C10.1245 14.3109 10.6468 14.9942 11.5436 14.9942C12.2005 14.9942 12.7885 14.5902 13.1597 13.9332C13.5985 13.1621 13.5977 12.4359 13.5967 11.5805ZM15.9517 17.1491C15.9518 17.1491 15.9518 17.1491 15.9518 17.149H15.9517L15.9517 17.1491ZM15.3999 17.2049C15.574 17.2969 15.7973 17.287 15.9517 17.1491L15.9583 17.1556C16.4247 16.7417 17.2722 16.0026 17.7485 15.6052C17.939 15.4476 17.9061 15.1946 17.7551 14.9844C17.7093 14.9209 17.6632 14.8588 17.6173 14.797C17.236 14.2831 16.8747 13.7962 16.8747 12.8197V9.18012C16.8747 9.05576 16.8755 8.93222 16.8762 8.80961C16.8841 7.4133 16.8914 6.13818 15.8466 5.16287C14.9498 4.30223 13.4651 4 12.3285 4C10.108 4 7.62808 4.82782 7.1058 7.57384C7.05325 7.86624 7.26346 8.02057 7.45394 8.06336L9.7205 8.30639C9.93071 8.29656 10.085 8.0896 10.1245 7.87932C10.3183 6.93331 11.1133 6.47675 12.0034 6.47675C12.483 6.47675 13.0283 6.65414 13.3141 7.08446C13.6059 7.51484 13.6015 8.0881 13.5975 8.60243C13.597 8.66119 13.5966 8.71918 13.5966 8.77611V9.07834C13.3781 9.10326 13.1486 9.12672 12.9122 9.15091C11.6845 9.27648 10.268 9.42138 9.20473 9.88968C7.74308 10.5203 6.71487 11.8113 6.71487 13.7065C6.71487 16.134 8.24562 17.3461 10.21 17.3461C11.872 17.3461 12.7787 16.9552 14.0597 15.6479C14.1273 15.745 14.1876 15.8343 14.2443 15.9183C14.5463 16.3653 14.7473 16.6629 15.3999 17.2049ZM3.94997 17.4323C6.85041 19.2006 11.34 21.9378 18.4959 18.5323H18.4958C18.8042 18.4036 19.0197 18.6185 18.7146 19.0081C18.4074 19.4011 15.9515 21.6535 11.8234 21.6535C7.69814 21.6535 4.53772 18.8352 3.57335 17.6659C3.30921 17.3625 3.61365 17.2255 3.79277 17.3365C3.84465 17.3681 3.89704 17.4001 3.94997 17.4323ZM18.7268 17.1768C19.3524 17.0999 20.3465 17.1474 20.5422 17.4022H20.5422C20.6909 17.5962 20.5372 18.4682 20.2853 19.0933C20.0316 19.715 19.6535 20.1543 19.4447 20.3239C19.233 20.4936 19.0772 20.4279 19.1899 20.1731C19.3066 19.9183 19.9454 18.3385 19.6922 18.0068C19.4577 17.7003 18.3939 17.8112 17.8997 17.8628C17.8629 17.8666 17.8293 17.8701 17.7994 17.8731C17.695 17.8825 17.6109 17.8919 17.5428 17.8995C17.33 17.9232 17.2732 17.9296 17.2414 17.8643C17.1596 17.6344 18.1002 17.2514 18.7268 17.1768Z" fill="black"/>
</svg>
