<svg width="72" height="72" viewBox="0 0 72 72" fill="none" xmlns="http://www.w3.org/2000/svg">
<rect width="72" height="72" fill="white"/>
<path d="M63 35.3706C63 47.8206 56.37 63.0006 36.39 63.0006C21.3738 63.1004 9.11556 51.0167 9 36.0006C9.11556 20.9846 21.3738 8.90083 36.39 9.00061C42.602 9.02365 48.6255 11.1371 53.49 15.0006C53.8261 15.2752 54.0327 15.6774 54.06 16.1106C54.0617 16.5489 53.889 16.9698 53.58 17.2806C51.6269 19.0662 49.7646 20.9486 48 22.9206C47.4868 23.4855 46.6267 23.5637 46.02 23.1006C43.2484 21.0495 39.8663 19.9925 36.42 20.1006C27.5558 20.1006 20.37 27.2864 20.37 36.1506C20.37 45.0148 27.5558 52.2006 36.42 52.2006C45.42 52.2006 49.23 48.3606 51.21 41.5506H37.5C36.6716 41.5506 36 40.879 36 40.0506V32.1006C36 31.2722 36.6716 30.6006 37.5 30.6006H61.5C62.1907 30.5963 62.7733 31.1141 62.85 31.8006C62.9613 32.9872 63.0114 34.1788 63 35.3706Z" fill="black"/>
</svg>
