<svg width="20" height="20" viewBox="0 0 20 20" fill="none" xmlns="http://www.w3.org/2000/svg">
  <path fill-rule="evenodd" clip-rule="evenodd" d="M5.00065 8.33334C5.92113 8.33334 6.66732 9.07954 6.66732 10C6.66732 10.9205 5.92113 11.6667 5.00065 11.6667C4.08018 11.6667 3.33398 10.9205 3.33398 10C3.33398 9.07954 4.08018 8.33334 5.00065 8.33334ZM11.6673 10C11.6673 9.07954 10.9211 8.33334 10.0007 8.33334C9.08018 8.33334 8.33398 9.07954 8.33398 10C8.33398 10.9205 9.08018 11.6667 10.0007 11.6667C10.9211 11.6667 11.6673 10.9205 11.6673 10ZM15.0007 8.33334C15.9211 8.33334 16.6673 9.07954 16.6673 10C16.6673 10.9205 15.9211 11.6667 15.0007 11.6667C14.0802 11.6667 13.334 10.9205 13.334 10C13.334 9.07954 14.0802 8.33334 15.0007 8.33334Z" fill="currentcolor"/>
</svg>
