<svg width="39" height="22" viewBox="0 0 39 22" fill="none" xmlns="http://www.w3.org/2000/svg">
<rect width="39" height="22" rx="11" fill="#F72585"/>
<path d="M8.85352 11.4023H11.1328C11.8828 11.4023 12.334 11.8359 12.334 12.5391C12.334 13.2598 11.8828 13.6816 11.1328 13.6816H8.85352V11.4023ZM11.3086 15C12.1113 15 12.7324 14.7891 13.1719 14.373C13.6113 13.957 13.834 13.3887 13.834 12.6621C13.834 12.2051 13.7227 11.8125 13.5 11.4785C13.2715 11.1445 12.9844 10.8984 12.6328 10.7402C12.9434 10.582 13.2012 10.3418 13.4062 10.0195C13.6113 9.69727 13.7109 9.33984 13.7109 8.94141C13.7109 8.20898 13.4941 7.63477 13.0547 7.21875C12.6152 6.80273 11.9941 6.59766 11.1914 6.59766H7.35352V15H11.3086ZM8.85352 7.92188H11.0098C11.7422 7.92188 12.2109 8.35547 12.2109 9.05859C12.2109 9.76172 11.7422 10.2012 11.0098 10.2012H8.85352V7.92188ZM17.9004 15.1172C18.6445 15.1172 19.2539 14.9355 19.7285 14.5664C20.2031 14.2031 20.5371 13.7285 20.7305 13.1426H19.2305C18.8848 13.6172 18.4453 13.8574 17.9121 13.8574C17.4375 13.8574 17.0625 13.7109 16.7754 13.4121C16.4883 13.1191 16.3242 12.7266 16.2949 12.2402H20.7949L20.8535 11.6426C20.8535 10.7578 20.584 10.0195 20.0508 9.41602C19.5176 8.81836 18.7852 8.51953 17.8535 8.51953C16.9395 8.51953 16.2129 8.8125 15.668 9.39258C15.123 9.97852 14.8535 10.7871 14.8535 11.8184C14.8535 12.8613 15.1289 13.6699 15.6738 14.25C16.2188 14.8301 16.9629 15.1172 17.9004 15.1172ZM16.2949 11.1621C16.4883 10.2949 17.0391 9.7793 17.8535 9.7793C18.2871 9.7793 18.6387 9.9082 18.9141 10.166C19.1836 10.4238 19.3477 10.7578 19.4121 11.1621H16.2949ZM25.5352 15V13.7402H24.6328C24.2344 13.7402 23.9766 13.4473 23.9766 13.0781V9.90234H25.5352V8.64258H23.9766V6.96094H22.7754L22.5938 8.64258H21.5742V9.90234H22.5938V13.2598C22.5938 14.3438 23.2617 15 24.3926 15H25.5352ZM28.8926 13.9219C28.1895 13.9219 27.8086 13.5703 27.8086 13.0781C27.8145 12.5215 28.1719 12.2402 28.8926 12.2402H30.4512V12.5391C30.4512 13.3887 29.8535 13.9219 28.8926 13.9219ZM28.5879 15.1172C29.0273 15.1172 29.4141 15.0293 29.748 14.8477C30.082 14.666 30.3164 14.4609 30.4512 14.2207H30.5098L30.627 15H31.8281V10.8574C31.8281 10.1309 31.5996 9.55664 31.1367 9.14062C30.6738 8.72461 30.0234 8.51953 29.1914 8.51953C28.5293 8.51953 27.9727 8.69531 27.5215 9.05273C27.0703 9.41016 26.7773 9.87305 26.6309 10.4414H28.0488C28.1836 10.043 28.582 9.7207 29.1914 9.7207C29.9707 9.7207 30.4512 10.1367 30.4512 10.8574V11.1621H28.8281C28.0781 11.1621 27.4922 11.3496 27.0703 11.7246C26.6426 12.1055 26.4316 12.5742 26.4316 13.1426C26.4316 13.7168 26.6309 14.1914 27.0234 14.5605C27.416 14.9297 27.9375 15.1172 28.5879 15.1172Z" fill="white"/>
</svg>
