<svg width="16" height="16" viewBox="0 0 16 16" fill="none" xmlns="http://www.w3.org/2000/svg">
<path d="M13.1478 4.96577L7.89134 8.0006L2.63281 4.96094" stroke="#B0B4BF" stroke-width="1.25341" stroke-linecap="round" stroke-linejoin="round"/>
<path d="M7.89062 8.00098V13.6413" stroke="#B0B4BF" stroke-width="1.25341" stroke-linecap="round" stroke-linejoin="round"/>
<path d="M7.26533 2.09523C7.65313 1.87133 8.13093 1.87133 8.51873 2.09523L12.6927 4.50509C13.0805 4.72899 13.3194 5.14277 13.3194 5.59057V10.4103C13.3194 10.8581 13.0805 11.2719 12.6927 11.4958L8.51873 13.9056C8.13093 14.1295 7.65313 14.1295 7.26533 13.9056L3.09133 11.4958C2.70352 11.2719 2.46462 10.8581 2.46462 10.4103V5.59057C2.46462 5.14277 2.70352 4.72899 3.09133 4.50509L7.26533 2.09523Z" stroke="#B0B4BF" stroke-width="1.25341" stroke-linecap="round" stroke-linejoin="round"/>
<path d="M5.69727 3.30078L10.3975 6.12094" stroke="#B0B4BF" stroke-width="1.25341" stroke-linecap="round" stroke-linejoin="round"/>
</svg>
