<svg width="17" height="18" viewBox="0 0 17 18" fill="none" xmlns="http://www.w3.org/2000/svg">
<path fill-rule="evenodd" clip-rule="evenodd" d="M0.166016 8.99999C0.166016 4.39762 3.89698 0.666656 8.49935 0.666656C10.7095 0.666656 12.8291 1.54463 14.3919 3.10743C15.9547 4.67024 16.8327 6.78985 16.8327 8.99999C16.8327 13.6024 13.1017 17.3333 8.49935 17.3333C3.89698 17.3333 0.166016 13.6024 0.166016 8.99999ZM1.83268 8.99999C1.83268 12.6819 4.81745 15.6667 8.49935 15.6667C10.2675 15.6667 11.9632 14.9643 13.2134 13.714C14.4636 12.4638 15.166 10.7681 15.166 8.99999C15.166 5.31809 12.1812 2.33332 8.49935 2.33332C4.81745 2.33332 1.83268 5.31809 1.83268 8.99999ZM7.24935 5.66666H6.41602C6.1859 5.66666 5.99935 5.8532 5.99935 6.08332V11.9167C5.99935 12.1468 6.1859 12.3333 6.41602 12.3333H7.24935C7.47947 12.3333 7.66602 12.1468 7.66602 11.9167V6.08332C7.66602 5.8532 7.47947 5.66666 7.24935 5.66666ZM9.74935 5.66666H10.5827C10.8128 5.66666 10.9993 5.8532 10.9993 6.08332V11.9167C10.9993 12.1468 10.8128 12.3333 10.5827 12.3333H9.74935C9.51923 12.3333 9.33268 12.1468 9.33268 11.9167V6.08332C9.33268 5.8532 9.51923 5.66666 9.74935 5.66666Z" fill="currentcolor"/>
</svg>
