<svg width="24" height="24" viewBox="0 0 24 24" fill="none" xmlns="http://www.w3.org/2000/svg">
<g id="ico / 24 / actions / star_outlined">
<path id="Icon color" fill-rule="evenodd" clip-rule="evenodd" d="M11.3917 2.31999C11.47 2.12438 11.6602 1.99722 11.8703 1.99999H12.1296C12.3379 1.99556 12.5261 2.12404 12.5983 2.31999L15.0815 8.20999L21.454 8.71999C21.6591 8.73254 21.8344 8.87241 21.8928 9.06999L21.9725 9.31999C22.0381 9.50868 21.9829 9.71839 21.8329 9.84999L16.9863 14L18.4223 20.22C18.4709 20.4188 18.3963 20.6275 18.2328 20.75L18.0134 20.9C17.9282 20.967 17.8225 21.0023 17.7143 21C17.6229 21.0019 17.533 20.9776 17.455 20.93L12 17.6L6.57492 20.93C6.49692 20.9776 6.40695 21.0019 6.31563 21C6.20738 21.0023 6.10167 20.967 6.01646 20.9L5.76714 20.75C5.60364 20.6275 5.52904 20.4188 5.57766 20.22L7.01371 14L2.17702 9.85999C2.01929 9.72917 1.95959 9.51364 2.02744 9.31999L2.13713 9.06999C2.19546 8.87241 2.37082 8.73254 2.57593 8.71999L8.94839 8.20999L11.3917 2.31999ZM18.6517 10.25L13.8549 9.86999L12 5.40999L10.1451 9.86999L5.3483 10.25L9.00822 13.38L7.88132 18.06L12 15.55L16.1087 18.06L14.9918 13.38L18.6517 10.25Z" fill="black"/>
</g>
</svg>
