<svg width="10" height="10" viewBox="0 0 10 10" fill="none" xmlns="http://www.w3.org/2000/svg">
  <path d="M9.8752 8.69999C9.95408 8.77823 9.99845 8.88472 9.99845 8.99582C9.99845 9.10692 9.95408 9.21342 9.8752 9.29166L9.29187 9.87499C9.21364 9.95387 9.10714 9.99824 8.99604 9.99824C8.88494 9.99824 8.77844 9.95387 8.7002 9.87499L5.0002 6.17499L1.3002 9.87499C1.22197 9.95387 1.11547 9.99824 1.00437 9.99824C0.89327 9.99824 0.786772 9.95387 0.708536 9.87499L0.125202 9.29166C0.0463222 9.21342 0.00195312 9.10692 0.00195312 8.99582C0.00195312 8.88472 0.0463222 8.77823 0.125202 8.69999L3.8252 4.99999L0.125202 1.29999C0.0463222 1.22175 0.00195313 1.11525 0.00195313 1.00416C0.00195313 0.893057 0.0463222 0.786558 0.125202 0.708322L0.708536 0.124989C0.786772 0.0461085 0.89327 0.0017395 1.00437 0.0017395C1.11547 0.0017395 1.22197 0.0461085 1.3002 0.124989L5.0002 3.82499L8.7002 0.124989C8.77844 0.0461085 8.88494 0.0017395 8.99604 0.0017395C9.10714 0.0017395 9.21364 0.0461085 9.29187 0.124989L9.8752 0.708322C9.95408 0.786558 9.99845 0.893057 9.99845 1.00416C9.99845 1.11525 9.95408 1.22175 9.8752 1.29999L6.1752 4.99999L9.8752 8.69999Z" fill="currentcolor"/>
</svg>
