<svg width="72" height="72" viewBox="0 0 72 72" fill="none" xmlns="http://www.w3.org/2000/svg">
<rect width="72" height="72" fill="white"/>
<path d="M63 15V57C63 60.3137 60.3137 63 57 63H45.75C44.9216 63 44.25 62.3284 44.25 61.5V43.5H51.27C51.9829 43.5001 52.5974 42.9985 52.74 42.3L53.82 36.9C53.8646 36.6819 53.8099 36.4552 53.6708 36.2813C53.5317 36.1075 53.3226 36.0044 53.1 36H44.25V26.25C44.25 25.8358 44.5858 25.5 45 25.5H52.5C53.3284 25.5 54 24.8284 54 24V19.5C54 18.6716 53.3284 18 52.5 18H45C40.0294 18 36 22.0294 36 27V36H32.31C31.4816 36 30.81 36.6716 30.81 37.5V42C30.81 42.8284 31.4816 43.5 32.31 43.5H36V61.5C36 62.3284 35.3284 63 34.5 63H15C11.6863 63 9 60.3137 9 57V15C9 11.6863 11.6863 9 15 9H57C60.3137 9 63 11.6863 63 15Z" fill="black"/>
</svg>
