<svg width="26" height="26" viewBox="0 0 26 26" fill="none" xmlns="http://www.w3.org/2000/svg">
<rect x="0.35791" y="0.904785" width="25.0681" height="25.0681" rx="12.5341" fill="#0038FF" fill-opacity="0.05"/>
<circle cx="17.9055" cy="15.9456" r="0.626703" fill="#0038FF"/>
<circle cx="17.9055" cy="18.4524" r="0.626703" fill="#0038FF"/>
<circle cx="15.3987" cy="18.4524" r="0.626703" fill="#0038FF"/>
<circle cx="10.385" cy="8.42504" r="0.626703" fill="#0038FF"/>
<circle cx="17.9055" cy="13.4387" r="0.626703" fill="#0038FF"/>
<circle cx="12.8918" cy="8.42504" r="0.626703" fill="#0038FF"/>
<circle cx="7.87817" cy="8.42504" r="0.626703" fill="#0038FF"/>
<circle cx="7.87817" cy="10.9319" r="0.626703" fill="#0038FF"/>
<rect x="7.87842" y="13.439" width="5.01362" height="5.01362" rx="1.25341" stroke="#0038FF" stroke-width="1.25341" stroke-linecap="round" stroke-linejoin="round"/>
<path d="M7.87842 16.5723L9.33104 15.6038C9.57961 15.4381 9.91058 15.4709 10.1218 15.6821L12.2653 17.8257" stroke="#0038FF" stroke-width="1.25341" stroke-linecap="round" stroke-linejoin="round"/>
<path d="M17.9057 8.42529H18.5324C18.5324 8.07917 18.2518 7.79859 17.9057 7.79859V8.42529ZM15.3989 7.79859C15.0528 7.79859 14.7722 8.07917 14.7722 8.42529C14.7722 8.77141 15.0528 9.052 15.3989 9.052V7.79859ZM17.279 10.9321C17.279 11.2782 17.5596 11.5588 17.9057 11.5588C18.2518 11.5588 18.5324 11.2782 18.5324 10.9321H17.279ZM13.7024 11.7424C13.4576 11.9871 13.4576 12.3839 13.7024 12.6287C13.9471 12.8734 14.3439 12.8734 14.5887 12.6287L13.7024 11.7424ZM17.9057 7.79859H15.3989V9.052H17.9057V7.79859ZM17.279 8.42529V10.9321H18.5324V8.42529H17.279ZM14.5887 12.6287L18.3489 8.86844L17.4626 7.98215L13.7024 11.7424L14.5887 12.6287Z" fill="#0038FF"/>
</svg>
