<svg width="20" height="16" viewBox="0 0 20 16" fill="none" xmlns="http://www.w3.org/2000/svg">
  <path fill-rule="evenodd" clip-rule="evenodd" d="M20 2C20 0.89543 19.1046 0 18 0H2C0.89543 0 0 0.89543 0 2V14C0 15.1046 0.89543 16 2 16H18C19.1046 16 20 15.1046 20 14V2ZM8 12.5C8 12.7761 7.77614 13 7.5 13H4.5C4.22386 13 4 12.7761 4 12.5V11.5C4 11.2239 4.22386 11 4.5 11H7.5C7.77614 11 8 11.2239 8 11.5V12.5ZM17.5 8C17.7761 8 18 7.77614 18 7.5V5.5C18 5.22386 17.7761 5 17.5 5H2.5C2.22386 5 2 5.22386 2 5.5V7.5C2 7.77614 2.22386 8 2.5 8H17.5Z" fill="#061425"/>
</svg>
