<svg width="5" height="8" viewBox="0 0 5 8" fill="none" xmlns="http://www.w3.org/2000/svg">
                <path
                  d="M0.480163 4.48055C0.386368 4.38687 0.333613 4.25978 0.333496 4.12722V3.87389C0.335032 3.74161 0.387573 3.61503 0.480163 3.52055L3.90683 0.100553C3.96942 0.0374484 4.05462 0.00195312 4.1435 0.00195312C4.23238 0.00195312 4.31757 0.0374484 4.38016 0.100553L4.8535 0.573886C4.91621 0.635328 4.95154 0.719426 4.95154 0.807219C4.95154 0.895012 4.91621 0.97911 4.8535 1.04055L1.88683 4.00055L4.8535 6.96055C4.9166 7.02314 4.9521 7.10834 4.9521 7.19722C4.9521 7.2861 4.9166 7.3713 4.8535 7.43389L4.38016 7.90055C4.31757 7.96366 4.23238 7.99915 4.1435 7.99915C4.05462 7.99915 3.96942 7.96366 3.90683 7.90055L0.480163 4.48055Z"
                  fill="#061425"
                />
              </svg>