<svg width="16" height="16" viewBox="0 0 16 16" fill="none" xmlns="http://www.w3.org/2000/svg">
  <path fill-rule="evenodd" clip-rule="evenodd" d="M14.5853 0.865933L15.1341 1.41483C15.368 1.64855 15.4996 1.96564 15.4999 2.29638V2.92844C15.5041 3.26494 15.3721 3.58884 15.1341 3.82663L13.5959 5.34024C13.5179 5.41896 13.4116 5.46324 13.3008 5.46324C13.1899 5.46324 13.0837 5.41896 13.0056 5.34024L10.6693 2.97002C10.5109 2.80833 10.5109 2.54956 10.6693 2.38786L12.1742 0.865933C12.4119 0.627801 12.7357 0.495839 13.0721 0.500004H13.704C14.0347 0.500295 14.3517 0.631917 14.5853 0.865933ZM12.0162 6.90375C12.1747 6.74206 12.1747 6.48329 12.0162 6.3216L9.63834 3.97633C9.56028 3.8976 9.45403 3.85332 9.34318 3.85332C9.23234 3.85332 9.12608 3.8976 9.04802 3.97633L2.3384 10.6878C2.17619 10.8486 2.04883 11.0411 1.96426 11.2533L0.534205 14.8627C0.453195 15.0501 0.520129 15.2685 0.692176 15.3783C0.81001 15.496 0.986679 15.532 1.14115 15.4698L4.74954 14.0061C4.96169 13.9215 5.15415 13.7941 5.31491 13.6319L12.0162 6.90375Z" fill="currentcolor"/>
</svg>
