<svg width="18" height="18" viewBox="0 0 18 18" fill="none" xmlns="http://www.w3.org/2000/svg">
<path fill-rule="evenodd" clip-rule="evenodd" d="M0.666748 9.00008C0.666748 4.39771 4.39771 0.666748 9.00008 0.666748C11.2102 0.666748 13.3298 1.54472 14.8926 3.10752C16.4554 4.67033 17.3334 6.78994 17.3334 9.00008C17.3334 13.6025 13.6025 17.3334 9.00008 17.3334C4.39771 17.3334 0.666748 13.6025 0.666748 9.00008ZM7.94175 11.7917L12.6251 7.10842C12.7785 6.94746 12.7785 6.69437 12.6251 6.53341L12.1834 6.09175C12.0214 5.93294 11.7621 5.93294 11.6001 6.09175L7.65008 10.0417L6.40008 8.80008C6.32447 8.71952 6.2189 8.67382 6.10841 8.67382C5.99793 8.67382 5.89236 8.71952 5.81675 8.80008L5.37508 9.24175C5.2962 9.31998 5.25183 9.42648 5.25183 9.53758C5.25183 9.64868 5.2962 9.75518 5.37508 9.83342L7.35842 11.7917C7.43403 11.8723 7.53959 11.918 7.65008 11.918C7.76057 11.918 7.86614 11.8723 7.94175 11.7917Z" fill="currentcolor"/>
</svg>
