<svg width="current" height="current" viewBox="0 0 23 19" fill="current" stroke="current" xmlns="http://www.w3.org/2000/svg">
<path fill-rule="evenodd" fill="current" stroke="current" clip-rule="evenodd" d="M21.9051 17.63L11.8128 0.37C11.6759 0.141211 11.4292 0.0008087 11.1626 0H10.8625C10.5959 0.0008087 10.3492 0.141211 10.2124 0.37L0.0999828 17.63C-0.0299096 17.8667 -0.0299096 18.1533 0.0999828 18.39L0.240016 18.62C0.369638 18.8573 0.619792 19.0035 0.89017 19H21.115C21.3853 19.0035 21.6355 18.8573 21.7651 18.62L21.9051 18.39C22.035 18.1533 22.035 17.8667 21.9051 17.63ZM12.0028 14.5C12.0028 14.7761 11.7789 15 11.5027 15H10.5024C10.2262 15 10.0023 14.7761 10.0023 14.5V13.5C10.0023 13.2239 10.2262 13 10.5024 13H11.5027C11.7789 13 12.0028 13.2239 12.0028 13.5V14.5ZM11.5327 11C11.6599 11.0009 11.7675 10.9062 11.7827 10.78L12.1828 7.56C12.2001 7.41735 12.1551 7.27417 12.0594 7.16698C11.9637 7.05979 11.8264 6.99896 11.6827 7H10.3224C10.1787 6.99896 10.0415 7.05979 9.94573 7.16698C9.85 7.27417 9.80503 7.41735 9.82228 7.56L10.2224 10.78C10.2376 10.9062 10.3453 11.0009 10.4724 11H11.5327Z"/>
</svg>
