<svg width="7" height="12" viewBox="0 0 7 12" fill="none" xmlns="http://www.w3.org/2000/svg">
  <path d="M6.78001 5.2801C6.9207 5.42061 6.99984 5.61125 7.00001 5.8101V6.1901C6.99771 6.38851 6.9189 6.57838 6.78001 6.7201L1.64001 11.8501C1.54613 11.9448 1.41833 11.998 1.28501 11.998C1.15169 11.998 1.0239 11.9448 0.930012 11.8501L0.220012 11.1401C0.125948 11.0479 0.0729408 10.9218 0.0729408 10.7901C0.0729408 10.6584 0.125948 10.5323 0.220012 10.4401L4.67001 6.0001L0.220012 1.5601C0.125356 1.46621 0.072113 1.33842 0.072113 1.2051C0.072113 1.07178 0.125356 0.94398 0.220012 0.850096L0.930012 0.150096C1.0239 0.0554401 1.15169 0.00219727 1.28501 0.00219727C1.41833 0.00219727 1.54613 0.0554401 1.64001 0.150096L6.78001 5.2801Z" fill="currentcolor"/>
</svg>
