<svg width="36" height="36" viewBox="0 0 36 36" fill="none" xmlns="http://www.w3.org/2000/svg">
                  <rect width="36" height="36" rx="4" fill="none" />
                  <path
                    d="M26.3332 20.8838C26.3425 20.9999 26.3028 21.1147 26.2236 21.2002C26.1444 21.2857 26.0331 21.3342 25.9165 21.3338H24.6665C24.4534 21.3345 24.2756 21.1712 24.2582 20.9588C24.0165 18.6088 21.4999 16.7504 18.4249 16.7504C16.847 16.724 15.3122 17.2652 14.0999 18.2754L16.1999 20.3754C16.2813 20.4538 16.3265 20.5625 16.3249 20.6754V20.9171C16.3249 21.1472 16.1383 21.3338 15.9082 21.3338H10.0749C9.84475 21.3338 9.6582 21.1472 9.6582 20.9171V15.0838C9.65818 14.9718 9.70322 14.8645 9.78317 14.7862C9.86313 14.7078 9.97126 14.6649 10.0832 14.6671H10.3249C10.4379 14.6655 10.5465 14.7107 10.6249 14.7921L12.6415 16.8088C14.2532 15.3963 16.3321 14.633 18.4749 14.6671C22.6249 14.6671 26.0582 17.4088 26.3332 20.8838Z"
                    fill="#061425"
                  />
                </svg>