<svg width="40" height="40" viewBox="0 0 40 40" fill="none" xmlns="http://www.w3.org/2000/svg">
<rect width="40" height="40" rx="4" fill="none"/>
<path fill-rule="evenodd" clip-rule="evenodd" d="M21.3623 21.4275L28.8568 13.2936C28.9507 13.1955 29.0006 13.0635 28.9949 12.9279C28.9893 12.7923 28.9286 12.6649 28.8268 12.575L27.3879 11.1378C27.1949 10.9541 26.8914 10.9541 26.6984 11.1378L18.5544 18.623C18.4567 18.7171 18.4015 18.8468 18.4015 18.9823C18.4015 19.1179 18.4567 19.2476 18.5544 19.3416L20.6429 21.4275C20.737 21.5251 20.8669 21.5802 21.0026 21.5802C21.1383 21.5802 21.2682 21.5251 21.3623 21.4275ZM17.0755 20.3197L19.6836 22.9345C19.8473 23.0845 19.9563 23.2847 19.9934 23.5034V23.9924C19.9968 25.055 19.5761 26.0751 18.8242 26.8268C17.2488 28.3461 15.1036 29.1291 12.9186 28.9826C12.2756 28.9856 11.6498 28.7749 11.1399 28.3838C10.9727 28.2151 10.9477 27.9522 11.0799 27.755C11.8402 26.6253 11.9062 25.544 11.9694 24.5081C12.0407 23.3384 12.1085 22.2266 13.1684 21.168C13.9186 20.4195 14.9359 19.9995 15.9963 20.0003C16.1593 19.9901 16.3229 19.9901 16.4859 20.0003C16.7112 20.0422 16.9175 20.1539 17.0755 20.3197Z" fill="currentColor"/>
</svg>
