<svg width="40" height="40" viewBox="0 0 40 40" fill="none" xmlns="http://www.w3.org/2000/svg">
<rect width="40" height="40" rx="4" fill="none"/>
<path fill-rule="evenodd" clip-rule="evenodd" d="M28 13.5V12.5C28 12.2239 27.7761 12 27.5 12H23V11C23 10.4477 22.5523 10 22 10H18C17.4477 10 17 10.4477 17 11V12H12.5C12.2239 12 12 12.2239 12 12.5V13.5C12 13.7761 12.2239 14 12.5 14H27.5C27.7761 14 28 13.7761 28 13.5ZM15.72 26H24.28L25 16H27L26.15 28.14C26.0764 29.1896 25.2021 30.0026 24.15 30H15.87C14.8179 30.0026 13.9436 29.1896 13.87 28.14L13 16H15L15.72 26Z" fill="#061425"/>
</svg>
