<svg
                  
                  width="6"
                  height="4"
                  viewBox="0 0 6 4"
                  fill="none"
                  xmlns="http://www.w3.org/2000/svg"
                >
                  <path
                    d="M3.36005 3.88911C3.28979 3.95945 3.19447 3.99902 3.09505 3.99911H2.90505C2.80584 3.99795 2.71091 3.95855 2.64005 3.88911L0.0750482 1.31911C0.0277201 1.27216 0.00109863 1.20827 0.00109863 1.14161C0.00109863 1.07495 0.0277201 1.01105 0.0750482 0.964106L0.430048 0.609106C0.47613 0.562074 0.539203 0.53557 0.605048 0.53557C0.670893 0.53557 0.733966 0.562074 0.780048 0.609106L3.00005 2.83411L5.22005 0.609106C5.26699 0.561778 5.33089 0.535156 5.39755 0.535156C5.46421 0.535156 5.52811 0.561778 5.57505 0.609106L5.92505 0.964106C5.97238 1.01105 5.999 1.07495 5.999 1.14161C5.999 1.20827 5.97238 1.27216 5.92505 1.31911L3.36005 3.88911Z"
                    fill="#4D5C71"
                  />
                </svg>