<svg width="17" height="18" viewBox="0 0 17 18" fill="none" xmlns="http://www.w3.org/2000/svg">
<path fill-rule="evenodd" clip-rule="evenodd" d="M8.50008 0.666626C3.89771 0.666626 0.166748 4.39759 0.166748 8.99996C0.166748 13.6023 3.89771 17.3333 8.50008 17.3333C13.1025 17.3333 16.8334 13.6023 16.8334 8.99996C16.8334 6.78982 15.9554 4.67021 14.3926 3.1074C12.8298 1.5446 10.7102 0.666626 8.50008 0.666626ZM8.50008 15.6666C4.81818 15.6666 1.83341 12.6819 1.83341 8.99996C1.83341 5.31806 4.81818 2.33329 8.50008 2.33329C12.182 2.33329 15.1667 5.31806 15.1667 8.99996C15.1667 10.7681 14.4644 12.4638 13.2141 13.714C11.9639 14.9642 10.2682 15.6666 8.50008 15.6666ZM5.16675 6.70829C5.16675 6.133 5.63312 5.66663 6.20841 5.66663H10.7917C11.367 5.66663 11.8334 6.133 11.8334 6.70829V11.2916C11.8334 11.8669 11.367 12.3333 10.7917 12.3333H6.20841C5.63312 12.3333 5.16675 11.8669 5.16675 11.2916V6.70829Z" fill="#061425"/>
</svg>
