<svg width="14" height="14" viewBox="0 0 14 14" fill="none" xmlns="http://www.w3.org/2000/svg">
<path fill-rule="evenodd" clip-rule="evenodd" d="M6.99998 0.333984C3.31808 0.333984 0.333313 3.31875 0.333313 7.00065C0.333313 10.6825 3.31808 13.6673 6.99998 13.6673C10.6819 13.6673 13.6666 10.6825 13.6666 7.00065C13.6666 5.23254 12.9643 3.53685 11.714 2.28661C10.4638 1.03636 8.76809 0.333984 6.99998 0.333984ZM7.66665 10.6673C7.66665 10.8514 7.51741 11.0007 7.33331 11.0007H6.66665C6.48255 11.0007 6.33331 10.8514 6.33331 10.6673V10.0007C6.33331 9.81656 6.48255 9.66732 6.66665 9.66732H7.33331C7.51741 9.66732 7.66665 9.81656 7.66665 10.0007V10.6673ZM8.25331 7.19398C9.04363 6.93819 9.58102 6.20465 9.58665 5.37398V5.00065C9.58665 4.49144 9.38436 4.00308 9.02429 3.64301C8.66422 3.28294 8.17586 3.08065 7.66665 3.08065H6.33331C5.27293 3.08065 4.41331 3.94026 4.41331 5.00065V5.33398C4.41331 5.51808 4.56255 5.66732 4.74665 5.66732H5.25331C5.43741 5.66732 5.58665 5.51808 5.58665 5.33398V5.00065C5.58665 4.58828 5.92094 4.25398 6.33331 4.25398H7.66665C7.86925 4.24674 8.06609 4.3222 8.21194 4.46302C8.35779 4.60384 8.44011 4.79791 8.43998 5.00065V5.37398C8.44063 5.69552 8.23713 5.98203 7.93331 6.08732L7.29998 6.29398C6.78782 6.46326 6.44142 6.94125 6.43998 7.48065V8.00065C6.43998 8.18475 6.58922 8.33398 6.77331 8.33398H7.27998C7.46407 8.33398 7.61331 8.18475 7.61331 8.00065V7.48065C7.61331 7.44566 7.63435 7.41411 7.66665 7.40065L8.25331 7.19398Z" fill="black"/>
</svg>
