<svg width="24" height="24" viewBox="0 0 24 24" fill="none" xmlns="http://www.w3.org/2000/svg">
<g id="ico / 24 / ui / hidden">
<path id="Icon color" fill-rule="evenodd" clip-rule="evenodd" d="M4.37855 3.14957C4.28787 3.05289 4.16127 2.99805 4.02876 2.99805C3.89626 2.99805 3.76966 3.05289 3.67898 3.14957L3.1493 3.67957C3.05268 3.7703 2.99787 3.89698 2.99787 4.02957C2.99787 4.16215 3.05268 4.28883 3.1493 4.37957L5.74772 6.99957C4.05624 8.13167 2.76554 9.76965 2.05996 11.6796C2.02264 11.7822 2.00238 11.8903 2 11.9996C1.99947 12.1058 2.01985 12.2112 2.05996 12.3096C3.68478 16.3687 7.62405 19.0215 11.9939 18.9996C13.6108 18.9841 15.2044 18.6119 16.6611 17.9096L19.6093 20.8496C19.6999 20.9462 19.8266 21.0011 19.9591 21.0011C20.0916 21.0011 20.2182 20.9462 20.3088 20.8496L20.8385 20.3196C20.9351 20.2288 20.9899 20.1022 20.9899 19.9696C20.9899 19.837 20.9351 19.7103 20.8385 19.6196L4.37855 3.14957ZM11.9939 14.9996C10.3381 14.9996 8.99574 13.6564 8.99574 11.9996C8.99826 11.5091 9.12551 11.0273 9.36551 10.5996L13.3631 14.5996C12.9473 14.8453 12.4765 14.9829 11.9939 14.9996ZM9.11566 5.40957C14.3846 3.88099 19.9529 6.60194 21.9878 11.6996C22.004 11.7989 22.004 11.9002 21.9878 11.9996C21.9911 12.1125 21.9706 12.225 21.9279 12.3296C21.4348 13.6821 20.6382 14.9035 19.5993 15.8996L9.11566 5.40957Z" fill="black"/>
</g>
</svg>
