<svg width="36" height="36" viewBox="0 0 36 36" fill="none" xmlns="http://www.w3.org/2000/svg">
                  <rect width="36" height="36" rx="4" fill="none" />
                  <path
                    d="M17.5669 14.6671C19.7096 14.633 21.7886 15.3963 23.4002 16.8088L25.4169 14.7921C25.485 14.7206 25.5768 14.6761 25.6752 14.6671H25.9169C26.147 14.6671 26.3335 14.8537 26.3335 15.0838V20.9171C26.3335 21.1472 26.147 21.3338 25.9169 21.3338H20.0835C19.8534 21.3338 19.6669 21.1472 19.6669 20.9171V20.6754C19.6652 20.5625 19.7105 20.4538 19.7919 20.3754L21.8919 18.2754C20.6796 17.2652 19.1447 16.724 17.5669 16.7504C14.5085 16.7504 11.9919 18.6088 11.7335 20.9588C11.7164 21.168 11.5434 21.3302 11.3335 21.3338H10.0835C9.967 21.3342 9.85564 21.2857 9.77646 21.2002C9.69729 21.1147 9.65754 20.9999 9.66686 20.8838C9.94186 17.4088 13.3752 14.6671 17.5669 14.6671Z"
                    fill="#061425"
                  />
                </svg>