<svg width="16" height="16" viewBox="0 0 16 16" fill="none" xmlns="http://www.w3.org/2000/svg">
<circle cx="12.906" cy="10.5076" r="0.626703" fill="#B0B4BF"/>
<circle cx="12.906" cy="13.0144" r="0.626703" fill="#B0B4BF"/>
<circle cx="10.3982" cy="13.0144" r="0.626703" fill="#B0B4BF"/>
<circle cx="5.38452" cy="2.98705" r="0.626703" fill="#B0B4BF"/>
<circle cx="12.906" cy="8.00073" r="0.626703" fill="#B0B4BF"/>
<circle cx="7.89233" cy="2.98705" r="0.626703" fill="#B0B4BF"/>
<circle cx="2.87866" cy="2.98705" r="0.626703" fill="#B0B4BF"/>
<circle cx="2.87866" cy="5.49389" r="0.626703" fill="#B0B4BF"/>
<rect x="2.87695" y="8.00098" width="5.01362" height="5.01362" rx="1.25341" stroke="#B0B4BF" stroke-width="1.25341" stroke-linecap="round" stroke-linejoin="round"/>
<path d="M2.87695 11.1343L4.32958 10.1658C4.57814 10.0001 4.90912 10.0329 5.12035 10.2442L7.26387 12.3877" stroke="#B0B4BF" stroke-width="1.25341" stroke-linecap="round" stroke-linejoin="round"/>
<path d="M12.9047 2.9873H13.5315C13.5315 2.64119 13.2509 2.3606 12.9047 2.3606V2.9873ZM10.3979 2.3606C10.0518 2.3606 9.77123 2.64119 9.77123 2.9873C9.77123 3.33342 10.0518 3.61401 10.3979 3.61401V2.3606ZM12.278 5.49412C12.278 5.84023 12.5586 6.12082 12.9047 6.12082C13.2509 6.12082 13.5315 5.84023 13.5315 5.49412H12.278ZM8.70139 6.30438C8.45664 6.54912 8.45664 6.94593 8.70139 7.19067C8.94613 7.43541 9.34293 7.43541 9.58768 7.19067L8.70139 6.30438ZM12.9047 2.3606H10.3979V3.61401H12.9047V2.3606ZM12.278 2.9873V5.49412H13.5315V2.9873H12.278ZM9.58768 7.19067L13.3479 3.43045L12.4616 2.54416L8.70139 6.30438L9.58768 7.19067Z" fill="#B0B4BF"/>
</svg>
