<svg width="20" height="20" viewBox="0 0 20 20" fill="none" xmlns="http://www.w3.org/2000/svg">
  <path d="M11.6661 11.6667C7.73281 11.6667 3.74948 13.3333 3.33281 15.4917C3.2967 15.689 3.12509 15.8326 2.92448 15.8333H2.84114C2.74156 15.8332 2.64592 15.7944 2.57448 15.725C2.51792 15.645 2.49137 15.5476 2.49948 15.45C2.79448 10.5786 6.78657 6.75344 11.6661 6.66667V4.51667C11.6645 4.40369 11.7098 4.29507 11.7911 4.21667L11.9578 4.05001C12.036 3.97113 12.1425 3.92676 12.2536 3.92676C12.3647 3.92676 12.4712 3.97113 12.5495 4.05001L17.3745 8.87501C17.455 8.95062 17.5007 9.05619 17.5007 9.16667C17.5007 9.27716 17.455 9.38273 17.3745 9.45834L12.5495 14.2833C12.4712 14.3622 12.3647 14.4066 12.2536 14.4066C12.1425 14.4066 12.036 14.3622 11.9578 14.2833L11.7911 14.1167C11.7098 14.0383 11.6645 13.9297 11.6661 13.8167V11.6667Z" fill="currentcolor"/>
</svg>
