<svg width="20" height="12" viewBox="0 0 20 12" fill="none" xmlns="http://www.w3.org/2000/svg">
      <path
        fillRule="evenodd"
        clipRule="evenodd"
         d="M0.833252 1.83268C0.833252 0.912208 1.57944 0.166016 2.49992 0.166016H17.4999C18.4204 0.166016 19.1666 0.912208 19.1666 1.83268V10.166C19.1666 11.0865 18.4204 11.8327 17.4999 11.8327H2.49992C1.57944 11.8327 0.833252 11.0865 0.833252 10.166V1.83268ZM9.58325 1.83268C9.35313 1.83268 9.16659 2.01923 9.16659 2.24935V3.08268C9.16659 3.3128 9.35313 3.49935 9.58325 3.49935H10.4166C10.6467 3.49935 10.8333 3.3128 10.8333 3.08268V2.24935C10.8333 2.01923 10.6467 1.83268 10.4166 1.83268H9.58325ZM9.16659 5.58268C9.16659 5.35256 9.35313 5.16602 9.58325 5.16602H10.4166C10.6467 5.16602 10.8333 5.35256 10.8333 5.58268V6.41602C10.8333 6.64613 10.6467 6.83268 10.4166 6.83268H9.58325C9.35313 6.83268 9.16659 6.64613 9.16659 6.41602V5.58268ZM6.24992 1.83268C6.0198 1.83268 5.83325 2.01923 5.83325 2.24935V3.08268C5.83325 3.3128 6.0198 3.49935 6.24992 3.49935H7.08325C7.31337 3.49935 7.49992 3.3128 7.49992 3.08268V2.24935C7.49992 2.01923 7.31337 1.83268 7.08325 1.83268H6.24992ZM5.83325 5.58268C5.83325 5.35256 6.0198 5.16602 6.24992 5.16602H7.08325C7.31337 5.16602 7.49992 5.35256 7.49992 5.58268V6.41602C7.49992 6.64613 7.31337 6.83268 7.08325 6.83268H6.24992C6.0198 6.83268 5.83325 6.64613 5.83325 6.41602V5.58268ZM3.74992 6.83268C3.98004 6.83268 4.16659 6.64613 4.16659 6.41602V5.58268C4.16659 5.35256 3.98004 5.16602 3.74992 5.16602H2.91659C2.68647 5.16602 2.49992 5.35256 2.49992 5.58268V6.41602C2.49992 6.64613 2.68647 6.83268 2.91659 6.83268H3.74992ZM4.16659 3.08268C4.16659 3.3128 3.98004 3.49935 3.74992 3.49935H2.91659C2.68647 3.49935 2.49992 3.3128 2.49992 3.08268V2.24935C2.49992 2.01923 2.68647 1.83268 2.91659 1.83268H3.74992C3.98004 1.83268 4.16659 2.01923 4.16659 2.24935V3.08268ZM13.7499 10.166C13.98 10.166 14.1666 9.97947 14.1666 9.74935V8.91602C14.1666 8.6859 13.98 8.49935 13.7499 8.49935H6.24992C6.0198 8.49935 5.83325 8.6859 5.83325 8.91602V9.74935C5.83325 9.97947 6.0198 10.166 6.24992 10.166H13.7499ZM14.1666 6.41602C14.1666 6.64613 13.98 6.83268 13.7499 6.83268H12.9166C12.6865 6.83268 12.4999 6.64613 12.4999 6.41602V5.58268C12.4999 5.35256 12.6865 5.16602 12.9166 5.16602H13.7499C13.98 5.16602 14.1666 5.35256 14.1666 5.58268V6.41602ZM13.7499 3.49935C13.98 3.49935 14.1666 3.3128 14.1666 3.08268V2.24935C14.1666 2.01923 13.98 1.83268 13.7499 1.83268H12.9166C12.6865 1.83268 12.4999 2.01923 12.4999 2.24935V3.08268C12.4999 3.3128 12.6865 3.49935 12.9166 3.49935H13.7499ZM17.4999 6.41602C17.4999 6.64613 17.3134 6.83268 17.0833 6.83268H16.2499C16.0198 6.83268 15.8333 6.64613 15.8333 6.41602V5.58268C15.8333 5.35256 16.0198 5.16602 16.2499 5.16602H17.0833C17.3134 5.16602 17.4999 5.35256 17.4999 5.58268V6.41602ZM17.0833 3.49935C17.3134 3.49935 17.4999 3.3128 17.4999 3.08268V2.24935C17.4999 2.01923 17.3134 1.83268 17.0833 1.83268H16.2499C16.0198 1.83268 15.8333 2.01923 15.8333 2.24935V3.08268C15.8333 3.3128 16.0198 3.49935 16.2499 3.49935H17.0833Z"
         fill="black"
       />
    </svg>