<svg width="7" height="12" viewBox="0 0 7 12" fill="none" xmlns="http://www.w3.org/2000/svg">
<path d="M6.77992 5.27985C6.92061 5.42037 6.99975 5.61101 6.99992 5.80985V6.18985C6.99762 6.38827 6.9188 6.57813 6.77992 6.71985L1.63992 11.8499C1.54604 11.9445 1.41824 11.9978 1.28492 11.9978C1.1516 11.9978 1.0238 11.9445 0.929921 11.8499L0.219921 11.1399C0.125857 11.0477 0.0728492 10.9215 0.0728492 10.7899C0.0728492 10.6582 0.125857 10.532 0.219921 10.4399L4.66992 5.99985L0.219921 1.55985C0.125264 1.46597 0.0720215 1.33817 0.0720215 1.20485C0.0720215 1.07153 0.125264 0.943736 0.219921 0.849852L0.929921 0.149852C1.0238 0.055196 1.1516 0.00195312 1.28492 0.00195312C1.41824 0.00195312 1.54604 0.055196 1.63992 0.149852L6.77992 5.27985Z" fill="#798088"/>
</svg>
