<svg width="19" height="16" viewBox="0 0 19 16" fill="none" xmlns="http://www.w3.org/2000/svg">
      <path
        d="M18.3332 8C18.3332 12.1421 14.9753 15.5 10.8332 15.5C9.29355 15.5051 7.79057 15.0303 6.53321 14.1417C6.43275 14.0693 6.36884 13.9567 6.35821 13.8333C6.34827 13.7132 6.39082 13.5947 6.47488 13.5083L7.07488 12.9C7.21572 12.7606 7.43525 12.7397 7.59988 12.85C8.55504 13.4938 9.68134 13.8363 10.8332 13.8333C14.0549 13.8333 16.6665 11.2217 16.6665 8C16.6665 4.77834 14.0549 2.16667 10.8332 2.16667C7.61155 2.16667 4.99988 4.77834 4.99988 8H6.96654C7.07953 7.99836 7.18815 8.04362 7.26654 8.125L7.43321 8.29167C7.51209 8.3699 7.55646 8.4764 7.55646 8.5875C7.55646 8.6986 7.51209 8.8051 7.43321 8.88333L4.49154 11.8333C4.3267 11.9932 4.06472 11.9932 3.89988 11.8333L0.95821 8.88333C0.87933 8.8051 0.834961 8.6986 0.834961 8.5875C0.834961 8.4764 0.87933 8.3699 0.95821 8.29167L1.12488 8.125C1.20327 8.04362 1.31189 7.99836 1.42488 8H3.33321C3.33321 3.85786 6.69107 0.5 10.8332 0.5C14.9753 0.5 18.3332 3.85786 18.3332 8Z"
        fill="#061425"
      />
    </svg>