<svg width="16" height="16" viewBox="0 0 16 16" fill="none" xmlns="http://www.w3.org/2000/svg">
      <path
        fillRule="evenodd"
        clipRule="evenodd"
        d="M6.41687 4.46591C6.08972 3.78928 5.5435 3.24306 4.86687 2.91591C4.74979 2.85637 4.6735 2.73876 4.66687 2.60757V2.55757C4.6735 2.42639 4.74979 2.30878 4.86687 2.24924C5.53904 1.92269 6.08199 1.37975 6.40854 0.707575C6.47393 0.579014 6.60596 0.498047 6.7502 0.498047C6.89444 0.498047 7.02647 0.579014 7.09187 0.707575C7.41842 1.37975 7.96136 1.92269 8.63354 2.24924C8.75062 2.30878 8.82691 2.42639 8.83354 2.55757V2.60757C8.82691 2.73876 8.75062 2.85637 8.63354 2.91591C7.9569 3.24306 7.41069 3.78928 7.08354 4.46591C7.024 4.58299 6.90638 4.65928 6.7752 4.66591H6.7252C6.59402 4.65928 6.47641 4.58299 6.41687 4.46591ZM2.39187 15.3742L12.0419 5.72424C12.1207 5.64601 12.1651 5.53951 12.1651 5.42841C12.1651 5.31731 12.1207 5.21081 12.0419 5.13257L10.8669 3.95757C10.7886 3.87869 10.6821 3.83433 10.571 3.83433C10.4599 3.83433 10.3534 3.87869 10.2752 3.95757L0.625202 13.6076C0.546322 13.6858 0.501953 13.7923 0.501953 13.9034C0.501953 14.0145 0.546322 14.121 0.625202 14.1992L1.8002 15.3742C1.87844 15.4531 1.98494 15.4975 2.09604 15.4975C2.20713 15.4975 2.31363 15.4531 2.39187 15.3742ZM15.3502 1.89924C14.809 1.64006 14.3714 1.20538 14.1085 0.665908C14.054 0.564481 13.9487 0.50066 13.8335 0.499241C13.7184 0.50066 13.6131 0.564481 13.5585 0.665908C13.2989 1.2048 12.8641 1.63962 12.3252 1.89924C12.217 1.9407 12.1515 2.05107 12.1669 2.16591C12.163 2.27189 12.2265 2.36876 12.3252 2.40757C12.867 2.66996 13.3045 3.10743 13.5669 3.64924C13.6087 3.7601 13.7151 3.83323 13.8335 3.83257C13.9382 3.83257 14.0343 3.7749 14.0835 3.68257C14.3437 3.13921 14.7818 2.7011 15.3252 2.44091C15.4357 2.39533 15.5057 2.28531 15.5002 2.16591C15.5066 2.05534 15.448 1.95117 15.3502 1.89924ZM13.0835 11.1326C12.7564 10.4559 12.2102 9.90973 11.5335 9.58257C11.4165 9.52304 11.3402 9.40542 11.3335 9.27424V9.22424C11.3402 9.09306 11.4165 8.97544 11.5335 8.91591C12.2057 8.58936 12.7487 8.04641 13.0752 7.37424C13.1406 7.24568 13.2726 7.16471 13.4169 7.16471C13.5611 7.16471 13.6931 7.24568 13.7585 7.37424C14.0851 8.04641 14.628 8.58936 15.3002 8.91591C15.4173 8.97544 15.4936 9.09306 15.5002 9.22424V9.27424C15.4936 9.40542 15.4173 9.52304 15.3002 9.58257C14.6236 9.90973 14.0774 10.4559 13.7502 11.1326C13.6907 11.2497 13.5731 11.3259 13.4419 11.3326H13.3919C13.2607 11.3259 13.1431 11.2497 13.0835 11.1326Z"
      />
    </svg>