<svg width="16" height="18" viewBox="0 0 16 18" fill="none" xmlns="http://www.w3.org/2000/svg">
<path fill-rule="evenodd" clip-rule="evenodd" d="M14.8334 10.7284L15.5 11.2795C15.8163 11.5366 15.9009 11.985 15.7 12.34L14.7334 14.01C14.5335 14.3352 14.1388 14.483 13.775 14.369L12.9417 14.0684C12.4499 13.8843 11.9003 13.943 11.4584 14.2271C11.2625 14.3627 11.0563 14.4827 10.8417 14.5861C10.3728 14.8271 10.0452 15.276 9.95836 15.7969L9.81669 16.6319C9.75067 17.0402 9.39618 17.3386 8.98336 17.3333H7.06669C6.65386 17.3386 6.29938 17.0402 6.23336 16.6319L6.09169 15.7969C6.00484 15.276 5.67728 14.8271 5.20836 14.5861C4.99378 14.4827 4.78759 14.3627 4.59169 14.2271C4.14978 13.943 3.60014 13.8843 3.10836 14.0684L2.27503 14.369C1.89649 14.5099 1.47159 14.3586 1.26669 14.01L0.300025 12.34C0.0991297 11.985 0.183709 11.5366 0.500025 11.2795L1.16669 10.7284C1.5709 10.3922 1.79325 9.88474 1.76669 9.35904V8.99999V8.64094C1.79325 8.11524 1.5709 7.60776 1.16669 7.27155L0.500025 6.72045C0.183709 6.46342 0.0991297 6.01497 0.300025 5.66L1.26669 3.99001C1.47005 3.64936 1.88465 3.49925 2.25836 3.63096L3.09169 3.93156C3.58348 4.11573 4.13312 4.05694 4.57503 3.77291C4.77092 3.6373 4.97711 3.51726 5.19169 3.41386C5.64781 3.16502 5.9621 2.71736 6.04169 2.20312L6.18336 1.36812C6.24938 0.959762 6.60386 0.661403 7.01669 0.666727H8.93336C9.34618 0.661403 9.70067 0.959762 9.76669 1.36812L9.90836 2.20312C9.99521 2.72393 10.3228 3.17291 10.7917 3.41386C11.0063 3.51726 11.2125 3.6373 11.4084 3.77291C11.8503 4.05694 12.3999 4.11573 12.8917 3.93156L13.725 3.63096C14.1036 3.49004 14.5285 3.64134 14.7334 3.99001L15.7 5.66C15.9009 6.01497 15.8163 6.46342 15.5 6.72045L14.8334 7.27155C14.4291 7.60776 14.2068 8.11524 14.2334 8.64094V8.99999V9.35904C14.2068 9.88474 14.4291 10.3922 14.8334 10.7284ZM5.50003 8.99999C5.50003 10.3835 6.61931 11.505 8.00003 11.505C8.66307 11.505 9.29895 11.2411 9.76779 10.7713C10.2366 10.3015 10.5 9.66435 10.5 8.99999C10.5 7.61652 9.38074 6.495 8.00003 6.495C6.61931 6.495 5.50003 7.61652 5.50003 8.99999Z" fill="#061425"/>
</svg>
