<svg width="24" height="24" viewBox="0 0 24 24" fill="none" xmlns="http://www.w3.org/2000/svg">
<path fill-rule="evenodd" clip-rule="evenodd" d="M2.83321 7.08333V4.16667C2.83321 3.24619 3.5794 2.5 4.49988 2.5H7.41654C7.64666 2.5 7.83321 2.68655 7.83321 2.91667V3.75C7.83321 3.98012 7.64666 4.16667 7.41654 4.16667H4.49988V7.08333C4.49988 7.31345 4.31333 7.5 4.08321 7.5H3.24988C3.01976 7.5 2.83321 7.31345 2.83321 7.08333ZM13.2499 4.16667H16.1665V7.08333C16.1665 7.31345 16.3531 7.5 16.5832 7.5H17.4165C17.6467 7.5 17.8332 7.31345 17.8332 7.08333V4.16667C17.8332 3.24619 17.087 2.5 16.1665 2.5H13.2499C13.0198 2.5 12.8332 2.68655 12.8332 2.91667V3.75C12.8332 3.98012 13.0198 4.16667 13.2499 4.16667ZM4.49988 15.8333H7.41654C7.64666 15.8333 7.83321 16.0199 7.83321 16.25V17.0833C7.83321 17.3135 7.64666 17.5 7.41654 17.5H4.49988C3.5794 17.5 2.83321 16.7538 2.83321 15.8333V12.9167C2.83321 12.6865 3.01976 12.5 3.24988 12.5H4.08321C4.31333 12.5 4.49988 12.6865 4.49988 12.9167V15.8333ZM17.4165 12.5H16.5832C16.3531 12.5 16.1665 12.6865 16.1665 12.9167V15.8333H13.2499C13.0198 15.8333 12.8332 16.0199 12.8332 16.25V17.0833C12.8332 17.3135 13.0198 17.5 13.2499 17.5H16.1665C17.087 17.5 17.8332 16.7538 17.8332 15.8333V12.9167C17.8332 12.6865 17.6467 12.5 17.4165 12.5ZM2.41654 9.16667H18.2499C18.48 9.16667 18.6665 9.35321 18.6665 9.58333V10.4167C18.6665 10.6468 18.48 10.8333 18.2499 10.8333H2.41654C2.18643 10.8333 1.99988 10.6468 1.99988 10.4167V9.58333C1.99988 9.35321 2.18643 9.16667 2.41654 9.16667Z" fill="#0038FF"/>
</svg>
