<svg width="24" height="24" viewBox="0 0 24 24" fill="none" xmlns="http://www.w3.org/2000/svg">
<path fill-rule="evenodd" clip-rule="evenodd" d="M17.5 6.25V5C17.5 3.61929 16.3807 2.5 15 2.5H13.75C13.5199 2.5 13.3333 2.68655 13.3333 2.91667V3.75C13.3333 3.98012 13.5199 4.16667 13.75 4.16667H15C15.4602 4.16667 15.8333 4.53976 15.8333 5V6.25C15.8333 6.48012 16.0199 6.66667 16.25 6.66667H17.0833C17.3135 6.66667 17.5 6.48012 17.5 6.25ZM5 15.8333H6.25C6.48012 15.8333 6.66667 16.0199 6.66667 16.25V17.0833C6.66667 17.3135 6.48012 17.5 6.25 17.5H5C3.61929 17.5 2.5 16.3807 2.5 15V13.75C2.5 13.5199 2.68655 13.3333 2.91667 13.3333H3.75C3.98012 13.3333 4.16667 13.5199 4.16667 13.75V15C4.16667 15.4602 4.53976 15.8333 5 15.8333ZM2.91667 6.66667H3.75C3.98012 6.66667 4.16667 6.48012 4.16667 6.25V5C4.16667 4.53976 4.53976 4.16667 5 4.16667H6.25C6.48012 4.16667 6.66667 3.98012 6.66667 3.75V2.91667C6.66667 2.68655 6.48012 2.5 6.25 2.5H5C3.61929 2.5 2.5 3.61929 2.5 5V6.25C2.5 6.48012 2.68655 6.66667 2.91667 6.66667ZM16.25 13.3333H17.0833C17.3135 13.3333 17.5 13.5199 17.5 13.75V15C17.5 16.3807 16.3807 17.5 15 17.5H13.75C13.5199 17.5 13.3333 17.3135 13.3333 17.0833V16.25C13.3333 16.0199 13.5199 15.8333 13.75 15.8333H15C15.4602 15.8333 15.8333 15.4602 15.8333 15V13.75C15.8333 13.5199 16.0199 13.3333 16.25 13.3333ZM7.5 8.75V7.08333C7.5 6.85321 7.31345 6.66667 7.08333 6.66667H6.25C6.01988 6.66667 5.83333 6.85321 5.83333 7.08333V8.75C5.83333 8.98012 6.01988 9.16667 6.25 9.16667H7.08333C7.31345 9.16667 7.5 8.98012 7.5 8.75ZM14.1667 7.08333V8.75C14.1667 8.98012 13.9801 9.16667 13.75 9.16667H12.9167C12.6865 9.16667 12.5 8.98012 12.5 8.75V7.08333C12.5 6.85321 12.6865 6.66667 12.9167 6.66667H13.75C13.9801 6.66667 14.1667 6.85321 14.1667 7.08333ZM8.75 11.6667C9.90059 11.6667 10.8333 10.7339 10.8333 9.58333V7.08333C10.8333 6.85321 10.6468 6.66667 10.4167 6.66667H9.58333C9.35321 6.66667 9.16667 6.85321 9.16667 7.08333V9.58333C9.16667 9.81345 8.98012 10 8.75 10C8.51988 10 8.33333 10.1865 8.33333 10.4167V11.25C8.33333 11.4801 8.51988 11.6667 8.75 11.6667ZM11.675 12.8833C11.8574 12.7676 12.0976 12.807 12.2333 12.975L12.7333 13.65C12.8059 13.7406 12.8364 13.8578 12.8174 13.9723C12.7983 14.0868 12.7314 14.1878 12.6333 14.25C11.8439 14.7435 10.931 15.0035 10 15C9.07237 14.9983 8.16349 14.7387 7.375 14.25C7.27827 14.1864 7.21306 14.0848 7.19558 13.9704C7.1781 13.856 7.20999 13.7395 7.28333 13.65L7.78333 12.975C7.91911 12.807 8.1593 12.7676 8.34167 12.8833C9.37783 13.4605 10.6388 13.4605 11.675 12.8833Z" fill="#0038FF"/>
</svg>
