<svg width="100%" height="100%" viewBox="0 0 21 20" fill="none" xmlns="http://www.w3.org/2000/svg">
  <path
    d="M21 10.0114C21 15.5279 16.5229 20 11 20C10.2425 20.0004 9.48749 19.9133 8.75003 19.7403C8.59803 19.7076 8.47132 19.6033 8.41003 19.4606C8.34047 19.3223 8.34047 19.1594 8.41003 19.0211L8.56003 18.7314C8.8173 18.2472 9.00577 17.7294 9.12002 17.1932L9.78003 14.0967C10.5655 14.8378 11.6212 15.2242 12.7 15.1655C15.79 15.1655 17.87 12.7483 17.87 9.17233C17.87 5.74624 14.87 3.17916 10.99 3.17916C7.11003 3.17916 4.11003 5.87609 4.11003 9.17233C4.12183 10.6933 4.7667 12.1408 5.89003 13.1678C6.01864 13.2951 6.20707 13.3412 6.38003 13.2876C6.55531 13.2404 6.68767 13.0965 6.72003 12.9181L6.92003 12.0191C6.94944 11.8667 6.90909 11.7091 6.81003 11.5896C6.2166 10.9384 5.88224 10.0928 5.87003 9.21229C5.87003 6.86496 8.16003 4.95714 10.99 4.95714C13.82 4.95714 16.11 6.7451 16.11 9.21229C16.11 11.2799 15.22 13.4774 12.7 13.4774C12.1303 13.5387 11.5597 13.3692 11.1161 13.0069C10.6725 12.6445 10.393 12.1196 10.34 11.5496L10.99 8.55304C11.1472 8.04403 11.0702 7.49162 10.78 7.04476C10.6061 6.7752 10.3193 6.59889 10 6.5653C8.53002 6.5653 8.45003 9.03249 8.45003 9.56189C8.44271 10.2114 8.49627 10.8602 8.61002 11.4997L7.33003 17.2631C7.22189 17.7514 7.17819 18.2518 7.20003 18.7514C7.20166 18.8618 7.14944 18.9662 7.06003 19.0311C6.96411 19.0864 6.84594 19.0864 6.75003 19.0311C2.25803 16.9244 -0.00775522 11.846 1.42731 7.10094C2.86238 2.35589 7.56412 -0.620137 12.4725 0.109736C17.3809 0.839608 21.0109 5.05455 21 10.0114V10.0114Z"
    fill="black"/>
</svg>
